<?xml version="1.0" standalone="no"?>
<!DOCTYPE svg PUBLIC "-//W3C//DTD SVG 1.1//EN" "http://www.w3.org/Graphics/SVG/1.1/DTD/svg11.dtd" >
<svg xmlns="http://www.w3.org/2000/svg">
<metadata></metadata>
<defs>
<font id="nokia_sans_s60regular" horiz-adv-x="1095" >
<font-face units-per-em="2048" ascent="1638" descent="-410" />
<missing-glyph horiz-adv-x="491" />
<glyph horiz-adv-x="2048" />
<glyph horiz-adv-x="2048" />
<glyph unicode="&#xd;" horiz-adv-x="0" />
<glyph horiz-adv-x="0" />
<glyph horiz-adv-x="0" />
<glyph horiz-adv-x="0" />
<glyph horiz-adv-x="0" />
<glyph unicode=" "  horiz-adv-x="491" />
<glyph unicode="&#x09;" horiz-adv-x="491" />
<glyph unicode="&#xa0;" horiz-adv-x="491" />
<glyph unicode="!" horiz-adv-x="567" d="M199 92q0 104 104 105q105 -1 105 -105t-105 -104q-104 0 -104 104zM213 483v897q0 88 86 88q92 0 92 -88v-893q0 -100 -92 -100q-86 0 -86 96z" />
<glyph unicode="&#x22;" horiz-adv-x="700" d="M121 1096v288q0 88 84 89q84 -1 84 -89v-288q0 -80 -88 -80q-80 0 -80 80zM412 1096v288q0 88 84 89q84 -1 84 -89v-288q0 -80 -88 -80q-80 0 -80 80z" />
<glyph unicode="#" d="M25 508q0 72 88 72h143l43 299h-131q-84 0 -84 65q0 72 80 72h153l56 385q12 72 76 72q72 0 71 -82q0 -10 -4 -37q0 -10 -2 -23l-45 -315h240l55 385q12 72 76 72q72 0 71 -82q0 -10 -4 -37q0 -10 -2 -23l-45 -315h127q84 0 84 -72q0 -66 -84 -65h-143l-43 -299h127 q80 0 80 -72q0 -66 -76 -66h-152l-53 -374q-12 -80 -80 -80q-70 0 -69 75l8 74l47 305h-246l-53 -374q-12 -80 -80 -80q-70 0 -70 75l9 74l47 305h-136q-80 0 -79 66zM408 580h239l45 299h-243z" />
<glyph unicode="$" horiz-adv-x="948" d="M41 168q0 84 72 84q35 0 65 -14l39 -23q2 -2 4 -2q8 -6 15 -8q41 -25 79 -37q57 -18 134 -25v570q-88 25 -154 55q-74 33 -125 76q-115 100 -115 260q0 137 121 250t273 119v100q0 35 38 35q45 0 45 -39v-96q131 -16 211 -56q100 -47 101 -117q0 -80 -84 -79q-8 0 -39 14 l-62 35l-69 33q-37 14 -58 14v-449q213 -78 304 -163q109 -104 108 -273q0 -170 -123 -295q-119 -125 -289 -141v-105q0 -43 -45 -43q-39 0 -38 43v97q-150 0 -279 59q-129 57 -129 121zM248 1112q0 -141 201 -213v418q-201 -18 -201 -205zM532 152q219 41 220 284 q0 162 -220 244v-528z" />
<glyph unicode="%" horiz-adv-x="1523" d="M92 1116q0 156 80 252q86 104 238 105q141 -1 227 -103q82 -100 82 -254q0 -145 -84 -239q-86 -96 -229 -97q-135 0 -224 94q-90 94 -90 242zM229 1122q0 -96 45 -161q49 -70 132 -70q176 0 176 231q0 102 -41 168q-47 72 -135 72q-87 0 -136 -78q-41 -68 -41 -162z M401 18q0 18 17 58l565 1356q25 57 68 57q71 0 71 -57q0 -20 -14 -54l-561 -1358q-20 -49 -76 -49q-70 0 -70 47zM805 324q0 156 80 251q86 104 237 105q142 0 228 -102q82 -100 82 -254q0 -145 -84 -240q-86 -96 -230 -96q-135 0 -223 94q-90 94 -90 242zM942 330 q0 -96 45 -162q49 -70 131 -70q176 0 176 232q0 102 -41 168q-47 72 -135 71q-86 1 -135 -77q-41 -68 -41 -162z" />
<glyph unicode="&#x26;" horiz-adv-x="1368" d="M72 416q0 279 327 473q-159 159 -159 315q0 127 104 201q94 68 231 68t236 -68q111 -76 111 -201q0 -209 -271 -348l326 -387q27 35 59 88l54 86q57 92 102 92q76 0 76 -59q0 -82 -66 -172q-12 -18 -31 -39l-92 -113l189 -227q25 -31 24 -70q0 -68 -80 -67q-35 0 -59 28 l-176 207q-186 -236 -461 -235q-188 0 -315 121q-129 123 -129 307zM250 432q0 -115 80 -194q80 -82 202 -82q207 0 340 188l-372 428q-250 -133 -250 -340zM418 1180q0 -78 135 -211q190 98 190 219q0 147 -168 147q-158 0 -157 -155z" />
<glyph unicode="'" horiz-adv-x="409" d="M121 1096v288q0 88 84 89q84 -1 84 -89v-288q0 -80 -88 -80q-80 0 -80 80z" />
<glyph unicode="(" horiz-adv-x="415" d="M66 625q0 496 124 807q31 76 93 75q63 1 63 -67q0 -8 -4 -27l-14 -45l-17 -65q-12 -43 -20 -84q-27 -113 -39 -230q-18 -152 -19 -313q0 -182 19 -348q14 -131 41 -248q8 -47 20 -90l33 -107q4 -14 4 -18q0 -70 -76 -70q-49 0 -79 70q-129 281 -129 760z" />
<glyph unicode=")" horiz-adv-x="415" d="M66 -135q0 4 4 18l32 107q12 43 23 90q25 117 39 248q18 166 18 348q0 162 -18 313q-12 117 -37 230l-53 194q-4 18 -4 27q0 68 63 67q61 1 92 -75q125 -311 125 -807q0 -479 -129 -760q-31 -70 -80 -70q-76 0 -75 70z" />
<glyph unicode="*" horiz-adv-x="796" d="M72 1243q0 74 75 74q66 0 201 -129q0 14 -4 47q-2 25 -8 65q0 8 -2 17l-2 16q-4 18 -4 29l-4 33q0 78 75 78q72 0 72 -72l-8 -101q-6 -39 -8 -61l-2 -51q66 63 106 92q53 37 92 37q70 0 70 -74q0 -37 -41 -55l-188 -80l196 -80q37 -14 37 -59q0 -72 -74 -72q-31 0 -67 31 l-131 104q0 -37 10 -112l8 -89q0 -88 -76 -88q-31 0 -53 29q-18 23 -18 45q0 6 4 25l8 39q12 66 12 151q-154 -135 -205 -135q-68 0 -67 76q0 39 41 55l190 80l-143 49q-92 29 -92 86z" />
<glyph unicode="+" horiz-adv-x="1228" d="M96 520q0 84 76 84h360v357q0 80 84 79q84 0 84 -79v-357h357q80 0 80 -84t-84 -84h-353v-356q0 -80 -84 -80t-84 84v352h-360q-76 0 -76 84z" />
<glyph unicode="," horiz-adv-x="479" d="M41 -180q0 23 31 84l121 235q31 57 83 58q80 0 80 -80q0 -39 -18 -74l-125 -244q-29 -59 -92 -59q-80 0 -80 80z" />
<glyph unicode="-" horiz-adv-x="720" d="M76 547q0 80 76 80h411q76 0 76 -80q0 -76 -76 -76h-411q-76 0 -76 76z" />
<glyph unicode="." horiz-adv-x="491" d="M152 92q0 104 104 105q104 -1 104 -105t-104 -104t-104 104z" />
<glyph unicode="/" horiz-adv-x="831" d="M37 63q0 25 10 50l582 1298q27 61 84 62q80 0 80 -76q0 -18 -9 -41l-579 -1305q-27 -63 -88 -63q-80 0 -80 75z" />
<glyph unicode="0" d="M68 756q0 119 26 235q29 131 84 234q61 115 150 178q100 70 225 70t223 -70q86 -63 148 -176q55 -102 82 -236q27 -119 26 -239q0 -135 -24 -260q-27 -141 -80 -248q-59 -119 -148 -185q-98 -72 -227 -71q-135 0 -236 73q-90 66 -149 189q-53 106 -78 248 q-23 125 -22 258zM260 748q0 -96 10 -185q12 -115 41 -198q35 -102 90 -158q63 -63 152 -64q82 0 141 58q53 51 88 145q31 80 45 184q12 90 13 183q0 109 -11 200q-14 113 -43 195q-35 98 -90 149q-61 59 -151 60q-80 -1 -139 -60q-51 -51 -87 -145q-31 -82 -47 -186 q-12 -90 -12 -178z" />
<glyph unicode="1" horiz-adv-x="720" d="M68 1380q0 80 88 80h301q57 0 57 -59v-1317q0 -96 -90 -96q-88 0 -88 96v1221h-184q-84 0 -84 75z" />
<glyph unicode="2" d="M104 1016q0 203 132 330q129 127 335 127q162 0 277 -111q117 -111 117 -270q0 -150 -109 -295l-483 -641h555q76 0 76 -80q0 -76 -80 -76h-719q-88 0 -88 63q0 35 22 66l553 743q76 100 76 215q0 96 -70 164q-68 66 -161 66q-113 0 -189 -94q-72 -88 -72 -207 q0 -115 -92 -115q-80 0 -80 115z" />
<glyph unicode="3" d="M80 328q0 96 88 96q63 0 88 -80q66 -201 248 -201q104 0 190 72q90 76 90 180q0 293 -247 293q-121 0 -121 72q0 55 125 88q176 45 176 264q0 84 -58 143q-59 61 -147 62q-100 0 -160 -70q-49 -59 -49 -143q0 -92 -84 -92t-84 129q0 127 105 223q117 109 301 109 q150 0 254 -115q100 -113 100 -266q0 -203 -168 -308q119 -35 180 -133q55 -92 56 -223q0 -190 -119 -311q-127 -129 -352 -129q-172 0 -297 114q-115 104 -115 226z" />
<glyph unicode="4" d="M16 428q0 33 43 104l529 857q51 84 139 84q135 -1 135 -146v-795h94q80 0 80 -83q0 -72 -88 -72h-86v-293q0 -96 -90 -96q-88 0 -88 92v297h-580q-88 0 -88 51zM252 532h432v748h-4z" />
<glyph unicode="5" d="M88 227q0 76 64 76q45 0 90 -47q96 -100 254 -100q121 0 202 84q82 84 82 217q0 145 -59 229q-66 94 -197 94q-35 0 -73 -8q-29 -6 -68 -18q-8 -4 -16 -6l-43 -15q-31 -8 -48 -8q-61 0 -61 63l92 619q8 53 62 53h516q76 0 76 -80q0 -76 -80 -75h-412l-61 -398 q88 41 184 41q176 0 282 -137q98 -129 99 -315q0 -217 -121 -359q-129 -150 -348 -149q-178 0 -305 84q-111 76 -111 155z" />
<glyph unicode="6" d="M104 508q0 143 43 280q41 125 117 248q70 111 170 219q86 94 199 189q33 29 63 29q72 0 72 -89q0 -51 -78 -110q-74 -55 -141 -144q-76 -94 -162 -245h4q115 59 225 59q176 0 281 -158q94 -139 94 -333q0 -195 -129 -328q-129 -137 -321 -137q-197 0 -320 153 q-117 147 -117 367zM293 469q0 -313 248 -313q129 0 196 96q61 84 62 223q0 313 -246 313q-116 1 -184 -73q-76 -82 -76 -246z" />
<glyph unicode="7" horiz-adv-x="983" d="M47 1393q0 80 88 80h746q92 0 92 -50q0 -23 -21 -71l-565 -1284q-35 -80 -111 -80q-72 0 -71 71q0 29 18 72l529 1186h-613q-92 0 -92 76z" />
<glyph unicode="8" d="M100 449q0 131 68 229q74 106 201 137q-193 96 -193 313q0 145 103 244q104 100 262 101q168 0 274 -95q109 -96 109 -250q0 -225 -193 -317q127 -27 199 -133q68 -98 67 -234q0 -184 -123 -317q-127 -139 -321 -139q-195 0 -324 135q-129 131 -129 326zM293 436 q0 -117 67 -203q74 -90 185 -90q125 0 196 90q63 82 64 207q0 117 -64 199q-72 92 -196 92q-113 0 -185 -92q-68 -84 -67 -203zM344 1104q0 -217 209 -217q203 0 203 221q0 209 -201 209q-211 0 -211 -213z" />
<glyph unicode="9" d="M104 991q0 205 127 342q127 139 324 140q199 0 319 -158q113 -150 113 -367q0 -131 -43 -268q-41 -127 -117 -252q-139 -231 -362 -412q-35 -29 -70 -28q-72 0 -71 80q0 29 65 94l62 59q37 37 61 64q111 127 197 290h-4q-100 -59 -222 -59q-100 0 -180 47 q-68 43 -117 121q-41 66 -63 154q-18 78 -19 153zM297 985q0 -313 248 -313q119 0 188 76q76 82 76 239q0 135 -64 223q-70 94 -190 95q-127 -1 -197 -95q-61 -84 -61 -225z" />
<glyph unicode=":" horiz-adv-x="491" d="M152 92q0 104 104 105q104 -1 104 -105t-104 -104t-104 104zM152 780q0 104 104 105q104 -1 104 -105t-104 -104t-104 104z" />
<glyph unicode=";" horiz-adv-x="491" d="M45 -180q0 23 31 84l121 235q31 57 84 58q79 0 79 -80q0 -39 -18 -74l-125 -244q-29 -59 -92 -59q-80 0 -80 80zM152 780q0 104 104 105q104 -1 104 -105t-104 -104t-104 104z" />
<glyph unicode="&#x3c;" horiz-adv-x="1228" d="M90 512q0 63 68 96l848 424q37 16 63 17q70 0 70 -68q0 -53 -66 -84l-768 -377l780 -389q49 -23 50 -76q0 -68 -70 -67q-8 0 -21 4q-18 4 -34 12l-865 428q-55 29 -55 80z" />
<glyph unicode="=" horiz-adv-x="1228" d="M104 307q0 80 76 80h873q76 0 75 -80q0 -76 -75 -76h-873q-76 0 -76 76zM104 735q0 80 76 80h873q76 0 75 -80q0 -76 -75 -76h-873q-76 0 -76 76z" />
<glyph unicode="&#x3e;" horiz-adv-x="1228" d="M90 981q0 68 70 68q27 0 63 -17l848 -424q68 -33 68 -96q-1 -51 -56 -80l-864 -428q-16 -8 -33 -12q-14 -4 -22 -4q-70 0 -70 67q0 53 49 76l781 389l-768 377q-66 31 -66 84z" />
<glyph unicode="?" horiz-adv-x="907" d="M37 1163q0 127 127 219q123 90 276 91q170 0 299 -101q137 -109 138 -266q0 -340 -349 -414v-213q0 -92 -92 -92q-86 0 -86 92v273q0 78 148 106q74 14 123 62q55 57 55 147q0 238 -240 238q-176 0 -215 -131q-33 -113 -108 -113q-76 0 -76 102zM336 92q0 104 104 105 q105 -1 105 -105t-105 -104q-104 0 -104 104z" />
<glyph unicode="@" horiz-adv-x="1640" d="M76 717q0 164 65 309q61 135 174 240q223 207 512 207q297 0 510 -162q229 -174 230 -451q0 -240 -162 -411q-154 -160 -344 -160q-133 0 -146 119h-8q-98 -119 -243 -119q-127 0 -213 100q-84 94 -84 227q0 180 112 338q61 86 144 133q94 53 204 54q166 0 240 -154 l29 84q20 61 67 62q76 0 76 -54q0 -8 -4 -30l-133 -459q-23 -80 -23 -103q0 -61 58 -61q86 0 174 117q100 131 100 301q0 221 -174 358q-166 133 -414 133q-236 0 -409 -166q-186 -178 -187 -452q0 -246 183 -420q178 -172 421 -172q266 0 469 168q68 55 109 55q51 0 51 -49 q0 -86 -196 -195q-96 -53 -203 -81q-121 -35 -234 -35q-297 0 -520 211q-231 217 -231 518zM545 633q0 -80 53 -135q51 -53 115 -54q121 0 205 136q74 121 73 256q0 150 -123 149q-145 0 -237 -104q-86 -100 -86 -248z" />
<glyph unicode="A" horiz-adv-x="1253" d="M16 59q0 6 4 25l480 1284q41 104 125 105q90 0 127 -101l477 -1263q4 -12 6 -29q2 -12 2 -25q0 -71 -82 -71h-2q-66 0 -92 67l-96 264h-676l-96 -264q-25 -67 -91 -67h-2q-84 0 -84 75zM344 471h567l-282 793h-4z" />
<glyph unicode="B" horiz-adv-x="1122" d="M121 96v1268q0 96 92 96h328q150 0 264 -96q121 -100 121 -246q0 -109 -47 -196q-55 -98 -154 -129v-5q150 -25 233 -129q80 -98 80 -237q0 -176 -131 -299q-133 -123 -327 -123h-361q-98 0 -98 96zM299 156h242q137 0 225 67q94 74 94 201q0 123 -86 199q-81 73 -211 73 h-4h-260v-540zM299 844h209q104 0 172 65q68 66 68 166q0 96 -60 162q-61 68 -160 68h-229v-461z" />
<glyph unicode="C" horiz-adv-x="1243" d="M72 709q0 319 157 530q176 233 488 234q139 0 272 -60q156 -68 156 -166q0 -76 -76 -76q-26 0 -57 23l-60 51q-43 33 -88 49q-59 23 -135 23q-221 0 -352 -187q-113 -162 -113 -387q0 -233 101 -399q55 -94 135 -143q88 -57 200 -58q86 0 156 21q53 14 105 45q10 4 20 10 l53 33q39 20 70 20q67 0 67 -77q0 -55 -55 -99q-47 -37 -131 -63q-70 -23 -151 -35q-70 -10 -121 -10q-293 0 -473 219q-168 205 -168 502z" />
<glyph unicode="D" horiz-adv-x="1292" d="M121 80v1284q0 96 94 96h369q303 0 479 -223q158 -203 158 -502q0 -309 -152 -512q-168 -223 -469 -223h-385q-94 0 -94 80zM299 156h281q225 0 344 180q104 158 104 412q0 246 -125 399q-129 158 -348 158h-256v-1149z" />
<glyph unicode="E" horiz-adv-x="907" d="M121 100v1260q0 100 76 100h551q75 0 75 -82q0 -86 -80 -86h-444v-481h406q79 0 79 -82q0 -86 -84 -86h-401v-475h449q75 0 75 -86q0 -82 -88 -82h-526q-88 0 -88 100z" />
<glyph unicode="F" horiz-adv-x="845" d="M121 86v1274q0 100 76 100h551q67 0 67 -85q0 -83 -84 -83h-432v-481h389q80 0 80 -86q0 -82 -76 -82h-393v-559q0 -96 -90 -96q-88 0 -88 98z" />
<glyph unicode="G" horiz-adv-x="1402" d="M72 709q0 322 166 534q178 229 479 230q176 -1 338 -64q182 -74 182 -176q0 -80 -88 -80q-29 0 -68 27q-8 4 -18 12l-62 43q-55 37 -110 57q-74 25 -162 25q-217 0 -346 -176q-119 -162 -119 -398q0 -231 101 -399q55 -94 135 -143q88 -57 200 -58q201 0 324 117 q129 123 129 332v76h-260q-84 0 -84 80q0 88 76 88h327q119 0 119 -136v-47q0 -307 -143 -477q-158 -188 -475 -188q-289 0 -473 227q-168 209 -168 494z" />
<glyph unicode="H" horiz-adv-x="1368" d="M121 84v1292q0 96 92 97q86 0 86 -97v-569h770v569q0 96 92 97q86 0 86 -97v-1288q0 -100 -86 -100q-92 0 -92 96v567h-770v-563q0 -100 -86 -100q-92 0 -92 96z" />
<glyph unicode="I" horiz-adv-x="419" d="M121 84v1292q0 96 92 97q86 -1 86 -97v-1288q0 -100 -86 -100q-92 0 -92 96z" />
<glyph unicode="J" horiz-adv-x="757" d="M-18 147q0 76 71 76q28 0 53 -12q10 -4 23 -12l21 -15q29 -20 57 -28q41 -12 94 -13q158 0 158 201v1032q0 96 92 97q86 0 86 -97v-995q0 -76 -14 -139q-16 -74 -52 -127q-82 -127 -262 -127q-109 0 -211 43q-117 49 -116 116z" />
<glyph unicode="K" horiz-adv-x="1146" d="M121 84v1292q0 96 92 97q86 -1 86 -97v-532l645 592q43 37 80 37q76 0 76 -84q0 -45 -35 -76l-600 -541l663 -641q31 -27 31 -72q0 -71 -86 -71h-2q-47 0 -90 41l-682 667v-608q0 -100 -86 -100q-92 0 -92 96z" />
<glyph unicode="L" horiz-adv-x="782" d="M121 109v1267q0 96 92 97q86 -1 86 -105v-1200h369q104 0 104 -80q0 -88 -76 -88h-491q-84 0 -84 109z" />
<glyph unicode="M" horiz-adv-x="1734" d="M72 92l4 41l211 1215q23 125 135 125q104 -1 133 -97l311 -1069h4l312 1077q27 88 129 89q121 0 139 -117l205 -1200q2 -8 2 -15q6 -31 6 -39q0 -114 -86 -114h-2q-82 0 -92 80l-168 1175l-357 -1184q-20 -71 -86 -71h-2q-70 0 -92 71l-352 1184l-170 -1167 q-14 -88 -100 -88q-84 0 -84 104z" />
<glyph unicode="N" horiz-adv-x="1368" d="M121 80v1294q0 98 76 99q61 0 108 -66l762 -1094h2v1063q0 96 86 97q92 0 92 -97v-1300q0 -88 -80 -88q-63 0 -100 53l-766 1102h-2v-1067q0 -88 -90 -88q-88 0 -88 92z" />
<glyph unicode="O" horiz-adv-x="1423" d="M72 727q0 315 172 526q180 219 469 220q153 -1 280 -64q115 -59 199 -170q160 -209 160 -512q0 -317 -174 -524q-178 -215 -465 -215q-285 0 -465 217q-176 209 -176 522zM264 731q0 -244 103 -401q119 -186 346 -187q223 0 342 185q104 160 104 403q0 254 -102 410 q-117 176 -344 176q-217 0 -338 -178q-111 -162 -111 -408z" />
<glyph unicode="P" horiz-adv-x="1114" d="M121 80v1284q0 96 88 96h362q213 0 344 -129q127 -129 127 -327q0 -195 -131 -328q-129 -131 -315 -131h-297v-469q0 -88 -90 -88q-88 0 -88 92zM299 700h256q133 0 221 86q88 88 88 222q0 135 -84 217q-84 80 -217 80h-264v-605z" />
<glyph unicode="Q" horiz-adv-x="1425" d="M72 727q0 311 168 522q180 223 473 224q287 -1 469 -224q172 -211 172 -522q0 -258 -129 -459l168 -168q16 -18 16 -57q0 -68 -80 -68q-35 0 -61 25l-148 143q-171 -155 -404 -155h-3q-281 0 -461 211q-180 207 -180 528zM264 731q0 -242 103 -401q119 -186 346 -187 q174 0 291 117l-132 127q-33 29 -32 66q0 75 73 75h2q47 0 89 -43l88 -90q69 152 69 331v5q0 260 -110 416q-121 170 -338 170t-338 -178q-111 -160 -111 -408z" />
<glyph unicode="R" d="M121 80v1284q0 96 88 96h350q178 0 301 -112q133 -123 133 -324q0 -193 -137 -289q-125 -88 -336 -88l467 -512q37 -39 37 -80q0 -67 -82 -67h-2q-47 0 -84 41l-557 612v-565q0 -88 -90 -88q-88 0 -88 92zM299 784h254q262 0 262 265q0 113 -76 184q-78 72 -194 72h-246 v-521z" />
<glyph unicode="S" horiz-adv-x="1042" d="M152 256q16 0 49 -18q6 -2 16 -9q2 0 8 -4q4 -4 8 -4l19 -10q10 -6 20 -10q49 -27 99 -39q66 -18 135 -19q111 0 192 88q80 86 80 197q0 113 -100 186q-41 29 -103 56q-43 16 -114 41q-90 31 -146 55q-74 35 -118 74q-111 92 -111 247q0 166 139 279q129 106 297 107 q128 0 230 -41q122 -49 122 -131v-1q0 -79 -81 -79h-2q-14 0 -50 14l-69 35q-47 20 -80 33q-47 14 -82 14q-98 0 -164 -60q-67 -60 -67 -150v-3q0 -86 83 -146q37 -27 93 -51q43 -18 110 -43q98 -35 152 -59q80 -35 131 -78q123 -102 123 -283q0 -195 -137 -325 q-139 -131 -351 -131q-137 0 -262 45q-149 53 -149 138t80 85z" />
<glyph unicode="T" horiz-adv-x="948" d="M20 1376q0 84 89 84h731q88 0 88 -84t-80 -84h-285v-1212q0 -92 -90 -92q-88 0 -88 92v1212h-281q-84 0 -84 84z" />
<glyph unicode="U" horiz-adv-x="1368" d="M121 559v821q0 92 88 93q90 -1 90 -93v-876q0 -170 117 -268q109 -92 280 -93q164 0 269 101q104 102 104 260v876q0 92 86 93q92 0 92 -93v-817q0 -575 -555 -575q-281 0 -430 159q-141 152 -141 412z" />
<glyph unicode="V" horiz-adv-x="1187" d="M31 1380q0 92 80 93q73 -1 104 -93l377 -1087h4l385 1112q23 68 96 68q80 0 80 -84q0 -10 -2 -23q-2 -16 -6 -27l-453 -1263q-31 -88 -108 -88q-63 0 -92 80l-459 1282q-6 20 -6 30z" />
<glyph unicode="W" horiz-adv-x="1732" d="M72 1360q0 113 84 113t96 -80l168 -1180l356 1188q23 72 84 72q74 0 96 -72l353 -1188l170 1171q14 88 96 89q86 0 86 -109q0 -12 -2 -29q-2 -23 -8 -53l-201 -1165q-20 -129 -141 -129q-104 0 -135 108l-306 1053h-4l-307 -1063q-27 -98 -139 -98q-113 0 -135 125 l-207 1212q-4 27 -4 35z" />
<glyph unicode="X" horiz-adv-x="1245" d="M31 63q0 27 24 62l463 659l-383 539q-33 43 -33 82q0 68 80 68q59 -1 92 -50l349 -508l348 508q35 49 88 50q76 0 76 -76q0 -37 -25 -74l-383 -539l463 -653q25 -33 24 -72q0 -71 -82 -71h-2q-47 0 -79 45l-428 608l-428 -608q-31 -45 -84 -45q-80 0 -80 75z" />
<glyph unicode="Y" horiz-adv-x="1060" d="M20 1401q0 72 80 72q57 -1 88 -50l344 -559l345 555q31 53 84 54q79 0 79 -74q0 -35 -22 -70l-395 -645v-608q0 -88 -91 -88q-88 0 -88 96v604l-399 647q-25 39 -25 66z" />
<glyph unicode="Z" horiz-adv-x="1150" d="M51 80q0 29 29 76l760 1149h-664q-88 0 -88 75q0 80 92 80h801q92 0 92 -71q0 -37 -33 -84l-764 -1149h740q84 0 84 -76q0 -80 -88 -80h-856q-104 0 -105 80z" />
<glyph unicode="[" horiz-adv-x="460" d="M121 -72v1444q0 100 96 101h139q80 0 80 -80q0 -76 -76 -76h-71v-1329h67q80 0 80 -80q0 -76 -86 -76h-133q-96 0 -96 96z" />
<glyph unicode="\" horiz-adv-x="831" d="M37 1401q0 76 76 76q63 -1 88 -54l583 -1310q12 -31 13 -62q0 -72 -76 -71q-59 0 -84 57l-582 1298q-18 41 -18 66z" />
<glyph unicode="]" horiz-adv-x="460" d="M25 -92q0 80 79 80h68v1329h-72q-76 0 -75 76q0 80 79 80h140q96 0 96 -101v-1444q0 -96 -96 -96h-133q-86 0 -86 76z" />
<glyph unicode="^" horiz-adv-x="1228" d="M113 659q0 20 16 50l391 700q35 63 92 64q62 0 101 -68l391 -696q12 -25 12 -50q0 -72 -76 -71q-45 0 -79 63l-345 641l-356 -651q-29 -53 -76 -53q-72 0 -71 71z" />
<glyph unicode="_" horiz-adv-x="1024" d="M-63 -203q0 51 59 51h1028q63 0 63 -53q0 -51 -63 -51h-1024q-63 0 -63 53z" />
<glyph unicode="`" horiz-adv-x="415" d="M43 1389q0 70 82 69q45 0 90 -57l147 -189q31 -41 31 -82q0 -70 -67 -69q-53 0 -105 65l-149 195q-29 35 -29 68z" />
<glyph unicode="a" horiz-adv-x="1138" d="M72 541q0 231 123 393q131 170 344 170q174 0 307 -148h4v60q0 88 84 88t84 -92v-932q0 -92 -84 -92t-84 84v80h-4q-119 -164 -285 -164q-219 0 -356 159q-133 156 -133 394zM250 545q0 -154 65 -266q80 -135 224 -136q160 0 241 125q70 106 70 277q0 164 -74 276 q-84 127 -229 127q-139 0 -221 -123q-76 -113 -76 -280z" />
<glyph unicode="b" horiz-adv-x="1130" d="M121 80v1409q0 94 86 94q92 0 92 -90v-537h4q115 147 293 148q209 0 340 -174q123 -162 123 -389q0 -225 -121 -381q-133 -172 -363 -172q-195 0 -272 147h-4v-59q0 -88 -92 -88q-86 0 -86 92zM354 266q84 -123 242 -123q141 0 219 138q66 113 66 268q0 160 -72 272 q-80 127 -217 127q-148 0 -232 -119q-79 -112 -79 -280q0 -174 73 -283z" />
<glyph unicode="c" horiz-adv-x="925" d="M72 520q0 252 118 412q129 172 363 172q104 0 192 -31q109 -39 109 -108q0 -72 -80 -72q-8 0 -33 8l-36 14q-8 2 -15 7q-75 26 -125 26h-4q-145 0 -231 -129q-80 -119 -80 -282q0 -154 76 -265q86 -129 235 -129q72 0 133 33l41 23q23 10 43 10q68 0 68 -80 q0 -78 -105 -115q-39 -14 -92 -20q-43 -6 -88 -6q-223 0 -360 159q-129 152 -129 373z" />
<glyph unicode="d" horiz-adv-x="1130" d="M72 541q0 223 121 387q129 176 339 176q184 0 295 -148h4v537q0 90 89 90q90 0 90 -94v-1409q0 -92 -90 -92q-88 0 -89 88v59h-4q-80 -147 -272 -147q-229 0 -360 168q-123 154 -123 385zM250 535q0 -154 67 -263q78 -129 220 -129q158 0 243 127q72 109 72 275 q0 162 -74 276q-84 127 -225 127q-145 0 -229 -133q-74 -117 -74 -280z" />
<glyph unicode="e" horiz-adv-x="1099" d="M72 555q0 213 131 377q139 172 348 172t346 -162q131 -156 131 -379q0 -88 -98 -88h-680q0 -154 94 -244q90 -88 238 -88q74 0 139 23q51 18 100 51q8 6 21 12l16 15q4 0 8 6l25 16q33 23 51 23q63 0 64 -76q0 -76 -138 -150q-137 -75 -293 -75h-4q-233 0 -368 157 q-131 154 -131 410zM250 612h600q0 145 -76 238q-80 98 -215 98q-139 0 -225 -96q-84 -92 -84 -240z" />
<glyph unicode="f" horiz-adv-x="571" d="M12 1020q0 72 92 72h72v260q0 100 70 166q65 65 163 65h3q159 0 159 -84q0 -72 -92 -72h-55q-70 0 -70 -86v-249h117q88 0 88 -72q0 -84 -88 -84h-117v-856q0 -92 -90 -92q-88 0 -88 92v856h-76q-88 0 -88 84z" />
<glyph unicode="g" horiz-adv-x="1130" d="M72 553q0 231 127 387q135 164 354 164q193 0 272 -150h6v58q0 92 87 92q92 0 92 -96v-932q0 -219 -117 -361q-130 -159 -364 -159h-3q-143 0 -284 65q-143 68 -144 143q0 76 72 76q37 0 74 -20q14 -6 35 -21l36 -22q49 -31 91 -45q59 -20 129 -21q147 0 227 121 q70 106 69 270v41h-6q-81 -155 -287 -155h-3q-213 0 -345 178q-119 162 -118 387zM250 545q0 -160 67 -271q80 -131 222 -131q147 0 233 115q78 106 78 274q0 162 -74 279q-86 137 -241 137q-138 0 -218 -133q-68 -113 -67 -270z" />
<glyph unicode="h" horiz-adv-x="1103" d="M121 80v1409q0 94 88 94q90 0 90 -94v-524l4 -4q109 143 293 143q170 0 281 -121q106 -117 106 -283v-620q0 -92 -90 -92q-88 0 -88 92v596q0 117 -66 192q-70 80 -184 80q-111 0 -182 -76q-74 -78 -74 -192v-600q0 -92 -90 -92q-88 0 -88 92z" />
<glyph unicode="i" horiz-adv-x="419" d="M96 1360q0 113 113 113t113 -113t-113 -113t-113 113zM121 80v928q0 96 88 96q90 0 90 -92v-932q0 -92 -90 -92q-88 0 -88 92z" />
<glyph unicode="j" horiz-adv-x="419" d="M-2 -356q0 90 113 90h2v1274q0 96 88 96q90 0 90 -92v-1364q0 -92 -90 -92q-18 0 -33 4q-25 -8 -57 -9q-113 0 -113 93zM96 1360q0 113 113 113t113 -113t-113 -113t-113 113z" />
<glyph unicode="k" horiz-adv-x="942" d="M121 80v1413q0 86 88 86q90 0 90 -90v-772l414 348q47 39 84 39q75 0 75 -82q0 -39 -32 -66l-424 -335l475 -467q41 -39 41 -95q0 -71 -74 -71h-2q-49 0 -92 45l-465 483v-436q0 -92 -90 -92q-88 0 -88 92z" />
<glyph unicode="l" horiz-adv-x="419" d="M121 80v1403q0 96 88 96q90 0 90 -92v-1407q0 -92 -90 -92q-88 0 -88 92z" />
<glyph unicode="m" horiz-adv-x="1705" d="M121 76v940q0 88 92 88q86 0 86 -96v-35h4q104 131 281 131q184 0 293 -184q135 184 344 184q168 0 268 -113q96 -109 96 -278v-637q0 -88 -90 -88q-88 0 -88 88v612q0 260 -231 260q-233 0 -234 -239v-633q0 -88 -90 -88q-88 0 -88 88v612q0 260 -232 260 q-233 0 -233 -239v-633q0 -88 -90 -88q-88 0 -88 88z" />
<glyph unicode="n" horiz-adv-x="1103" d="M121 80v930q0 94 88 94q90 0 90 -94v-45l4 -4q109 143 293 143q170 0 281 -121q106 -117 106 -283v-620q0 -92 -90 -92q-88 0 -88 92v596q0 117 -66 192q-70 80 -184 80q-111 0 -182 -76q-74 -78 -74 -192v-600q0 -92 -90 -92q-88 0 -88 92z" />
<glyph unicode="o" horiz-adv-x="1101" d="M72 545q0 242 133 399q135 160 348 160q219 0 352 -170q125 -158 125 -389t-127 -389q-133 -168 -350 -168t-352 168q-129 160 -129 389zM250 545q0 -160 69 -273q82 -129 230 -129q154 0 235 129q68 109 68 273q0 166 -72 278q-82 125 -227 125q-149 0 -231 -127 q-72 -113 -72 -276z" />
<glyph unicode="p" horiz-adv-x="1130" d="M121 -352v1360q0 96 86 96q92 0 92 -92v-56h4q76 147 272 148q229 0 363 -168q121 -154 121 -383q0 -236 -121 -395q-129 -170 -342 -170q-182 0 -293 147h-4v-483q0 -109 -88 -109q-90 0 -90 105zM281 549q0 -174 73 -285q80 -121 226 -121q145 0 227 129q74 113 74 273 q0 162 -66 272q-78 131 -219 131q-160 0 -244 -129q-72 -109 -71 -270z" />
<glyph unicode="q" horiz-adv-x="1128" d="M72 553q0 229 129 387q135 164 350 164q197 0 274 -148h4v56q0 92 89 92q90 0 90 -96v-1360q0 -104 -95 -105q-84 0 -84 109v483h-8q-94 -147 -291 -147q-209 0 -340 176q-119 162 -118 389zM250 545q0 -164 72 -277q80 -125 217 -125q147 0 231 121q76 106 76 273 q0 162 -74 276q-86 135 -242 135q-135 0 -213 -133q-68 -115 -67 -270z" />
<glyph unicode="r" horiz-adv-x="647" d="M121 84v924q0 96 88 96q90 0 90 -96v-93h4q41 74 103 127q72 61 139 62q102 0 102 -92q0 -61 -72 -88l-71 -21q-45 -14 -74 -31q-131 -76 -131 -264v-528q0 -92 -86 -92q-92 0 -92 96z" />
<glyph unicode="s" horiz-adv-x="946" d="M72 197q0 79 76 79h2q27 0 61 -20l70 -45q45 -33 84 -47q53 -20 108 -21q88 0 150 33q73 38 73 115q0 70 -80 123q-33 23 -84 45q-37 16 -98 39q-74 27 -119 49q-61 29 -100 61q-94 76 -94 193q0 127 102 215q104 88 254 88q119 0 236 -49q139 -57 139 -144 q0 -80 -80 -80q-12 0 -49 19l-53 29q-12 6 -21 12q-49 27 -80 39q-45 18 -73 18q-197 0 -197 -137q0 -104 244 -186q84 -29 133 -52q63 -29 104 -61q94 -78 94 -205q0 -141 -116 -231q-113 -88 -281 -88q-154 0 -282 67q-123 68 -123 142z" />
<glyph unicode="t" horiz-adv-x="520" d="M8 1012q0 80 88 80h80v243q0 84 88 84q90 0 90 -88v-239h82q84 0 84 -80q0 -76 -76 -76h-90v-860q0 -88 -94 -88q-84 0 -84 92v856h-80q-88 0 -88 76z" />
<glyph unicode="u" horiz-adv-x="1103" d="M121 412v600q0 92 88 92q90 0 90 -92v-596q0 -272 250 -273q256 0 256 273v596q0 92 88 92q90 0 90 -92v-600q0 -188 -115 -303q-121 -121 -323 -121q-193 0 -307 110q-117 115 -117 314z" />
<glyph unicode="v" horiz-adv-x="876" d="M10 1016q0 88 84 88q71 0 96 -76l248 -752l256 764q20 63 84 64q88 0 88 -84q0 -8 -4 -25l-10 -34l-317 -898q-27 -75 -95 -75h-2q-66 0 -92 71l-319 893q-16 45 -17 64z" />
<glyph unicode="w" horiz-adv-x="1558" d="M20 1030q0 74 89 74q78 -1 96 -64l241 -772l5 -4l233 744q33 96 98 96q70 0 101 -100l235 -736h4l236 756q25 80 96 80q84 0 84 -88q0 -20 -14 -62l-301 -878q-29 -88 -101 -88t-104 100l-232 727h-4l-227 -711q-37 -116 -112 -116h-1q-72 0 -108 108l-299 871 q-14 43 -15 63z" />
<glyph unicode="x" horiz-adv-x="948" d="M10 68q0 41 35 84l330 423l-289 377q-33 43 -33 78q0 74 80 74q47 0 78 -39l266 -356l264 352q31 43 76 43q78 0 78 -84q0 -29 -25 -64l-288 -381l317 -413q39 -51 39 -103q0 -71 -74 -71h-2q-53 0 -96 61l-289 400l-299 -416q-33 -45 -88 -45q-80 0 -80 80z" />
<glyph unicode="y" horiz-adv-x="886" d="M31 1028q0 76 84 76q71 0 94 -68l248 -747h4l248 751q20 63 84 64q84 0 84 -88q0 -18 -15 -62l-467 -1327q-29 -80 -98 -80q-74 0 -74 84q0 20 21 78l125 332l-326 932q-12 33 -12 55z" />
<glyph unicode="z" horiz-adv-x="942" d="M51 51q0 39 47 109l520 776h-460q-84 0 -84 76q0 80 88 80h616q84 0 84 -64q0 -37 -35 -92l-528 -780h504q88 0 88 -80q0 -76 -88 -76h-656q-96 0 -96 51z" />
<glyph unicode="{" horiz-adv-x="532" d="M-33 647q0 59 76 78q113 27 113 211v328q0 209 196 209h92q80 0 80 -62q0 -61 -88 -61q-113 0 -112 -113v-301q0 -115 -41 -186q-49 -88 -148 -95v-8q100 -6 150 -90q39 -72 39 -188v-301q0 -113 112 -113q88 0 88 -64q0 -59 -80 -59h-92q-197 0 -196 209v330 q0 182 -113 209q-76 18 -76 67z" />
<glyph unicode="|" horiz-adv-x="456" d="M143 72v1431q0 76 84 76t84 -80v-1431q0 -80 -84 -80t-84 84z" />
<glyph unicode="}" horiz-adv-x="532" d="M8 -109q0 63 88 64q113 0 113 113v301q0 117 39 188q49 84 149 90v8q-98 6 -147 95q-41 72 -41 186v301q0 113 -113 113q-88 0 -88 61t80 62h92q197 0 197 -209v-328q0 -184 112 -211q76 -18 76 -78q0 -49 -76 -67q-113 -27 -112 -209v-330q0 -209 -197 -209h-92 q-80 0 -80 59z" />
<glyph unicode="~" horiz-adv-x="1228" d="M131 432q0 86 88 162q84 74 176 74q59 0 127 -23q45 -14 113 -47l53 -25q29 -14 49 -22q53 -23 90 -23q45 0 99 70q55 70 102 70q72 0 72 -60q0 -94 -88 -166q-84 -70 -181 -69q-59 0 -124 22q-47 14 -115 47l-53 25q-29 14 -50 22q-51 23 -86 23q-43 0 -94 -70t-104 -69 q-74 0 -74 59z" />
<glyph unicode="&#xa2;" d="M0 520q0 252 118 412q129 172 363 172q104 0 192 -31q109 -39 109 -108q0 -72 -80 -72q-8 0 -33 8l-36 14q-8 2 -15 7q-78 27 -129 26q-145 0 -231 -129q-80 -119 -80 -282q0 -154 76 -265q86 -129 235 -129q72 0 133 33l41 23q23 10 43 10q68 0 68 -80q0 -78 -105 -115 q-39 -14 -92 -20q-43 -6 -88 -6q-223 0 -360 159q-129 152 -129 373zM39 -52q0 25 10 50l582 1298q27 61 84 62q80 0 80 -76q0 -18 -9 -41l-579 -1305q-27 -63 -88 -63q-80 0 -80 75z" />
<glyph unicode="&#xa3;" horiz-adv-x="1216" d="M51 733q0 76 92 76h166q-100 168 -100 299q0 164 147 268q133 96 308 97q162 0 309 -117t147 -242q0 -94 -96 -94q-43 0 -92 100q-90 184 -289 185q-106 0 -176 -56q-80 -61 -80 -170q0 -100 109 -270h290q84 0 84 -80q0 -76 -75 -76h-258q14 -57 14 -125 q0 -188 -178 -372h653q84 0 84 -80q0 -76 -84 -76h-803q-88 0 -88 72q0 39 37 82l82 86q55 57 82 112q37 76 37 168q0 23 -6 64q-6 45 -15 69h-213q-88 0 -88 80z" />
<glyph unicode="&#xa5;" horiz-adv-x="1060" d="M20 1401q0 72 80 72q57 -1 88 -50l344 -559l345 555q31 53 84 54q80 0 79 -76q0 -33 -22 -68l-395 -645v-608q0 -88 -91 -88q-88 0 -88 96v604l-399 647q-25 39 -25 66zM98 315q0 80 64 80h741q63 0 64 -80q0 -76 -64 -75h-741q-63 0 -64 75zM98 743q0 80 64 80h741 q63 0 64 -80q0 -76 -64 -75h-741q-63 0 -64 75z" />
<glyph unicode="&#xa9;" horiz-adv-x="1640" d="M78 727q0 307 219 526q217 219 524 220q309 0 525 -216q217 -217 217 -530q0 -305 -217 -522q-219 -217 -525 -217q-307 0 -524 217q-219 217 -219 522zM242 723q0 -240 170 -412t409 -172q240 0 410 172q168 172 168 412q0 242 -168 416q-170 174 -410 174t-409 -174 q-170 -174 -170 -416zM393 731q0 188 125 322q125 135 307 135q131 0 250 -82q119 -84 119 -178q0 -59 -68 -60q-29 0 -59 29l-57 64q-37 43 -74 63q-49 29 -111 29q-119 0 -194 -99q-70 -92 -70 -223q0 -127 72 -219q76 -96 192 -96q66 0 119 28q39 23 76 66l55 65 q27 29 51 29q68 0 68 -55q0 -94 -113 -180q-119 -88 -256 -88q-186 0 -311 133q-121 131 -121 317z" />
<glyph unicode="&#xab;" horiz-adv-x="796" d="M76 549l205 366q31 53 75 54q76 0 76 -72q0 -23 -24 -66l-172 -282l176 -293q20 -37 20 -59q0 -68 -80 -68q-37 0 -76 66zM399 549l205 366q31 53 76 54q76 0 76 -72q0 -23 -25 -66l-172 -282l176 -293q20 -37 21 -59q0 -68 -80 -68q-37 0 -76 66z" />
<glyph unicode="&#xad;" horiz-adv-x="720" d="M76 547q0 80 76 80h411q76 0 76 -80q0 -76 -76 -76h-411q-76 0 -76 76z" />
<glyph unicode="&#xae;" horiz-adv-x="1640" d="M78 727q0 307 219 526q217 219 524 220q309 0 525 -216q217 -217 217 -530q0 -305 -217 -522q-219 -217 -525 -217q-307 0 -524 217q-219 217 -219 522zM242 727q0 -240 170 -412t409 -172q240 0 410 172q168 172 168 412q0 242 -168 416q-170 174 -410 174t-409 -174 q-170 -174 -170 -416zM518 360v744q0 41 43 41h273q309 0 309 -246q0 -205 -209 -235l184 -283q16 -29 17 -49q0 -35 -76 -35q-53 0 -80 47l-197 311h-133v-295q0 -63 -67 -63q-63 0 -64 63zM649 780h158q109 0 149 21q53 27 54 106q0 113 -193 113h-168v-240z" />
<glyph unicode="&#xb4;" horiz-adv-x="415" d="M-20 1268q0 55 77 88l224 92q37 14 65 14q84 0 84 -80q0 -49 -65 -75l-226 -95q-43 -16 -76 -16q-84 0 -83 72z" />
<glyph unicode="&#xbb;" horiz-adv-x="796" d="M76 197q0 23 20 59l176 293l-172 282q-25 43 -24 66q0 72 76 72q44 -1 75 -54l205 -366l-201 -354q-39 -66 -75 -66q-80 0 -80 68zM399 197q0 23 21 59l176 293l-172 282q-25 43 -25 66q0 72 76 72q45 -1 76 -54l205 -366l-201 -354q-39 -66 -76 -66q-80 0 -80 68z" />
<glyph unicode="&#x2c6;" horiz-adv-x="415" d="M-113 1313q0 61 50 80l272 114l266 -114q27 -8 39 -31q14 -23 14 -49q0 -27 -18 -49q-23 -23 -57 -25l-50 12l-194 80l-215 -84l-37 -8q-35 0 -51 23q-18 23 -19 51z" />
<glyph unicode="&#x2da;" horiz-adv-x="491" d="M61 1288q0 174 185 174q182 0 182 -174t-182 -174q-184 0 -185 174zM152 1292q0 -88 88 -88q90 0 90 88t-90 88q-88 0 -88 -88z" />
<glyph unicode="&#x2dc;" horiz-adv-x="415" d="M-92 1339q0 47 20 70q51 59 160 59q45 0 121 -18q80 -20 102 -23l27 7l39 16q43 18 67 18q27 0 50 -22q18 -25 18 -53q0 -61 -61 -97q-61 -31 -136 -36q-12 4 -18 4q-27 0 -94 18q-63 18 -103 18q-27 0 -73 -18l-56 -22q-35 16 -49 32q-14 18 -14 47z" />
<glyph unicode="&#x401;" horiz-adv-x="907" d="M121 100v1260q0 100 76 100h551q76 0 75 -84q0 -84 -80 -84h-444v-481h406q80 0 79 -84q0 -84 -84 -84h-401v-475h449q76 0 75 -88q0 -80 -88 -80h-526q-88 0 -88 100zM197 1733q0 102 102 102q96 0 96 -102q0 -96 -96 -97q-102 0 -102 97zM549 1733q0 102 102 102 q97 0 97 -102q0 -96 -97 -97q-102 0 -102 97z" />
<glyph unicode="&#x402;" horiz-adv-x="1423" d="M20 1376q0 84 89 84h827q88 0 88 -84t-80 -84h-381v-461q68 27 137 43q84 18 160 19q221 0 348 -133q117 -121 117 -311q0 -188 -129 -318q-133 -131 -330 -131h-90q-88 0 -88 80q0 76 92 76h47q141 0 232 80q88 76 88 188q0 184 -103 266q-82 66 -225 66 q-129 0 -256 -74v-602q0 -92 -90 -92q-88 0 -88 92v1212h-281q-84 0 -84 84z" />
<glyph unicode="&#x403;" horiz-adv-x="845" d="M121 86v1274q0 100 76 100h551q68 0 67 -88q0 -80 -84 -80h-432v-1208q0 -96 -90 -96q-88 0 -88 98zM414 1696q0 41 30 82l148 188q45 57 90 57q82 1 82 -69q0 -33 -29 -68l-149 -194q-51 -66 -105 -66q-68 0 -67 70z" />
<glyph unicode="&#x404;" horiz-adv-x="1228" d="M72 709q0 340 176 551q178 213 469 213q164 0 295 -68q133 -68 133 -158q0 -76 -76 -76q-29 0 -59 23l-60 51q-43 33 -86 49q-59 23 -135 23q-201 0 -326 -152q-111 -135 -139 -354h567q76 0 80 -84q0 -84 -84 -84h-563q23 -207 133 -346q121 -154 303 -154q86 0 158 21 q51 14 103 45q10 4 20 10l53 33q37 20 70 20q35 0 53 -28q8 -10 12 -27q2 -12 2 -24q0 -78 -127 -140q-139 -66 -344 -65q-276 0 -454 209q-174 205 -174 512z" />
<glyph unicode="&#x405;" horiz-adv-x="1042" d="M72 172q0 84 80 84q16 0 49 -18q6 -2 16 -9q2 0 8 -4q4 -4 8 -4l19 -10q10 -6 20 -10q49 -27 99 -39q66 -18 135 -19q111 0 192 88q80 86 80 197q0 113 -100 186q-41 29 -103 56q-43 16 -114 41q-90 31 -146 55q-74 35 -118 74q-111 92 -111 247q0 166 139 279 q129 106 297 107q128 0 230 -41q123 -49 122 -132q0 -80 -83 -79q-14 0 -50 14l-69 35q-47 20 -80 33q-47 14 -82 14q-98 0 -164 -60q-68 -61 -67 -153q0 -86 83 -146q37 -27 93 -51q43 -18 110 -43q98 -35 152 -59q80 -35 131 -78q123 -102 123 -283q0 -195 -137 -325 q-139 -131 -351 -131q-137 0 -262 45q-150 53 -149 139z" />
<glyph unicode="&#x406;" horiz-adv-x="419" d="M121 84v1292q0 96 92 97q86 -1 86 -97v-1288q0 -100 -86 -100q-92 0 -92 96z" />
<glyph unicode="&#x407;" horiz-adv-x="419" d="M-66 1733q0 102 103 102q96 0 96 -102q0 -96 -96 -97q-102 0 -103 97zM121 84v1292q0 96 92 97q86 -1 86 -97v-1288q0 -100 -86 -100q-92 0 -92 96zM287 1733q0 102 102 102q96 0 96 -102q0 -96 -96 -97q-102 0 -102 97z" />
<glyph unicode="&#x408;" horiz-adv-x="757" d="M-18 147q0 76 71 76q28 0 53 -12q10 -4 23 -12l21 -15q29 -20 57 -28q41 -12 94 -13q158 0 158 201v1032q0 96 92 97q86 0 86 -97v-995q0 -76 -14 -139q-16 -74 -52 -127q-82 -127 -262 -127q-109 0 -211 43q-117 49 -116 116z" />
<glyph unicode="&#x409;" horiz-adv-x="1857" d="M-10 59q0 59 51 109q215 205 215 797v391q0 104 88 104h639q92 0 92 -108v-500h230q481 0 481 -428q0 -176 -107 -293q-119 -131 -323 -131h-361q-98 0 -98 96v1209h-463v-379q0 -258 -59 -482q-61 -238 -178 -385q-55 -72 -119 -71q-88 0 -88 71zM1075 156h242 q147 0 223 80q68 70 68 188q0 119 -60 190q-72 82 -213 82h-260v-540z" />
<glyph unicode="&#x40a;" horiz-adv-x="1949" d="M121 84v1292q0 96 92 97q86 0 86 -97v-524h690v524q0 96 92 97q86 0 86 -97v-524h230q481 0 481 -428q0 -176 -106 -293q-119 -131 -324 -131h-361q-98 0 -98 96v600h-690v-608q0 -100 -86 -100q-92 0 -92 96zM1167 156h242q147 0 223 80q68 70 68 188q0 119 -60 190 q-72 82 -213 82h-260v-540z" />
<glyph unicode="&#x40b;" horiz-adv-x="1423" d="M20 1376q0 84 89 84h827q88 0 88 -84t-80 -84h-381v-461q68 27 137 43q84 18 160 19q231 0 352 -121q113 -111 113 -299v-381q0 -104 -88 -104q-90 0 -90 104v320q0 199 -103 282q-43 33 -104 49q-51 12 -121 13q-68 0 -139 -23q-59 -18 -117 -51v-602q0 -92 -90 -92 q-88 0 -88 92v1212h-281q-84 0 -84 84z" />
<glyph unicode="&#x40c;" horiz-adv-x="1146" d="M121 84v1292q0 96 92 97q86 -1 86 -97v-532l645 592q43 37 80 37q76 0 76 -84q0 -45 -35 -76l-600 -541l663 -641q31 -27 31 -72q0 -72 -88 -71q-47 0 -90 41l-682 667v-608q0 -100 -86 -100q-92 0 -92 96zM582 1696q0 41 30 82l148 188q45 57 90 57q82 1 82 -69 q0 -33 -29 -68l-149 -194q-51 -66 -105 -66q-68 0 -67 70z" />
<glyph unicode="&#x40e;" horiz-adv-x="1060" d="M20 1378q0 29 29 60q31 35 68 35q49 -1 82 -50l379 -614l299 610q27 53 84 54q80 0 79 -80q0 -25 -22 -66l-647 -1255q-16 -35 -37 -58q-25 -27 -45 -26q-88 0 -88 84q0 47 24 90l250 469l-422 672q-33 51 -33 75zM274 1716q0 76 66 76q18 0 41 -18q8 -6 20 -19l23 -22 q63 -59 129 -60q45 1 80 19q25 14 51 41l21 22q12 12 20 19q20 18 43 18q59 0 59 -76q0 -78 -94 -139q-86 -59 -180 -59q-92 0 -182 57q-96 61 -97 141z" />
<glyph unicode="&#x40f;" horiz-adv-x="1370" d="M121 96v1280q0 96 92 97q86 0 86 -97v-1220h772v1220q0 96 92 97q86 0 86 -97v-1276q0 -100 -86 -100h-399v-264q0 -88 -84 -88q-74 0 -74 84v268h-393q-92 0 -92 96z" />
<glyph unicode="&#x410;" horiz-adv-x="1253" d="M16 59q0 6 4 25l480 1284q41 104 125 105q90 0 127 -101l477 -1263q4 -12 6 -29q2 -12 2 -25q0 -72 -84 -71q-66 0 -92 67l-96 264h-676l-96 -264q-25 -68 -93 -67q-84 0 -84 75zM344 471h567l-282 793h-4z" />
<glyph unicode="&#x411;" horiz-adv-x="1110" d="M121 96v1268q0 96 92 96h563q100 0 101 -84q0 -72 -93 -71h-485v-453h229q510 0 510 -432q0 -170 -120 -291q-131 -129 -338 -129h-361q-98 0 -98 96zM299 156h242q152 0 237 80q82 72 82 188q0 115 -74 190q-82 82 -227 82h-260v-540z" />
<glyph unicode="&#x412;" horiz-adv-x="1122" d="M121 96v1268q0 96 92 96h328q150 0 264 -96q121 -100 121 -246q0 -109 -47 -196q-55 -98 -154 -129v-5q150 -25 233 -129q80 -98 80 -237q0 -176 -131 -299q-133 -123 -327 -123h-361q-98 0 -98 96zM299 156h242q137 0 225 67q94 74 94 201q0 123 -86 199q-82 74 -215 73 h-260v-540zM299 844h209q104 0 172 65q68 66 68 166q0 96 -60 162q-61 68 -160 68h-229v-461z" />
<glyph unicode="&#x413;" horiz-adv-x="845" d="M121 86v1274q0 100 76 100h551q68 0 67 -88q0 -80 -84 -80h-432v-1208q0 -96 -90 -96q-88 0 -88 98z" />
<glyph unicode="&#x414;" horiz-adv-x="1392" d="M41 72q0 84 78 84h24q129 172 179 383q20 88 30 192q6 84 6 195v430q0 104 88 104h676q90 0 90 -108v-1196h43q78 0 78 -84v-336q0 -88 -73 -88q-84 0 -84 84v268h-977v-268q0 -84 -84 -84q-74 0 -74 88v336zM332 156h702v1149h-497v-379q0 -248 -64 -465 q-55 -188 -141 -305z" />
<glyph unicode="&#x415;" horiz-adv-x="907" d="M121 100v1260q0 100 76 100h551q76 0 75 -84q0 -84 -80 -84h-444v-481h406q80 0 79 -84q0 -84 -84 -84h-401v-475h449q76 0 75 -88q0 -80 -88 -80h-526q-88 0 -88 100z" />
<glyph unicode="&#x416;" horiz-adv-x="1935" d="M31 59q0 45 30 72l652 643l-580 539q-35 31 -35 76q0 84 76 84q41 0 80 -37l625 -592v532q0 96 92 97q86 -1 86 -97v-532l624 592q41 37 80 37q76 0 76 -84q0 -45 -35 -76l-579 -539l651 -643q31 -27 31 -72q0 -72 -88 -71q-47 0 -91 41l-669 667v-608q0 -100 -86 -100 q-92 0 -92 96v612l-670 -667q-43 -41 -90 -41q-88 0 -88 71z" />
<glyph unicode="&#x417;" horiz-adv-x="1148" d="M72 334q0 90 96 90q53 0 84 -80q37 -92 104 -141q82 -63 219 -64q154 0 238 88q72 76 72 197q0 113 -68 188q-78 84 -221 84h-125q-74 0 -74 72q0 76 62 76h86q106 0 186 78q76 76 76 165q0 233 -242 234q-96 0 -157 -37q-86 -49 -109 -168q-18 -92 -84 -92 q-84 0 -84 113q0 147 131 241t336 95q168 -1 279 -105q109 -100 108 -252q0 -84 -47 -168q-59 -111 -176 -155v-5q170 -35 252 -153q63 -92 63 -215q0 -150 -116 -279q-63 -70 -150 -108q-96 -45 -215 -45q-154 0 -270 49q-94 39 -160 110q-49 53 -76 117q-8 23 -14 45 q-4 16 -4 25z" />
<glyph unicode="&#x418;" horiz-adv-x="1366" d="M121 76v1300q0 96 90 97q88 -1 88 -97v-1061h2l766 1100q41 57 102 58q76 0 76 -97v-1296q0 -92 -88 -92q-90 0 -90 88v1069l-768 -1104q-35 -53 -100 -53q-78 0 -78 88z" />
<glyph unicode="&#x419;" horiz-adv-x="1366" d="M121 76v1300q0 96 90 97q88 -1 88 -97v-1061h2l766 1100q41 57 102 58q76 0 76 -97v-1296q0 -92 -88 -92q-90 0 -90 88v1069l-768 -1104q-35 -53 -100 -53q-78 0 -78 88zM403 1716q0 76 66 76q18 0 41 -18q8 -6 20 -19l23 -22q63 -59 129 -60q45 1 80 19q25 14 51 41 l21 22q12 12 20 19q20 18 43 18q59 0 59 -76q0 -78 -94 -139q-86 -59 -180 -59q-92 0 -182 57q-96 61 -97 141z" />
<glyph unicode="&#x41a;" horiz-adv-x="1146" d="M121 84v1292q0 96 92 97q86 -1 86 -97v-532l645 592q43 37 80 37q76 0 76 -84q0 -45 -35 -76l-600 -541l663 -641q31 -27 31 -72q0 -72 -88 -71q-47 0 -90 41l-682 667v-608q0 -100 -86 -100q-92 0 -92 96z" />
<glyph unicode="&#x41b;" horiz-adv-x="1232" d="M-10 59q0 59 51 109q215 205 215 797v391q0 104 88 104h676q92 0 92 -108v-1264q0 -100 -92 -100q-86 0 -86 100v1217h-500v-379q0 -258 -59 -482q-61 -238 -178 -385q-55 -72 -119 -71q-88 0 -88 71z" />
<glyph unicode="&#x41c;" horiz-adv-x="1734" d="M72 92l4 41l211 1215q23 125 135 125q104 -1 133 -97l311 -1069h4l312 1077q27 88 129 89q121 0 139 -117l205 -1200q2 -8 2 -15q6 -31 6 -39q0 -115 -88 -114q-82 0 -92 80l-168 1175l-357 -1184q-20 -72 -88 -71q-70 0 -92 71l-352 1184l-170 -1167q-14 -88 -100 -88 q-84 0 -84 104z" />
<glyph unicode="&#x41d;" horiz-adv-x="1368" d="M121 84v1292q0 96 92 97q86 0 86 -97v-569h770v569q0 96 92 97q86 0 86 -97v-1288q0 -100 -86 -100q-92 0 -92 96v567h-770v-563q0 -100 -86 -100q-92 0 -92 96z" />
<glyph unicode="&#x41e;" horiz-adv-x="1423" d="M72 727q0 315 172 526q180 219 469 220q153 -1 280 -64q115 -59 199 -170q160 -209 160 -512q0 -317 -174 -524q-178 -215 -465 -215q-285 0 -465 217q-176 209 -176 522zM264 731q0 -244 103 -401q119 -186 346 -187q223 0 342 185q104 160 104 403q0 254 -102 410 q-117 176 -344 176q-217 0 -338 -178q-111 -162 -111 -408z" />
<glyph unicode="&#x41f;" horiz-adv-x="1325" d="M121 88v1268q0 104 88 104h905q90 0 90 -108v-1264q0 -100 -90 -100q-88 0 -88 100v1217h-727v-1217q0 -100 -90 -100q-88 0 -88 100z" />
<glyph unicode="&#x420;" horiz-adv-x="1114" d="M121 80v1284q0 96 88 96h362q213 0 344 -129q127 -129 127 -327q0 -195 -131 -328q-129 -131 -315 -131h-297v-469q0 -88 -90 -88q-88 0 -88 92zM299 700h256q133 0 221 86q88 88 88 222q0 135 -84 217q-84 80 -217 80h-264v-605z" />
<glyph unicode="&#x421;" horiz-adv-x="1243" d="M72 709q0 319 157 530q176 233 488 234q139 0 272 -60q156 -68 156 -166q0 -76 -76 -76q-26 0 -57 23l-60 51q-43 33 -88 49q-59 23 -135 23q-221 0 -352 -187q-113 -162 -113 -387q0 -233 101 -399q55 -94 135 -143q88 -57 200 -58q86 0 156 21q53 14 105 45q10 4 20 10 l53 33q39 20 70 20q68 0 67 -79q0 -53 -55 -97q-47 -37 -131 -63q-70 -23 -151 -35q-70 -10 -121 -10q-293 0 -473 219q-168 205 -168 502z" />
<glyph unicode="&#x422;" horiz-adv-x="948" d="M20 1376q0 84 89 84h731q88 0 88 -84t-80 -84h-285v-1212q0 -92 -90 -92q-88 0 -88 92v1212h-281q-84 0 -84 84z" />
<glyph unicode="&#x423;" horiz-adv-x="1060" d="M20 1378q0 29 29 60q31 35 68 35q49 -1 82 -50l379 -614l299 610q27 53 84 54q80 0 79 -80q0 -25 -22 -66l-647 -1255q-16 -35 -37 -58q-25 -27 -45 -26q-88 0 -88 84q0 47 24 90l250 469l-422 672q-33 51 -33 75z" />
<glyph unicode="&#x424;" horiz-adv-x="1636" d="M72 772q0 487 501 488h156v118q0 90 88 95q90 -1 90 -95v-118h156q502 0 502 -488q0 -227 -125 -366q-127 -145 -342 -146h-191v-168q0 -100 -90 -104q-88 0 -88 104v168h-190q-215 0 -342 146q-125 139 -125 366zM250 762q0 -156 76 -248q80 -98 225 -98h178v688h-139 q-199 0 -281 -107q-33 -45 -47 -110q-12 -53 -12 -125zM907 416h178q145 0 226 98q76 92 75 248q0 72 -12 125q-14 66 -47 110q-82 106 -280 107h-140v-688z" />
<glyph unicode="&#x425;" horiz-adv-x="1245" d="M31 63q0 27 24 62l463 659l-383 539q-33 43 -33 82q0 68 80 68q59 -1 92 -50l349 -508l348 508q35 49 88 50q76 0 76 -76q0 -37 -25 -74l-383 -539l463 -653q25 -33 24 -72q0 -72 -84 -71q-47 0 -79 45l-428 608l-428 -608q-31 -45 -84 -45q-80 0 -80 75z" />
<glyph unicode="&#x426;" horiz-adv-x="1386" d="M121 109v1263q0 100 90 101q88 0 88 -101v-1216h727v1216q0 100 90 101q88 0 88 -101v-1216h64q78 0 78 -84v-336q0 -88 -84 -88q-74 0 -74 84v268h-977q-90 0 -90 109z" />
<glyph unicode="&#x427;" horiz-adv-x="1220" d="M84 987v381q0 104 88 105q90 -1 90 -105v-319q0 -199 103 -283q43 -33 104 -49q51 -12 121 -12q98 0 203 47q80 35 129 79v537q0 104 88 105q90 0 90 -97v-1288q0 -100 -86 -100q-92 0 -92 96v580q-66 -35 -154 -62q-119 -35 -219 -35q-231 0 -352 121q-113 111 -113 299 z" />
<glyph unicode="&#x428;" horiz-adv-x="1873" d="M121 109v1263q0 100 90 101q88 0 88 -101v-1216h549v1216q0 100 90 101q88 0 88 -101v-1216h549v1216q0 100 90 101q88 0 88 -101v-1268q0 -104 -88 -104h-1454q-90 0 -90 109z" />
<glyph unicode="&#x429;" horiz-adv-x="1933" d="M121 109v1263q0 100 90 101q88 0 88 -101v-1216h549v1216q0 100 90 101q88 0 88 -101v-1216h549v1216q0 100 90 101q88 0 88 -101v-1216h62q78 0 77 -84v-336q0 -88 -77 -88q-80 0 -80 84v268h-1524q-90 0 -90 109z" />
<glyph unicode="&#x42a;" horiz-adv-x="1380" d="M20 1376q0 84 89 84h370q90 0 90 -100v-508h230q510 0 510 -432q0 -170 -121 -291q-131 -129 -338 -129h-361q-98 0 -98 96v1196h-287q-84 0 -84 84zM569 156h242q152 0 238 80q82 72 81 188q0 115 -73 190q-82 82 -228 82h-260v-540z" />
<glyph unicode="&#x42b;" horiz-adv-x="1460" d="M121 96v1280q0 96 88 97q90 -1 90 -101v-520h229q510 0 510 -432q0 -170 -120 -291q-131 -129 -338 -129h-361q-98 0 -98 96zM299 156h242q152 0 237 80q82 72 82 188q0 115 -74 190q-82 82 -227 82h-260v-540zM1161 84v1292q0 96 92 97q86 -1 86 -97v-1288 q0 -100 -86 -100q-92 0 -92 96z" />
<glyph unicode="&#x42c;" horiz-adv-x="1110" d="M121 96v1280q0 96 88 97q90 -1 90 -101v-520h229q510 0 510 -432q0 -170 -120 -291q-131 -129 -338 -129h-361q-98 0 -98 96zM299 156h242q152 0 237 80q82 72 82 188q0 115 -74 190q-82 82 -227 82h-260v-540z" />
<glyph unicode="&#x42d;" horiz-adv-x="1228" d="M53 186q0 29 21 56q23 31 59 30q27 0 62 -20l53 -33q10 -6 20 -10q53 -31 113 -45q78 -20 174 -21q178 0 301 170q109 152 109 330h-510q-84 0 -84 84q4 84 80 84h514q0 223 -105 358q-113 147 -325 148q-76 0 -142 -23q-49 -16 -98 -47l-72 -49q-35 -23 -57 -22 q-78 0 -78 71q0 82 131 152q139 74 328 74q270 -1 434 -179q176 -193 176 -544q0 -328 -168 -543q-172 -219 -448 -219q-197 0 -348 69q-139 63 -140 129z" />
<glyph unicode="&#x42e;" horiz-adv-x="1835" d="M121 88v1280q0 104 88 105q90 0 90 -105v-561h248q12 291 170 473q164 193 434 193q289 0 455 -213q158 -203 157 -529q0 -311 -157 -520q-168 -223 -451 -223q-256 0 -422 176q-172 182 -186 487h-248v-563q0 -100 -90 -100q-88 0 -88 100zM739 731q0 -588 416 -588 t416 588q0 586 -416 586t-416 -586z" />
<glyph unicode="&#x42f;" horiz-adv-x="1114" d="M70 68q0 20 16 47q10 18 33 47l395 485q-203 23 -303 137q-90 100 -90 260q0 209 141 322q119 94 293 94h350q88 0 88 -96v-1284q0 -92 -88 -92q-90 0 -90 88v565h-104l-480 -606q-37 -47 -79 -47q-82 0 -82 80zM299 1049q0 -264 262 -265h254v521h-246q-119 0 -190 -64 q-80 -70 -80 -192z" />
<glyph unicode="&#x430;" horiz-adv-x="1138" d="M72 541q0 231 123 393q131 170 344 170q174 0 307 -148h4v60q0 88 84 88t84 -92v-932q0 -92 -84 -92t-84 84v80h-4q-119 -164 -285 -164q-219 0 -356 159q-133 156 -133 394zM250 545q0 -154 65 -266q80 -135 224 -136q160 0 241 125q70 106 70 277q0 164 -74 276 q-84 127 -229 127q-139 0 -221 -123q-76 -113 -76 -280z" />
<glyph unicode="&#x431;" horiz-adv-x="1112" d="M84 545v278q0 195 39 342q43 166 174 254q111 72 291 94q63 8 127 19l96 18q94 18 127 19q70 0 70 -72q0 -82 -113 -119q-45 -14 -115 -24q-45 -6 -131 -15q-322 -29 -387 -198q-8 -18 -16 -62l-15 -84q-12 -90 -12 -102q111 211 344 211q229 0 357 -158 q121 -150 120 -401q0 -231 -127 -389q-135 -168 -350 -168q-217 0 -348 153q-131 154 -131 404zM262 545q0 -166 72 -277q80 -125 225 -125t227 119q76 109 76 283q0 172 -78 284q-82 119 -221 119q-301 0 -301 -403z" />
<glyph unicode="&#x432;" horiz-adv-x="1062" d="M121 92v895q0 78 41 103q18 8 47 12q20 2 61 2h295q158 0 252 -55q117 -68 117 -211q0 -186 -203 -244q248 -59 248 -264q0 -141 -100 -228q-117 -102 -349 -102h-325q-84 0 -84 92zM299 156h188q123 0 199 32q100 43 100 136q1 106 -67 147q-53 31 -182 31h-238v-346z M299 649h231q102 0 158 33q68 39 68 129q0 80 -68 113q-53 25 -166 24h-223v-299z" />
<glyph unicode="&#x433;" horiz-adv-x="714" d="M121 80v932q0 80 90 80h389q84 0 84 -80q0 -76 -74 -76h-311v-860q0 -88 -94 -88q-84 0 -84 92z" />
<glyph unicode="&#x434;" horiz-adv-x="1187" d="M20 72q0 84 78 84h39q84 94 121 223q31 111 31 276v344q0 92 90 93h557q90 0 90 -93v-843h53q78 0 78 -84v-316q0 -84 -74 -84q-84 0 -84 80v248h-821v-248q0 -80 -84 -80q-74 0 -74 84v316zM344 156h504v780h-391v-236q0 -365 -113 -544z" />
<glyph unicode="&#x435;" horiz-adv-x="1099" d="M72 555q0 213 131 377q139 172 348 172t346 -162q131 -156 131 -379q0 -88 -98 -88h-680q0 -154 94 -244q90 -88 238 -88q74 0 139 23q51 18 100 51q8 6 21 12l16 15q4 0 8 6l25 16q33 23 51 23q63 0 64 -76q0 -76 -138 -150q-139 -76 -297 -75q-233 0 -368 157 q-131 154 -131 410zM250 612h600q0 145 -76 238q-80 98 -215 98q-139 0 -225 -96q-84 -92 -84 -240z" />
<glyph unicode="&#x436;" horiz-adv-x="1419" d="M10 59q0 51 41 95l422 446l-369 352q-35 35 -34 68q0 84 75 84q43 0 91 -49l385 -393v356q0 86 88 86q90 0 90 -90v-352l385 393q47 49 90 49q76 0 76 -84q0 -33 -35 -68l-369 -352l422 -446q41 -43 41 -95q0 -72 -76 -71q-53 0 -92 45l-442 483v-436q0 -92 -90 -92 q-88 0 -88 92v436l-443 -483q-39 -45 -92 -45q-76 0 -76 71z" />
<glyph unicode="&#x437;" horiz-adv-x="1009" d="M72 197q0 84 82 84q31 0 63 -21l47 -35q10 -8 19 -12q43 -33 82 -49q53 -20 116 -21q104 0 174 39q92 53 93 166q0 90 -80 129q-61 31 -176 31h-107q-70 0 -70 65q0 82 74 82h103q94 0 151 31q72 39 72 125q0 80 -60 113q-45 25 -143 24q-72 0 -127 -16q-41 -10 -80 -33 q-6 -6 -14 -10q-4 -4 -12 -8l-25 -17q-27 -16 -51 -16q-90 0 -90 84q0 70 133 123q129 49 280 49q160 0 260 -70q106 -76 107 -207q0 -174 -197 -239q96 -18 158 -76q72 -70 72 -182q0 -139 -111 -236q-123 -106 -323 -106q-133 0 -275 67q-145 68 -145 142z" />
<glyph unicode="&#x438;" d="M121 100v908q0 96 88 96q90 0 90 -96v-691l459 674q76 113 137 113q80 0 80 -96v-928q0 -92 -90 -92q-88 0 -88 88v696l-426 -631q-102 -154 -166 -153q-84 0 -84 112z" />
<glyph unicode="&#x439;" d="M121 100v908q0 96 88 96q90 0 90 -96v-691l459 674q76 113 137 113q80 0 80 -96v-928q0 -92 -90 -92q-88 0 -88 88v696l-426 -631q-102 -154 -166 -153q-84 0 -84 112zM299 1372q0 61 59 62q18 0 39 -17l39 -39q55 -55 115 -55q62 0 115 55l39 39q20 16 38 17 q53 0 54 -62q0 -80 -80 -135q-74 -51 -166 -51t-168 51q-84 55 -84 135z" />
<glyph unicode="&#x43a;" horiz-adv-x="942" d="M121 80v938q0 86 88 86q90 0 90 -90v-352l406 393q51 49 90 49q76 0 75 -84q0 -37 -34 -68l-390 -352l445 -446q41 -45 41 -95q0 -72 -76 -71q-49 0 -92 45l-465 483v-436q0 -92 -90 -92q-88 0 -88 92z" />
<glyph unicode="&#x43b;" horiz-adv-x="1077" d="M10 59q0 43 70 113q90 90 123 215q29 111 28 313v299q0 92 88 93h539q98 0 98 -93v-919q0 -92 -86 -92q-92 0 -92 88v860h-379v-236q0 -315 -80 -462q-131 -250 -231 -250q-78 0 -78 71z" />
<glyph unicode="&#x43c;" horiz-adv-x="1456" d="M72 78l96 930q12 96 113 96q78 0 139 -141l307 -705l307 705q61 141 142 141q100 0 112 -96l96 -930q0 -90 -84 -90q-86 0 -96 92l-65 692l-267 -600q-82 -184 -145 -184q-61 0 -143 184l-267 600l-63 -670q-10 -115 -98 -114q-84 0 -84 90z" />
<glyph unicode="&#x43d;" horiz-adv-x="1085" d="M121 82v924q0 98 88 98q90 0 90 -96v-344h487v344q0 96 88 96q90 0 91 -96v-928q0 -92 -88 -92q-90 0 -91 98v422h-487v-424q0 -96 -94 -96q-84 0 -84 94z" />
<glyph unicode="&#x43e;" horiz-adv-x="1101" d="M72 545q0 242 133 399q135 160 348 160q219 0 352 -170q125 -158 125 -389t-127 -389q-133 -168 -350 -168t-352 168q-129 160 -129 389zM250 545q0 -160 69 -273q82 -129 230 -129q154 0 235 129q68 109 68 273q0 166 -72 278q-82 125 -227 125q-149 0 -231 -127 q-72 -113 -72 -276z" />
<glyph unicode="&#x43f;" horiz-adv-x="1087" d="M121 80v919q0 92 88 93h670q88 0 88 -93v-919q0 -92 -86 -92q-92 0 -93 88v860h-489v-860q0 -88 -94 -88q-84 0 -84 92z" />
<glyph unicode="&#x440;" horiz-adv-x="1130" d="M121 -352v1360q0 96 86 96q92 0 92 -92v-56h4q76 147 272 148q229 0 363 -168q121 -154 121 -383q0 -236 -121 -395q-129 -170 -342 -170q-182 0 -293 147h-4v-483q0 -109 -88 -109q-90 0 -90 105zM281 549q0 -174 73 -285q80 -121 226 -121q145 0 227 129q74 113 74 273 q0 162 -66 272q-78 131 -219 131q-160 0 -244 -129q-72 -109 -71 -270z" />
<glyph unicode="&#x441;" horiz-adv-x="925" d="M72 520q0 252 118 412q129 172 363 172q104 0 192 -31q109 -39 109 -108q0 -72 -80 -72q-8 0 -33 8l-36 14q-8 2 -15 7q-78 27 -129 26q-145 0 -231 -129q-80 -119 -80 -282q0 -154 76 -265q86 -129 235 -129q72 0 133 33l41 23q23 10 43 10q68 0 68 -80q0 -78 -105 -115 q-39 -14 -92 -20q-43 -6 -88 -6q-223 0 -360 159q-129 152 -129 373z" />
<glyph unicode="&#x442;" horiz-adv-x="825" d="M31 1012q0 80 84 80h596q84 0 84 -80q0 -76 -76 -76h-217v-860q0 -88 -92 -88q-86 0 -86 92v856h-218q-76 0 -75 76z" />
<glyph unicode="&#x443;" horiz-adv-x="886" d="M31 1028q0 76 84 76q71 0 94 -68l248 -747h4l248 751q20 63 84 64q84 0 84 -88q0 -18 -15 -62l-467 -1327q-29 -80 -98 -80q-74 0 -74 84q0 20 21 78l125 332l-326 932q-12 33 -12 55z" />
<glyph unicode="&#x444;" horiz-adv-x="1753" d="M72 555q0 238 98 383q115 166 340 166q197 0 272 -148h4v527q0 96 86 96q93 0 93 -92v-531h4q76 147 272 148q225 0 340 -166q100 -145 100 -383q0 -240 -106 -395q-117 -172 -328 -172q-168 0 -278 147h-4v-483q0 -109 -88 -109q-90 0 -91 105v487h-4 q-111 -147 -278 -147q-209 0 -326 172q-106 154 -106 395zM250 549q0 -180 59 -285q70 -121 209 -121q119 0 195 115q74 113 73 291q0 166 -65 276q-74 123 -203 123q-141 0 -211 -123q-57 -102 -57 -276zM965 549q0 -178 73 -291q76 -115 201 -115q135 0 203 121 q61 109 61 287q0 170 -61 276q-72 121 -209 121q-127 0 -201 -123q-68 -111 -67 -276z" />
<glyph unicode="&#x445;" horiz-adv-x="948" d="M10 68q0 41 35 84l330 423l-289 377q-33 43 -33 78q0 74 80 74q47 0 78 -39l266 -356l264 352q31 43 76 43q78 0 78 -84q0 -29 -25 -64l-288 -381l317 -413q39 -51 39 -103q0 -72 -76 -71q-53 0 -96 61l-289 400l-299 -416q-33 -45 -88 -45q-80 0 -80 80z" />
<glyph unicode="&#x446;" horiz-adv-x="1122" d="M121 92v920q0 92 90 92q88 0 88 -88v-860h489v856q0 92 91 92q88 0 88 -92v-856h57q78 0 78 -84v-316q0 -84 -78 -84q-80 0 -80 84v244h-733q-90 0 -90 92z" />
<glyph unicode="&#x447;" horiz-adv-x="1001" d="M84 786v222q0 96 88 96q90 0 90 -96v-222q0 -207 207 -206q139 0 233 84v344q0 96 89 96q90 0 90 -96v-928q0 -92 -84 -92q-94 0 -95 88v432q-109 -76 -249 -76q-166 0 -260 80q-109 90 -109 274z" />
<glyph unicode="&#x448;" horiz-adv-x="1595" d="M121 92v920q0 92 84 92q94 -4 94 -88v-860h410v856q0 92 88 92q90 0 90 -88v-860h409v860q0 88 95 88q84 0 84 -92v-920q0 -92 -89 -92h-1175q-90 0 -90 92z" />
<glyph unicode="&#x449;" horiz-adv-x="1626" d="M121 92v920q0 92 84 92q94 -4 94 -90v-858h410v856q0 92 86 92q92 0 92 -88v-860h409v860q0 88 95 88q84 0 84 -92v-856h53q78 0 78 -84v-316q0 -84 -74 -84q-84 0 -84 80v248h-1239q-88 0 -88 92z" />
<glyph unicode="&#x44a;" horiz-adv-x="1210" d="M10 1010q0 80 90 80h291q86 0 86 -97v-288h207q82 0 154 -15q84 -16 147 -51q154 -86 154 -281q0 -182 -131 -276q-119 -82 -318 -82h-287q-104 0 -104 102v832h-199q-90 0 -90 76zM477 156h174q131 0 203 37q92 49 92 165q0 109 -80 154q-68 37 -209 37h-180v-393z" />
<glyph unicode="&#x44b;" horiz-adv-x="1355" d="M121 102v906q0 96 88 96q90 0 90 -96v-303h207q82 0 153 -15q84 -16 148 -51q154 -86 154 -281q0 -182 -132 -276q-119 -82 -317 -82h-287q-104 0 -104 102zM299 156h174q131 0 203 37q92 49 92 165q0 109 -80 154q-68 37 -209 37h-180v-393zM1057 80v928q0 96 88 96 q90 0 90 -92v-932q0 -92 -90 -92q-88 0 -88 92z" />
<glyph unicode="&#x44c;" horiz-adv-x="1032" d="M121 102v906q0 96 88 96q90 0 90 -96v-303h207q82 0 153 -15q84 -16 148 -51q154 -86 154 -281q0 -182 -132 -276q-119 -82 -317 -82h-287q-104 0 -104 102zM299 156h174q131 0 203 37q92 49 92 165q0 109 -80 154q-68 37 -209 37h-180v-393z" />
<glyph unicode="&#x44d;" horiz-adv-x="933" d="M72 129q0 70 75 70q18 0 46 -9l34 -14q8 -4 13 -4q70 -29 127 -29q139 0 225 107q78 96 78 229h-344q-76 0 -76 76q0 80 84 80h336q0 147 -88 233q-84 80 -215 80q-66 0 -129 -28q-63 -31 -91 -31q-74 0 -73 76q0 139 301 139q223 0 358 -158q129 -154 129 -395 q0 -242 -137 -401q-141 -162 -358 -162q-49 0 -95 6q-55 6 -96 20q-104 35 -104 115z" />
<glyph unicode="&#x44e;" horiz-adv-x="1478" d="M121 80v928q0 96 88 96q90 0 90 -96v-344h182q33 199 150 317q121 123 299 123q217 0 350 -166q127 -158 127 -391q0 -236 -119 -389q-129 -170 -348 -170q-225 0 -342 151q-102 131 -117 369h-182v-432q0 -88 -94 -88q-84 0 -84 92zM659 545q0 -182 64 -285 q74 -117 217 -117q135 0 215 121q74 113 74 283q0 174 -82 287q-84 115 -221 114q-131 1 -201 -110q-66 -106 -66 -293z" />
<glyph unicode="&#x44f;" horiz-adv-x="1032" d="M72 68q0 39 34 84l273 344q-123 14 -199 86q-82 76 -82 194q0 164 119 252q102 76 250 76h326q119 0 118 -113v-911q0 -92 -88 -92q-90 0 -90 92v393h-168l-325 -440q-33 -45 -84 -45q-84 0 -84 80zM291 778q0 -88 65 -131q55 -37 146 -37h231v338h-221q-221 0 -221 -170 z" />
<glyph unicode="&#x451;" horiz-adv-x="1099" d="M72 555q0 213 131 377q139 172 348 172t346 -162q131 -156 131 -379q0 -88 -98 -88h-680q0 -154 94 -244q90 -88 238 -88q74 0 139 23q51 18 100 51q8 6 21 12l16 15q4 0 8 6l25 16q33 23 51 23q63 0 64 -76q0 -76 -138 -150q-139 -76 -297 -75q-233 0 -368 157 q-131 154 -131 410zM250 612h600q0 145 -76 238q-80 98 -215 98q-139 0 -225 -96q-84 -92 -84 -240zM266 1362q0 102 103 102q96 0 96 -102q0 -96 -96 -96q-102 0 -103 96zM618 1362q0 102 103 102q96 0 96 -102q0 -96 -96 -96q-102 0 -103 96z" />
<glyph unicode="&#x452;" horiz-adv-x="1103" d="M-43 1315q0 72 92 71h72v103q0 94 88 94q90 0 90 -94v-103h453q84 0 84 -79q0 -76 -76 -76h-461v-365l4 -4q109 143 293 144q170 0 281 -121q106 -117 106 -283v-551q0 -225 -106 -368q-123 -168 -355 -168q-143 0 -241 43q-100 47 -101 116q0 78 82 78q20 0 53 -12 l62 -29q41 -18 72 -28q43 -12 81 -13q143 0 215 137q59 113 60 287v484q0 117 -66 192q-70 80 -184 80q-111 0 -182 -76q-74 -78 -74 -192v-502q0 -92 -90 -92q-88 0 -88 92v1151h-76q-88 0 -88 84z" />
<glyph unicode="&#x453;" horiz-adv-x="714" d="M121 80v932q0 80 90 80h389q84 0 84 -80q0 -76 -74 -76h-311v-860q0 -88 -94 -88q-84 0 -84 92zM334 1276q0 33 24 65l119 150q35 47 72 47q65 0 65 -57q0 -25 -22 -54l-121 -155q-41 -53 -84 -53q-53 0 -53 57z" />
<glyph unicode="&#x454;" horiz-adv-x="925" d="M72 532q0 248 123 404q133 168 364 168q119 0 205 -39q90 -41 90 -100q0 -72 -80 -72q-10 0 -35 8l-30 12q-4 0 -7 2q-8 2 -12 7q-74 27 -123 26q-256 0 -303 -313h373q84 0 84 -80q0 -76 -76 -76h-381q0 -133 76 -229q84 -106 221 -107q57 0 125 33l49 23q25 10 43 10 q68 0 68 -80q0 -74 -96 -113q-76 -29 -183 -28q-221 0 -358 149q-137 150 -137 395z" />
<glyph unicode="&#x455;" horiz-adv-x="946" d="M72 197q0 80 78 79q27 0 61 -20l70 -45q45 -33 84 -47q53 -20 108 -21q88 0 150 33q74 39 73 117q0 68 -80 121q-33 23 -84 45q-37 16 -98 39q-74 27 -119 49q-61 29 -100 61q-94 76 -94 193q0 127 102 215q104 88 254 88q119 0 236 -49q139 -57 139 -144q0 -80 -80 -80 q-12 0 -49 19l-53 29q-12 6 -21 12q-49 27 -80 39q-45 18 -73 18q-197 0 -197 -137q0 -104 244 -186q84 -29 133 -52q63 -29 104 -61q94 -78 94 -205q0 -141 -116 -231q-113 -88 -281 -88q-154 0 -282 67q-123 68 -123 142z" />
<glyph unicode="&#x456;" horiz-adv-x="419" d="M96 1360q0 113 113 113t113 -113t-113 -113t-113 113zM121 80v928q0 96 88 96q90 0 90 -92v-932q0 -92 -90 -92q-88 0 -88 92z" />
<glyph unicode="&#x457;" horiz-adv-x="419" d="M-66 1362q0 102 103 102q96 0 96 -102q0 -96 -96 -96q-102 0 -103 96zM121 80v928q0 96 88 96q90 0 90 -92v-932q0 -92 -90 -92q-88 0 -88 92zM287 1362q0 102 102 102q96 0 96 -102q0 -96 -96 -96q-102 0 -102 96z" />
<glyph unicode="&#x458;" horiz-adv-x="419" d="M96 1360q0 113 113 113t113 -113t-113 -113t-113 113zM121 -352v1360q0 96 88 96q90 0 90 -92v-1364q0 -92 -90 -92q-88 0 -88 92z" />
<glyph unicode="&#x459;" horiz-adv-x="1613" d="M10 59q0 43 70 113q90 90 123 215q29 111 28 313v299q0 92 88 93h512q98 0 99 -93v-335h160q84 0 153 -13q84 -14 146 -47q154 -80 153 -264q0 -184 -131 -268q-113 -72 -317 -72h-238q-104 0 -104 102v834h-353v-236q0 -315 -80 -462q-131 -250 -231 -250q-78 0 -78 71z M930 156h174q127 0 178 30q68 39 68 152q0 170 -254 170h-166v-352z" />
<glyph unicode="&#x45a;" horiz-adv-x="1630" d="M121 82v924q0 98 88 98q90 0 90 -96v-344h469v344q0 96 88 96q90 0 90 -96v-344h160q84 0 154 -13q84 -14 145 -47q154 -80 154 -264t-132 -268q-113 -72 -317 -72h-238q-104 0 -104 102v406h-469v-424q0 -96 -94 -96q-84 0 -84 94zM946 156h174q127 0 178 30 q68 39 68 152q0 170 -254 170h-166v-352z" />
<glyph unicode="&#x45b;" horiz-adv-x="1103" d="M-43 1315q0 72 92 71h72v103q0 94 88 94q90 0 90 -94v-103h453q84 0 84 -79q0 -76 -76 -76h-461v-365l4 -4q109 143 293 144q170 0 281 -121q106 -117 106 -283v-522q0 -92 -90 -92q-88 0 -88 92v498q0 117 -66 192q-70 80 -184 80q-111 0 -182 -76q-74 -78 -74 -192 v-502q0 -92 -90 -92q-88 0 -88 92v1151h-76q-88 0 -88 84z" />
<glyph unicode="&#x45c;" horiz-adv-x="942" d="M121 80v938q0 86 88 86q90 0 90 -90v-352l406 393q51 49 90 49q76 0 75 -84q0 -37 -34 -68l-390 -352l445 -446q41 -45 41 -95q0 -72 -76 -71q-49 0 -92 45l-465 483v-436q0 -92 -90 -92q-88 0 -88 92zM463 1276q0 33 24 65l119 150q35 47 72 47q65 0 65 -57 q0 -25 -22 -54l-121 -155q-41 -53 -84 -53q-53 0 -53 57z" />
<glyph unicode="&#x45e;" horiz-adv-x="886" d="M31 1028q0 76 84 76q71 0 94 -68l248 -747h4l248 751q20 63 84 64q84 0 84 -88q0 -18 -15 -62l-467 -1327q-29 -80 -98 -80q-74 0 -74 84q0 20 21 78l125 332l-326 932q-12 33 -12 55zM225 1372q0 61 60 62q18 0 39 -17l38 -39q55 -55 115 -55q62 0 115 55l39 39 q20 16 39 17q53 0 53 -62q0 -80 -80 -135q-74 -51 -166 -51t-168 51q-84 55 -84 135z" />
<glyph unicode="&#x45f;" horiz-adv-x="1087" d="M121 94v912q0 98 88 98q90 0 90 -96v-852h489v852q0 96 89 96q90 0 90 -96v-916q0 -92 -88 -92h-256v-244q0 -84 -78 -84q-80 0 -80 84v244h-260q-84 0 -84 94z" />
<glyph unicode="&#x482;" horiz-adv-x="1028" d="M59 350l101 174l215 -125l104 181l-215 125l101 174l215 -125l104 182l174 -100l-104 -183l217 -125l-101 -174l-217 125l-104 -180l217 -125l-100 -174l-217 125l-125 -215l-174 98l124 217z" />
<glyph unicode="&#x483;" horiz-adv-x="0" d="M-1063 1382q0 29 10 54q12 27 31 45q20 18 45 30q25 10 51 11h461q0 27 10 51q12 27 31 45q20 18 45 31q25 10 52.5 10t52.5 -10q25 -12 45 -31q18 -20 28 -45t11 -53q0 -27 -11 -52q-10 -27 -28 -45q-20 -18 -45 -30q-25 -11 -54 -11h-460q0 -27 -11 -51 q-10 -27 -28 -45q-20 -18 -45 -31q-25 -10 -52.5 -10t-52.5 10q-25 12 -45 31q-18 18 -31 45q-10 25 -10 51z" />
<glyph unicode="&#x484;" horiz-adv-x="0" d="M-762 1331v133q139 39 213 82q121 68 246 68q291 0 311 -293h-117q-23 156 -186 156q-92 0 -182 -47q-147 -76 -285 -99z" />
<glyph unicode="&#x485;" horiz-adv-x="0" d="M-590 1485v147h242v-157h-133q0 -156 135 -154v-102q-244 0 -244 266z" />
<glyph unicode="&#x486;" horiz-adv-x="0" d="M-590 1219v102q135 -2 135 154h-133v157h242v-147q0 -266 -244 -266z" />
<glyph unicode="&#x488;" horiz-adv-x="856" d="M-2091 616q10 143 90 215t224.5 72t223.5 -72t89 -215h-117q-12 76 -60.5 114t-136.5 38q-86 0 -134 -38t-60 -114h-119zM-1753 -80q10 143 89 216t224.5 73t224.5 -73t89 -216h-119q-10 76 -59.5 114t-135.5 38t-134 -37t-60 -115h-119zM-1753 1313q10 143 89 214.5 t224.5 71.5t224.5 -71.5t89 -214.5h-119q-10 76 -59.5 112.5t-135.5 36.5t-134 -36.5t-60 -112.5h-119zM-938 -369q8 143 88 215t224.5 72t223.5 -72t89 -215h-117q-12 76 -60.5 114t-136.5 38q-86 0 -134 -38t-60 -114h-117zM-938 1602q8 143 88 214.5t224.5 71.5 t223.5 -71.5t89 -214.5h-117q-12 74 -60.5 111.5t-136.5 37.5q-86 0 -134 -37t-60 -112h-117zM-125 -80q10 143 89 216t224.5 73t224.5 -73t89 -216h-119q-10 76 -59.5 114t-135.5 38t-134 -37t-60 -115h-119zM-125 1313q10 143 89 214.5t224.5 71.5t224.5 -71.5t89 -214.5 h-119q-10 76 -59.5 112.5t-135.5 36.5t-134 -36.5t-60 -112.5h-119zM213 616q8 143 88 215t224.5 72t223.5 -72t89 -215h-117q-12 76 -60.5 114t-136.5 38q-86 0 -134 -38t-60 -114h-117z" />
<glyph unicode="&#x489;" horiz-adv-x="856" d="M-1960 817v131l320 -82h172v-213h-172zM-1702 -49l285 168l121 121l149 -150l-121 -121l-344 -110zM-1530 1745l92 90l170 -285l121 -120l-149 -150l-121 121zM-813 -573l82 319v172h211v-172l-164 -319h-129zM-731 1602v172l164 319h129l-82 -319v-172h-211zM-106 90 l149 150l121 -121l110 -342l-92 -92l-168 284zM-106 1430l120 120l342 111l93 -90l-285 -170l-121 -121zM213 653v213h172l322 -164v-131l-322 82h-172z" />
<glyph unicode="&#x490;" horiz-adv-x="845" d="M121 86v1274q0 100 76 100h460v178q0 84 84 84q74 0 74 -88v-258q0 -84 -78 -84h-438v-1208q0 -96 -90 -96q-88 0 -88 98z" />
<glyph unicode="&#x491;" horiz-adv-x="714" d="M121 80v932q0 80 90 80h315v182q0 80 84 80q74 0 74 -84v-250q0 -84 -78 -84h-307v-860q0 -88 -94 -88q-84 0 -84 92z" />
<glyph unicode="&#x2000;" horiz-adv-x="1046" />
<glyph unicode="&#x2001;" horiz-adv-x="2093" />
<glyph unicode="&#x2002;" horiz-adv-x="1046" />
<glyph unicode="&#x2003;" horiz-adv-x="2093" />
<glyph unicode="&#x2004;" horiz-adv-x="697" />
<glyph unicode="&#x2005;" horiz-adv-x="523" />
<glyph unicode="&#x2006;" horiz-adv-x="348" />
<glyph unicode="&#x2007;" horiz-adv-x="348" />
<glyph unicode="&#x2008;" horiz-adv-x="261" />
<glyph unicode="&#x2009;" horiz-adv-x="418" />
<glyph unicode="&#x200a;" horiz-adv-x="116" />
<glyph unicode="&#x2010;" horiz-adv-x="720" d="M76 547q0 80 76 80h411q76 0 76 -80q0 -76 -76 -76h-411q-76 0 -76 76z" />
<glyph unicode="&#x2011;" horiz-adv-x="720" d="M76 547q0 80 76 80h411q76 0 76 -80q0 -76 -76 -76h-411q-76 0 -76 76z" />
<glyph unicode="&#x2012;" horiz-adv-x="720" d="M76 547q0 80 76 80h411q76 0 76 -80q0 -76 -76 -76h-411q-76 0 -76 76z" />
<glyph unicode="&#x2013;" horiz-adv-x="1024" d="M8 549q0 80 76 80h856q76 0 76 -80q0 -76 -76 -76h-856q-76 0 -76 76z" />
<glyph unicode="&#x2014;" horiz-adv-x="2048" d="M10 549q0 80 76 80h1874q76 0 76 -80q0 -76 -76 -76h-1874q-76 0 -76 76z" />
<glyph unicode="&#x2018;" horiz-adv-x="380" d="M59 1092q0 31 25 79l115 234q33 63 92 63q80 0 80 -84q0 -29 -13 -53l-127 -256q-31 -63 -96 -63q-76 0 -76 80z" />
<glyph unicode="&#x2019;" horiz-adv-x="380" d="M59 1092q0 31 25 79l115 234q33 63 92 63q80 0 80 -84q0 -29 -13 -53l-127 -256q-31 -63 -96 -63q-76 0 -76 80z" />
<glyph unicode="&#x201a;" horiz-adv-x="380" d="M59 -147q0 31 25 79l115 234q33 63 92 63q80 0 80 -84q0 -29 -13 -53l-127 -256q-31 -63 -96 -63q-76 0 -76 80z" />
<glyph unicode="&#x201c;" horiz-adv-x="679" d="M59 1096q0 31 25 80l115 233q33 63 92 64q80 0 80 -84q0 -29 -13 -54l-127 -256q-31 -63 -96 -63q-76 0 -76 80zM358 1096q0 31 25 80l115 233q33 63 92 64q80 0 80 -84q0 -29 -13 -54l-127 -256q-31 -63 -96 -63q-76 0 -76 80z" />
<glyph unicode="&#x201d;" horiz-adv-x="679" d="M59 1096q0 31 25 80l115 233q33 63 92 64q80 0 80 -84q0 -29 -13 -54l-127 -256q-31 -63 -96 -63q-76 0 -76 80zM358 1096q0 31 25 80l115 233q33 63 92 64q80 0 80 -84q0 -29 -13 -54l-127 -256q-31 -63 -96 -63q-76 0 -76 80z" />
<glyph unicode="&#x201e;" horiz-adv-x="776" d="M41 -180q0 23 31 84l121 235q31 57 83 58q80 0 80 -80q0 -39 -18 -74l-125 -244q-29 -59 -92 -59q-80 0 -80 80zM338 -180q0 23 31 84l120 235q31 57 84 58q80 0 80 -80q0 -39 -18 -74l-125 -244q-29 -59 -92 -59q-80 0 -80 80z" />
<glyph unicode="&#x2026;" horiz-adv-x="2048" d="M236 92q0 104 104 105q104 -1 104 -105t-104 -104t-104 104zM920 92q0 104 104 105q104 -1 104 -105t-104 -104t-104 104zM1604 92q0 104 104 105q104 -1 104 -105t-104 -104t-104 104z" />
<glyph unicode="&#x202f;" horiz-adv-x="418" />
<glyph unicode="&#x2039;" horiz-adv-x="796" d="M182 549l205 366q31 53 76 54q76 0 76 -72q0 -23 -25 -66l-172 -282l176 -293q20 -37 21 -59q0 -68 -80 -68q-37 0 -76 66z" />
<glyph unicode="&#x203a;" horiz-adv-x="796" d="M182 197q0 23 21 59l176 293l-172 282q-25 43 -25 66q0 72 76 72q45 0 76 -54l205 -366l-201 -354q-39 -66 -76 -66q-80 0 -80 68z" />
<glyph unicode="&#x205f;" horiz-adv-x="523" />
<glyph unicode="&#x20ac;" d="M39 588l31 76h98q-2 12 -2 36l2 99h-129l31 75h104q29 299 139 443q119 156 359 156q133 0 219 -37q68 -29 106 -80l13 -170h-41q-27 203 -260 203q-166 0 -250 -138q-74 -123 -94 -377h538l-29 -75h-514l-2 -103q0 -23 2 -32h459l-28 -76h-429q33 -516 349 -516 q100 0 166 47q76 53 92 160h41l-13 -166q-43 -57 -112 -86q-86 -37 -213 -37q-449 0 -496 598h-137z" />
<glyph unicode="&#x2122;" horiz-adv-x="2027" d="M117 1389q0 72 59 71h572q61 0 61 -67q0 -70 -57 -70h-203v-635q0 -80 -84 -80t-84 80v635h-205q-59 0 -59 66zM973 692v643q0 137 123 138q108 -1 143 -89l205 -528l201 533q33 84 143 84q123 0 123 -134v-647q0 -84 -76 -84q-80 0 -80 80v592h-4l-227 -608 q-25 -63 -84 -64q-57 0 -80 64l-227 608h-5v-588q0 -84 -79 -84q-76 0 -76 84z" />
<glyph unicode="&#xe000;" horiz-adv-x="1105" d="M0 0v1106h1106v-1106h-1106z" />
</font>
</defs>
</svg>
