<?xml version="1.0" standalone="no"?>
<!DOCTYPE svg PUBLIC "-//W3C//DTD SVG 1.1//EN" "http://www.w3.org/Graphics/SVG/1.1/DTD/svg11.dtd" >
<svg xmlns="http://www.w3.org/2000/svg">
<metadata></metadata>
<defs>
<font id="movavi_grotesqueblack_italic" horiz-adv-x="1290" >
<font-face units-per-em="2048" ascent="1587" descent="-461" />
<missing-glyph horiz-adv-x="614" />
<glyph horiz-adv-x="2048" />
<glyph horiz-adv-x="2048" />
<glyph unicode="&#xd;" horiz-adv-x="2048" />
<glyph unicode=" "  horiz-adv-x="614" />
<glyph unicode="&#x09;" horiz-adv-x="614" />
<glyph unicode="&#xa0;" horiz-adv-x="614" />
<glyph unicode="!" horiz-adv-x="643" d="M131 199q19 126 82.5 171.5t167.5 45.5q50 0 84.5 -8.5t63 -31t38.5 -67t0 -110.5q-9 -66 -31.5 -110.5t-57 -67.5t-72.5 -32t-87 -9q-104 0 -154.5 46.5t-33.5 172.5zM240 530l63 924h442l-194 -924h-311z" />
<glyph unicode="&#x22;" horiz-adv-x="778" d="M262 1147l55 389h246l-117 -389h-184zM590 1147l55 389h246l-117 -389h-184z" />
<glyph unicode="#" horiz-adv-x="1433" d="M162 418l28 194h302l65 234h-274l26 196h303l113 412h197l-113 -412h197l112 412h197l-113 -412h277l-27 -196h-305l-66 -234h275l-29 -196h-303l-115 -416h-196l114 416h-196l-115 -416h-197l115 416zM690 612h195l65 234h-194z" />
<glyph unicode="$" horiz-adv-x="1288" d="M94 96l209 383q67 -31 198.5 -51t203.5 -20q49 0 66.5 12.5t21.5 34.5q5 48 -43 65q-19 7 -53 11.5t-68.5 7.5t-77.5 10.5t-80.5 19t-76.5 33t-65.5 53t-48.5 79t-24.5 111.5t6.5 150q55 386 402 463l26 201h369l-27 -191q116 -14 210 -42.5t134 -57.5l-188 -383 q-73 35 -202.5 54.5t-203.5 7.5q-57 -10 -63 -50q-5 -39 43 -53q22 -6 90 -13q76 -8 120.5 -15.5t118.5 -37.5t112 -75.5t61 -133.5t6 -208q-57 -404 -445 -471l-28 -195h-369l29 195q-123 18 -224 48.5t-139 57.5z" />
<glyph unicode="%" horiz-adv-x="1495" d="M59 -14l54 389l692 409l-53 -389zM235 1038.5q2 43.5 7 98.5q11 85 37.5 147t60.5 98t83 57.5t96 28.5t108 7q43 0 77 -3.5t69 -12.5t59 -25.5t46.5 -41.5t31.5 -60.5t14 -84t-6 -110.5q-12 -85 -39 -147t-61.5 -98t-83 -57.5t-96 -28.5t-108.5 -7q-37 0 -67.5 2.5 t-62 9.5t-54.5 18.5t-45.5 29.5t-34.5 43t-22.5 59t-8.5 77.5zM472.5 1100q2.5 -16 4 -27.5t9.5 -19t14 -11.5t18 -6.5t21.5 -3t23.5 -0.5q26 0 42 2.5t34 12t29 32t16 58.5q4 36 -0.5 58t-19.5 31.5t-29.5 12t-40.5 2.5t-41.5 -2.5t-34 -12t-29 -31.5t-14.5 -58 q-5 -21 -2.5 -37zM773 228.5q0 40.5 7 88.5q12 85 38.5 147t60.5 98t82.5 57.5t95.5 28.5t108 7q37 0 67.5 -2.5t62.5 -9.5t55 -18.5t46 -29.5t35 -43t23 -59t9 -77.5t-7 -98.5q-12 -85 -38.5 -146.5t-60.5 -98t-82.5 -57.5t-95.5 -28t-108 -7q-33 0 -60.5 2t-56 7t-51 13.5 t-44 22t-36.5 32t-27 44t-17.5 56.5t-5.5 71.5zM891 670l55 389l692 409l-53 -389zM1013.5 259q4.5 -22 20 -31.5t30 -12t40.5 -2.5t41.5 2.5t33.5 12t28.5 31.5t15.5 58t0.5 58.5t-19.5 32t-30 12t-41 2.5t-41.5 -2.5t-33.5 -12t-28.5 -32t-15.5 -58.5t-0.5 -58z" />
<glyph unicode="&#x26;" horiz-adv-x="1495" d="M153.5 324.5q0.5 50.5 8.5 109.5q7 50 18 91t21.5 70.5t28.5 56.5t30.5 43t37.5 36t40 30t46 30.5t48 31.5q-57 91 -43 211q10 70 31.5 126t49 94.5t66.5 66.5t77.5 44.5t87.5 26t91.5 12.5t94.5 3q67 0 118.5 -5.5t111 -26.5t95.5 -57.5t54.5 -104t5.5 -160.5 q-13 -94 -72 -175t-145 -141l51 -67q104 57 184 145l201 -256q-70 -79 -129 -115q37 -18 113 -32l-146 -416q-203 26 -342 115q-190 -131 -387 -131q-44 0 -80.5 2t-75.5 7t-70 14t-62 22.5t-54.5 33t-44 44.5t-33 58t-20 73t-7 90.5zM579.5 430q-0.5 -12 2.5 -20.5 t5.5 -14.5t9.5 -10t12 -6t16 -3t17.5 -1h19.5q50 0 96 24l-115 150q-23 -17 -30.5 -23.5t-17 -24.5t-13.5 -44q-2 -15 -2.5 -27zM784 1038q1 -8 3.5 -16.5t4.5 -14t7.5 -13t7.5 -11t9 -12t9 -10.5q71 47 76 83q3 19 -19 27t-51 8q-19 0 -34.5 -12.5t-12.5 -28.5z" />
<glyph unicode="'" horiz-adv-x="450" d="M262 1147l55 389h246l-117 -389h-184z" />
<glyph unicode="(" horiz-adv-x="671" d="M180 578q50 349 199 645q17 32 47.5 86.5t92 147t106.5 136.5l256 -256q-31 -31 -83 -120.5t-73 -131.5q-114 -220 -156 -507q-41 -279 13 -508q52 -206 86 -252l-330 -256q-46 62 -88.5 192.5t-50.5 177.5q-68 303 -19 646z" />
<glyph unicode=")" horiz-adv-x="671" d="M-41 -182q29 31 80.5 118.5t73.5 133.5q63 118 98 238.5t57 269.5q42 288 -12 507q-52 206 -86 252l330 256q31 -42 65.5 -133t50.5 -149t23 -88q70 -285 18 -645q-50 -364 -198 -646q-17 -32 -47.5 -86.5t-92 -147t-106.5 -136.5z" />
<glyph unicode="*" horiz-adv-x="966" d="M238 971q17 10 107 59t101 55q-16 11 -89.5 58.5t-86.5 56.5l146 172q10 -8 40 -36t66.5 -63t44.5 -42q7 161 15 223h209q-4 -35 -48 -223q10 7 56.5 42t84.5 63t52 36l96 -172q-17 -11 -108 -60t-101 -55q16 -11 89.5 -58t86.5 -56l-145 -172q-10 8 -40 35.5t-68 63.5 t-44 42q-8 -174 -14 -223h-209q5 44 47 223q-11 -8 -56.5 -42.5t-83.5 -62.5t-52 -36z" />
<glyph unicode="+" horiz-adv-x="1280" d="M205 559v334h350v350h336v-350h348v-334h-348v-350h-336v350h-350z" />
<glyph unicode="," horiz-adv-x="641" d="M0 -63l63 22q16 6 52 22t58 22.5t36 2.5l22 -6l11 8q-65 15 -94.5 61.5t-16.5 139.5q9 62 32 104.5t58.5 64t73 30t86.5 8.5q113 0 157 -50.5t25 -183.5q-27 -203 -174 -340q-145 -123 -342 -178z" />
<glyph unicode="-" horiz-adv-x="735" d="M184 559v334h531v-334h-531z" />
<glyph unicode="." horiz-adv-x="641" d="M129 199q19 126 82.5 171.5t167.5 45.5q50 0 84.5 -8.5t63 -31t38.5 -67t0 -110.5q-9 -66 -31.5 -110.5t-57 -67.5t-72.5 -32t-87 -9q-104 0 -154.5 46.5t-33.5 172.5z" />
<glyph unicode="/" horiz-adv-x="970" d="M-33 -92l893 1771l348 -133l-895 -1771z" />
<glyph unicode="0" horiz-adv-x="1292" d="M172.5 295q-30.5 166 9.5 432q29 207 76 345t126 231.5t192.5 134.5t275.5 41q215 0 327 -75.5t142.5 -242.5t-10.5 -434q-28 -206 -75 -343.5t-126.5 -230t-193 -133t-275.5 -40.5q-215 0 -326.5 74.5t-142 240.5zM621 531.5q0 -21.5 2 -45t7.5 -37t14.5 -25t23 -16.5 t32 -5q29 0 51 14.5t36.5 38t26.5 67.5t20 88.5t18 115.5q9 59 13.5 98t7 80t-1.5 65.5t-12.5 45.5t-25 30t-40.5 9t-43 -9t-33.5 -30t-24.5 -45t-19.5 -66t-16 -79.5t-15.5 -98.5q-6 -45 -9.5 -74.5t-7 -64.5t-3.5 -56.5z" />
<glyph unicode="1" horiz-adv-x="788" d="M154 1026l30 213l359 215h346l-203 -1454h-448l143 1026h-227z" />
<glyph unicode="2" horiz-adv-x="1292" d="M117 0l45 307q35 232 244 400q33 27 80.5 57.5t79 48.5t113.5 63.5t118 65.5q21 11 30 17t18 17t11 25q3 20 -17.5 32t-44 15t-51.5 3q-82 0 -187.5 -19t-172.5 -47l-82 383q63 38 224.5 74.5t287.5 36.5q108 0 202.5 -31t163.5 -87.5t102.5 -144t18.5 -192.5 q-9 -60 -29.5 -114t-46.5 -96t-66.5 -82t-77 -69t-90 -60.5t-94.5 -52.5t-101 -50l-146 -70h600l-59 -430h-1073z" />
<glyph unicode="3" horiz-adv-x="1288" d="M94 96l209 383q60 -29 176.5 -48t200.5 -23q42 3 73 32t35 70q6 43 -18.5 72.5t-67.5 29.5h-186l35 260l166 152h-400l60 430h975l-43 -307l-215 -240q99 -68 148.5 -180.5t31.5 -245.5q-10 -65 -36 -131.5t-77 -135t-118.5 -121t-168.5 -85.5t-219 -33q-173 0 -339 40.5 t-222 80.5z" />
<glyph unicode="4" horiz-adv-x="1265" d="M59 283l9 65q3 21 7.5 42.5t9 39t12.5 40t13 36t16.5 38.5t16 35.5t19.5 38t19 35.5t21 39.5t21 38.5l385 723h492l-469 -772h108q41 122 148 244l139 159h197l-54 -372h174l-59 -430h-174l-39 -283h-450l38 283h-600z" />
<glyph unicode="5" horiz-adv-x="1300" d="M86 96l209 383q63 -30 184 -51.5t193 -19.5q40 0 71.5 30.5t36.5 71.5q6 43 -18.5 72.5t-67.5 29.5q-103 0 -217 -30l-172 176l162 696h870l-59 -432h-494l-8 -57h53q98 0 185 -36t147.5 -98.5t89.5 -154t15 -195.5q-10 -65 -36 -131.5t-77 -135t-118.5 -121 t-168.5 -85.5t-219 -33q-173 0 -339 40.5t-222 80.5z" />
<glyph unicode="6" horiz-adv-x="1286" d="M166 432q-10 123 16 285q25 176 74 308.5t114.5 218.5t155 139t187.5 74.5t219 21.5q92 0 168.5 -11.5t130.5 -33t84 -38t61 -38.5l-211 -383q-58 29 -131.5 49t-122.5 23q-57 4 -110.5 -9.5t-87.5 -36t-55 -43.5t-23 -34t22 -9q13 2 109 34q53 18 74 18q53 0 98.5 -4.5 t91 -14.5t80.5 -27.5t68 -43.5t53 -61.5t35.5 -82t15 -105.5t-7.5 -132q-74 -516 -608 -516q-116 0 -203 24.5t-153 78.5t-100 140t-44 209zM652 450.5q-2 -14.5 2.5 -25t7 -18t11 -12.5t14 -7.5t16.5 -4t19 -2t21 -0.5q26 0 41 2.5t32.5 11.5t28 31t15.5 57q4 35 0 57 t-18.5 31.5t-29 12t-40.5 2.5t-41.5 -2.5t-33 -12t-28 -31.5t-14.5 -57q-1 -18 -3 -32.5z" />
<glyph unicode="7" horiz-adv-x="1146" d="M156 0l12 92q28 203 149 385l373 547h-526l59 430h1106l-31 -219q-7 -59 -65 -145q-48 -73 -330.5 -494.5t-390.5 -595.5h-356z" />
<glyph unicode="8" horiz-adv-x="1228" d="M139 322q-7 69 8 157q26 188 183 318q-68 103 -49 247q15 108 51 187t84 126t116 75t134.5 37.5t152.5 9.5q45 0 83.5 -3t78.5 -9.5t71.5 -18t63 -29t52.5 -42t40 -56.5t26 -73t10.5 -92t-7.5 -112q-19 -140 -121 -245q123 -129 96 -320q-17 -119 -58 -209t-95.5 -144.5 t-130 -88t-151.5 -45.5t-169 -12q-67 0 -122 6t-109 21t-93 40t-73 63.5t-49.5 90.5t-22.5 121zM565 418q5 -24 21 -34.5t33 -13.5t45 -3q57 0 87 20.5t40 91.5q11 71 -14.5 92t-82.5 21q-56 0 -87 -21t-42 -92q-5 -37 0 -61zM665.5 991q3.5 -20 17.5 -28t25.5 -9.5 t36.5 -1.5q20 0 30 0.5t25 5.5t23 14t16 27t11 45q3 17 3 30.5t-2.5 23t-5.5 16.5t-10 11t-12 6.5t-15.5 4t-17 1.5h-18.5q-24 0 -37 -2t-29 -10t-25.5 -28t-14.5 -53q-4 -33 -0.5 -53z" />
<glyph unicode="9" horiz-adv-x="1286" d="M113 100l211 383q57 -29 131 -48.5t123 -22.5q57 -4 110.5 9.5t87.5 36t55 43.5t23 34t-22 9q-13 -2 -109 -34q-53 -18 -74 -18q-53 0 -98.5 4.5t-91 14.5t-80.5 27.5t-68 43.5t-53 61.5t-35 82t-14.5 105.5t8.5 132q71 516 606 516q116 0 203 -24.5t153 -79t100 -140.5 t44 -209t-16 -285q-25 -176 -74 -308.5t-114.5 -218t-155 -138.5t-187.5 -74.5t-219 -21.5q-92 0 -168.5 11.5t-130 32.5t-84 37.5t-61.5 38.5zM629 918q4 -22 18.5 -31.5t29 -12t40.5 -2.5t41.5 2.5t33 12t28 31.5t14.5 57q5 21 2.5 36.5t-4 26.5t-10 18.5t-14.5 11.5 t-18 6t-21 2.5t-24 0.5q-26 0 -41 -2.5t-32.5 -11.5t-27.5 -31t-15 -57q-4 -35 0 -57z" />
<glyph unicode=":" horiz-adv-x="641" d="M129 199q19 126 82.5 171.5t167.5 45.5q50 0 84.5 -8.5t63 -31t38.5 -67t0 -110.5q-9 -66 -31.5 -110.5t-57 -67.5t-72.5 -32t-87 -9q-104 0 -154.5 46.5t-33.5 172.5zM203 668.5q-1 33.5 4 79.5q9 66 32 110.5t58 67t72.5 31t87.5 8.5t84.5 -8.5t62.5 -31t38 -67 t1 -110.5q-19 -126 -82 -173t-166 -47q-32 0 -57.5 3.5t-51 13t-41 25.5t-28.5 40.5t-14 58z" />
<glyph unicode=";" horiz-adv-x="641" d="M-8 -20l63 22q76 28 154 4l22 -6l11 8q-65 15 -94.5 61.5t-16.5 139.5q9 62 32 104.5t58.5 64t73 30t86.5 8.5q113 0 157 -50.5t25 -183.5q-27 -203 -174 -340q-145 -123 -342 -178zM203 668.5q-1 33.5 4 79.5q9 66 32 110.5t58 67t72.5 31t87.5 8.5t84.5 -8.5t62.5 -31 t38 -67t1 -110.5q-19 -126 -82 -173t-166 -47q-32 0 -57.5 3.5t-51 13t-41 25.5t-28.5 40.5t-14 58z" />
<glyph unicode="&#x3c;" horiz-adv-x="1093" d="M147 614l31 222l737 278q127 55 261 55h20l-41 -292l-264 -80q-128 -38 -262 -58l-119 -14l115 -14q128 -20 245 -58l242 -80l-41 -292h-20q-134 0 -244 55z" />
<glyph unicode="=" horiz-adv-x="1239" d="M184 375v287h1035v-287h-1035zM184 791v286h1035v-286h-1035z" />
<glyph unicode="&#x3e;" horiz-adv-x="1093" d="M100 281l41 292l262 80q127 37 263 58l118 14l-114 14q-130 21 -246 58l-240 80l41 292h21q133 0 243 -55l660 -278l-31 -222l-737 -278q-127 -55 -260 -55h-21z" />
<glyph unicode="?" horiz-adv-x="1189" d="M252 1368q63 38 224.5 74.5t287.5 36.5q108 0 202.5 -31t163.5 -87.5t102.5 -144t18.5 -192.5q-14 -97 -56.5 -173.5t-93 -121.5t-99.5 -80t-82.5 -69t-34.5 -70h-457q10 68 44.5 134t82.5 118.5t99 93t104 70.5q42 23 49 75q3 20 -17.5 32t-44 15t-51.5 3 q-82 0 -187.5 -19t-172.5 -47zM406 199q19 126 82 171.5t167 45.5q50 0 85 -8.5t63.5 -31t38.5 -67t0 -110.5q-9 -66 -31.5 -110.5t-57 -67.5t-72.5 -32t-87 -9q-104 0 -154.5 46.5t-33.5 172.5z" />
<glyph unicode="@" horiz-adv-x="1591" d="M169 536.5q0 88.5 15 192.5q29 209 97.5 355t180 232.5t254 124.5t333.5 38q133 0 232.5 -19.5t165.5 -50t106.5 -86.5t60 -110t22 -141t-4 -158.5t-21.5 -182.5l-27 -180q-20 -148 -98.5 -215.5t-220.5 -67.5q-89 0 -144 25q-19 7 -37 19.5t-69 54.5q-63 -54 -108 -71 t-111 -17q-220 0 -300 114t-49 334q31 219 143 334t335 115q149 0 467 -31l-101 -713q-5 -37 47 -29q61 9 87.5 42t35.5 106q5 35 41 291q8 55 11.5 97.5t3 88.5t-8 81t-23.5 71t-41.5 61t-63 48t-87.5 37t-116.5 22t-147.5 8q-161 0 -280 -31.5t-211 -103t-148.5 -192.5 t-81.5 -296q-12 -89 -12 -164.5t10.5 -134t33 -106t52 -82t70 -60t83.5 -41.5t97.5 -26t107 -13.5t115.5 -3.5q58 0 116 2.5t118 9.5t101.5 11.5t102.5 15.5t83.5 14.5t82.5 15.5t64 13l-16 -123q-13 -3 -72 -14.5t-83.5 -16t-81.5 -14.5t-96.5 -14.5t-96 -10.5t-113 -8.5 t-115.5 -2.5q-78 0 -143.5 5t-131 17t-118 31.5t-101 50.5t-83 72t-61 97.5t-39 125.5t-12.5 157.5zM752.5 672q-1.5 -20 2 -37.5t10 -25t23.5 -13.5t36.5 -7t54.5 -1h51q18 0 32 4t23.5 16.5t15 20.5t10 30t6 31t5.5 37l16 107q2 17 -4.5 24.5t-23.5 7.5h-92 q-96 0 -121.5 -22t-38.5 -117q-4 -35 -5.5 -55z" />
<glyph unicode="A" horiz-adv-x="1302" d="M20 0l13 88q25 201 127 397l491 969h414l215 -967q26 -112 26 -232q0 -81 -12 -165l-12 -90h-367l-32 205h-394l-88 -205h-381zM668 635h149q-8 132 -8 205l-2 241l-74 -241q-35 -125 -65 -205z" />
<glyph unicode="B" horiz-adv-x="1372" d="M102 0l203 1454h660h26h37q42 0 72 -2q42 -2 114 -22t111 -59t63 -121q15 -49 15 -111q0 -40 -6 -86q-30 -200 -195 -322l-2 -6q92 -33 128 -119q24 -57 24 -129q0 -36 -6 -76q-10 -74 -32 -134t-51 -100t-64.5 -71.5t-74 -48t-79 -28.5t-78.5 -14t-74 -5q-18 -2 -34 -2 t-30 2h-26h-701zM608 399h144h9q26 0 38 1t28.5 6.5t24 19t10.5 35.5t-1 35.5t-18.5 18.5t-26 6t-37.5 1h-5.5h-5.5h-143zM682 930h143h11q21 0 30.5 0.5t24.5 3.5t22.5 9t14.5 18t10 30q1 9 1 16q-1 11 -3 19q-4 14 -19 19.5t-26.5 6.5t-37.5 1h-9h-144z" />
<glyph unicode="C" horiz-adv-x="1345" d="M184 729q54 389 257.5 569.5t555.5 180.5q151 0 271.5 -44.5t183.5 -91.5l-211 -382q-68 33 -162.5 52t-156.5 19q-53 -1 -87 -6t-70.5 -22.5t-59.5 -50t-42 -88t-30 -136.5q-9 -59 -9 -103v-7q0 -39 5 -69q5 -32 19.5 -54t31 -35.5t43 -21t52.5 -10.5t63 -3 q60 0 160 19.5t180 52.5l100 -383q-78 -48 -212 -91.5t-280 -43.5q-354 0 -506 180q-112 132 -111 375q0 90 15 194z" />
<glyph unicode="D" horiz-adv-x="1454" d="M102 0l203 1454h522q191 0 322.5 -39t215.5 -124.5t111 -224.5q13 -68 13 -151q0 -86 -14 -186q-38 -264 -139.5 -425t-269 -232.5t-421.5 -71.5h-543zM610 426h90q42 0 74 3.5t68.5 14t63.5 32t52.5 54t43 83t26.5 116.5q6 45 6 82.5t-4.5 66t-15.5 51t-24 38t-33 27 t-39.5 18t-46 10.5t-49.5 5t-54 1h-74z" />
<glyph unicode="E" horiz-adv-x="1185" d="M102 0l203 1454h981l-59 -420h-531l-14 -102h489l-57 -410h-489l-15 -102h531l-58 -420h-981z" />
<glyph unicode="F" horiz-adv-x="1103" d="M102 0l203 1454h981l-59 -420h-531l-14 -102h489l-57 -410h-489l-72 -522h-451z" />
<glyph unicode="G" horiz-adv-x="1462" d="M184 731q55 392 266.5 570t600.5 178q151 0 271 -44.5t183 -91.5l-211 -382q-68 33 -162.5 52t-156.5 19q-57 0 -97 -5t-84 -22.5t-73 -49t-53 -88t-35 -136.5q-6 -45 -7 -82v-7q0 -33 4 -58q5 -29 15.5 -52t23.5 -38.5t32.5 -27.5t39 -18.5t46 -10.5t50 -5.5t54.5 -1.5 v-4q54 0 119 8l16 119h-119l49 348h529l-111 -786l-4 -2q-74 -44 -231 -88q-154 -43 -305 -43h-7q-381 0 -540 178q-118 133 -118 381q0 88 15 190z" />
<glyph unicode="H" horiz-adv-x="1490" d="M102 0l203 1454h451l-72 -512h385l72 512h450l-202 -1454h-451l72 512h-385l-72 -512h-451z" />
<glyph unicode="I" horiz-adv-x="655" d="M102 0l203 1454h451l-203 -1454h-451z" />
<glyph unicode="J" horiz-adv-x="987" d="M31 80l194 385q69 -32 119 -43.5t113 -11.5q34 0 39 30l141 1014h450l-141 -1005q-15 -108 -53.5 -192t-89 -135.5t-115.5 -85t-127 -46.5t-129 -13q-249 0 -401 103z" />
<glyph unicode="K" horiz-adv-x="1402" d="M102 0l203 1454h451l-72 -512h109l313 512h479l-446 -729l243 -725h-479l-170 512h-108l-72 -512h-451z" />
<glyph unicode="L" horiz-adv-x="1019" d="M102 0l203 1454h451l-144 -1024h447l-60 -430h-897z" />
<glyph unicode="M" horiz-adv-x="1961" d="M102 0l203 1454h475l191 -532q65 -186 65 -387l2 -119l35 119q59 203 176 387l338 532h475l-202 -1454h-451l31 225q28 198 94 406l43 127h-8l-424 -758h-328l-211 758h-8l6 -127q1 -41 1 -81q0 -173 -21 -325l-31 -225h-451z" />
<glyph unicode="N" horiz-adv-x="1478" d="M102 0l203 1454h350l410 -752l4 181q2 140 25 325l34 246h451l-203 -1454h-350l-410 745l-4 -174q-3 -158 -26 -325l-33 -246h-451z" />
<glyph unicode="O" horiz-adv-x="1579" d="M184 729q54 389 258 569.5t555 180.5q351 -1 503 -181q113 -133 113 -380q0 -87 -14 -189q-56 -389 -259 -569t-554 -180q-350 0 -504 180q-112 132 -113 376q0 89 15 193zM624 626v-7q0 -41 6 -69q6 -32 20 -54t31.5 -35.5t45.5 -20.5t55.5 -9.5t67.5 -2.5q56 0 92.5 5 t74 22.5t61.5 50t43.5 88t31.5 135.5q8 58 8 103t-6 76.5t-21 54t-32.5 35.5t-45.5 20t-55.5 9.5t-66.5 2.5q-47 0 -78.5 -3.5t-65.5 -13.5t-56.5 -30.5t-43 -53.5t-34.5 -82.5t-23 -117.5q-9 -59 -9 -103z" />
<glyph unicode="P" horiz-adv-x="1331" d="M102 0l203 1454h660q50 0 81.5 -1t77 -6t74 -14.5t63.5 -27t56 -43t41 -63.5t27.5 -86.5t7.5 -114.5t-11 -146q-15 -103 -41.5 -183t-57 -133.5t-75.5 -91.5t-84.5 -58t-97 -30.5t-99 -13t-104.5 -2.5h-209l-61 -440h-451zM672 850h143q26 0 41 2.5t32.5 11.5t28 31 t15.5 57q0 24 2 42q0 3 1 5q0 13 -7 23q-8 12 -13.5 18.5t-19 9.5t-24 4t-27.5 1h-144z" />
<glyph unicode="Q" horiz-adv-x="1579" d="M184 729q54 389 258 569.5t555 180.5t503 -181q113 -133 113 -380q0 -87 -14 -189q-20 -141 -59.5 -242.5t-93 -165.5t-133 -102.5t-166.5 -54t-207 -19.5l-2 -22h57q202 0 394 -60l108 -34l-188 -383l-869 395l-12 6q-258 125 -258 496q0 86 14 186zM624 626v-7 q0 -40 6 -69q5 -31 19.5 -53.5t32 -36t45.5 -20.5t55.5 -9.5t67.5 -2.5q56 0 92.5 5t74 22.5t61.5 50t43.5 88t31.5 135.5q8 58 8 103t-6 76.5t-21 54t-32.5 35.5t-45.5 20t-55.5 9.5t-66.5 2.5q-47 0 -78.5 -3.5t-65.5 -13.5t-56.5 -30.5t-43 -53.5t-34.5 -82.5t-23 -117.5 q-8 -58 -9 -103z" />
<glyph unicode="R" horiz-adv-x="1402" d="M102 0l203 1454h701q50 0 81.5 -1t77 -6t74 -14.5t63.5 -27t56 -43t41 -63.5t27.5 -86.5t7.5 -114.5t-11 -146q-41 -298 -237 -417l135 -535h-479l-109 461h-117l-63 -461h-451zM672 850h184q26 0 41 2.5t32.5 11.5t28 31t15.5 57q1 24 3 42v5q0 13 -7 23 q-8 12 -13.5 18.5t-19 9.5t-24 4t-27.5 1h-185z" />
<glyph unicode="S" horiz-adv-x="1288" d="M94 96l209 383q67 -31 198.5 -51t203.5 -20q49 0 66.5 12.5t21.5 34.5v9q0 41 -43 56q-19 7 -53 11.5t-68.5 7.5t-77.5 10.5t-80.5 19t-76.5 33t-65.5 53t-48.5 79t-24 111.5q-1 14 -1 29q0 54 7 121q15 112 54.5 197.5t110 151.5t181.5 100.5t260 34.5q158 0 305 -35 t203 -76l-188 -383q-72 35 -202 55q-80 12 -140 12q-36 0 -64 -5q-57 -10 -63 -50v-7q0 -33 43 -46q22 -6 90 -13q76 -8 120.5 -15.5t118.5 -37.5t112 -75.5t61 -133.5q13 -51 13 -112q0 -45 -7 -96q-69 -486 -615 -486q-173 0 -339 40.5t-222 80.5z" />
<glyph unicode="T" horiz-adv-x="1142" d="M164 1024l59 430h1102l-59 -430h-326l-143 -1024h-451l143 1024h-325z" />
<glyph unicode="U" horiz-adv-x="1511" d="M195 428.5q0 75.5 10 167.5l121 858h446l-119 -844q-5 -34 -6 -60.5t0 -47t7 -35.5t11.5 -25.5t19 -17.5t22.5 -10.5t29.5 -5t33.5 -2t39 -0.5q33 0 49.5 0.5t41.5 4.5t37.5 11.5t29 22t26 36.5t18.5 54t15 75l119 844h446l-121 -858q-20 -144 -68.5 -253t-114 -177.5 t-154 -111.5t-180.5 -60t-201 -17q-67 0 -125.5 6.5t-115.5 21t-102 38.5t-85.5 59t-66.5 82t-44 108t-18 136.5z" />
<glyph unicode="V" horiz-adv-x="1302" d="M211 1366l12 88h381l66 -440q29 -171 32 -400l5 -241l71 241q47 170 146 400l194 440h367l-12 -90q-29 -206 -125 -397l-486 -967h-413l-222 969q-27 113 -27 235q0 79 11 162z" />
<glyph unicode="W" horiz-adv-x="1818" d="M209 1012q-8 76 -8 155q0 121 18 248l4 39h408l12 -166q11 -180 10 -334v-69l-18 -275l67 277q58 174 154 397l74 170h358l29 -172q35 -208 43 -397l-8 -275l59 273q59 212 125 403l55 168h410l-4 -39q-26 -189 -105 -403l-376 -1012h-426l-35 188q-34 233 -41 398 l10 250l-59 -250q-59 -184 -154 -398l-82 -188h-428z" />
<glyph unicode="X" horiz-adv-x="1216" d="M20 0l9 68q28 202 159 378l211 281l-131 281q-61 128 -61 273q0 51 8 105l8 68h398l77 -274q28 -93 31 -195l2 -100l31 100q36 109 84 195l155 274h398l-8 -68q-28 -201 -160 -378l-213 -281l133 -281q61 -128 61 -273q0 -51 -8 -105l-8 -68h-397l-80 274q-26 96 -29 195 l-2 100l-31 -100q-37 -111 -86 -195l-153 -274h-398z" />
<glyph unicode="Y" horiz-adv-x="1257" d="M208 1318q1 28 5 58l10 78h367l55 -180q54 -174 72 -387l12 -170l57 170q80 209 183 387l102 180h369l-10 -80q-4 -30 -10.5 -57t-19.5 -58t-20 -48.5t-28 -54t-27 -47.5t-34.5 -55.5t-33.5 -52.5l-339 -548l-64 -453h-451l64 453l-188 551q-4 12 -18 52.5t-18 54 t-14 47.5t-12.5 53.5t-6.5 49.5q-2 23 -2 45v12z" />
<glyph unicode="Z" horiz-adv-x="1363" d="M102 0l13 98q15 106 56 194t116 177l477 555h-502l60 430h1110l-15 -100q-25 -202 -170 -371l-475 -553h549l-59 -430h-1160z" />
<glyph unicode="[" horiz-adv-x="962" d="M72 -215l262 1874h758l-50 -348h-368l-164 -1178h369l-50 -348h-757z" />
<glyph unicode="\" horiz-adv-x="970" d="M197 1546l385 133l395 -1771l-385 -133z" />
<glyph unicode="]" horiz-adv-x="962" d="M72 -215l49 348h368l164 1178h-368l49 348h758l-263 -1874h-757z" />
<glyph unicode="^" horiz-adv-x="1003" d="M199 985l282 410q5 7 22 31.5t24 34t23 28t27.5 26t28 14.5t33.5 7h156q15 0 27 -4t22.5 -14t17.5 -17t15.5 -24.5t11.5 -25t11.5 -29.5t10.5 -27l168 -410l-321 -192l-96 348l-195 -348z" />
<glyph unicode="_" horiz-adv-x="1183" d="M82 -61h1184v-256h-1184v256z" />
<glyph unicode="`" horiz-adv-x="731" d="M283 1288l161 264l367 -254l-80 -131z" />
<glyph unicode="a" d="M150 306q-5 41 -5 86q0 70 13 151q18 134 58.5 234.5t109.5 175t175.5 113t248.5 38.5q158 0 587 -39l-149 -1065h-195l-129 92q-72 -64 -130 -87t-140 -23q-142 0 -237.5 38t-144 110t-62.5 176zM539 475q-1 -8 -1 -16q0 -16 3 -31q4 -22 12.5 -31.5t29 -17t45.5 -9 t68 -1.5h64q71 0 96 70q9 27 21 104l18 133q1 5 1 10q0 31 -36 31h-115q-64 0 -95 -4t-54 -24.5t-31.5 -51t-17.5 -94.5q-6 -43 -8 -68z" />
<glyph unicode="b" horiz-adv-x="1310" d="M102 0l203 1454l47 19q158 63 324 63h31l-68 -473q61 25 102.5 33t106.5 8q284 0 392 -127q77 -91 77 -271q0 -70 -12 -153q-42 -303 -186.5 -437t-409.5 -134q-96 0 -149 22t-109 88l-154 -92h-195zM556 466q-1 -10 -1 -17q0 -9 1 -15q2 -10 6.5 -25t13.5 -21.5 t23 -11.5t34 -5h84q64 0 95 4t54 24.5t31.5 51t17.5 94.5q6 43 8 68q1 8 1 16q0 16 -3 31q-4 22 -12.5 31.5t-29 17t-45.5 9t-68 1.5h-84q-23 0 -40.5 -6t-29.5 -21.5t-19.5 -27t-13.5 -39t-8.5 -40t-7.5 -46.5q-4 -29 -4.5 -39t-2.5 -34z" />
<glyph unicode="c" horiz-adv-x="1130" d="M158 547q41 293 195.5 427t457.5 134q79 0 139.5 -8t106.5 -25t71 -30t62 -37l-184 -336q-69 32 -119 43.5t-113 11.5q-68 0 -109.5 -9.5t-65.5 -34.5t-34 -54.5t-18 -81.5q-6 -35 -6 -64q-1 -21 3 -38q8 -40 50 -59t131 -19q62 0 113.5 11t130.5 44l90 -336 q-89 -51 -181 -76.5t-229 -25.5q-301 0 -417 135q-85 99 -85 283q0 67 11 145z" />
<glyph unicode="d" horiz-adv-x="1310" d="M158 553q42 297 185.5 424t426.5 127q65 0 105 -8t92 -33l55 391l47 19q158 63 324 63h30l-215 -1536h-194l-129 92q-73 -66 -133.5 -88t-157.5 -22q-266 0 -372 134q-76 96 -76 279q0 72 12 158zM544 448q4 -39 39.5 -58t112.5 -19h84q23 0 40 5t29 18.5t19 25t12.5 36 t8 38.5t6.5 45q5 31 6.5 46t3.5 41q1 8 1 15q0 14 -3 23q-4 13 -12 28t-23.5 21t-38.5 6h-84q-58 0 -95 -10t-57.5 -34t-29.5 -52.5t-16 -77.5q-5 -37 -5 -66q0 -17 2 -31z" />
<glyph unicode="e" horiz-adv-x="1208" d="M158 541q40 292 191 427.5t409 135.5q256 0 370 -136q84 -100 84 -285q0 -65 -10 -142q-97 -50 -186.5 -65t-214.5 -15h-250q-2 -27 5.5 -45.5t19 -28t33 -14.5t40 -6t47.5 0q103 2 178 11.5t173 35.5l65 -353q-233 -84 -477 -84q-283 0 -401 135q-87 100 -87 286 q0 66 11 143zM575 625h230q5 22 5 40q0 63 -62 69q-10 1 -28 1h-5q-31 0 -51 -3t-42 -13t-34 -33.5t-13 -60.5z" />
<glyph unicode="f" horiz-adv-x="874" d="M123 737l49 348h131q25 148 64 245.5t98.5 154.5t133.5 79.5t179 22.5q226 0 348 -76l-184 -335q-67 22 -156 22q-49 0 -66.5 -18.5t-27.5 -94.5h291l-49 -348h-291l-102 -737h-389l102 737h-131z" />
<glyph unicode="g" horiz-adv-x="1310" d="M127 -369l184 336q59 -28 155.5 -41.5t160.5 -13.5q98 0 139 29t55 100q-57 -24 -97.5 -31.5t-107.5 -7.5q-96 0 -168.5 11.5t-130 37t-93 66.5t-57 100t-22.5 137v12q0 74 11 166q42 303 186.5 437.5t409.5 134.5q96 0 150 -22.5t110 -88.5l153 92h195l-139 -995 q-41 -292 -189.5 -426.5t-429.5 -134.5q-143 0 -278 30t-197 72zM539 473q-1 -8 -1 -16q0 -16 3 -31q4 -22 12.5 -31.5t29 -17t45.5 -9t68 -1.5h84q27 0 47 11t31 24.5t19.5 42.5t11.5 47t8 55q0 4 1 11q5 45 8 80v8q0 29 -16 48q-19 21 -61 21h-84q-43 0 -68.5 -1.5 t-48.5 -8.5t-34 -17t-21.5 -32t-15.5 -47t-10 -68q-6 -43 -8 -68z" />
<glyph unicode="h" horiz-adv-x="1269" d="M102 0l203 1454l47 19q158 63 324 63h31l-68 -473q102 41 168 41q283 0 391 -127q77 -91 78 -271q0 -70 -12 -153l-76 -553h-389l75 545q5 37 5 66q1 17 -1 31q-4 39 -40 58t-113 19h-43q-23 0 -40.5 -6t-29.5 -21.5t-19.5 -27t-13.5 -39t-8.5 -40t-7.5 -46.5l-74 -539 h-387z" />
<glyph unicode="i" horiz-adv-x="593" d="M102 0l140 1004l47 18q158 63 323 63h31l-151 -1085h-390zM287 1321q9 61 29.5 101t52.5 60t64.5 27t76.5 7t74.5 -7t56.5 -27t35 -60q4 -20 4 -45t-4 -56q-8 -61 -28.5 -101t-52 -60t-64 -27t-76.5 -7t-75 7t-57 27t-35 60q-5 21 -5 48q0 24 4 53z" />
<glyph unicode="j" horiz-adv-x="731" d="M-106 -395l182 336q45 -23 84 -23q42 0 59 20t27 93l135 973l47 18q158 63 324 63h30l-147 -1054q-21 -147 -59.5 -245.5t-99.5 -154.5t-136.5 -79t-181.5 -23q-78 0 -135.5 16t-128.5 60zM426 1321q9 61 29.5 101t52.5 60t64.5 27t76.5 7t74.5 -7t56.5 -27t35 -60 q5 -20 5 -45t-5 -56q-8 -61 -28.5 -101t-52 -60t-64 -27t-76.5 -7t-75 7t-57 27t-35 60q-5 21 -5 48q0 24 4 53z" />
<glyph unicode="k" horiz-adv-x="1251" d="M102 0l203 1454l47 19q158 63 324 63h31l-113 -807h41l268 356h469l-452 -542l301 -543h-473l-166 358h-41l-49 -358h-390z" />
<glyph unicode="l" horiz-adv-x="784" d="M156 328q2 68 14 153l135 973l47 19q158 63 324 63h31l-148 -1055q-5 -36 -5 -58q0 -25 6 -35q10 -20 52 -19q40 0 88 22l91 -336q-83 -44 -145.5 -59.5t-141.5 -15.5q-60 0 -107 7t-87.5 23t-68.5 42t-48 65t-29 91q-8 45 -8 101v19z" />
<glyph unicode="m" horiz-adv-x="1888" d="M102 0l152 1085h195l129 -92q76 70 120 92.5t103 22.5q246 0 354 -129q39 62 108.5 95.5t196.5 33.5q252 0 358 -132q75 -95 76 -275q0 -71 -12 -156l-76 -545h-389l76 545q6 43 8 68t-2 47t-12.5 32t-29.5 17t-46 8.5t-68 1.5q-27 0 -46.5 -10t-31 -23t-20 -38t-12 -43 t-8.5 -49q-1 -7 -2 -11l-76 -545h-389l76 545q6 43 8 68t-2 47t-12.5 32t-29.5 17t-46 8.5t-68 1.5q-20 0 -36.5 -6t-27 -13t-20 -24t-14 -27t-10 -35t-7.5 -35.5t-6 -39.5l-74 -539h-387z" />
<glyph unicode="n" horiz-adv-x="1269" d="M102 0l152 1085h195l129 -92q78 71 127 93t137 22q252 0 358 -132q75 -95 76 -275q0 -71 -12 -156l-76 -545h-389l75 545q6 43 8 68t-2 47t-12.5 31.5t-29 17t-45.5 9t-68 1.5h-43q-23 0 -40.5 -6t-29.5 -21.5t-19.5 -27t-13.5 -39t-8.5 -40t-7.5 -46.5l-74 -539h-387z " />
<glyph unicode="o" d="M158 541q41 295 198 429t443 134t406 -134q89 -100 90 -289q0 -65 -11 -140q-42 -295 -199.5 -429.5t-443.5 -134.5q-285 1 -405 135q-88 100 -89 286q0 66 11 143zM546 448q8 -36 32 -53t50 -22.5t68 -5.5t69.5 5.5t56.5 22t47 53t26 93.5q3 49 3 70q0 27 -12 45 q-12 20 -23 31.5t-32 17.5t-40 8t-46 2q-42 0 -70 -5.5t-56.5 -22t-46.5 -53t-25 -93.5q-4 -29 -4 -53q-1 -22 3 -40z" />
<glyph unicode="p" horiz-adv-x="1310" d="M39 -451l215 1536h195l129 -92q74 66 133 88.5t155 22.5q265 0 372 -134q77 -97 77 -281q0 -72 -12 -157q-41 -296 -185 -423t-428 -127q-64 0 -103 8t-93 33l-66 -474h-389zM556 460v-13q0 -17 3 -25q4 -12 12 -27.5t23.5 -21.5t38.5 -6h84q58 0 95 10t57.5 34 t29.5 52.5t16 77.5q5 37 5 66q0 17 -2 31q-4 39 -39.5 58t-112.5 19h-84q-27 0 -47 -9.5t-31.5 -22t-19.5 -38.5t-11 -44.5t-8 -53.5q-4 -34 -5.5 -46.5t-3.5 -40.5z" />
<glyph unicode="q" horiz-adv-x="1310" d="M156 532q42 303 186.5 437.5t409.5 134.5q96 0 150 -22.5t110 -88.5l153 92h195l-215 -1536h-389l65 474q-60 -25 -102 -33t-107 -8q-283 0 -390 126q-77 92 -77 273q0 69 11 151zM544 444q4 -39 39.5 -58t112.5 -19h84q27 0 47 11t31 24.5t19.5 42.5t11.5 47t8 55 q0 4 1 11q5 45 8 80v8q0 29 -16 48q-19 21 -61 21h-84q-58 0 -95 -10t-57.5 -34t-29.5 -52.5t-16 -77.5q-5 -37 -5 -66q0 -17 2 -31z" />
<glyph unicode="r" horiz-adv-x="798" d="M102 0l152 1085h195l129 -92q43 45 113 78t147 33q37 0 92 -19l-113 -370h-133q-27 0 -47 -9.5t-31.5 -22t-19.5 -38.5t-11 -44.5t-8 -53.5l-75 -547h-390z" />
<glyph unicode="s" horiz-adv-x="1064" d="M70 68l174 313l71 -18q71 -18 135.5 -28.5t127.5 -10.5q64 0 67 20q1 10 -4.5 20.5t-11.5 12.5q-38 10 -109 26q-44 9 -64.5 14t-56.5 15t-52.5 17t-43.5 19.5t-38.5 25t-28.5 30.5t-23 39t-11.5 48t-4.5 59t6 71q29 202 147.5 283.5t335.5 81.5q140 0 270.5 -25 t178.5 -55l-154 -313q-55 27 -185 43q-80 10 -128 10q-30 0 -47 -4q-21 -4 -31 -23q0 -7 7 -14.5t13 -9.5q30 -7 87 -20q113 -25 164 -41.5t111 -54t76 -99.5q9 -34 9 -80q0 -37 -6 -80q-28 -197 -151.5 -278.5t-338.5 -81.5q-149 0 -295 29.5t-196 58.5z" />
<glyph unicode="t" horiz-adv-x="915" d="M123 737l49 348h131l25 172l45 19q158 63 323 63h31l-35 -254h291l-49 -348h-291l-27 -192q-10 -65 -10 -102q0 -22 4 -33q10 -31 62 -31q33 0 58 8t85 35l90 -336q-187 -96 -360 -96q-80 0 -138.5 18t-102.5 58.5t-65.5 106t-26.5 159.5q-1 19 -1 40q0 81 16 181l27 184 h-131z" />
<glyph unicode="u" d="M178 541l76 544h389l-76 -544q-6 -43 -8 -68t2 -47t12.5 -32t29.5 -17t46 -8.5t68 -1.5h43q27 0 47 11t31 24.5t19.5 42.5t11.5 47t8 55l75 538h387l-151 -1085h-195l-129 92q-72 -67 -124 -91t-124 -24q-268 1 -374 133q-76 95 -76 275q0 71 12 156z" />
<glyph unicode="v" horiz-adv-x="1150" d="M168 1059l4 26h365l55 -315q26 -141 29 -317l-3 -146l39 146q43 157 115 317l146 315h364l-4 -26q-23 -164 -111 -314l-401 -745h-381l-192 745q-32 101 -32 209q0 52 7 105z" />
<glyph unicode="w" horiz-adv-x="1619" d="M162 754q-6 61 -6 124q0 89 12 179l4 28h369l8 -122q8 -141 8 -304l-12 -206l49 209q47 139 113 296l57 127h391l23 -129q24 -151 32 -297l-6 -206l45 204q35 138 90 304l43 124h369l-4 -28q-19 -147 -78 -303l-342 -754h-381l-26 137q-25 160 -33 297l8 189l-45 -189 q-46 -146 -113 -297l-61 -137h-383z" />
<glyph unicode="x" horiz-adv-x="1110" d="M20 0l9 59q10 82 41 147t90 130l213 244l-107 172q-40 64 -52 128q-7 34 -6 74q0 35 5 74l8 57h328l8 -18q44 -118 68 -225l28 -137l66 137q61 119 133 225l12 18h326l-8 -57q-10 -81 -41 -146t-90 -130l-154 -172l147 -244q58 -98 58 -213q0 -31 -4 -64l-8 -59h-324 l-57 84q-80 122 -91 270l-6 64l-22 -66q-55 -146 -170 -270l-78 -82h-322z" />
<glyph unicode="y" horiz-adv-x="1269" d="M86 -369l184 336q59 -28 155.5 -41.5t160.5 -13.5q94 0 139.5 45.5t60.5 124.5q-57 -24 -98 -31.5t-108 -7.5q-143 0 -231.5 26.5t-139.5 88.5t-59 164q-2 28 -2 61q0 82 14 190l71 512h390l-72 -503q-6 -44 -7.5 -68.5t2.5 -46.5t12.5 -31.5t29 -17t45 -9t67.5 -1.5h43 q27 0 47.5 11t31.5 25t20 41.5t12 47.5t8 55l70 497h387l-139 -995q-41 -292 -189.5 -426.5t-429.5 -134.5q-143 0 -278 30t-197 72z" />
<glyph unicode="z" horiz-adv-x="1099" d="M82 0l22 174q10 61 74 129l422 434h-416l49 348h936l-24 -174q-7 -62 -74 -129l-422 -434h416l-47 -348h-936z" />
<glyph unicode="{" horiz-adv-x="784" d="M20 446l48 334h143l35 254q21 147 59.5 245.5t99.5 154.5t136.5 79t181.5 23q78 0 136.5 -16t129.5 -60l-184 -336q-45 23 -84 23q-42 0 -58 -19.5t-28 -93.5l-135 -962q-10 -73 1.5 -93t53.5 -20q38 0 88 23l90 -336q-83 -44 -146 -60t-141 -16q-60 0 -107 7t-87 23 t-68.5 42.5t-48.5 65.5t-29 91t-8 120t13 153l53 374h-144z" />
<glyph unicode="|" horiz-adv-x="593" d="M72 -215l264 1884h389l-264 -1884h-389z" />
<glyph unicode="}" horiz-adv-x="784" d="M-90 -354l182 336q45 -23 84 -23q42 0 58 19.5t26 93.5l135 962q11 73 0 93t-53 20q-38 0 -88 -23l-90 336q83 44 146 60t141 16q70 0 122.5 -9.5t96.5 -32.5t70 -60.5t43 -93t15 -131.5t-14 -175l-34 -254h143l-47 -334h-144l-53 -374q-20 -147 -58.5 -245.5t-99 -154.5 t-136 -79t-181.5 -23q-78 0 -136.5 16t-127.5 60z" />
<glyph unicode="~" horiz-adv-x="1247" d="M129 489l119 140q52 61 130 97t171 36q42 0 90 -13.5t70.5 -23.5t76.5 -35q84 -43 107 -43q24 0 53 33l113 119l203 -254l-119 -139q-52 -61 -130 -97.5t-171 -36.5q-13 0 -26.5 1.5t-24.5 2.5t-26 5.5t-23.5 6.5t-25 8t-22.5 8t-24 10t-21.5 9.5t-23.5 10.5t-21 10 q-80 43 -106 43q-25 0 -54 -33l-112 -118z" />
<glyph unicode="&#xa2;" horiz-adv-x="1130" d="M158 547q34 240 142.5 372.5t309.5 170.5l31 221h369l-29 -217q47 -8 88.5 -24t63 -28t57.5 -34l-184 -336q-69 32 -119 43.5t-113 11.5q-68 0 -109.5 -9.5t-65.5 -34.5t-34 -54.5t-18 -81.5q-10 -62 -2.5 -102t49.5 -59t131 -19q62 0 113.5 11t130.5 44l90 -336 q-116 -68 -234 -88l-28 -203h-369l31 205q-193 39 -264 172t-37 375z" />
<glyph unicode="&#xa8;" horiz-adv-x="1001" d="M291 1251q-8 39 0 99q9 60 28 98.5t49.5 57t61 24.5t74.5 6q21 0 37.5 -1t35 -4.5t30.5 -9.5t25 -15.5t19.5 -23.5t12.5 -33t4.5 -43.5t-4.5 -55.5q-8 -60 -27.5 -99t-50 -57t-61 -24.5t-74.5 -6.5t-73 6t-54 24.5t-33 57.5zM715 1251q-8 39 0 99q9 60 28 98.5t49.5 57 t61 24.5t74.5 6q25 0 43 -1.5t38.5 -6t33 -13t25.5 -22.5t17 -33.5t6.5 -47t-4.5 -62.5q-8 -60 -27.5 -99t-50 -57t-61 -24.5t-74.5 -6.5t-72.5 6t-53.5 24.5t-33 57.5z" />
<glyph unicode="&#xa9;" horiz-adv-x="1712" d="M205 729q21 153 100 292.5t194 240.5t263 161t301 60t284.5 -60t218 -161t127 -240.5t19.5 -292.5q-29 -205 -154.5 -378.5t-313 -274.5t-392.5 -101q-153 0 -284 60t-218 161t-127 240.5t-18 292.5zM389 729q-22 -155 35.5 -286t177.5 -207t275 -76t297 76t237 207 t117 286q16 116 -14.5 221.5t-96 181.5t-164.5 121t-215 45q-155 0 -297 -76t-236.5 -207t-115.5 -286zM633 723q27 194 129 284.5t278 90.5q75 0 134.5 -22.5t91.5 -45.5l-105 -192q-34 17 -80 26.5t-77 9.5q-35 -1 -55 -5.5t-40.5 -19t-33 -45.5t-19.5 -81 q-8 -41 -3.5 -68.5t10 -44t22.5 -25.5t33.5 -11.5t42.5 -2.5q30 0 79.5 9.5t87.5 25.5l52 -190q-39 -24 -105.5 -46t-140.5 -22q-176 0 -252 90t-49 285z" />
<glyph unicode="&#xab;" horiz-adv-x="1257" d="M141 571l279 385l309 -194l-143 -197l76 -192l-369 -183zM694 571l279 385l309 -194l-143 -197l75 -192l-368 -183z" />
<glyph unicode="&#xad;" horiz-adv-x="735" d="M184 559v334h531v-334h-531z" />
<glyph unicode="&#xae;" horiz-adv-x="1712" d="M205 729q21 153 100 292.5t194 240.5t263 161t301 60t284.5 -60t218 -161t127 -240.5t19.5 -292.5q-29 -205 -154.5 -378.5t-313 -274.5t-392.5 -101q-153 0 -284 60t-218 161t-127 240.5t-18 292.5zM389 729q-22 -155 35.5 -286t177.5 -207t275 -76t297 76t237 207 t117 286q16 116 -14.5 221.5t-96 181.5t-164.5 121t-215 45q-155 0 -297 -76t-236.5 -207t-115.5 -286zM602 358l103 727h350q25 0 40.5 -0.5t38.5 -3t37 -7t32 -13.5t28.5 -21.5t20.5 -31.5t14 -43t4 -57.5t-6 -73.5q-22 -150 -121 -209l67 -267h-239l-53 230h-58l-33 -230 h-225zM887 782h92q17 0 27 2.5t19 14.5t13 35q4 33 -7 42t-38 9h-92z" />
<glyph unicode="&#xb4;" horiz-adv-x="731" d="M285 1298l436 254l88 -264l-481 -121z" />
<glyph unicode="&#xb8;" horiz-adv-x="589" d="M37 -453l74 134q49 -21 92 -21q56 0 69 7t19 44q4 36 -7.5 43.5t-66.5 7.5h-14h-14q-20 0 -29.5 0.5t-23.5 3t-18.5 9t-9 17.5t-2.5 29t9 44l59 219l21 8q70 25 129 25h12l-57 -203q105 -8 143.5 -53t23.5 -150q-17 -115 -75 -160t-181 -45q-56 0 -89 10t-64 31z" />
<glyph unicode="&#xbb;" horiz-adv-x="1257" d="M145 373l129 192l-86 197l363 194l172 -385l-258 -381zM698 373l129 192l-86 197l363 194l172 -385l-258 -381z" />
<glyph unicode="&#x2c6;" horiz-adv-x="1052" d="M344 1432l399 120l367 -120l-162 -265l-237 154l-279 -154z" />
<glyph unicode="&#x2da;" horiz-adv-x="593" d="M326 1321q6 49 22.5 81t42 48t51.5 21.5t62 5.5q75 0 110 -31.5t23 -124.5q-6 -49 -22.5 -81t-42 -48t-51.5 -21.5t-62 -5.5q-75 0 -110 31.5t-23 124.5zM387 1321q-7 -56 15 -75t67 -19t72 19t34 75q8 56 -13 75t-66 19t-73 -19t-36 -75z" />
<glyph unicode="&#x2dc;" horiz-adv-x="798" d="M250 1350l72 82q32 36 78.5 57.5t97.5 21.5q63 0 147 -43q54 -26 64 -26q12 0 32 20l70 72l117 -176l-70 -82q-31 -37 -78.5 -58.5t-97.5 -21.5q-71 0 -147 43q-52 27 -66 27q-10 0 -31 -21l-69 -71z" />
<glyph unicode="&#x400;" horiz-adv-x="1206" d="M123 0l203 1454h981l-60 -420h-530l-15 -102h490l-57 -410h-490l-14 -102h530l-57 -420h-981zM571 1657l162 264l367 -254l-80 -131z" />
<glyph unicode="&#x401;" horiz-adv-x="1206" d="M123 0l203 1454h981l-60 -420h-530l-15 -102h490l-57 -410h-490l-14 -102h530l-57 -420h-981zM444 1619.5q-8 38.5 0 98.5q9 60 28.5 99t49.5 57.5t60.5 24.5t74.5 6q24 0 42.5 -1.5t39 -6.5t33 -13.5t25.5 -22.5t17.5 -33.5t7 -47t-4.5 -62.5q-8 -60 -27 -98.5t-50 -57 t-61.5 -24.5t-74.5 -6t-73 6t-54 24.5t-33 57zM868 1619.5q-8 38.5 0 98.5q9 60 28.5 99t49.5 57.5t60.5 24.5t74.5 6q24 0 42.5 -1.5t39 -6.5t33 -13.5t25.5 -22.5t17.5 -33.5t7 -47t-4.5 -62.5q-8 -60 -27 -98.5t-50 -57t-61.5 -24.5t-74.5 -6t-73 6t-54 24.5t-33 57z" />
<glyph unicode="&#x402;" horiz-adv-x="1603" d="M164 1028l59 426h1082l-60 -426h-315l-12 -94h186q59 0 107 -3t96.5 -11t86.5 -21t73.5 -34.5t60.5 -50t44 -68t28 -88.5t8.5 -112t-11.5 -138q-20 -143 -71.5 -269.5t-104 -206t-138.5 -161t-132.5 -115.5t-128.5 -89q-24 -16 -35 -24l-244 301q228 239 312 351 q74 100 86 190q11 79 -10.5 111t-102.5 32h-168l-74 -528h-448l143 1028h-317z" />
<glyph unicode="&#x403;" horiz-adv-x="1103" d="M102 0l203 1454h981l-59 -420h-531l-143 -1034h-451zM641 1667l436 254l88 -264l-481 -121z" />
<glyph unicode="&#x404;" horiz-adv-x="1386" d="M205 729q54 389 257.5 569.5t555.5 180.5q151 0 271.5 -44.5t183.5 -91.5l-211 -382q-68 33 -163 52t-157 19q-88 -2 -142 -21.5t-89 -78.5h342l-58 -410h-340q20 -58 68.5 -77t134.5 -19q60 0 160 19.5t180 52.5l100 -383q-78 -48 -211.5 -91.5t-279.5 -43.5 q-353 0 -505.5 180t-96.5 569z" />
<glyph unicode="&#x405;" horiz-adv-x="1277" d="M86 96l209 383q67 -31 198.5 -51t202.5 -20q49 0 66.5 12.5t21.5 34.5q5 48 -43 65q-19 7 -53 11.5t-68 7.5t-77.5 10.5t-80.5 19t-76.5 33t-65.5 53t-48 79t-24.5 111.5t6.5 150q15 112 54.5 197.5t110 151.5t181.5 100.5t260 34.5q158 0 305 -35t203 -76l-188 -383 q-73 35 -202.5 54.5t-203.5 7.5q-57 -10 -63 -50q-5 -39 43 -53q22 -6 90 -13q76 -8 120.5 -15.5t118.5 -37.5t112 -75.5t61 -133.5t6 -208q-69 -486 -615 -486q-173 0 -339 40.5t-222 80.5z" />
<glyph unicode="&#x406;" horiz-adv-x="694" d="M123 0l203 1454h450l-203 -1454h-450z" />
<glyph unicode="&#x407;" horiz-adv-x="655" d="M102 0l203 1454h451l-203 -1454h-451zM172 1619.5q-8 38.5 0 98.5q9 60 28.5 99t49.5 57.5t60.5 24.5t74.5 6q24 0 42.5 -1.5t39 -6.5t33 -13.5t25.5 -22.5t17.5 -33.5t7 -47t-4.5 -62.5q-8 -60 -27 -98.5t-50 -57t-61.5 -24.5t-74.5 -6t-73 6t-54 24.5t-33 57z M596 1619.5q-8 38.5 0 98.5q9 60 28.5 99t49.5 57.5t60.5 24.5t74.5 6q24 0 42.5 -1.5t39 -6.5t33 -13.5t25.5 -22.5t17.5 -33.5t7 -47t-4.5 -62.5q-8 -60 -27 -98.5t-50 -57t-61.5 -24.5t-74.5 -6t-73 6t-54 24.5t-33 57z" />
<glyph unicode="&#x408;" horiz-adv-x="1030" d="M74 80l194 385q69 -32 119 -43.5t113 -11.5q34 0 39 30l141 1014h450l-141 -1005q-15 -108 -53.5 -192t-89 -135.5t-115.5 -85t-127 -46.5t-129 -13q-249 0 -401 103z" />
<glyph unicode="&#x409;" horiz-adv-x="2174" d="M16 53l185 336q43 -22 84 -22t55 18.5t29 93.5l188 893l45 19q158 63 324 63h673l-61 -440h209q48 0 81 -1.5t77 -6.5t73.5 -15t64 -28.5t56 -44.5t41 -65t27.5 -88t7.5 -116t-11.5 -147q-20 -141 -63.5 -239.5t-90.5 -149t-124 -77t-132 -31.5t-147 -5h-660l144 1024 h-152l-119 -545q-32 -146 -81.5 -245t-118.5 -154.5t-149.5 -79t-186.5 -23.5q-78 0 -137 16t-130 60zM1452 399h143q26 0 41 2.5t32.5 12t28 31.5t15.5 57q1 18 3 32.5t-2.5 25t-7 18t-11 12.5t-14 7.5t-16.5 4t-19 2t-21 0.5h-143z" />
<glyph unicode="&#x40a;" horiz-adv-x="2166" d="M102 0l203 1454h451l-72 -512h385l72 512h450l-61 -440h209q48 0 81 -1.5t77 -6.5t73.5 -15t64 -28.5t55.5 -44.5t40.5 -64.5t27.5 -88t7.5 -116.5t-11.5 -147q-20 -141 -63.5 -239.5t-90.5 -149t-124 -77t-132 -31.5t-147 -5h-659l72 512h-385l-72 -512h-451zM1444 399 h143q26 0 41 2.5t32.5 12t28 31.5t15.5 57q1 18 3 32.5t-2.5 25t-7 18t-11 12.5t-14 7.5t-16.5 4t-19 2t-21 0.5h-143z" />
<glyph unicode="&#x40b;" horiz-adv-x="1501" d="M164 1028l59 426h1043l-60 -426h-317l-12 -94h104q101 0 177 -11t138.5 -35.5t100.5 -64.5t63 -98t26.5 -135t-9.5 -176l-58 -414h-448l55 399q2 16 2.5 30t-2.5 24t-5 18.5t-9.5 14t-11 9.5t-15.5 6.5t-17 4t-20.5 2t-21.5 0.5h-25h-86l-70 -508h-448l143 1028h-276z " />
<glyph unicode="&#x40c;" horiz-adv-x="1402" d="M102 0l203 1454h451l-72 -512h109l313 512h479l-446 -729l243 -725h-479l-170 512h-108l-72 -512h-451zM725 1667l436 254l88 -264l-481 -121z" />
<glyph unicode="&#x40d;" horiz-adv-x="1478" d="M102 0l203 1454h451l-35 -246q-18 -152 -66 -325l-45 -181l619 752h350l-203 -1454h-450l32 246q22 156 68 325l45 174l-618 -745h-351zM707 1657l161 264l367 -254l-80 -131z" />
<glyph unicode="&#x40e;" horiz-adv-x="1245" d="M33 80l194 385q110 -52 232 -55q18 0 26.5 1t14.5 6.5t4.5 16.5t-10.5 31l-226 543q-82 173 -53 378l8 68h357l92 -194q83 -176 80 -377l-2 -162l38 162q47 205 158 391l105 180h376l-6 -53q-14 -99 -47.5 -187t-93.5 -204l-291 -561q-72 -141 -140.5 -233.5t-139.5 -145 t-141.5 -73t-159.5 -20.5q-112 0 -211.5 28.5t-163.5 74.5zM481 1645l135 245q4 -2 30 -14.5t38 -18t39 -16t47.5 -15.5t49.5 -9.5t57 -4.5q33 0 65.5 5t66 15.5t53 17.5t54 22t41.5 18l66 -245q-2 -1 -19.5 -10.5t-27 -14.5t-31 -15t-38.5 -16.5t-42 -15.5t-49.5 -15 t-53 -11.5t-60.5 -8t-64 -2.5q-29 0 -58 2.5t-52 6t-48 10t-42 12t-38 14.5t-32.5 14t-29 15t-23 13.5t-19.5 12.5t-15 9z" />
<glyph unicode="&#x40f;" horiz-adv-x="1482" d="M102 0l203 1454h447l-146 -1038h385l146 1038h446l-203 -1454h-419l-50 -340h-448l49 340h-410z" />
<glyph unicode="&#x410;" horiz-adv-x="1302" d="M20 0l13 88q25 201 127 397l491 969h414l215 -967q43 -188 14 -397l-12 -90h-367l-32 205h-394l-88 -205h-381zM668 635h149q-8 132 -8 205l-2 241l-74 -241q-35 -125 -65 -205z" />
<glyph unicode="&#x411;" horiz-adv-x="1331" d="M102 0l203 1454h1063l-59 -420h-613l-14 -102h209q43 0 73 -1t69.5 -4.5t67.5 -11t61 -19.5t55 -30.5t44 -43.5t34.5 -60.5t20.5 -78.5t7 -99.5t-10 -122.5q-13 -94 -38.5 -167.5t-54.5 -121.5t-74.5 -81.5t-83 -51t-96.5 -27t-98.5 -11t-105.5 -1.5h-660zM608 399h144h9 q26 0 38 1t28.5 6.5t24 19t10.5 35.5t-1 35.5t-18.5 18.5t-26 6t-37.5 1h-5.5h-5.5h-143z" />
<glyph unicode="&#x412;" horiz-adv-x="1372" d="M102 0l203 1454h660h26q68 1 109.5 -1.5t113.5 -22.5t111 -59t63.5 -120.5t8.5 -197.5q-30 -200 -195 -322l-2 -6q92 -33 128 -118.5t18 -205.5q-10 -74 -32 -134t-51 -100t-64.5 -71.5t-74 -48t-79 -28.5t-78.5 -14t-74 -5t-64 0h-26h-701zM608 399h144h9q26 0 38 1 t28.5 6.5t24 19t10.5 35.5t-1 35.5t-18.5 18.5t-26 6t-37.5 1h-5.5h-5.5h-143zM682 930h143h11q21 0 30.5 0.5t24.5 3.5t22.5 9t14.5 18t10 30q3 22 -1.5 35.5t-19.5 19t-26.5 6.5t-37.5 1h-9h-144z" />
<glyph unicode="&#x413;" horiz-adv-x="1103" d="M102 0l203 1454h981l-59 -420h-531l-143 -1034h-451z" />
<glyph unicode="&#x414;" horiz-adv-x="1533" d="M61 -289l17 705h41q102 0 148 51.5t77 198.5l150 706l45 19q158 63 323 63h674l-145 -1038h180l-180 -705h-367l41 289h-596l-41 -289h-367zM713 414l227 2l86 608h-152l-77 -360q-36 -157 -84 -250z" />
<glyph unicode="&#x415;" horiz-adv-x="1206" d="M123 0l203 1454h981l-60 -420h-530l-15 -102h490l-57 -410h-490l-14 -102h530l-57 -420h-981z" />
<glyph unicode="&#x416;" horiz-adv-x="2068" d="M20 0l445 725l-242 729h479l170 -512h68l72 512h450l-71 -512h67l314 512h479l-447 -729l244 -725h-479l-170 512h-68l-71 -512h-451l72 512h-68l-313 -512h-480z" />
<glyph unicode="&#x417;" horiz-adv-x="1288" d="M94 96l209 383q67 -31 198.5 -51t203.5 -20q49 0 66.5 12.5t21.5 34.5q3 14 1.5 26t-8.5 20.5t-28 13.5t-56 5h-145l59 422l146 2q58 1 80.5 13.5t25.5 37.5q2 21 -8 34t-43 18q-71 12 -205 -7.5t-217 -54.5l-82 383q77 43 229 77t332 34q273 0 381.5 -101.5t73.5 -347.5 q-8 -63 -23 -108t-45.5 -85.5t-83.5 -63.5t-130 -30l-3 -8q80 -6 131 -33.5t70.5 -69t25 -96t-6.5 -114.5q-33 -243 -175 -345t-415 -102q-194 0 -355 39.5t-225 81.5z" />
<glyph unicode="&#x418;" horiz-adv-x="1478" d="M102 0l203 1454h451l-35 -246q-18 -152 -66 -325l-45 -181l619 752h350l-203 -1454h-450l32 246q22 156 68 325l45 174l-618 -745h-351z" />
<glyph unicode="&#x419;" horiz-adv-x="1478" d="M102 0l203 1454h451l-35 -246q-18 -152 -66 -325l-45 -181l619 752h350l-203 -1454h-450l32 246q22 156 68 325l45 174l-618 -745h-351zM598 1645l135 245q5 -3 30 -15t37.5 -17.5t39 -16t47.5 -15.5t49.5 -9.5t56.5 -4.5q33 0 65.5 5t66.5 15.5t53 17.5t54.5 22.5 t41.5 17.5l65 -245q-2 -1 -19.5 -10.5t-27 -14.5t-31 -15t-38.5 -16.5t-42 -15.5t-49.5 -15t-53 -11.5t-60.5 -8t-64 -2.5q-29 0 -57.5 2.5t-52 6t-48 10t-42 12t-38 14t-32.5 14t-28.5 15t-23 13.5t-20 12.5t-14.5 9.5z" />
<glyph unicode="&#x41a;" horiz-adv-x="1402" d="M102 0l203 1454h451l-72 -512h109l313 512h479l-446 -729l243 -725h-479l-170 512h-108l-72 -512h-451z" />
<glyph unicode="&#x41b;" horiz-adv-x="1499" d="M16 53l185 336q43 -22 84 -22t55 18.5t29 93.5l188 893l45 19q158 63 324 63h673l-202 -1454h-451l144 1024h-152l-119 -545q-32 -146 -81.5 -245t-118.5 -154.5t-149.5 -79t-186.5 -23.5q-78 0 -137 16t-130 60z" />
<glyph unicode="&#x41c;" horiz-adv-x="1961" d="M102 0l203 1454h475l191 -532q65 -186 65 -387l2 -119l35 119q59 203 176 387l338 532h475l-202 -1454h-451l31 225q28 198 94 406l43 127h-8l-424 -758h-328l-211 758h-8l6 -127q6 -219 -20 -406l-31 -225h-451z" />
<glyph unicode="&#x41d;" horiz-adv-x="1490" d="M102 0l203 1454h451l-72 -512h385l72 512h450l-202 -1454h-451l72 512h-385l-72 -512h-451z" />
<glyph unicode="&#x41e;" horiz-adv-x="1579" d="M184 729q54 389 258 569.5t555 180.5t503.5 -180.5t98.5 -569.5q-56 -389 -259 -569t-554 -180t-504.5 180t-97.5 569zM624.5 626.5q-0.5 -44.5 5 -76t20 -54t32 -36t45.5 -20.5t55.5 -9.5t67.5 -2.5q56 0 92.5 5t74 22.5t61.5 50t43.5 88t31.5 135.5q8 58 8 103t-6 76.5 t-21 54t-32.5 35.5t-45.5 20t-55.5 9.5t-66.5 2.5q-47 0 -78.5 -3.5t-65.5 -13.5t-56.5 -30.5t-43 -53.5t-34.5 -82.5t-23 -117.5q-8 -58 -8.5 -102.5z" />
<glyph unicode="&#x41f;" horiz-adv-x="1449" d="M102 0l203 1454h1245l-202 -1454h-451l143 1024h-344l-143 -1024h-451z" />
<glyph unicode="&#x420;" horiz-adv-x="1331" d="M102 0l203 1454h660q50 0 81.5 -1t77 -6t74 -14.5t63.5 -27t56 -43t41 -63.5t27.5 -86.5t7.5 -114.5t-11 -146q-15 -103 -41.5 -183t-57 -133.5t-75.5 -91.5t-84.5 -58t-97 -30.5t-99 -13t-104.5 -2.5h-209l-61 -440h-451zM672 850h143q26 0 41 2.5t32.5 11.5t28 31 t15.5 57q1 24 2.5 41.5t-6.5 29t-13.5 18t-19 9.5t-24 4t-27.5 1h-144z" />
<glyph unicode="&#x421;" horiz-adv-x="1345" d="M184 729q54 389 257.5 569.5t555.5 180.5q151 0 271.5 -44.5t183.5 -91.5l-211 -382q-68 33 -162.5 52t-156.5 19q-53 -1 -87 -6t-70.5 -22.5t-59.5 -50t-42 -88t-30 -136.5q-8 -58 -8.5 -102.5t4.5 -76t19.5 -54t31 -36t43 -21t52.5 -10.5t63 -3q60 0 160 19.5t180 52.5 l100 -383q-78 -48 -212 -91.5t-280 -43.5q-353 0 -505.5 180t-96.5 569z" />
<glyph unicode="&#x422;" horiz-adv-x="1306" d="M205 1024l59 430h1102l-59 -430h-326l-143 -1024h-451l143 1024h-325z" />
<glyph unicode="&#x423;" horiz-adv-x="1245" d="M33 80l194 385q110 -52 232 -55q18 0 26.5 1t14.5 6.5t4.5 16.5t-10.5 31l-226 543q-82 173 -53 378l8 68h357l92 -194q83 -176 80 -377l-2 -162l38 162q47 205 158 391l105 180h376l-6 -53q-14 -99 -47.5 -187t-93.5 -204l-291 -561q-72 -141 -140.5 -233.5t-139.5 -145 t-141.5 -73t-159.5 -20.5q-112 0 -211.5 28.5t-163.5 74.5z" />
<glyph unicode="&#x424;" horiz-adv-x="1843" d="M174.5 601q0.5 67 11.5 147q14 102 40.5 181.5t56 132t75.5 89t84 55.5t97 29t99 12t105 2h127l29 205h451l-29 -205h127q50 0 81.5 -1t77 -6t74 -14t64 -27t56 -43t41 -63t28 -86.5t7.5 -114.5t-11 -146q-15 -103 -41.5 -183t-57 -133.5t-75.5 -91.5t-84.5 -58 t-97 -30.5t-99 -13t-104.5 -2.5h-127l-33 -236h-451l33 236h-127q-48 0 -81 1.5t-77 6.5t-73.5 15t-64 28.5t-56 44.5t-41 65t-27.5 88t-7.5 116zM634.5 706.5q-1.5 -17.5 6.5 -29t13.5 -18t19 -9.5t24 -4t27.5 -1h61l29 205h-61q-26 0 -41 -2.5t-32.5 -11.5t-28 -31 t-15.5 -57q-1 -24 -2.5 -41.5zM1237 645h61q26 0 41 2.5t32.5 12t28 31.5t15.5 57q1 18 3 32.5t-2.5 25t-7 18t-11 12.5t-14 7.5t-16.5 4t-19 2t-21 0.5h-61z" />
<glyph unicode="&#x425;" horiz-adv-x="1216" d="M20 0l9 68q28 202 159 378l211 281l-131 281q-82 173 -53 378l8 68h398l77 -274q28 -93 31 -195l2 -100l31 100q36 109 84 195l155 274h398l-8 -68q-28 -201 -160 -378l-213 -281l133 -281q82 -173 53 -378l-8 -68h-397l-80 274q-26 96 -29 195l-2 100l-31 -100 q-37 -111 -86 -195l-153 -274h-398z" />
<glyph unicode="&#x426;" horiz-adv-x="1570" d="M102 0l203 1454h451l-146 -1038h377l146 1038h450l-145 -1038h180l-180 -705h-367l41 289h-1010z" />
<glyph unicode="&#x427;" horiz-adv-x="1392" d="M184 807q0 66 11 145l69 502h451l-70 -502q-5 -20 -2.5 -35.5t4 -26.5t9 -18.5t13 -11.5t16.5 -6.5t19.5 -3t20.5 -0.5q54 0 128.5 8.5t109.5 18.5l79 577h451l-203 -1454h-450l67 481q-104 -41 -313 -41q-44 0 -76 1.5t-73 7.5t-70 16t-62 29t-54 45t-40 65t-27 88 t-8 115z" />
<glyph unicode="&#x428;" horiz-adv-x="2064" d="M102 0l203 1454h447l-146 -1038h258l146 1038h448l-145 -1038h258l145 1038h449l-203 -1454h-1860z" />
<glyph unicode="&#x429;" horiz-adv-x="2152" d="M102 0l203 1454h449l-146 -1038h258l146 1038h446l-145 -1038h258l145 1038h449l-146 -1038h181l-181 -707h-366l41 291h-1592z" />
<glyph unicode="&#x42a;" horiz-adv-x="1525" d="M154 1034l59 420h737l-61 -440h209q48 0 81 -1.5t77 -6.5t73.5 -15t64 -28.5t55.5 -44.5t40.5 -64.5t27.5 -88t7.5 -116.5t-11.5 -147q-20 -141 -63.5 -239.5t-90.5 -149t-124 -77t-132 -31.5t-147 -5h-659l143 1034h-286zM803 399h143q26 0 41 2.5t32.5 12t28 31.5 t15.5 57q1 18 3 32.5t-2.5 25t-7 18t-11 12.5t-14 7.5t-16.5 4t-19 2t-21 0.5h-144z" />
<glyph unicode="&#x42b;" horiz-adv-x="1923" d="M102 0l203 1454h451l-62 -440h209q48 0 81 -1.5t77 -6.5t73.5 -15t64 -28.5t56 -44.5t41 -65t27.5 -88t7.5 -116t-11.5 -147q-20 -141 -63.5 -239.5t-90.5 -149t-124 -77t-132 -31.5t-147 -5h-660zM608 399h144q26 0 41 2.5t32.5 12t27.5 31.5t15 57q1 18 3 32.5t-2.5 25 t-7 18t-11 12.5t-14 7.5t-16.5 4t-19 2t-21 0.5h-143zM1370 0l203 1454h450l-202 -1454h-451z" />
<glyph unicode="&#x42c;" horiz-adv-x="1331" d="M102 0l203 1454h451l-62 -440h209q48 0 81 -1.5t77 -6.5t73.5 -15t64 -28.5t56 -44.5t41 -65t27.5 -88t7.5 -116t-11.5 -147q-20 -141 -63.5 -239.5t-90.5 -149t-124 -77t-132 -31.5t-147 -5h-660zM608 399h144q26 0 41 2.5t32.5 12t27.5 31.5t15 57q1 18 3 32.5t-2.5 25 t-7 18t-11 12.5t-14 7.5t-16.5 4t-19 2t-21 0.5h-143z" />
<glyph unicode="&#x42d;" horiz-adv-x="1386" d="M117 115l211 383q68 -33 163 -52.5t156 -19.5q86 0 139.5 19t87.5 77h-339l57 410h342q-10 31 -28 51.5t-46 30.5t-57 13.5t-72 4.5q-61 0 -160.5 -19t-179.5 -52l-100 382q78 48 209.5 92t281.5 44q234 0 378 -76.5t203.5 -244t22.5 -429.5q-56 -389 -259.5 -569 t-555.5 -180q-146 0 -268 44t-186 91z" />
<glyph unicode="&#x42e;" horiz-adv-x="2160" d="M102 0l203 1454h451l-72 -512h125q86 277 278 407t492 130q351 0 503.5 -180.5t98.5 -569.5q-56 -389 -259 -569t-554 -180q-299 0 -454 128t-162 404h-127l-72 -512h-451zM1205.5 626.5q-0.5 -44.5 5 -76t20.5 -54t32.5 -36t45.5 -20.5t55.5 -9.5t67.5 -2.5q56 0 92.5 5 t74 22.5t61.5 50t43.5 88t31.5 135.5q8 58 8 103t-6 76.5t-21 54t-32.5 35.5t-45.5 20t-55.5 9.5t-66.5 2.5q-57 0 -93.5 -5t-74 -22t-61 -49.5t-43 -88t-30.5 -136.5q-8 -58 -8.5 -102.5z" />
<glyph unicode="&#x42f;" horiz-adv-x="1423" d="M102 0l283 535q-161 117 -119 417q14 102 40.5 181.5t56 132t75.5 89t84 56t97 29.5t99 12t105 2h701l-203 -1454h-451l64 461h-117l-235 -461h-480zM714 919.5q-2 -14.5 2.5 -25t7 -18t11 -12.5t14 -7.5t16.5 -4t19 -2t21 -0.5h184l29 205h-184q-26 0 -41 -2.5 t-32.5 -12t-28 -31.5t-15.5 -57q-1 -18 -3 -32.5z" />
<glyph unicode="&#x430;" horiz-adv-x="1234" d="M158.5 306q-13.5 104 7.5 237q18 134 58.5 234.5t109.5 175t175.5 113t248.5 38.5q159 0 588 -39l-150 -1065h-195l-129 92q-72 -64 -130 -87t-140 -23q-142 0 -237.5 38t-144 110t-62 176zM547 475q-2 -25 2 -47t12.5 -32t29.5 -17t46 -8.5t68 -1.5h63q71 0 96 70 q9 27 21 104l18 133q6 41 -35 41h-114q-64 0 -95 -4t-54.5 -24.5t-32 -51t-17.5 -94.5q-6 -43 -8 -68z" />
<glyph unicode="&#x431;" d="M146 340q-4 118 20 270q19 134 44 244t51 191.5t61 145t66 105.5t75 72.5t78 46.5t85 26t87.5 13.5t91.5 6.5h5.5t4.5 0.5t5.5 0.5h4.5q129 8 204.5 17t99.5 15t85 24l91 -336q-74 -42 -217.5 -72.5t-286.5 -30.5q-99 0 -140 -29t-55 -100q57 24 98 31.5t105 7.5 q284 0 394.5 -110.5t74.5 -370.5q-38 -277 -196 -404t-461 -127q-177 0 -282.5 42t-147 122.5t-45.5 198.5zM541 500q-6 -42 3 -69.5t33 -41t51 -18t68 -4.5q85 0 133.5 26.5t59.5 106.5q6 42 -3.5 69.5t-33.5 41t-51 18t-68 4.5q-85 0 -133 -26.5t-59 -106.5z" />
<glyph unicode="&#x432;" horiz-adv-x="1126" d="M102 0l152 1085h557q33 0 57 -1t54 -4t51.5 -8.5t45 -16t39 -24.5t29 -35.5t19.5 -48t6 -62t-8 -78.5q-14 -72 -43.5 -108.5t-97.5 -59.5q60 -24 96.5 -54t48.5 -61.5t15 -68.5t-5 -74q-14 -101 -47.5 -173.5t-74 -112t-101.5 -62t-113.5 -28t-126.5 -5.5h-553zM537 295 h116h8q18 0 27 1t21 7.5t19 23t11 44.5q10 67 -25 76q-8 2 -40 2h-117zM590 709h96q18 0 28.5 2t21 14.5t14.5 36.5q4 35 -9 46t-39 11h-96z" />
<glyph unicode="&#x433;" horiz-adv-x="1064" d="M150 340q6 44 18 81.5t25 66t36.5 53t42.5 41t53.5 32.5t58.5 25.5t69 21t73 18t83 18t87 18.5q7 2 16 9.5t9 14.5v7t-6.5 9t-16.5 7q-42 10 -176.5 -6t-199.5 -43l-64 313q55 30 192 55t277 25q107 0 181.5 -18t126.5 -59t70 -112.5t3 -175.5q-10 -76 -36.5 -130.5 t-52 -85.5t-89 -57t-100.5 -35.5t-133 -29.5q-76 -16 -117 -26q-6 -2 -15 -12.5t-10 -20.5q-2 -11 12 -15.5t51 -4.5q63 0 130.5 10.5t143 28.5t77.5 18l84 -313q-58 -29 -212.5 -58.5t-303.5 -29.5q-105 0 -180 18t-128 58.5t-73 111.5t-6 172z" />
<glyph unicode="&#x434;" horiz-adv-x="1263" d="M66 -369l184 336q59 -28 155 -41.5t160 -13.5q99 0 140 29t55 100q-57 -24 -97.5 -31.5t-107.5 -7.5q-115 0 -197 17t-143 55t-90.5 99t-39.5 150.5t9 208.5q42 303 186.5 437.5t409.5 134.5q96 0 150 -22.5t110 -88.5l154 92h194l-139 -995q-41 -292 -189 -426.5 t-429 -134.5q-143 0 -278 30t-197 72zM477 473q-2 -25 2 -47t12.5 -32t29.5 -17t46 -8.5t68 -1.5h84q27 0 47 11t31 24.5t19.5 42.5t11.5 47t8 55q0 4 1 11q5 45 7.5 79.5t-16 56t-60.5 21.5h-84q-52 0 -80.5 -3.5t-51.5 -12t-34.5 -29.5t-19 -49.5t-13.5 -79.5 q-6 -43 -8 -68z" />
<glyph unicode="&#x435;" horiz-adv-x="1208" d="M158 541q40 292 191 427.5t409 135.5q257 0 370.5 -135.5t73.5 -427.5q-97 -50 -186.5 -65t-214.5 -15h-250q-2 -27 5.5 -45.5t19 -28t33 -14.5t40 -6t47.5 0q103 2 178 11.5t173 35.5l65 -353q-233 -84 -477 -84q-282 0 -400.5 135t-76.5 429zM575 625h230 q22 101 -57 109q-10 1 -28 1h-5q-31 0 -51 -3t-42 -13t-34 -33.5t-13 -60.5z" />
<glyph unicode="&#x436;" horiz-adv-x="1888" d="M20 0l453 543l-301 542h469l170 -356h41l49 356h389l-49 -356h41l268 356h469l-452 -542l301 -543h-473l-166 358h-41l-49 -358h-389l49 358h-41l-264 -358h-474z" />
<glyph unicode="&#x437;" horiz-adv-x="1064" d="M70 68l192 340q6 -1 74 -18.5t133.5 -28.5t128.5 -11q65 0 68 21q4 28 -10 40.5t-70 12.5h-160l35 246h160q88 0 94 41q3 20 -23 26q-45 10 -178 -5.5t-197 -43.5l-79 338q55 30 191.5 55t270.5 25q210 0 314 -78t78 -256q-13 -94 -63 -144t-175 -77q121 -34 162.5 -91 t27.5 -155q-10 -71 -39.5 -126.5t-74 -92.5t-104.5 -61t-127 -34.5t-146 -10.5q-141 0 -287.5 29.5t-195.5 58.5z" />
<glyph unicode="&#x438;" horiz-adv-x="1261" d="M178 541l76 544h389l-76 -544q-6 -43 -8 -68t2 -47t12.5 -32t29.5 -17t46 -8.5t68 -1.5h43q27 0 47 11t31 24.5t19.5 42.5t11.5 47t8 55l75 538h387l-151 -1085h-195l-129 92q-72 -67 -124 -91t-124 -24q-267 0 -373.5 132.5t-64.5 431.5z" />
<glyph unicode="&#x439;" horiz-adv-x="1261" d="M178 541l76 544h389l-76 -544q-6 -43 -8 -68t2 -47t12.5 -32t29.5 -17t46 -8.5t68 -1.5h43q27 0 47 11t31 24.5t19.5 42.5t11.5 47t8 55l75 538h387l-151 -1085h-195l-129 92q-72 -67 -124 -91t-124 -24q-267 0 -373.5 132.5t-64.5 431.5zM453 1276l135 246q5 -3 30 -15 t37.5 -17.5t39 -16t47.5 -15.5t49.5 -9.5t56.5 -4.5q33 0 65.5 5t66 15.5t53 17.5t54 22t41.5 18l66 -246q-2 -1 -19.5 -10.5t-27 -14.5t-31 -15t-38.5 -16.5t-42 -15.5t-49.5 -15t-53 -11.5t-60.5 -8t-64 -2.5q-29 0 -57.5 2.5t-52 6t-48 10t-42 12t-38 14t-32.5 14 t-28.5 15t-23 13.5t-20 12.5t-14.5 9.5z" />
<glyph unicode="&#x43a;" horiz-adv-x="1241" d="M102 0l152 1085h389l-49 -356h41l268 356h469l-452 -542l301 -543h-473l-166 358h-41l-49 -358h-390z" />
<glyph unicode="&#x43b;" horiz-adv-x="1228" d="M6 39l148 291q35 -17 65 -17q28 0 39.5 14t22.5 70l129 627l34 14q113 47 244 47h606l-151 -1085h-389l106 764h-112l-89 -406q-23 -108 -64.5 -182.5t-99 -115.5t-122.5 -58.5t-146 -17.5q-131 0 -221 55z" />
<glyph unicode="&#x43c;" horiz-adv-x="1624" d="M102 0l152 1085h448l113 -313q48 -124 51 -289v-90l27 90q44 147 131 289l201 313h448l-151 -1085h-389l22 168q18 142 72 305l30 94h-6l-315 -567h-246l-162 567h-6l6 -94q8 -136 -14 -305l-22 -168h-390z" />
<glyph unicode="&#x43d;" horiz-adv-x="1234" d="M102 0l152 1085h389l-49 -354h252l49 354h389l-151 -1085h-390l54 391h-252l-53 -391h-390z" />
<glyph unicode="&#x43e;" d="M158 541q41 295 198 429t443 134t406 -134t79 -429q-42 -295 -199.5 -429.5t-443.5 -134.5t-405.5 134.5t-77.5 429.5zM546.5 447.5q7.5 -36.5 31.5 -53t50 -22t68 -5.5t69.5 5.5t56.5 22t47 53t26 93.5q2 39 2.5 67.5t-11 48t-23 31t-32.5 17.5t-40 8t-46 2 q-42 0 -70 -5.5t-56.5 -22t-46.5 -53t-25 -93.5q-8 -57 -0.5 -93.5z" />
<glyph unicode="&#x43f;" horiz-adv-x="1269" d="M102 0l152 1085h195l129 -92q78 71 127 93t137 22q253 0 358.5 -132.5t63.5 -430.5l-76 -545h-389l75 545q6 43 8 68t-2 47t-12.5 31.5t-29 17t-45.5 9t-68 1.5h-43q-23 0 -40.5 -6t-29.5 -21.5t-19.5 -27t-13.5 -39t-8.5 -40t-7.5 -46.5l-74 -539h-387z" />
<glyph unicode="&#x440;" horiz-adv-x="1310" d="M39 -451l215 1536h195l129 -92q74 66 133 88.5t155 22.5q265 0 372 -134.5t65 -437.5q-41 -296 -185 -423t-428 -127q-64 0 -103 8t-93 33l-66 -474h-389zM556.5 460.5q-1.5 -27.5 2.5 -39t12 -27t23.5 -21.5t38.5 -6h84q58 0 95 10t57.5 34t29.5 52.5t16 77.5 q8 58 3.5 97t-40 58t-112.5 19h-84q-27 0 -47 -9.5t-31.5 -22t-19.5 -38.5t-11 -44.5t-8 -53.5q-4 -34 -5.5 -46.5t-3 -40z" />
<glyph unicode="&#x441;" horiz-adv-x="1130" d="M158 547q41 293 195.5 427t457.5 134q79 0 139.5 -8t106.5 -25t71 -30t62 -37l-184 -336q-69 32 -119 43.5t-113 11.5q-68 0 -109.5 -9.5t-65.5 -34.5t-34 -54.5t-18 -81.5q-10 -62 -2.5 -102t49.5 -59t131 -19q62 0 113.5 11t130.5 44l90 -336q-89 -51 -181 -76.5 t-229 -25.5q-302 0 -417.5 135t-73.5 428z" />
<glyph unicode="&#x442;" horiz-adv-x="1888" d="M102 0l152 1085h195l129 -92q76 70 120 92.5t103 22.5q246 0 354 -129q39 62 108.5 95.5t196.5 33.5q253 0 358.5 -132.5t63.5 -430.5l-76 -545h-389l76 545q6 43 8 68t-2 47t-12.5 32t-29.5 17t-46 8.5t-68 1.5q-27 0 -46.5 -10t-31 -23t-20 -38t-12 -43t-8.5 -49 q-1 -7 -2 -11l-76 -545h-389l76 545q6 43 8 68t-2 47t-12.5 32t-29.5 17t-46 8.5t-68 1.5q-20 0 -36.5 -6t-27 -13t-20 -24t-14 -27t-10 -35t-7.5 -35.5t-6 -39.5l-74 -539h-387z" />
<glyph unicode="&#x443;" horiz-adv-x="1269" d="M86 -369l184 336q59 -28 155.5 -41.5t160.5 -13.5q94 0 139.5 45.5t60.5 124.5q-57 -24 -98 -31.5t-108 -7.5q-143 0 -231.5 26.5t-139.5 88.5t-58.5 163.5t11.5 251.5l71 512h390l-72 -503q-6 -44 -7.5 -68.5t2.5 -46.5t12.5 -31.5t29 -17t45 -9t67.5 -1.5h43 q27 0 47.5 11t31.5 25t20 41.5t12 47.5t8 55l70 497h387l-139 -995q-41 -292 -189.5 -426.5t-429.5 -134.5q-143 0 -278 30t-197 72z" />
<glyph unicode="&#x444;" horiz-adv-x="1906" d="M158 553q42 297 170.5 424t380.5 127q65 0 104.5 -8t91.5 -33l56 391l47 19q158 63 323 63h33l-68 -473q61 25 102.5 33t106.5 8q252 0 345 -127t51 -424q-41 -300 -171 -433.5t-380 -133.5q-65 0 -105 8t-94 33l-68 -482h-391l68 482q-60 -25 -101 -33t-106 -8 q-250 0 -343 134t-52 433zM543.5 448q4.5 -39 40 -58t112.5 -19h23q27 0 47 11t31 24.5t19.5 42.5t11.5 47t8 55q6 37 8 54t1 43.5t-8.5 39t-24.5 22t-44 9.5h-23q-58 0 -95 -10t-57.5 -34t-29.5 -52.5t-16 -77.5q-8 -58 -3.5 -97zM1218 421q12 -50 72 -50h23q58 0 95 10 t57.5 34t29.5 52.5t16 77.5q8 58 3.5 97t-40 58t-112.5 19h-23q-26 0 -45.5 -9t-30.5 -20.5t-19 -36t-11.5 -42t-8.5 -50.5q0 -3 -0.5 -5.5t-0.5 -4.5q-13 -99 -5 -130z" />
<glyph unicode="&#x445;" horiz-adv-x="1110" d="M20 0l9 59q10 82 41 147t90 130l213 244l-107 172q-39 64 -51.5 128.5t-1.5 147.5l8 57h328l8 -18q44 -118 68 -225l28 -137l66 137q61 119 133 225l12 18h326l-8 -57q-10 -81 -41 -146t-90 -130l-154 -172l147 -244q74 -124 54 -277l-8 -59h-324l-57 84q-80 122 -91 270 l-6 64l-22 -66q-55 -146 -170 -270l-78 -82h-322z" />
<glyph unicode="&#x446;" d="M178 541l76 544h389l-76 -544q-6 -43 -8 -68t2 -47t12.5 -32t29.5 -17t46 -8.5t68 -1.5h43q27 0 47 11t31 24.5t19.5 42.5t11.5 47t8 55l75 538h387l-104 -745h195l-148 -604h-328l39 264l-129 92q-72 -67 -124 -91t-124 -24q-267 0 -373.5 132.5t-64.5 431.5z" />
<glyph unicode="&#x447;" horiz-adv-x="1249" d="M175 498.5q-31 122.5 1 320.5l37 266h389l-37 -258q-8 -58 -3.5 -97t40.5 -58t113 -19h43q26 0 45 10t30 23t19 38.5t11.5 43.5t8.5 51q1 10 2 15l35 251h389l-151 -1085h-389l43 309q-61 -25 -102.5 -33t-106.5 -8q-188 0 -287 54t-130 176.5z" />
<glyph unicode="&#x448;" horiz-adv-x="1888" d="M158 541l75 544h390l-76 -544q-6 -43 -8 -68t2 -47t12.5 -31.5t29 -17t45.5 -9t68 -1.5q27 0 47 10.5t31 23t20.5 39t12.5 42.5t9 51q0 2 0.5 4t0.5 4l76 544h389l-76 -544q-6 -43 -8 -68t2 -47t12.5 -32t29.5 -17t46 -8.5t68 -1.5q28 0 48.5 11t31.5 24.5t19.5 42.5 t11.5 47t8 55l75 538h387l-151 -1085h-195l-129 92q-78 -70 -121 -92.5t-102 -22.5q-246 0 -354 129q-39 -62 -108.5 -95.5t-196.5 -33.5q-252 0 -358 133t-64 431z" />
<glyph unicode="&#x449;" horiz-adv-x="1888" d="M158 541l75 544h390l-76 -544q-6 -43 -8 -68t2 -47t12.5 -31.5t29 -17t45.5 -9t68 -1.5q27 0 47 10.5t31 23t20.5 39t12.5 42.5t9 51q0 2 0.5 4t0.5 4l76 544h389l-76 -544q-6 -43 -8 -68t2 -47t12.5 -32t29.5 -17t46 -8.5t68 -1.5q28 0 48.5 11t31.5 24.5t19.5 42.5 t11.5 47t8 55l75 538h387l-104 -745h195l-148 -604h-328l39 264l-129 92q-78 -70 -121 -92.5t-102 -22.5q-246 0 -354 129q-39 -62 -108.5 -95.5t-196.5 -33.5q-252 0 -358 133t-64 431z" />
<glyph unicode="&#x44a;" horiz-adv-x="1204" d="M115 743l47 342h600l-39 -276h102q41 0 73.5 -2t67.5 -7.5t62 -15t53.5 -25t44.5 -37.5t33 -53t21.5 -69.5t6 -89t-8.5 -111.5q-11 -77 -30.5 -138t-44 -102.5t-59.5 -71.5t-69 -46.5t-81 -26t-86.5 -12t-94.5 -2.5h-492l105 743h-211zM655 326h62q19 0 29 1.5t23 8 t20.5 22t11.5 41.5t0.5 42t-14.5 22.5t-21.5 8t-28.5 1.5h-61z" />
<glyph unicode="&#x44b;" horiz-adv-x="1556" d="M102 0l152 1085h389l-39 -276h103q41 0 73.5 -2t67.5 -7.5t61.5 -15t53 -25t45 -37.5t33 -53t21 -69.5t6 -89t-8.5 -111.5q-11 -77 -30.5 -138t-44 -102.5t-59.5 -71.5t-69 -46.5t-81 -26t-86.5 -12t-94.5 -2.5h-492zM537 326h61q19 0 29 1.5t23 8t20.5 22t11.5 41.5 t0.5 42t-14.5 22.5t-21.5 8t-28.5 1.5h-61zM1065 0l152 1085h389l-152 -1085h-389z" />
<glyph unicode="&#x44c;" horiz-adv-x="1085" d="M102 0l152 1085h389l-39 -276h103q41 0 73.5 -2t67.5 -7.5t61.5 -15t53 -25t45 -37.5t33 -53t21 -69.5t6 -89t-8.5 -111.5q-11 -77 -30.5 -138t-44 -102.5t-59.5 -71.5t-69 -46.5t-81 -26t-86.5 -12t-94.5 -2.5h-492zM537 326h61q19 0 29 1.5t23 8t20.5 22t11.5 41.5 t0.5 42t-14.5 22.5t-21.5 8t-28.5 1.5h-61z" />
<glyph unicode="&#x44d;" horiz-adv-x="1130" d="M92 86l184 336q69 -32 119 -43.5t113 -11.5q90 0 135.5 18.5t67.5 60.5h-297l28 205h295q-9 39 -50.5 57.5t-129.5 18.5q-62 0 -113.5 -11t-130.5 -44l-90 336q57 32 98 49.5t124 34t186 16.5q303 0 418.5 -134t74.5 -427q-42 -293 -195.5 -428t-455.5 -135 q-137 0 -221 25.5t-160 76.5z" />
<glyph unicode="&#x44e;" horiz-adv-x="1789" d="M102 0l152 1085h389l-49 -354h106q68 194 215.5 283.5t382.5 89.5q286 0 406.5 -134t79.5 -429q-42 -295 -199.5 -429.5t-443.5 -134.5q-247 0 -371 99.5t-125 314.5h-100l-53 -391h-390zM1046.5 447.5q7.5 -36.5 31.5 -53t50 -22t68 -5.5t69.5 5.5t56.5 22t47 53 t26 93.5q2 39 2.5 67.5t-11 48t-23 31t-32.5 17.5t-40 8t-46 2q-42 0 -70 -5.5t-56.5 -22t-46.5 -53t-25 -93.5q-8 -57 -0.5 -93.5z" />
<glyph unicode="&#x44f;" horiz-adv-x="1105" d="M102 0l21 156q14 99 92 180l107 104q-9 4 -28.5 11.5t-28.5 12t-24 14t-21.5 20t-15 28.5t-10.5 41t-1.5 55.5t6.5 73.5q11 75 31 134t45 99.5t60.5 69.5t70 45.5t81 26t85.5 12t92 2.5h491l-151 -1085h-390l54 385l-29 -61q-45 -93 -119 -179l-125 -145h-293zM574.5 644 q3.5 -16 14.5 -22.5t21.5 -8t28.5 -1.5h74l20 148h-74q-18 0 -28.5 -1.5t-23.5 -8t-20.5 -22.5t-11.5 -42t-0.5 -42z" />
<glyph unicode="&#x450;" horiz-adv-x="1208" d="M158 541q40 292 191 427.5t409 135.5q257 0 370.5 -135.5t73.5 -427.5q-97 -50 -186.5 -65t-214.5 -15h-250q-2 -27 5.5 -45.5t19 -28t33 -14.5t40 -6t47.5 0q103 2 178 11.5t173 35.5l65 -353q-233 -84 -477 -84q-282 0 -400.5 135t-76.5 429zM520 1288l162 264 l367 -254l-80 -131zM575 625h230q22 101 -57 109q-10 1 -28 1h-5q-31 0 -51 -3t-42 -13t-34 -33.5t-13 -60.5z" />
<glyph unicode="&#x451;" horiz-adv-x="1208" d="M158 541q40 292 191 427.5t409 135.5q257 0 370.5 -135.5t73.5 -427.5q-97 -50 -186.5 -65t-214.5 -15h-250q-2 -27 5.5 -45.5t19 -28t33 -14.5t40 -6t47.5 0q103 2 178 11.5t173 35.5l65 -353q-233 -84 -477 -84q-282 0 -400.5 135t-76.5 429zM395 1251q-8 39 0 99 q9 60 28 98.5t49.5 57t61 24.5t74.5 6q21 0 37.5 -1t35 -4.5t30.5 -9.5t25 -15.5t19.5 -23.5t12.5 -33t4.5 -43.5t-4.5 -55.5q-8 -60 -27.5 -99t-50 -57t-61 -24.5t-74.5 -6.5t-73 6t-54 24.5t-33 57.5zM575 625h230q22 101 -57 109q-10 1 -28 1h-5q-31 0 -51 -3t-42 -13 t-34 -33.5t-13 -60.5zM819 1251q-8 39 0 99q9 60 28 98.5t49.5 57t61 24.5t74.5 6q21 0 37.5 -1t35 -4.5t30.5 -9.5t25 -15.5t19.5 -23.5t12.5 -33t4.5 -43.5t-4.5 -55.5q-8 -60 -27.5 -99t-50 -57t-61 -24.5t-74.5 -6.5t-73 6t-54 24.5t-33 57.5z" />
<glyph unicode="&#x452;" horiz-adv-x="1323" d="M154 885l51 356h211l28 215h416l-29 -211h349l-52 -356h-348l-12 -96h150q68 0 124 -9.5t105.5 -31t83 -57t57 -87.5t26.5 -122.5t-7 -161.5q-12 -83 -36.5 -158t-53.5 -132t-69.5 -110.5t-75 -90t-81 -74.5t-76 -59t-70.5 -48q-19 -13 -28 -19l-194 240q7 8 43.5 47 t69 75t72 82t62.5 77q38 51 51.5 85t18.5 76q12 89 -4 121.5t-80 32.5h-133l-66 -469h-415l123 885h-211z" />
<glyph unicode="&#x453;" horiz-adv-x="880" d="M150 340q6 44 18 81.5t25 66t36.5 53t42.5 41t53.5 32.5t58.5 25.5t69 21t73 18t83 18t87 18.5q7 2 16 9.5t9 14.5v7t-6.5 9t-16.5 7q-42 10 -176.5 -6t-199.5 -43l-64 313q55 30 192 55t277 25q107 0 181.5 -18t126.5 -59t70 -112.5t3 -175.5q-10 -76 -36.5 -130.5 t-52 -85.5t-89 -57t-100.5 -35.5t-133 -29.5q-76 -16 -117 -26q-6 -2 -15 -12.5t-10 -20.5q-2 -11 12 -15.5t51 -4.5q63 0 130.5 10.5t143 28.5t77.5 18l84 -313q-58 -29 -212.5 -58.5t-303.5 -29.5q-105 0 -180 18t-128 58.5t-73 111.5t-6 172zM514 1298l436 254l88 -264 l-481 -121z" />
<glyph unicode="&#x454;" horiz-adv-x="1130" d="M158 547q41 293 195.5 427t457.5 134q79 0 139.5 -8t106.5 -25t71 -30t62 -37l-184 -336q-69 32 -119 43.5t-113 11.5q-88 0 -133 -18t-68 -58h295l-28 -205h-297q9 -42 50 -60.5t132 -18.5q62 0 113.5 11t130.5 44l90 -336q-89 -51 -181 -76.5t-229 -25.5 q-302 0 -417.5 135t-73.5 428z" />
<glyph unicode="&#x455;" horiz-adv-x="1105" d="M90 68l174 313l71 -18q71 -18 135.5 -28.5t127.5 -10.5q65 0 68 20q1 10 -5 20.5t-12 12.5q-38 10 -109 26q-44 9 -64.5 14t-56.5 15t-52.5 17t-43.5 19.5t-38.5 25t-28.5 30.5t-23 39t-11.5 48t-4.5 59t6 71q29 202 148 283.5t336 81.5q140 0 270 -25t178 -55l-154 -313 q-56 27 -185.5 43t-174.5 6q-21 -4 -31 -23q0 -7 7 -14.5t14 -9.5q30 -7 87 -20q113 -25 164 -41.5t110.5 -54t75.5 -100t3 -159.5q-28 -197 -151 -278.5t-338 -81.5q-149 0 -295.5 29.5t-196.5 58.5z" />
<glyph unicode="&#x456;" horiz-adv-x="593" d="M102 0l140 1004l47 18q158 63 323 63h31l-151 -1085h-390zM287 1321q9 61 29.5 101t52.5 60t64.5 27t76.5 7t74.5 -7t56.5 -27t35 -60t0 -101q-8 -61 -28.5 -101t-52 -60t-64 -27t-76.5 -7t-75 7t-57 27t-35 60t-1 101z" />
<glyph unicode="&#x457;" horiz-adv-x="593" d="M88 1251q-8 39 0 99q9 60 28 98.5t49.5 57t61 24.5t74.5 6q21 0 37.5 -1t35 -4.5t30.5 -9.5t25 -15.5t19.5 -23.5t12.5 -33t4.5 -43.5t-4.5 -55.5q-8 -60 -27.5 -99t-50 -57t-61 -24.5t-74.5 -6.5t-73 6t-54 24.5t-33 57.5zM102 0l140 1004l47 18q158 63 323 63h31 l-151 -1085h-390zM512 1251q-8 39 0 99q9 60 28 98.5t49.5 57t61 24.5t74.5 6q21 0 37.5 -1t35 -4.5t30.5 -9.5t25 -15.5t19.5 -23.5t12.5 -33t4.5 -43.5t-4.5 -55.5q-8 -60 -27.5 -99t-50 -57t-61 -24.5t-74.5 -6.5t-73 6t-54 24.5t-33 57.5z" />
<glyph unicode="&#x458;" horiz-adv-x="782" d="M-55 -395l182 336q45 -23 84 -23q42 0 59 20t27 93l135 973l47 18q158 63 324 63h31l-148 -1054q-21 -147 -59.5 -245.5t-99.5 -154.5t-136.5 -79t-181.5 -23q-78 0 -135.5 16t-128.5 60zM477 1321q9 61 29.5 101t52.5 60t64.5 27t76.5 7t74.5 -7t56.5 -27t35 -60t0 -101 q-8 -61 -28.5 -101t-52 -60t-64 -27t-76.5 -7t-75 7t-57 27t-35 60t-1 101z" />
<glyph unicode="&#x459;" horiz-adv-x="1744" d="M14 39l148 291q35 -17 65 -17q28 0 39.5 14t22.5 70l129 627l35 14q113 47 243 47h607l-39 -276h102q41 0 73.5 -2t67.5 -7.5t61.5 -15t53 -25t45 -37.5t33 -53t21 -69.5t6 -89t-8.5 -111.5q-11 -77 -30.5 -138t-44 -102.5t-59.5 -71.5t-69 -46.5t-81 -26t-86.5 -12 t-94.5 -2.5h-491l106 764h-112l-88 -406q-23 -108 -64.5 -182.5t-99 -115.5t-122.5 -58.5t-146 -17.5q-132 0 -222 55zM1196 326h61q19 0 29 1.5t23 8t20.5 22t11.5 41.5t0.5 42t-14.5 22.5t-21 8t-28 1.5h-61z" />
<glyph unicode="&#x45a;" horiz-adv-x="1726" d="M102 0l152 1085h389l-49 -354h252l49 354h389l-39 -276h103q41 0 73.5 -2t67.5 -7.5t61.5 -15t53 -25t45 -37.5t33 -53t21 -69.5t6 -89t-8.5 -111.5q-11 -77 -30.5 -138t-44 -102.5t-59.5 -71.5t-69 -46.5t-81 -26t-86.5 -12t-94.5 -2.5h-492l54 391h-252l-53 -391h-390z M1178 326h61q19 0 29 1.5t23 8t20.5 22t11.5 41.5t0.5 42t-14.5 22.5t-21 8t-28 1.5h-62z" />
<glyph unicode="&#x45b;" horiz-adv-x="1302" d="M152 944l45 318h194l39 274h389l-39 -274h428l-45 -318h-428l-22 -166q79 39 194 39q49 0 78 -1t70.5 -4.5t66 -11t55.5 -22t47.5 -35t33.5 -51.5t22.5 -71t5 -93.5t-9.5 -119.5l-55 -408h-387l49 362q6 41 6 69t-23.5 42t-77.5 14q-43 0 -68.5 -7t-39 -27t-17.5 -36.5 t-10 -54.5l-49 -362h-389l131 944h-194z" />
<glyph unicode="&#x45c;" horiz-adv-x="1241" d="M102 0l152 1085h389l-49 -356h41l268 356h469l-452 -542l301 -543h-473l-166 358h-41l-49 -358h-390zM612 1298l437 254l88 -264l-482 -121z" />
<glyph unicode="&#x45d;" horiz-adv-x="1261" d="M178 541l76 544h389l-76 -544q-6 -43 -8 -68t2 -47t12.5 -32t29.5 -17t46 -8.5t68 -1.5h43q27 0 47 11t31 24.5t19.5 42.5t11.5 47t8 55l75 538h387l-151 -1085h-195l-129 92q-72 -67 -124 -91t-124 -24q-267 0 -373.5 132.5t-64.5 431.5zM489 1288l162 264l367 -254 l-80 -131z" />
<glyph unicode="&#x45e;" horiz-adv-x="1142" d="M25 -369l184 336q59 -28 155 -41.5t160 -13.5q168 0 201 170q-57 -24 -98.5 -31.5t-108.5 -7.5q-143 0 -231.5 26.5t-139.5 88.5t-58.5 163.5t11.5 251.5l72 512h389l-72 -503q-5 -43 -7 -68t2 -47t12.5 -31.5t29 -17t45.5 -9t68 -1.5h43q27 0 47.5 11t31.5 25t20 41.5 t12 47.5t8 55l69 497h387l-139 -995q-41 -292 -189 -426.5t-429 -134.5q-143 0 -278 30t-197 72zM442 1276l136 246q5 -3 30 -15t37.5 -17.5t39 -16t47.5 -15.5t49.5 -9.5t56.5 -4.5q33 0 65.5 5t66 15.5t53 17.5t54 22t41.5 18l66 -246q-2 -1 -19.5 -10.5t-27 -14.5 t-31 -15t-38.5 -16.5t-42 -15.5t-49.5 -15t-53 -11.5t-60.5 -8t-64 -2.5q-29 0 -58 2.5t-52 6t-48 10t-42 12t-38 14.5t-32.5 14t-29 15t-23 13.5t-19.5 12.5t-15 9z" />
<glyph unicode="&#x45f;" horiz-adv-x="1179" d="M102 0l152 1087h373l-105 -747h230l104 747h373l-152 -1087h-299l-51 -354h-373l52 354h-304z" />
<glyph unicode="&#x474;" horiz-adv-x="1302" d="M211 1366l12 88h381l66 -440q29 -171 32 -400l5 -241l71 241q47 170 146 400l194 440h367l-12 -90q-29 -206 -125 -397l-486 -967h-413l-222 969q-45 186 -16 397z" />
<glyph unicode="&#x475;" horiz-adv-x="1150" d="M168 1059l4 26h365l55 -315q26 -141 29 -317l-3 -146l39 146q43 157 115 317l146 315h364l-4 -26q-23 -164 -111 -314l-401 -745h-381l-192 745q-48 150 -25 314z" />
<glyph unicode="&#x476;" horiz-adv-x="1302" d="M-27 1657l88 264l437 -254l-43 -131zM211 1366l12 88h381l66 -440q29 -171 32 -400l5 -241l71 241q47 170 146 400l194 440h367l-12 -90q-29 -206 -125 -397l-486 -967h-413l-222 969q-45 186 -16 397zM530 1657l88 264l437 -254l-43 -131z" />
<glyph unicode="&#x477;" horiz-adv-x="1150" d="M-158 1288l88 264l437 -254l-43 -131zM168 1059l4 26h365l55 -315q26 -141 29 -317l-3 -146l39 146q43 157 115 317l146 315h364l-4 -26q-23 -164 -111 -314l-401 -745h-381l-192 745q-48 150 -25 314zM399 1288l88 264l437 -254l-43 -131z" />
<glyph unicode="&#x48a;" horiz-adv-x="1478" d="M102 0l203 1454h451l-35 -246q-18 -152 -66 -325l-45 -181l619 752h350l-145 -1038h180l-305 -871h-267l66 455h-182l32 246q22 156 68 325l45 174l-618 -745h-351zM598 1645l135 245q5 -3 30 -15t37.5 -17.5t39 -16t47.5 -15.5t49.5 -9.5t56.5 -4.5q33 0 65.5 5 t66.5 15.5t53 17.5t54.5 22.5t41.5 17.5l65 -245q-2 -1 -19.5 -10.5t-27 -14.5t-31 -15t-38.5 -16.5t-42 -15.5t-49.5 -15t-53 -11.5t-60.5 -8t-64 -2.5q-29 0 -57.5 2.5t-52 6t-48 10t-42 12t-38 14t-32.5 14t-28.5 15t-23 13.5t-20 12.5t-14.5 9.5z" />
<glyph unicode="&#x48b;" horiz-adv-x="1261" d="M102 0l152 1085h389l-22 -161q-15 -110 -52 -244l-32 -135l460 540h314l-92 -669h180l-305 -871h-267l66 455h-123l23 162q19 133 49 244l32 131l-458 -537h-314zM438 1276l135 246q4 -2 30 -14.5t38 -18t39 -16t47.5 -15.5t49.5 -9.5t57 -4.5q33 0 65.5 5t66 15.5 t53 17.5t54 22t41.5 18l66 -246q-2 -1 -19.5 -10.5t-27 -14.5t-31 -15t-38.5 -16.5t-42 -15.5t-49.5 -15t-53 -11.5t-60.5 -8t-64 -2.5q-29 0 -58 2.5t-52 6t-48 10t-42 12t-38 14.5t-32.5 14t-29 15t-23 13.5t-19.5 12.5t-15 9z" />
<glyph unicode="&#x490;" horiz-adv-x="1103" d="M102 0l203 1454h580l76 289h366l-100 -709h-531l-143 -1034h-451z" />
<glyph unicode="&#x491;" horiz-adv-x="880" d="M102 0l152 1085h410l104 308h287l-92 -656h-369l-102 -737h-390z" />
<glyph unicode="&#x492;" horiz-adv-x="1103" d="M-2 559l45 334h184l78 561h981l-59 -420h-531l-18 -141h217l-47 -334h-217l-78 -559h-451l78 559h-182z" />
<glyph unicode="&#x493;" horiz-adv-x="880" d="M-41 281l45 333h184l66 471h758l-49 -348h-369l-16 -123h213l-48 -333h-213l-38 -281h-390l39 281h-182z" />
<glyph unicode="&#x496;" horiz-adv-x="2068" d="M20 0l445 725l-242 729h479l170 -512h68l72 512h450l-71 -512h67l314 512h479l-447 -729l105 -311v2h301l-180 -705h-367l41 289h-135l-170 512h-68l-71 -512h-451l72 512h-68l-313 -512h-480z" />
<glyph unicode="&#x497;" horiz-adv-x="1888" d="M20 0l453 543l-301 542h469l170 -356h41l49 356h389l-49 -356h41l268 356h469l-452 -542l69 -127h383l-180 -705h-366l40 289h-118l-166 358h-41l-49 -358h-389l49 358h-41l-264 -358h-474z" />
<glyph unicode="&#x49a;" horiz-adv-x="1402" d="M102 0l203 1454h451l-72 -512h109l313 512h479l-446 -729l102 -309h301l-180 -705h-367l41 289h-133l-170 512h-108l-72 -512h-451z" />
<glyph unicode="&#x49b;" horiz-adv-x="1241" d="M102 0l152 1085h389l-49 -356h41l268 356h469l-452 -542l69 -127h383l-180 -705h-367l41 289h-118l-166 358h-41l-49 -358h-390z" />
<glyph unicode="&#x4a0;" horiz-adv-x="1402" d="M102 0l156 1120h-143l47 334h594l-72 -512h109l313 512h479l-446 -729l243 -725h-479l-170 512h-108l-72 -512h-451z" />
<glyph unicode="&#x4a1;" horiz-adv-x="1241" d="M61 752l48 333h534l-49 -356h41l268 356h469l-452 -542l301 -543h-473l-166 358h-41l-49 -358h-390l105 754z" />
<glyph unicode="&#x4a2;" horiz-adv-x="1490" d="M102 0l203 1454h451l-72 -512h385l72 512h450l-145 -1038h180l-180 -705h-367l41 289h-182l72 512h-385l-72 -512h-451z" />
<glyph unicode="&#x4a3;" horiz-adv-x="1234" d="M102 0l152 1085h389l-49 -354h252l49 354h389l-92 -669h180l-180 -705h-367l41 289h-123l54 391h-252l-53 -391h-390z" />
<glyph unicode="&#x4a4;" horiz-adv-x="1490" d="M102 0l203 1454h451l-72 -512h385l72 512h594l-47 -334h-144l-155 -1120h-451l72 512h-385l-72 -512h-451z" />
<glyph unicode="&#x4a5;" horiz-adv-x="1234" d="M102 0l152 1085h389l-49 -354h252l49 354h535l-48 -333h-143l-2 2l-104 -754h-390l54 391h-252l-53 -391h-390z" />
<glyph unicode="&#x4aa;" horiz-adv-x="1345" d="M180.5 395q-21.5 140 3.5 334q54 389 257.5 569.5t555.5 180.5q151 0 271.5 -44.5t183.5 -91.5l-211 -382q-68 33 -162.5 52t-156.5 19q-53 -1 -87 -6t-70.5 -22.5t-59.5 -50t-42 -88t-30 -136.5q-8 -58 -8.5 -102.5t4.5 -76t19.5 -54t31 -36t43 -21t52.5 -10.5t63 -3 q60 0 160 19.5t180 52.5l122 -459q-22 -14 -86.5 -34t-195 -66t-281.5 -113q-56 -23 -73 -39.5t-23 -52.5q-5 -42 7.5 -57t64.5 -15q42 0 98 21l37 -134q-71 -41 -164 -41q-122 0 -168 54t-31 172q5 33 14 59.5t19.5 46.5t30.5 37.5t35.5 29t47 25t53.5 22t65 23.5v3 q-164 4 -281 48.5t-192 135.5t-96.5 231z" />
<glyph unicode="&#x4ab;" horiz-adv-x="1130" d="M158 547q41 293 195.5 427t457.5 134q79 0 139.5 -8t106.5 -25t71 -30t62 -37l-184 -336q-69 32 -119 43.5t-113 11.5q-68 0 -109.5 -9.5t-65.5 -34.5t-34 -54.5t-18 -81.5q-10 -62 -2.5 -102t49.5 -59t131 -19q62 0 113.5 11t130.5 44l108 -387q-34 -19 -159 -75.5 t-279 -133.5q-58 -28 -74 -42.5t-22 -49.5q-5 -42 7 -57t64 -15q43 0 99 21l37 -134q-71 -41 -164 -41q-122 0 -168 54t-31 172q6 39 15.5 68t28 52t35.5 38t51 31.5t59 26t75 27.5l19 7h-21q-302 0 -417.5 135t-73.5 428z" />
<glyph unicode="&#x4ac;" horiz-adv-x="1142" d="M164 1024l59 430h1102l-59 -430h-326l-86 -608h180l-180 -705h-367l41 289h-182l143 1024h-325z" />
<glyph unicode="&#x4ad;" horiz-adv-x="1021" d="M123 737l49 348h981l-49 -348h-297l-45 -321h180l-180 -705h-367l41 289h-121l103 737h-295z" />
<glyph unicode="&#x4ae;" horiz-adv-x="1257" d="M208 1318.5q1 27.5 5 57.5l10 78h367l55 -180q54 -174 72 -387l12 -170l57 170q80 209 183 387l102 180h369l-10 -80q-4 -30 -10.5 -57t-19.5 -58t-20 -48.5t-28 -54t-27 -47.5t-34.5 -55.5t-33.5 -52.5l-339 -548l-64 -453h-451l64 453l-188 551q-4 12 -18 52.5t-18 54 t-14 47.5t-12.5 53.5t-6 49.5t-2.5 57.5z" />
<glyph unicode="&#x4af;" horiz-adv-x="1196" d="M157.5 908.5q-0.5 20.5 0 47t4.5 52.5l10 77h336l55 -180q55 -187 72 -387l10 -170l60 170q82 214 182 387l102 180h338l-10 -79q-4 -26 -10.5 -52.5t-12.5 -46.5t-19.5 -48.5t-19.5 -42.5t-25.5 -46t-25.5 -42.5t-29.5 -48t-29.5 -46.5l-342 -549l-76 -541h-389l76 541 l-187 551q-4 11 -16 46.5t-15.5 47t-13 42.5t-12 46t-7.5 43t-5.5 48.5z" />
<glyph unicode="&#x4b0;" horiz-adv-x="1257" d="M125 201l37 252h305l-188 551q-4 12 -18 52.5t-18 54t-14 47.5t-12.5 53.5t-6 49.5t-2.5 57.5t5 57.5l10 78h367l55 -180q54 -174 72 -387l12 -170l57 170q80 209 183 387l102 180h369l-10 -80q-4 -30 -10.5 -57t-19.5 -58t-20 -48.5t-28 -54t-27 -47.5t-34.5 -55.5 t-33.5 -52.5l-339 -548h305l-37 -252h-305l-27 -201h-451l27 201h-305z" />
<glyph unicode="&#x4b1;" horiz-adv-x="1196" d="M39 -170l35 252h340v2l-187 551q-4 11 -16 46.5t-15.5 47t-13 42.5t-12 46t-7.5 43t-5.5 48.5t0 47t4.5 52.5l10 77h336l55 -180q55 -187 72 -387l10 -170l60 170q82 214 182 387l102 180h338l-10 -79q-4 -26 -10.5 -52.5t-12.5 -46.5t-19.5 -48.5t-19.5 -42.5t-25.5 -46 t-25.5 -42.5t-29.5 -48t-29.5 -46.5l-342 -549v-2h332l-35 -252h-332l-41 -287h-389l41 287h-340z" />
<glyph unicode="&#x4b2;" horiz-adv-x="1216" d="M20 0l9 68q28 202 159 378l211 281l-131 281q-82 173 -53 378l8 68h398l77 -274q28 -93 31 -195l2 -100l31 100q36 109 84 195l155 274h398l-8 -68q-28 -201 -160 -378l-213 -281l133 -281l14 -30h248l-180 -705h-367l41 289h-108l-80 274q-26 96 -29 195l-2 100 l-31 -100q-37 -111 -86 -195l-153 -274h-398z" />
<glyph unicode="&#x4b3;" horiz-adv-x="1110" d="M20 0l9 59q10 82 41 147t90 130l213 244l-107 172q-39 64 -51.5 128.5t-1.5 147.5l8 57h328l8 -18q44 -118 68 -225l28 -137l66 137q61 119 133 225l12 18h326l-8 -57q-10 -81 -41 -146t-90 -130l-154 -172q145 -246 147 -246h193l-168 -623h-248l41 289h-96l-57 84 q-80 122 -91 270l-6 64l-22 -66q-55 -146 -170 -270l-78 -82h-322z" />
<glyph unicode="&#x4b6;" horiz-adv-x="1392" d="M184 807q0 66 11 145l69 502h451l-70 -502q-5 -20 -2.5 -35.5t4 -26.5t9 -18.5t13 -11.5t16.5 -6.5t19.5 -3t20.5 -0.5q54 0 128.5 8.5t109.5 18.5l79 577h451l-145 -1038h180l-180 -705h-367l41 289h-182l67 481q-104 -41 -313 -41q-44 0 -76 1.5t-73 7.5t-70 16t-62 29 t-54 45t-40 65t-27 88t-8 115z" />
<glyph unicode="&#x4b7;" horiz-adv-x="1249" d="M175 498.5q-31 122.5 1 320.5l37 266h389l-37 -258q-8 -58 -3.5 -97t40.5 -58t113 -19h43q26 0 45 10t30 23t19 38.5t11.5 43.5t8.5 51q1 10 2 15l35 251h389l-94 -669h180l-180 -705h-366l41 289h-121l43 309q-61 -25 -102.5 -33t-106.5 -8q-188 0 -287 54t-130 176.5z " />
<glyph unicode="&#x4ba;" horiz-adv-x="1392" d="M82 0l203 1454h450l-67 -481q104 41 313 41q44 0 76 -1.5t73 -7.5t70 -16t62 -29t54 -45t40 -65t27 -88t8 -115t-11 -145l-69 -502h-451l70 502q5 20 2.5 35.5t-4 26.5t-9 18.5t-13 11.5t-16.5 6.5t-19.5 3t-20.5 0.5q-54 0 -129 -8t-109 -18l-80 -578h-450z" />
<glyph unicode="&#x4bb;" horiz-adv-x="1249" d="M82 0l203 1454l47 19q158 63 323 63h31l-106 -760q60 25 101.5 33t106.5 8q142 0 231 -30t138 -96t57.5 -170.5t-10.5 -254.5l-37 -266h-389l35 258q8 58 3.5 97t-40 58t-112.5 19h-43q-20 0 -35.5 -6t-26 -13t-19.5 -24t-13.5 -27t-9 -35t-6 -35t-5.5 -40l-35 -252h-389 z" />
<glyph unicode="&#x4c0;" horiz-adv-x="733" d="M61 0l60 430h80l84 594h-80l59 430h610l-59 -430h-80l-84 -594h80l-59 -430h-611z" />
<glyph unicode="&#x4c1;" horiz-adv-x="2068" d="M20 0l445 725l-242 729h479l170 -512h68l72 512h450l-71 -512h67l314 512h479l-447 -729l244 -725h-479l-170 512h-68l-71 -512h-451l72 512h-68l-313 -512h-480zM893 1645l135 245q5 -3 30 -15t37.5 -17.5t39 -16t47.5 -15.5t49.5 -9.5t56.5 -4.5q33 0 65.5 5t66.5 15.5 t53 17.5t54.5 22.5t41.5 17.5l65 -245q-2 -1 -19.5 -10.5t-27 -14.5t-31 -15t-38.5 -16.5t-42 -15.5t-49.5 -15t-53 -11.5t-60.5 -8t-64 -2.5q-29 0 -57.5 2.5t-52 6t-48 10t-42 12t-38 14t-32.5 14t-28.5 15t-23 13.5t-20 12.5t-14.5 9.5z" />
<glyph unicode="&#x4c2;" horiz-adv-x="1888" d="M20 0l453 543l-301 542h469l170 -356h41l49 356h389l-49 -356h41l268 356h469l-452 -542l301 -543h-473l-166 358h-41l-49 -358h-389l49 358h-41l-264 -358h-474zM752 1276l135 246q5 -3 30 -15t37.5 -17.5t39 -16t47.5 -15.5t49.5 -9.5t56.5 -4.5q33 0 65.5 5t66 15.5 t53 17.5t54 22t41.5 18l66 -246q-2 -1 -19.5 -10.5t-27 -14.5t-31 -15t-38.5 -16.5t-42 -15.5t-49.5 -15t-53 -11.5t-60.5 -8t-64 -2.5q-29 0 -57.5 2.5t-52 6t-48 10t-42 12t-38 14t-32.5 14t-28.5 15t-23 13.5t-20 12.5t-14.5 9.5z" />
<glyph unicode="&#x4c5;" horiz-adv-x="1499" d="M16 53l185 336q43 -22 84 -22t55 18.5t29 93.5l188 893l45 19q158 63 324 63h673l-145 -1038h180l-305 -871h-266l65 455h-182l144 1024h-152l-119 -545q-32 -146 -81.5 -245t-118.5 -154.5t-149.5 -79t-186.5 -23.5q-78 0 -137 16t-130 60z" />
<glyph unicode="&#x4c6;" horiz-adv-x="1228" d="M6 39l148 291q35 -17 65 -17q28 0 39.5 14t22.5 70l129 627l34 14q113 47 244 47h606l-92 -669h180l-305 -871h-266l66 455h-123l106 764h-112l-89 -406q-23 -108 -64.5 -182.5t-99 -115.5t-122.5 -58.5t-146 -17.5q-131 0 -221 55z" />
<glyph unicode="&#x4c9;" horiz-adv-x="1490" d="M102 0l203 1454h451l-72 -512h385l72 512h450l-145 -1038h180l-305 -871h-266l65 455h-182l72 512h-385l-72 -512h-451z" />
<glyph unicode="&#x4ca;" horiz-adv-x="1234" d="M102 0l152 1085h389l-49 -354h252l49 354h389l-92 -669h180l-305 -871h-266l65 455h-123l54 391h-252l-53 -391h-390z" />
<glyph unicode="&#x4cb;" horiz-adv-x="1392" d="M184 807q0 66 11 145l69 502h451l-70 -502q-5 -20 -2.5 -35.5t4 -26.5t9 -18.5t13 -11.5t16.5 -6.5t19.5 -3t20.5 -0.5q54 0 128.5 8.5t109.5 18.5l79 577h451l-203 -1454h-180l-41 -289h-367l-6 551h178l33 219q-104 -41 -313 -41q-44 0 -76 1.5t-73 7.5t-70 16t-62 29 t-54 45t-40 65t-27 88t-8 115z" />
<glyph unicode="&#x4cc;" horiz-adv-x="1249" d="M175 498.5q-31 122.5 1 320.5l37 266h389l-37 -258q-8 -58 -3.5 -97t40.5 -58t113 -19h43q26 0 45 10t30 23t19 38.5t11.5 43.5t8.5 51q1 10 2 15l35 251h389l-151 -1085h-119l-41 -289h-366l-21 439h178l23 159q-61 -25 -102.5 -33t-106.5 -8q-188 0 -287 54t-130 176.5 z" />
<glyph unicode="&#x4cd;" horiz-adv-x="1961" d="M102 0l203 1454h475l191 -532q65 -186 65 -387l2 -119l35 119q59 203 176 387l338 532h475l-145 -1038h180l-305 -871h-266l65 455h-182l31 225q28 198 94 406l43 127h-8l-424 -758h-328l-211 758h-8l6 -127q6 -219 -20 -406l-31 -225h-451z" />
<glyph unicode="&#x4ce;" horiz-adv-x="1624" d="M102 0l152 1085h448l113 -313q48 -124 51 -289v-90l27 90q44 147 131 289l201 313h448l-94 -669h180l-305 -871h-266l65 455h-120l22 168q18 142 72 305l30 94h-6l-315 -567h-246l-162 567h-6l6 -94q8 -136 -14 -305l-22 -168h-390z" />
<glyph unicode="&#x4d0;" horiz-adv-x="1302" d="M20 0l13 88q25 201 127 397l491 969h414l215 -967q43 -188 14 -397l-12 -90h-367l-32 205h-394l-88 -205h-381zM510 1645l135 245q5 -3 30 -15t37.5 -17.5t39 -16t47.5 -15.5t49.5 -9.5t56.5 -4.5q33 0 65.5 5t66.5 15.5t53 17.5t54.5 22.5t41.5 17.5l65 -245 q-2 -1 -19.5 -10.5t-27 -14.5t-31 -15t-38.5 -16.5t-42 -15.5t-49.5 -15t-53 -11.5t-60.5 -8t-64 -2.5q-29 0 -57.5 2.5t-52 6t-48 10t-42 12t-38 14t-32.5 14t-28.5 15t-23 13.5t-20 12.5t-14.5 9.5zM668 635h149q-8 132 -8 205l-2 241l-74 -241q-35 -125 -65 -205z" />
<glyph unicode="&#x4d1;" d="M150.5 306q-13.5 104 7.5 237q18 134 58.5 234.5t109.5 175t175.5 113t248.5 38.5q158 0 587 -39l-149 -1065h-195l-129 92q-72 -64 -130 -87t-140 -23q-142 0 -237.5 38t-144 110t-62 176zM453 1276l135 246q5 -3 30 -15t37.5 -17.5t39 -16t47.5 -15.5t49.5 -9.5 t56.5 -4.5q33 0 65.5 5t66 15.5t53 17.5t54 22t41.5 18l66 -246q-2 -1 -19.5 -10.5t-27 -14.5t-31 -15t-38.5 -16.5t-42 -15.5t-49.5 -15t-53 -11.5t-60.5 -8t-64 -2.5q-29 0 -57.5 2.5t-52 6t-48 10t-42 12t-38 14t-32.5 14t-28.5 15t-23 13.5t-20 12.5t-14.5 9.5zM539 475 q-2 -25 2 -47t12.5 -31.5t29 -17t45.5 -9t68 -1.5h64q71 0 96 70q9 27 21 104l18 133q6 41 -35 41h-115q-64 0 -95 -4t-54 -24.5t-31.5 -51t-17.5 -94.5q-6 -43 -8 -68z" />
<glyph unicode="&#x4d2;" horiz-adv-x="1302" d="M20 0l13 88q25 201 127 397l491 969h414l215 -967q43 -188 14 -397l-12 -90h-367l-32 205h-394l-88 -205h-381zM492 1619.5q-8 38.5 0 98.5q9 60 28.5 99t49.5 57.5t60.5 24.5t74.5 6q24 0 42.5 -1.5t38.5 -6.5t33 -13.5t26 -22.5t17 -33.5t6.5 -47t-4.5 -62.5 q-8 -60 -27 -98.5t-50 -57t-61.5 -24.5t-74.5 -6t-72.5 6t-53.5 24.5t-33 57zM668 635h149q-8 132 -8 205l-2 241l-74 -241q-35 -125 -65 -205zM915 1619.5q-8 38.5 0 98.5q9 60 28.5 99t49.5 57.5t60.5 24.5t74.5 6q24 0 42.5 -1.5t39 -6.5t33 -13.5t25.5 -22.5t17.5 -33.5 t7 -47t-4.5 -62.5q-8 -60 -27 -98.5t-50 -57t-61.5 -24.5t-74.5 -6t-73 6t-54 24.5t-33 57z" />
<glyph unicode="&#x4d3;" d="M150.5 306q-13.5 104 7.5 237q18 134 58.5 234.5t109.5 175t175.5 113t248.5 38.5q158 0 587 -39l-149 -1065h-195l-129 92q-72 -64 -130 -87t-140 -23q-142 0 -237.5 38t-144 110t-62 176zM436 1251q-8 39 0 99q9 60 28 98.5t49.5 57t61 24.5t74.5 6q21 0 37.5 -1 t35 -4.5t30.5 -9.5t25 -15.5t19.5 -23.5t12.5 -33t4.5 -43.5t-4.5 -55.5q-8 -60 -27.5 -99t-50 -57t-61 -24.5t-74.5 -6.5t-73 6t-54 24.5t-33 57.5zM539 475q-2 -25 2 -47t12.5 -31.5t29 -17t45.5 -9t68 -1.5h64q71 0 96 70q9 27 21 104l18 133q6 41 -35 41h-115 q-64 0 -95 -4t-54 -24.5t-31.5 -51t-17.5 -94.5q-6 -43 -8 -68zM860 1251q-8 39 0 99q9 60 28 98.5t49.5 57t61 24.5t74.5 6q21 0 37.5 -1t35 -4.5t30.5 -9.5t25 -15.5t19.5 -23.5t12.5 -33t4.5 -43.5t-4.5 -55.5q-8 -60 -27.5 -99t-50 -57t-61 -24.5t-74.5 -6.5t-73 6 t-54 24.5t-33 57.5z" />
<glyph unicode="&#x4d4;" horiz-adv-x="1640" d="M20 0l13 88q25 201 127 397l491 969h1110l-59 -420h-449l-14 -102h408l-58 -410h-407l-15 -102h449l-57 -420h-900l29 205h-199l-88 -205h-381zM668 635h80l59 420v26l-74 -241q-35 -125 -65 -205z" />
<glyph unicode="&#x4d5;" horiz-adv-x="1832" d="M123 289q15 185 110 258.5t310 73.5h250q2 27 -5 45.5t-18.5 28t-33 14.5t-40 6t-47.5 0q-104 -2 -179 -11t-173 -36l-66 352q238 84 478 84q221 0 340 -80q134 80 333 80q258 0 371.5 -135.5t73.5 -427.5q-97 -50 -187 -65t-215 -15h-249q-2 -27 5.5 -45.5t19 -28 t33 -14.5t40 -6t47.5 0q103 2 177.5 11t172.5 36l66 -353q-233 -84 -477 -84q-108 0 -205 23h-137l-130 92q-51 -60 -114 -87.5t-107 -27.5q-271 0 -365 64.5t-79 247.5zM524 319q-4 -28 5 -41.5t44 -13.5h45q24 0 40.5 1.5t36.5 8t31.5 17.5t20 32.5t9.5 51.5h-168 q-35 0 -46.5 -13.5t-17.5 -42.5zM1200 625h230q4 20 5 36.5t-3 27.5t-8 19.5t-13 13t-15.5 7.5t-18 4.5t-17 1.5h-16.5h-5q-31 0 -50.5 -3t-42 -13t-34 -33.5t-12.5 -60.5z" />
<glyph unicode="&#x4d6;" horiz-adv-x="1206" d="M123 0l203 1454h981l-60 -420h-530l-15 -102h490l-57 -410h-490l-14 -102h530l-57 -420h-981zM461 1645l135 245q5 -3 30 -15t37.5 -17.5t39 -16t47.5 -15.5t49.5 -9.5t56.5 -4.5q33 0 65.5 5t66.5 15.5t53 17.5t54.5 22.5t41.5 17.5l65 -245q-2 -1 -19.5 -10.5 t-27 -14.5t-31 -15t-38.5 -16.5t-42 -15.5t-49.5 -15t-53 -11.5t-60.5 -8t-64 -2.5q-29 0 -57.5 2.5t-52 6t-48 10t-42 12t-38 14t-32.5 14t-28.5 15t-23 13.5t-20 12.5t-14.5 9.5z" />
<glyph unicode="&#x4d7;" horiz-adv-x="1208" d="M158 541q40 292 191 427.5t409 135.5q257 0 370.5 -135.5t73.5 -427.5q-97 -50 -186.5 -65t-214.5 -15h-250q-2 -27 5.5 -45.5t19 -28t33 -14.5t40 -6t47.5 0q103 2 178 11.5t173 35.5l65 -353q-233 -84 -477 -84q-282 0 -400.5 135t-76.5 429zM412 1276l135 246 q5 -3 30 -15t37.5 -17.5t39 -16t47.5 -15.5t49.5 -9.5t56.5 -4.5q33 0 65.5 5t66 15.5t53 17.5t54 22t41.5 18l66 -246q-2 -1 -19.5 -10.5t-27 -14.5t-31 -15t-38.5 -16.5t-42 -15.5t-49.5 -15t-53 -11.5t-60.5 -8t-64 -2.5q-29 0 -57.5 2.5t-52 6t-48 10t-42 12t-38 14 t-32.5 14t-28.5 15t-23 13.5t-20 12.5t-14.5 9.5zM575 625h230q22 101 -57 109q-10 1 -28 1h-5q-31 0 -51 -3t-42 -13t-34 -33.5t-13 -60.5z" />
<glyph unicode="&#x4d8;" horiz-adv-x="1579" d="M182 719q8 54 52 92.5t101 55t118 16.5h704q-10 91 -62.5 120t-160.5 29q-71 0 -208 -20t-214 -51l-100 382q68 41 245.5 88.5t327.5 47.5q360 0 514 -179t100 -569q-56 -389 -259 -569t-554 -180q-348 0 -501.5 177t-102.5 560zM625 586q4 -51 20 -83t47.5 -47.5 t66.5 -20.5t91 -5q110 0 171.5 30t96.5 126h-493z" />
<glyph unicode="&#x4d9;" horiz-adv-x="1208" d="M158 541q97 50 186 65t213 15h250q2 33 -7.5 53.5t-32 29t-44.5 10.5t-59 1q-104 -2 -179.5 -11t-173.5 -36l-65 352q238 84 477 84q282 0 401 -134.5t78 -428.5q-42 -292 -193.5 -428t-408.5 -136t-370.5 136t-71.5 428zM547.5 419q-0.5 -17 4 -28t8.5 -19.5t14.5 -13 t15.5 -7.5t19 -4t17.5 -1h16.5q24 0 40.5 1.5t36.5 8t32 17.5t20.5 32.5t9.5 51.5h-229q-5 -21 -5.5 -38z" />
<glyph unicode="&#x4da;" horiz-adv-x="1579" d="M182 719q8 54 52 92.5t101 55t118 16.5h704q-10 91 -62.5 120t-160.5 29q-71 0 -208 -20t-214 -51l-100 382q68 41 245.5 88.5t327.5 47.5q360 0 514 -179t100 -569q-56 -389 -259 -569t-554 -180q-348 0 -501.5 177t-102.5 560zM625 586q4 -51 20 -83t47.5 -47.5 t66.5 -20.5t91 -5q110 0 171.5 30t96.5 126h-493zM631 1619.5q-8 38.5 0 98.5q9 60 28.5 99t49.5 57.5t60.5 24.5t74.5 6q24 0 42.5 -1.5t39 -6.5t33 -13.5t25.5 -22.5t17.5 -33.5t7 -47t-4.5 -62.5q-8 -60 -27 -98.5t-50 -57t-61.5 -24.5t-74.5 -6t-73 6t-54 24.5t-33 57z M1055 1619.5q-8 38.5 0 98.5q9 60 28.5 99t49.5 57.5t60.5 24.5t74.5 6q24 0 42.5 -1.5t38.5 -6.5t33 -13.5t26 -22.5t17 -33.5t6.5 -47t-4.5 -62.5q-8 -60 -27 -98.5t-50 -57t-61.5 -24.5t-74.5 -6t-72.5 6t-53.5 24.5t-33 57z" />
<glyph unicode="&#x4db;" horiz-adv-x="1208" d="M158 541q97 50 186 65t213 15h250q2 33 -7.5 53.5t-32 29t-44.5 10.5t-59 1q-104 -2 -179.5 -11t-173.5 -36l-65 352q238 84 477 84q282 0 401 -134.5t78 -428.5q-42 -292 -193.5 -428t-408.5 -136t-370.5 136t-71.5 428zM393 1251q-8 39 0 99q9 60 28 98.5t49.5 57 t61 24.5t74.5 6q21 0 37.5 -1t35 -4.5t30.5 -9.5t25 -15.5t19.5 -23.5t12.5 -33t4.5 -43.5t-4.5 -55.5q-8 -60 -27.5 -99t-50 -57t-61 -24.5t-74.5 -6.5t-73 6t-54 24.5t-33 57.5zM547.5 419q-0.5 -17 4 -28t8.5 -19.5t14.5 -13t15.5 -7.5t19 -4t17.5 -1h16.5q24 0 40.5 1.5 t36.5 8t32 17.5t20.5 32.5t9.5 51.5h-229q-5 -21 -5.5 -38zM817 1251q-8 39 0 99q9 60 28 98.5t49.5 57t61 24.5t74.5 6q21 0 37.5 -1t35 -4.5t30.5 -9.5t25 -15.5t19.5 -23.5t12.5 -33t4.5 -43.5t-4.5 -55.5q-8 -60 -27.5 -99t-50 -57t-61 -24.5t-74.5 -6.5t-73 6t-54 24.5 t-33 57.5z" />
<glyph unicode="&#x4dc;" horiz-adv-x="2068" d="M20 0l445 725l-242 729h479l170 -512h68l72 512h450l-71 -512h67l314 512h479l-447 -729l244 -725h-479l-170 512h-68l-71 -512h-451l72 512h-68l-313 -512h-480zM874 1619.5q-8 38.5 0 98.5q9 60 28.5 99t49.5 57.5t60.5 24.5t74.5 6q24 0 42.5 -1.5t39 -6.5t33 -13.5 t25.5 -22.5t17.5 -33.5t7 -47t-4.5 -62.5q-8 -60 -27 -98.5t-50 -57t-61.5 -24.5t-74.5 -6t-73 6t-54 24.5t-33 57zM1298 1619.5q-8 38.5 0 98.5q9 60 28.5 99t49.5 57.5t60.5 24.5t74.5 6q24 0 42.5 -1.5t39 -6.5t33 -13.5t25.5 -22.5t17.5 -33.5t7 -47t-4.5 -62.5 q-8 -60 -27 -98.5t-50 -57t-61.5 -24.5t-74.5 -6t-73 6t-54 24.5t-33 57z" />
<glyph unicode="&#x4dd;" horiz-adv-x="1888" d="M20 0l453 543l-301 542h469l170 -356h41l49 356h389l-49 -356h41l268 356h469l-452 -542l301 -543h-473l-166 358h-41l-49 -358h-389l49 358h-41l-264 -358h-474zM733 1251q-8 39 0 99q9 60 28 98.5t49.5 57t61 24.5t74.5 6q21 0 37.5 -1t35 -4.5t30.5 -9.5t25 -15.5 t19.5 -23.5t12.5 -33t4.5 -43.5t-4.5 -55.5q-8 -60 -27.5 -99t-50 -57t-61 -24.5t-74.5 -6.5t-73 6t-54 24.5t-33 57.5zM1157 1251q-8 39 0 99q9 60 28 98.5t49.5 57t61 24.5t74.5 6q21 0 37.5 -1t35 -4.5t30.5 -9.5t25 -15.5t19.5 -23.5t12.5 -33t4.5 -43.5t-4.5 -55.5 q-8 -60 -27.5 -99t-50 -57t-61 -24.5t-74.5 -6.5t-73 6t-54 24.5t-33 57.5z" />
<glyph unicode="&#x4de;" horiz-adv-x="1288" d="M94 96l209 383q67 -31 198.5 -51t203.5 -20q49 0 66.5 12.5t21.5 34.5q3 14 1.5 26t-8.5 20.5t-28 13.5t-56 5h-145l59 422l146 2q58 1 80.5 13.5t25.5 37.5q2 21 -8 34t-43 18q-71 12 -205 -7.5t-217 -54.5l-82 383q77 43 229 77t332 34q273 0 381.5 -101.5t73.5 -347.5 q-8 -63 -23 -108t-45.5 -85.5t-83.5 -63.5t-130 -30l-3 -8q80 -6 131 -33.5t70.5 -69t25 -96t-6.5 -114.5q-33 -243 -175 -345t-415 -102q-194 0 -355 39.5t-225 81.5zM485 1619.5q-8 38.5 0 98.5q9 60 28.5 99t49.5 57.5t60.5 24.5t74.5 6q24 0 42.5 -1.5t39 -6.5t33 -13.5 t25.5 -22.5t17.5 -33.5t7 -47t-4.5 -62.5q-8 -60 -27 -98.5t-50 -57t-61.5 -24.5t-74.5 -6t-73 6t-54 24.5t-33 57zM909 1619.5q-8 38.5 0 98.5q9 60 28.5 99t49.5 57.5t60.5 24.5t74.5 6q24 0 42.5 -1.5t39 -6.5t33 -13.5t25.5 -22.5t17.5 -33.5t7 -47t-4.5 -62.5 q-8 -60 -27 -98.5t-50 -57t-61.5 -24.5t-74.5 -6t-73 6t-54 24.5t-33 57z" />
<glyph unicode="&#x4df;" horiz-adv-x="1064" d="M70 68l192 340q6 -1 74 -18.5t133.5 -28.5t128.5 -11q65 0 68 21q4 28 -10 40.5t-70 12.5h-160l35 246h160q88 0 94 41q3 20 -23 26q-45 10 -178 -5.5t-197 -43.5l-79 338q55 30 191.5 55t270.5 25q210 0 314 -78t78 -256q-13 -94 -63 -144t-175 -77q121 -34 162.5 -91 t27.5 -155q-10 -71 -39.5 -126.5t-74 -92.5t-104.5 -61t-127 -34.5t-146 -10.5q-141 0 -287.5 29.5t-195.5 58.5zM322 1251q-8 39 0 99q9 60 28 98.5t49.5 57t61 24.5t74.5 6q25 0 43 -1.5t38.5 -6t33 -13t25.5 -22.5t17 -33.5t6.5 -47t-4.5 -62.5q-8 -60 -27.5 -99t-50 -57 t-61 -24.5t-74.5 -6.5t-72.5 6t-53.5 24.5t-33 57.5zM745 1251q-8 39 0 99q9 60 28 98.5t49.5 57t61 24.5t74.5 6q21 0 37.5 -1t35 -4.5t30.5 -9.5t25 -15.5t19.5 -23.5t12.5 -33t4.5 -43.5t-4.5 -55.5q-8 -60 -27.5 -99t-50 -57t-61 -24.5t-74.5 -6.5t-73 6t-54 24.5 t-33 57.5z" />
<glyph unicode="&#x4e2;" horiz-adv-x="1478" d="M102 0l203 1454h451l-35 -246q-18 -152 -66 -325l-45 -181l619 752h350l-203 -1454h-450l32 246q22 156 68 325l45 174l-618 -745h-351zM555 1618l29 205h819l-29 -205h-819z" />
<glyph unicode="&#x4e3;" horiz-adv-x="1261" d="M178 541l76 544h389l-76 -544q-6 -43 -8 -68t2 -47t12.5 -32t29.5 -17t46 -8.5t68 -1.5h43q27 0 47 11t31 24.5t19.5 42.5t11.5 47t8 55l75 538h387l-151 -1085h-195l-129 92q-72 -67 -124 -91t-124 -24q-267 0 -373.5 132.5t-64.5 431.5zM410 1249l28 205h819l-28 -205 h-819z" />
<glyph unicode="&#x4e4;" horiz-adv-x="1478" d="M102 0l203 1454h451l-35 -246q-18 -152 -66 -325l-45 -181l619 752h350l-203 -1454h-450l32 246q22 156 68 325l45 174l-618 -745h-351zM580 1619.5q-8 38.5 0 98.5q9 60 28.5 99t49.5 57.5t60.5 24.5t74.5 6q24 0 42.5 -1.5t38.5 -6.5t33 -13.5t26 -22.5t17 -33.5 t6.5 -47t-4.5 -62.5q-8 -60 -27 -98.5t-50 -57t-61.5 -24.5t-74.5 -6t-72.5 6t-53.5 24.5t-33 57zM1004 1619.5q-8 38.5 0 98.5q9 60 28.5 99t49.5 57.5t60.5 24.5t74.5 6q24 0 42.5 -1.5t38.5 -6.5t33 -13.5t26 -22.5t17 -33.5t6.5 -47t-4.5 -62.5q-8 -60 -27 -98.5 t-50 -57t-61.5 -24.5t-74.5 -6t-72.5 6t-53.5 24.5t-33 57z" />
<glyph unicode="&#x4e5;" horiz-adv-x="1261" d="M178 541l76 544h389l-76 -544q-6 -43 -8 -68t2 -47t12.5 -32t29.5 -17t46 -8.5t68 -1.5h43q27 0 47 11t31 24.5t19.5 42.5t11.5 47t8 55l75 538h387l-151 -1085h-195l-129 92q-72 -67 -124 -91t-124 -24q-267 0 -373.5 132.5t-64.5 431.5zM436 1251q-8 39 0 99 q9 60 28 98.5t49.5 57t61 24.5t74.5 6q21 0 37.5 -1t35 -4.5t30.5 -9.5t25 -15.5t19.5 -23.5t12.5 -33t4.5 -43.5t-4.5 -55.5q-8 -60 -27.5 -99t-50 -57t-61 -24.5t-74.5 -6.5t-73 6t-54 24.5t-33 57.5zM860 1251q-8 39 0 99q9 60 28 98.5t49.5 57t61 24.5t74.5 6 q21 0 37.5 -1t35 -4.5t30.5 -9.5t25 -15.5t19.5 -23.5t12.5 -33t4.5 -43.5t-4.5 -55.5q-8 -60 -27.5 -99t-50 -57t-61 -24.5t-74.5 -6.5t-73 6t-54 24.5t-33 57.5z" />
<glyph unicode="&#x4e6;" horiz-adv-x="1662" d="M195 729q54 389 258 569.5t555 180.5t503.5 -180.5t98.5 -569.5q-56 -389 -259 -569t-554 -180t-504.5 180t-97.5 569zM634.5 626.5q-0.5 -44.5 5 -76t20 -54t32 -36t45.5 -20.5t55.5 -9.5t67.5 -2.5q56 0 92.5 5t74 22.5t61.5 50t43.5 88t31.5 135.5q8 58 8 103t-6 76.5 t-21 54t-32.5 35.5t-45.5 20t-55.5 9.5t-66.5 2.5q-47 0 -78.5 -3.5t-65.5 -13.5t-56.5 -30.5t-43 -53.5t-34.5 -82.5t-23 -117.5q-8 -58 -8.5 -102.5zM672 1619.5q-8 38.5 0 98.5q9 60 28.5 99t49.5 57.5t60.5 24.5t74.5 6q24 0 42.5 -1.5t38.5 -6.5t33 -13.5t26 -22.5 t17 -33.5t6.5 -47t-4.5 -62.5q-8 -60 -27 -98.5t-50 -57t-61.5 -24.5t-74.5 -6t-72.5 6t-53.5 24.5t-33 57zM1096 1619.5q-8 38.5 0 98.5q9 60 28.5 99t49.5 57.5t60.5 24.5t74.5 6q24 0 42.5 -1.5t38.5 -6.5t33 -13.5t26 -22.5t17 -33.5t6.5 -47t-4.5 -62.5 q-8 -60 -27 -98.5t-50 -57t-61.5 -24.5t-74.5 -6t-72.5 6t-53.5 24.5t-33 57z" />
<glyph unicode="&#x4e7;" d="M158 541q41 295 198 429t443 134t406 -134t79 -429q-42 -295 -199.5 -429.5t-443.5 -134.5t-405.5 134.5t-77.5 429.5zM434 1251q-8 39 0 99q9 60 28 98.5t49.5 57t61 24.5t74.5 6q21 0 37.5 -1t35 -4.5t30.5 -9.5t25 -15.5t19.5 -23.5t12.5 -33t4.5 -43.5t-4.5 -55.5 q-8 -60 -27.5 -99t-50 -57t-61 -24.5t-74.5 -6.5t-73 6t-54 24.5t-33 57.5zM546.5 447.5q7.5 -36.5 31.5 -53t50 -22t68 -5.5t69.5 5.5t56.5 22t47 53t26 93.5q2 39 2.5 67.5t-11 48t-23 31t-32.5 17.5t-40 8t-46 2q-42 0 -70 -5.5t-56.5 -22t-46.5 -53t-25 -93.5 q-8 -57 -0.5 -93.5zM858 1251q-8 39 0 99q9 60 28 98.5t49.5 57t61 24.5t74.5 6q21 0 37.5 -1t35 -4.5t30.5 -9.5t25 -15.5t19.5 -23.5t12.5 -33t4.5 -43.5t-4.5 -55.5q-8 -60 -27.5 -99t-50 -57t-61 -24.5t-74.5 -6.5t-73 6t-54 24.5t-33 57.5z" />
<glyph unicode="&#x4e8;" horiz-adv-x="1579" d="M184 729q54 389 258 569.5t555 180.5t503.5 -180.5t98.5 -569.5q-56 -389 -259 -569t-554 -180t-504.5 180t-97.5 569zM627 559q7 -43 24.5 -70t49 -40t64.5 -17t85 -4q51 0 85 4t69 17t60 40t44 70h-481zM672 893h485q-7 45 -24.5 73t-49 41.5t-64.5 18t-85 4.5 q-107 0 -166.5 -26.5t-95.5 -110.5z" />
<glyph unicode="&#x4e9;" d="M158 541q41 295 198 429t443 134t406 -134t79 -429q-42 -295 -199.5 -429.5t-443.5 -134.5t-405.5 134.5t-77.5 429.5zM545 457q8 -55 46 -72.5t105 -17.5q32 0 55 3t47 12t42.5 27.5t31.5 47.5h-327zM569 627h326q-10 53 -47 70.5t-103 17.5q-67 0 -109.5 -17.5 t-66.5 -70.5z" />
<glyph unicode="&#x4ea;" horiz-adv-x="1579" d="M184 729q54 389 258 569.5t555 180.5t503.5 -180.5t98.5 -569.5q-56 -389 -259 -569t-554 -180t-504.5 180t-97.5 569zM627 559q7 -43 24.5 -70t49 -40t64.5 -17t85 -4q51 0 85 4t69 17t60 40t44 70h-481zM631 1619.5q-8 38.5 0 98.5q9 60 28.5 99t49.5 57.5t60.5 24.5 t74.5 6q24 0 42.5 -1.5t39 -6.5t33 -13.5t25.5 -22.5t17.5 -33.5t7 -47t-4.5 -62.5q-8 -60 -27 -98.5t-50 -57t-61.5 -24.5t-74.5 -6t-73 6t-54 24.5t-33 57zM672 893h485q-7 45 -24.5 73t-49 41.5t-64.5 18t-85 4.5q-107 0 -166.5 -26.5t-95.5 -110.5zM1055 1619.5 q-8 38.5 0 98.5q9 60 28.5 99t49.5 57.5t60.5 24.5t74.5 6q24 0 42.5 -1.5t38.5 -6.5t33 -13.5t26 -22.5t17 -33.5t6.5 -47t-4.5 -62.5q-8 -60 -27 -98.5t-50 -57t-61.5 -24.5t-74.5 -6t-72.5 6t-53.5 24.5t-33 57z" />
<glyph unicode="&#x4eb;" d="M158 541q41 295 198 429t443 134t406 -134t79 -429q-42 -295 -199.5 -429.5t-443.5 -134.5t-405.5 134.5t-77.5 429.5zM434 1251q-8 39 0 99q9 60 28 98.5t49.5 57t61 24.5t74.5 6q21 0 37.5 -1t35 -4.5t30.5 -9.5t25 -15.5t19.5 -23.5t12.5 -33t4.5 -43.5t-4.5 -55.5 q-8 -60 -27.5 -99t-50 -57t-61 -24.5t-74.5 -6.5t-73 6t-54 24.5t-33 57.5zM545 457q8 -55 46 -72.5t105 -17.5q32 0 55 3t47 12t42.5 27.5t31.5 47.5h-327zM569 627h326q-10 53 -47 70.5t-103 17.5q-67 0 -109.5 -17.5t-66.5 -70.5zM858 1251q-8 39 0 99q9 60 28 98.5 t49.5 57t61 24.5t74.5 6q21 0 37.5 -1t35 -4.5t30.5 -9.5t25 -15.5t19.5 -23.5t12.5 -33t4.5 -43.5t-4.5 -55.5q-8 -60 -27.5 -99t-50 -57t-61 -24.5t-74.5 -6.5t-73 6t-54 24.5t-33 57.5z" />
<glyph unicode="&#x4ec;" horiz-adv-x="1386" d="M117 115l211 383q68 -33 163 -52.5t156 -19.5q86 0 139.5 19t87.5 77h-339l57 410h342q-10 31 -28 51.5t-46 30.5t-57 13.5t-72 4.5q-61 0 -160.5 -19t-179.5 -52l-100 382q78 48 209.5 92t281.5 44q234 0 378 -76.5t203.5 -244t22.5 -429.5q-56 -389 -259.5 -569 t-555.5 -180q-146 0 -268 44t-186 91zM535 1619.5q-8 38.5 0 98.5q9 60 28.5 99t49.5 57.5t60.5 24.5t74.5 6q24 0 42.5 -1.5t38.5 -6.5t33 -13.5t26 -22.5t17 -33.5t6.5 -47t-4.5 -62.5q-8 -60 -27 -98.5t-50 -57t-61.5 -24.5t-74.5 -6t-72.5 6t-53.5 24.5t-33 57z M958 1619.5q-8 38.5 0 98.5q9 60 28.5 99t49.5 57.5t60.5 24.5t74.5 6q24 0 42.5 -1.5t39 -6.5t33 -13.5t25.5 -22.5t17.5 -33.5t7 -47t-4.5 -62.5q-8 -60 -27 -98.5t-50 -57t-61.5 -24.5t-74.5 -6t-73 6t-54 24.5t-33 57z" />
<glyph unicode="&#x4ed;" horiz-adv-x="1130" d="M92 86l184 336q69 -32 119 -43.5t113 -11.5q90 0 135.5 18.5t67.5 60.5h-297l28 205h295q-9 39 -50.5 57.5t-129.5 18.5q-62 0 -113.5 -11t-130.5 -44l-90 336q57 32 98 49.5t124 34t186 16.5q303 0 418.5 -134t74.5 -427q-42 -293 -195.5 -428t-455.5 -135 q-137 0 -221 25.5t-160 76.5zM354 1251q-8 39 0 99q9 60 28 98.5t49.5 57t61 24.5t74.5 6q21 0 37.5 -1t35 -4.5t30.5 -9.5t25 -15.5t19.5 -23.5t12.5 -33t4.5 -43.5t-4.5 -55.5q-8 -60 -27.5 -99t-50 -57t-61 -24.5t-74.5 -6.5t-73 6t-54 24.5t-33 57.5zM778 1251 q-8 39 0 99q9 60 28 98.5t49.5 57t61 24.5t74.5 6q21 0 37.5 -1t35 -4.5t30.5 -9.5t25 -15.5t19.5 -23.5t12.5 -33t4.5 -43.5t-4.5 -55.5q-8 -60 -27.5 -99t-50 -57t-61 -24.5t-74.5 -6.5t-73 6t-54 24.5t-33 57.5z" />
<glyph unicode="&#x4ee;" horiz-adv-x="1245" d="M33 80l194 385q110 -52 232 -55q18 0 26.5 1t14.5 6.5t4.5 16.5t-10.5 31l-226 543q-82 173 -53 378l8 68h357l92 -194q83 -176 80 -377l-2 -162l38 162q47 205 158 391l105 180h376l-6 -53q-14 -99 -47.5 -187t-93.5 -204l-291 -561q-72 -141 -140.5 -233.5t-139.5 -145 t-141.5 -73t-159.5 -20.5q-112 0 -211.5 28.5t-163.5 74.5zM438 1618l29 205h819l-29 -205h-819z" />
<glyph unicode="&#x4ef;" horiz-adv-x="1269" d="M86 -369l184 336q59 -28 155.5 -41.5t160.5 -13.5q94 0 139.5 45.5t60.5 124.5q-57 -24 -98 -31.5t-108 -7.5q-143 0 -231.5 26.5t-139.5 88.5t-58.5 163.5t11.5 251.5l71 512h390l-72 -503q-6 -44 -7.5 -68.5t2.5 -46.5t12.5 -31.5t29 -17t45 -9t67.5 -1.5h43 q27 0 47.5 11t31.5 25t20 41.5t12 47.5t8 55l70 497h387l-139 -995q-41 -292 -189.5 -426.5t-429.5 -134.5q-143 0 -278 30t-197 72zM399 1249l29 205h819l-28 -205h-820z" />
<glyph unicode="&#x4f0;" horiz-adv-x="1245" d="M33 80l194 385q110 -52 232 -55q18 0 26.5 1t14.5 6.5t4.5 16.5t-10.5 31l-226 543q-82 173 -53 378l8 68h357l92 -194q83 -176 80 -377l-2 -162l38 162q47 205 158 391l105 180h376l-6 -53q-14 -99 -47.5 -187t-93.5 -204l-291 -561q-72 -141 -140.5 -233.5t-139.5 -145 t-141.5 -73t-159.5 -20.5q-112 0 -211.5 28.5t-163.5 74.5zM463 1619.5q-8 38.5 0 98.5q9 60 28.5 99t49.5 57.5t60.5 24.5t74.5 6q24 0 42.5 -1.5t39 -6.5t33 -13.5t25.5 -22.5t17.5 -33.5t7 -47t-4.5 -62.5q-8 -60 -27 -98.5t-50 -57t-61.5 -24.5t-74.5 -6t-73 6t-54 24.5 t-33 57zM887 1619.5q-8 38.5 0 98.5q9 60 28.5 99t49.5 57.5t60.5 24.5t74.5 6q24 0 42.5 -1.5t39 -6.5t33 -13.5t25.5 -22.5t17.5 -33.5t7 -47t-4.5 -62.5q-8 -60 -27 -98.5t-50 -57t-61.5 -24.5t-74.5 -6t-73 6t-54 24.5t-33 57z" />
<glyph unicode="&#x4f1;" horiz-adv-x="1142" d="M25 -369l184 336q59 -28 155 -41.5t160 -13.5q168 0 201 170q-57 -24 -98.5 -31.5t-108.5 -7.5q-143 0 -231.5 26.5t-139.5 88.5t-58.5 163.5t11.5 251.5l72 512h389l-72 -503q-5 -43 -7 -68t2 -47t12.5 -31.5t29 -17t45.5 -9t68 -1.5h43q27 0 47.5 11t31.5 25t20 41.5 t12 47.5t8 55l69 497h387l-139 -995q-41 -292 -189 -426.5t-429 -134.5q-143 0 -278 30t-197 72zM360 1251q-8 39 0 99q9 60 28 98.5t49.5 57t61 24.5t74.5 6q21 0 37.5 -1t35 -4.5t30.5 -9.5t25 -15.5t19.5 -23.5t12.5 -33t4.5 -43.5t-4.5 -55.5q-8 -60 -27.5 -99t-50 -57 t-61 -24.5t-74.5 -6.5t-73 6t-54 24.5t-33 57.5zM784 1251q-8 39 0 99q9 60 28 98.5t49.5 57t61 24.5t74.5 6q21 0 37.5 -1t35 -4.5t30.5 -9.5t25 -15.5t19.5 -23.5t12.5 -33t4.5 -43.5t-4.5 -55.5q-8 -60 -27.5 -99t-50 -57t-61 -24.5t-74.5 -6.5t-73 6t-54 24.5t-33 57.5z " />
<glyph unicode="&#x4f2;" horiz-adv-x="1245" d="M33 80l194 385q110 -52 232 -55q18 0 26.5 1t14.5 6.5t4.5 16.5t-10.5 31l-226 543q-82 173 -53 378l8 68h357l92 -194q83 -176 80 -377l-2 -162l38 162q47 205 158 391l105 180h376l-6 -53q-14 -99 -47.5 -187t-93.5 -204l-291 -561q-72 -141 -140.5 -233.5t-139.5 -145 t-141.5 -73t-159.5 -20.5q-112 0 -211.5 28.5t-163.5 74.5zM315 1667l437 254l88 -264l-482 -121zM872 1667l437 254l88 -264l-482 -121z" />
<glyph unicode="&#x4f3;" horiz-adv-x="1269" d="M86 -369l184 336q59 -28 155.5 -41.5t160.5 -13.5q94 0 139.5 45.5t60.5 124.5q-57 -24 -98 -31.5t-108 -7.5q-143 0 -231.5 26.5t-139.5 88.5t-58.5 163.5t11.5 251.5l71 512h390l-72 -503q-6 -44 -7.5 -68.5t2.5 -46.5t12.5 -31.5t29 -17t45 -9t67.5 -1.5h43 q27 0 47.5 11t31.5 25t20 41.5t12 47.5t8 55l70 497h387l-139 -995q-41 -292 -189.5 -426.5t-429.5 -134.5q-143 0 -278 30t-197 72zM362 1298l437 254l88 -264l-481 -121zM920 1298l436 254l88 -264l-481 -121z" />
<glyph unicode="&#x4f4;" horiz-adv-x="1392" d="M184 807q0 66 11 145l69 502h451l-70 -502q-5 -20 -2.5 -35.5t4 -26.5t9 -18.5t13 -11.5t16.5 -6.5t19.5 -3t20.5 -0.5q54 0 128.5 8.5t109.5 18.5l79 577h451l-203 -1454h-450l67 481q-104 -41 -313 -41q-44 0 -76 1.5t-73 7.5t-70 16t-62 29t-54 45t-40 65t-27 88 t-8 115zM537 1619.5q-8 38.5 0 98.5q9 60 28.5 99t49.5 57.5t60.5 24.5t74.5 6q24 0 42.5 -1.5t38.5 -6.5t33 -13.5t26 -22.5t17 -33.5t6.5 -47t-4.5 -62.5q-8 -60 -27 -98.5t-50 -57t-61.5 -24.5t-74.5 -6t-72.5 6t-53.5 24.5t-33 57zM961 1619.5q-8 38.5 0 98.5 q9 60 28.5 99t49.5 57.5t60.5 24.5t74.5 6q24 0 42.5 -1.5t38.5 -6.5t33 -13.5t26 -22.5t17 -33.5t6.5 -47t-4.5 -62.5q-8 -60 -27 -98.5t-50 -57t-61.5 -24.5t-74.5 -6t-72.5 6t-53.5 24.5t-33 57z" />
<glyph unicode="&#x4f5;" horiz-adv-x="1249" d="M175 498.5q-31 122.5 1 320.5l37 266h389l-37 -258q-8 -58 -3.5 -97t40.5 -58t113 -19h43q26 0 45 10t30 23t19 38.5t11.5 43.5t8.5 51q1 10 2 15l35 251h389l-151 -1085h-389l43 309q-61 -25 -102.5 -33t-106.5 -8q-188 0 -287 54t-130 176.5zM414 1251q-8 39 0 99 q9 60 28 98.5t49.5 57t61 24.5t74.5 6q25 0 43 -1.5t38.5 -6t33 -13t25.5 -22.5t17 -33.5t6.5 -47t-4.5 -62.5q-8 -60 -27.5 -99t-50 -57t-61 -24.5t-74.5 -6.5t-72.5 6t-53.5 24.5t-33 57.5zM838 1251q-8 39 0 99q9 60 28 98.5t49.5 57t61 24.5t74.5 6q25 0 43 -1.5 t38.5 -6t33 -13t25.5 -22.5t17 -33.5t6.5 -47t-4.5 -62.5q-8 -60 -27.5 -99t-50 -57t-61 -24.5t-74.5 -6.5t-72.5 6t-53.5 24.5t-33 57.5z" />
<glyph unicode="&#x4f8;" horiz-adv-x="1923" d="M102 0l203 1454h451l-62 -440h209q48 0 81 -1.5t77 -6.5t73.5 -15t64 -28.5t56 -44.5t41 -65t27.5 -88t7.5 -116t-11.5 -147q-20 -141 -63.5 -239.5t-90.5 -149t-124 -77t-132 -31.5t-147 -5h-660zM608 399h144q26 0 41 2.5t32.5 12t27.5 31.5t15 57q1 18 3 32.5t-2.5 25 t-7 18t-11 12.5t-14 7.5t-16.5 4t-19 2t-21 0.5h-143zM803 1619.5q-8 38.5 0 98.5q9 60 28.5 99t49.5 57.5t60.5 24.5t74.5 6q24 0 42.5 -1.5t39 -6.5t33 -13.5t25.5 -22.5t17.5 -33.5t7 -47t-4.5 -62.5q-8 -60 -27 -98.5t-50 -57t-61.5 -24.5t-74.5 -6t-73 6t-54 24.5 t-33 57zM1227 1619.5q-8 38.5 0 98.5q9 60 28.5 99t49.5 57.5t60.5 24.5t74.5 6q24 0 42.5 -1.5t38.5 -6.5t33 -13.5t26 -22.5t17 -33.5t6.5 -47t-4.5 -62.5q-8 -60 -27 -98.5t-50 -57t-61.5 -24.5t-74.5 -6t-72.5 6t-53.5 24.5t-33 57zM1370 0l203 1454h450l-202 -1454 h-451z" />
<glyph unicode="&#x4f9;" horiz-adv-x="1556" d="M102 0l152 1085h389l-39 -276h103q41 0 73.5 -2t67.5 -7.5t61.5 -15t53 -25t45 -37.5t33 -53t21 -69.5t6 -89t-8.5 -111.5q-11 -77 -30.5 -138t-44 -102.5t-59.5 -71.5t-69 -46.5t-81 -26t-86.5 -12t-94.5 -2.5h-492zM537 326h61q19 0 29 1.5t23 8t20.5 22t11.5 41.5 t0.5 42t-14.5 22.5t-21.5 8t-28.5 1.5h-61zM567 1251q-8 39 0 99q9 60 28 98.5t49.5 57t61 24.5t74.5 6q21 0 37.5 -1t35 -4.5t30.5 -9.5t25 -15.5t19.5 -23.5t12.5 -33t4.5 -43.5t-4.5 -55.5q-8 -60 -27.5 -99t-50 -57t-61 -24.5t-74.5 -6.5t-73 6t-54 24.5t-33 57.5z M991 1251q-8 39 0 99q9 60 28 98.5t49.5 57t61 24.5t74.5 6q21 0 37.5 -1t35 -4.5t30.5 -9.5t25 -15.5t19.5 -23.5t12.5 -33t4.5 -43.5t-4.5 -55.5q-8 -60 -27.5 -99t-50 -57t-61 -24.5t-74.5 -6.5t-73 6t-54 24.5t-33 57.5zM1065 0l152 1085h389l-152 -1085h-389z" />
<glyph unicode="&#x2000;" horiz-adv-x="960" />
<glyph unicode="&#x2001;" horiz-adv-x="1921" />
<glyph unicode="&#x2002;" horiz-adv-x="960" />
<glyph unicode="&#x2003;" horiz-adv-x="1921" />
<glyph unicode="&#x2004;" horiz-adv-x="640" />
<glyph unicode="&#x2005;" horiz-adv-x="480" />
<glyph unicode="&#x2006;" horiz-adv-x="320" />
<glyph unicode="&#x2007;" horiz-adv-x="320" />
<glyph unicode="&#x2008;" horiz-adv-x="240" />
<glyph unicode="&#x2009;" horiz-adv-x="384" />
<glyph unicode="&#x200a;" horiz-adv-x="106" />
<glyph unicode="&#x2010;" horiz-adv-x="735" d="M184 559v334h531v-334h-531z" />
<glyph unicode="&#x2011;" horiz-adv-x="735" d="M184 559v334h531v-334h-531z" />
<glyph unicode="&#x2012;" horiz-adv-x="735" d="M184 559v334h531v-334h-531z" />
<glyph unicode="&#x2013;" horiz-adv-x="1265" d="M184 559v334h1061v-334h-1061z" />
<glyph unicode="&#x2014;" horiz-adv-x="1265" d="M184 559v334h1061v-334h-1061z" />
<glyph unicode="&#x2018;" horiz-adv-x="641" d="M254 1038q27 203 174 340q145 123 340 178l51 -272l-65 -22q-16 -6 -52.5 -22t-58.5 -23t-35 -3l-22 7l-11 -9q64 -15 94 -61.5t17 -138.5q-9 -62 -32 -104.5t-58.5 -64t-73 -30t-86.5 -8.5q-113 0 -157 50.5t-25 182.5z" />
<glyph unicode="&#x2019;" horiz-adv-x="641" d="M160 1077l63 23q16 6 52 22t58 22.5t36 2.5l22 -6l10 8q-65 15 -94 61.5t-16 139.5q9 62 32 104.5t58.5 63.5t73 29.5t86.5 8.5q113 0 157 -50.5t25 -182.5q-27 -203 -174 -340q-145 -123 -342 -178z" />
<glyph unicode="&#x201a;" horiz-adv-x="641" d="M0 -63l63 22q16 6 52 22t58 22.5t36 2.5l22 -6l11 8q-65 15 -94.5 61.5t-16.5 139.5q9 62 32 104.5t58.5 64t73 30t86.5 8.5q113 0 157 -50.5t25 -183.5q-27 -203 -174 -340q-145 -123 -342 -178z" />
<glyph unicode="&#x201c;" horiz-adv-x="1171" d="M254 1038q27 203 174 340q145 123 340 178l51 -272l-65 -22q-16 -6 -52.5 -22t-58.5 -23t-35 -3l-22 7l-11 -9q64 -15 94 -61.5t17 -138.5q-9 -62 -32 -104.5t-58.5 -64t-73 -30t-86.5 -8.5q-113 0 -157 50.5t-25 182.5zM786 1038q27 202 175 340q145 123 339 178 l52 -272l-66 -22q-17 -6 -52.5 -22t-57.5 -23t-35 -3l-23 7l-10 -9q64 -15 94 -61.5t17 -138.5q-9 -62 -32 -104.5t-58.5 -64t-73 -30t-86.5 -8.5q-113 0 -157.5 50.5t-25.5 182.5z" />
<glyph unicode="&#x201d;" horiz-adv-x="1167" d="M160 1077l63 23q16 6 52 22t58 22.5t36 2.5l22 -6l10 8q-65 15 -94 61.5t-16 139.5q9 62 32 104.5t58.5 63.5t73 29.5t86.5 8.5q113 0 157 -50.5t25 -182.5q-27 -203 -174 -340q-145 -123 -342 -178zM688 1077l64 23q16 6 51.5 21.5t57.5 22.5t36 3l23 -6l10 8 q-65 15 -94.5 61.5t-16.5 139.5q9 62 32 104.5t58.5 63.5t73 29.5t86.5 8.5q113 0 157 -50.5t25 -182.5q-27 -203 -174 -340q-145 -123 -342 -178z" />
<glyph unicode="&#x201e;" horiz-adv-x="1181" d="M0 -63l63 22q16 6 52 22t58 22.5t36 2.5l22 -6l11 8q-65 15 -94.5 61.5t-16.5 139.5q9 62 32 104.5t58.5 64t73 30t86.5 8.5q113 0 157 -50.5t25 -183.5q-27 -203 -174 -340q-145 -123 -342 -178zM537 -63l63 22q16 6 51.5 21.5t57.5 22.5t36 3l23 -6l10 8 q-65 15 -94 61.5t-16 139.5q9 62 32 104.5t58.5 64t73 30t86.5 8.5q113 0 157 -50.5t25 -183.5q-27 -203 -174 -340q-145 -123 -342 -178z" />
<glyph unicode="&#x2026;" horiz-adv-x="1923" d="M129 199q19 126 82.5 171.5t167.5 45.5q50 0 84.5 -8.5t63 -31t38.5 -67t0 -110.5q-9 -66 -31.5 -110.5t-57 -67.5t-72.5 -32t-87 -9q-104 0 -154.5 46.5t-33.5 172.5zM770 199q19 126 82.5 171.5t167.5 45.5q50 0 84.5 -8.5t63 -31t38.5 -67t0 -110.5 q-9 -66 -31.5 -110.5t-57 -67.5t-72.5 -32t-87 -9q-104 0 -154.5 46.5t-33.5 172.5zM1411 199q19 126 82.5 171.5t167.5 45.5q50 0 84.5 -8.5t63 -31t38.5 -67t0 -110.5q-9 -66 -31.5 -110.5t-57 -67.5t-72.5 -32t-87 -9q-104 0 -154.5 46.5t-33.5 172.5z" />
<glyph unicode="&#x202f;" horiz-adv-x="384" />
<glyph unicode="&#x2039;" horiz-adv-x="704" d="M141 571l279 385l309 -194l-143 -197l76 -192l-369 -183z" />
<glyph unicode="&#x203a;" horiz-adv-x="704" d="M145 373l129 192l-86 197l363 194l172 -385l-258 -381z" />
<glyph unicode="&#x205f;" horiz-adv-x="480" />
<glyph unicode="&#x20ac;" horiz-adv-x="1585" d="M94 539l60 123h241q0 17 8 67l9 62h-205l57 122h174q82 292 277 429t502 137q151 0 271 -44.5t183 -91.5l-211 -382q-68 33 -162.5 52t-156.5 19q-96 -2 -151.5 -24.5t-90.5 -94.5h406l-58 -122h-385q-6 -22 -10 -62q-3 -22 -8 -67h342l-60 -123h-276q17 -68 66 -90.5 t141 -22.5q60 0 160 19.5t180 52.5l100 -383q-78 -48 -211.5 -91.5t-279.5 -43.5q-306 0 -462.5 135t-156.5 424h-293z" />
<glyph unicode="&#x2122;" horiz-adv-x="1665" d="M246 1321l30 215h551l-30 -215h-162l-72 -512h-225l72 512h-164zM797 809l102 727h238l96 -266q31 -98 31 -193l2 -59l16 59q30 105 90 193l168 266h238l-103 -727h-225l16 113q14 102 47 202l21 64h-4l-211 -379h-164l-106 379h-5l5 -64q3 -102 -11 -202l-16 -113h-225z " />
<glyph unicode="&#xe000;" horiz-adv-x="1085" d="M0 0v1085h1085v-1085h-1085z" />
</font>
</defs>
</svg>
