<?xml version="1.0" standalone="no"?>
<!DOCTYPE svg PUBLIC "-//W3C//DTD SVG 1.1//EN" "http://www.w3.org/Graphics/SVG/1.1/DTD/svg11.dtd" >
<svg xmlns="http://www.w3.org/2000/svg">
<metadata></metadata>
<defs>
<font id="movavi_grotesqueblack" horiz-adv-x="1302" >
<font-face units-per-em="2048" ascent="1587" descent="-461" />
<missing-glyph horiz-adv-x="614" />
<glyph horiz-adv-x="2048" />
<glyph horiz-adv-x="2048" />
<glyph unicode="&#xd;" horiz-adv-x="2048" />
<glyph unicode=" "  horiz-adv-x="614" />
<glyph unicode="&#x09;" horiz-adv-x="614" />
<glyph unicode="&#xa0;" horiz-adv-x="614" />
<glyph unicode="!" horiz-adv-x="643" d="M100 1454h443l-66 -924h-311zM104 199q0 53 11.5 92.5t30.5 63t48.5 37.5t60 19t69.5 5t69.5 -5t59 -19t47 -37.5t30 -63t11.5 -92.5q0 -66 -16 -110.5t-47.5 -67.5t-68 -32t-85.5 -9t-86 9t-69 32t-48.5 67.5t-16.5 110.5z" />
<glyph unicode="&#x22;" horiz-adv-x="778" d="M102 1147v389h246l-61 -389h-185zM430 1147v389h246l-62 -389h-184z" />
<glyph unicode="#" horiz-adv-x="1433" d="M104 418v194h302l32 234h-274v196h303l55 412h197l-55 -412h196l55 412h197l-55 -412h276v-196h-305l-33 -234h275v-196h-303l-58 -416h-196l57 416h-197l-57 -416h-197l58 416zM604 612h195l32 234h-194z" />
<glyph unicode="$" horiz-adv-x="1288" d="M82 96l156 383q71 -31 205 -51t206 -20q49 0 64.5 12.5t15.5 34.5q0 49 -51 65q-21 7 -61.5 12.5t-81.5 8.5t-91 14t-94 27t-86.5 49.5t-73 79.5t-49 118.5t-18.5 165.5q0 184 78.5 303t257.5 160v201h368v-191q117 -14 215.5 -42.5t143.5 -57.5l-135 -383 q-77 35 -209 54.5t-205 7.5q-32 -6 -44.5 -18t-12.5 -32q0 -39 51 -53q20 -5 63 -10t84.5 -9t93.5 -16t97.5 -29.5t90 -52.5t76 -82t51 -120t19.5 -164q0 -404 -379 -471v-195h-368v195q-125 18 -230.5 48.5t-146.5 57.5z" />
<glyph unicode="%" horiz-adv-x="1495" d="M61 -14v389l635 409v-389zM82 1137q0 85 18 147t47 98t74.5 57.5t91.5 28.5t107 7t107 -7t91.5 -28.5t74.5 -57.5t47 -98t18 -147t-18 -147t-47 -98t-74.5 -57.5t-91.5 -28.5t-107 -7t-107 7t-91.5 28.5t-74.5 57.5t-47 98t-18 147zM315 1137q0 -36 7.5 -58.5t24.5 -32 t32 -12t41 -2.5t41 2.5t31.5 12t24 32t7.5 58.5t-7.5 58t-24 31.5t-31.5 12t-41 2.5t-41 -2.5t-32 -12t-24.5 -31.5t-7.5 -58zM737 317q0 85 18 147t47 98t74.5 57.5t91.5 28.5t107 7t107 -7t91.5 -28.5t74.5 -57.5t47 -98t18 -147t-18 -146.5t-47 -98t-74.5 -57.5 t-91.5 -28t-107 -7t-107 7t-91.5 28t-74.5 57.5t-47 98t-18 146.5zM799 670v389l635 409v-389zM971 317q0 -36 7.5 -58t24 -31.5t31.5 -12t41 -2.5t41 2.5t32 12t24.5 31.5t7.5 58t-7.5 58.5t-24.5 32t-32 12t-41 2.5t-41 -2.5t-31.5 -12t-24 -32t-7.5 -58.5z" />
<glyph unicode="&#x26;" horiz-adv-x="1495" d="M102 434q0 50 5 91t11 70.5t20 56.5t24.5 43t33 36t35.5 30t42 30.5t44 31.5q-71 93 -71 211q0 70 13.5 126t36 94.5t57 66.5t70.5 44.5t83.5 26t89.5 12.5t94 3q46 0 84 -2.5t84.5 -11.5t82.5 -24t71.5 -41.5t59 -63t38 -90.5t14.5 -121q0 -94 -47 -175t-125 -141 l62 -67q97 59 164 145l235 -256q-55 -77 -113 -115q39 -17 117 -32l-86 -416q-205 26 -358 115q-169 -131 -369 -131q-91 0 -158.5 9t-135.5 37t-111 76.5t-70 132t-27 199.5zM518 457q0 -24 5 -40t11 -24.5t20.5 -12.5t24.5 -4.5t31 -0.5q48 0 92 24l-135 150 q-1 -1 -9 -7.5t-9 -8t-7 -7t-7.5 -8t-5.5 -8.5t-5 -10.5t-3 -11.5t-2.5 -14.5t-0.5 -16.5zM639 1038q10 -34 53 -77q64 48 64 83t-76 35q-18 0 -31.5 -12.5t-9.5 -28.5z" />
<glyph unicode="'" horiz-adv-x="450" d="M102 1147v389h246l-61 -389h-185z" />
<glyph unicode="(" horiz-adv-x="671" d="M100 578q0 349 109 645q19 56 78.5 182t113.5 188l293 -256q-46 -53 -121 -252q-84 -221 -84 -507q0 -287 84 -508q75 -199 121 -252l-293 -256q-54 62 -113.5 188t-78.5 182q-109 296 -109 646z" />
<glyph unicode=")" horiz-adv-x="671" d="M-16 -182q44 50 120 252q84 221 84 508q0 286 -84 507q-75 201 -120 252l292 256q38 -42 85.5 -133t72 -148.5t35.5 -88.5q109 -282 109 -645q0 -364 -109 -646q-19 -54 -78.5 -181t-114.5 -189z" />
<glyph unicode="*" horiz-adv-x="966" d="M102 971q15 10 96 57t97 57q-15 10 -96.5 57.5t-96.5 57.5l121 172q12 -8 46 -36t75.5 -63t50.5 -42q-16 172 -16 223h209q0 -40 -17 -223q9 7 50.5 42t75.5 63t46 36l121 -172q-15 -10 -96 -58t-96 -57q16 -10 96.5 -57t95.5 -57l-121 -172q-12 8 -46 36t-75.5 63 t-50.5 42q17 -183 17 -223h-209q0 51 16 223q-9 -7 -50.5 -42t-75.5 -63t-46 -36z" />
<glyph unicode="+" horiz-adv-x="1280" d="M123 559v334h350v350h336v-350h348v-334h-348v-350h-336v350h-350z" />
<glyph unicode="," horiz-adv-x="641" d="M8 -63l62 22q16 6 49.5 21.5t54.5 22.5t35 3l22 -6l11 8q-67 15 -103.5 61.5t-36.5 139.5q0 62 17.5 104.5t50 64t69 30t85.5 8.5q113 0 164 -50.5t51 -183.5q0 -204 -127 -340q-125 -122 -316 -178z" />
<glyph unicode="-" horiz-adv-x="735" d="M102 559v334h531v-334h-531z" />
<glyph unicode="." horiz-adv-x="641" d="M102 199q0 53 11.5 92.5t30.5 63t48.5 37.5t60 19t69.5 5t69.5 -5t59 -19t47 -37.5t30 -63t11.5 -92.5q0 -66 -16 -110.5t-47.5 -67.5t-68 -32t-85.5 -9t-86 9t-69 32t-48.5 67.5t-16.5 110.5z" />
<glyph unicode="/" horiz-adv-x="970" d="M-20 -92l645 1771l366 -133l-645 -1771z" />
<glyph unicode="0" horiz-adv-x="1292" d="M82 727q0 207 27.5 345t93 231.5t173 134.5t269.5 41t270 -41t174 -134.5t93.5 -231.5t27.5 -345q0 -206 -27.5 -343.5t-94 -230t-174 -133t-269.5 -40.5t-269.5 40.5t-173 132.5t-93 229.5t-27.5 344.5zM541 727q0 -61 1 -98t4 -79t10 -65t18.5 -44t29 -29.5t41.5 -8.5 q29 0 49 14.5t31.5 38t17.5 67.5t7.5 88.5t1.5 115.5q0 72 -1.5 116.5t-8 89t-17.5 68.5t-31 39t-49 15q-24 0 -41.5 -9t-29 -30t-18.5 -45t-10 -66t-4 -79.5t-1 -98.5z" />
<glyph unicode="1" horiz-adv-x="788" d="M10 1026v213l330 215h346v-1454h-448v1026h-228z" />
<glyph unicode="2" horiz-adv-x="1292" d="M111 1368q56 38 212.5 74.5t282.5 36.5q108 0 206.5 -31t175.5 -87.5t123 -144t46 -192.5q0 -60 -13 -114t-33.5 -96t-55.5 -82.5t-67.5 -68.5t-82 -60.5t-86.5 -53t-94 -49.5q-113 -58 -135 -70h600v-430h-1073l2 307q3 232 188 400q30 27 73 57t72.5 49t104.5 63.5 t109 65.5q28 16 39.5 27.5t11.5 31.5q0 50 -121 50q-82 0 -184.5 -19t-165.5 -47z" />
<glyph unicode="3" horiz-adv-x="1288" d="M82 96l156 383q64 -29 183 -48t204 -23q40 3 67 32t27 70q0 43 -30 72.5t-73 29.5h-186v260l143 152h-399v430h975v-307l-182 -240q109 -68 174 -180.5t65 -245.5q0 -54 -12.5 -109t-37.5 -113t-69 -108t-102.5 -90t-142.5 -63t-183 -23q-173 0 -344 40.5t-233 80.5z" />
<glyph unicode="4" horiz-adv-x="1265" d="M20 283v65q0 23 1.5 45t6 46.5t6.5 40.5t11 43.5t12 39t15 43t14.5 39t17.5 44.5t17 42l285 723h491l-360 -772h108q23 121 113 244l116 159h197v-372h174v-430h-174v-283h-450v283h-601z" />
<glyph unicode="5" horiz-adv-x="1300" d="M74 96l155 383q68 -30 191.5 -51.5t195.5 -19.5q39 0 67 30t28 72q0 43 -30 72.5t-73 29.5q-104 0 -211 -30l-198 176l65 696h871v-432h-494v-57h53q132 0 247 -60.5t186 -173t71 -250.5q0 -54 -12.5 -109t-37.5 -113t-69 -108t-102.5 -90t-142.5 -63t-183 -23 q-173 0 -344 40.5t-233 80.5z" />
<glyph unicode="6" horiz-adv-x="1286" d="M82 717q0 176 30.5 308.5t84 218.5t135.5 139t177 74.5t216 21.5q92 0 170 -11.5t135 -33t89 -37.5t67 -39l-156 -383q-62 29 -138.5 49t-125.5 23q-57 4 -109 -9.5t-83 -36t-49.5 -43.5t-18.5 -34q0 -20 76 6q94 34 114 36q5 1 9 1q72 0 131 -8t117.5 -27.5t102.5 -54.5 t78 -85.5t52 -125.5t18 -170q0 -516 -534 -516q-145 0 -251.5 39t-183.5 125t-115 229t-38 344zM588 483q0 -35 7 -57t23.5 -31t31 -11.5t40.5 -2.5t41 2.5t31 11.5t23.5 31t7.5 57t-7.5 57t-23.5 31.5t-31 12t-41 2.5t-41 -2.5t-31 -12t-23 -31.5t-7 -57z" />
<glyph unicode="7" horiz-adv-x="1146" d="M20 1024v430h1106v-219q0 -57 -45 -145q-41 -80 -263.5 -498.5t-305.5 -591.5h-356v92q0 206 96 385l295 547h-527z" />
<glyph unicode="8" horiz-adv-x="1228" d="M82 479q0 191 137 318q-84 104 -84 247q0 78 13 140.5t35.5 107.5t57 78t73.5 54t89.5 33.5t99.5 17t109 4.5q84 0 149 -9.5t129.5 -37.5t107 -75t68.5 -126.5t26 -186.5q0 -139 -86 -245q141 -131 141 -320q0 -119 -28.5 -209t-76 -144.5t-118 -88t-145 -45.5 t-167.5 -12q-95 0 -169.5 12.5t-144.5 45.5t-115.5 88t-73 144t-27.5 209zM500 479q0 -71 27.5 -91.5t84.5 -20.5t85 20.5t28 91.5t-28 92t-85 21t-84.5 -21t-27.5 -92zM520 1044q0 -27 5 -45t12 -27t21.5 -14t24 -5.5t29.5 -0.5q25 0 37 1.5t27.5 9.5t22 28t6.5 53t-6.5 53 t-22 28t-28 10t-36.5 2t-36.5 -2t-27.5 -10t-21.5 -28t-6.5 -53z" />
<glyph unicode="9" horiz-adv-x="1286" d="M82 963q0 516 534 516q145 0 251.5 -39.5t183 -125.5t115 -229t38.5 -344q0 -176 -30.5 -308.5t-84 -218t-135.5 -138.5t-177 -74.5t-216 -21.5q-92 0 -170 11.5t-135 32.5t-89 37.5t-67 38.5l156 383q62 -29 138.5 -48.5t125.5 -22.5q57 -4 109 9.5t83 36t49.5 43.5 t18.5 34q0 20 -76 -7q-101 -34 -122 -36q-72 0 -131.5 8t-118 27.5t-102.5 54.5t-78 85.5t-52 125.5t-18 170zM494 975q0 -35 7 -57t23 -31.5t31 -12t41 -2.5t41 2.5t31 12t23 31.5t7 57t-7 57t-23.5 31t-31 11.5t-40.5 2.5t-40.5 -2.5t-31 -11.5t-23.5 -31t-7 -57z" />
<glyph unicode=":" horiz-adv-x="641" d="M102 199q0 53 11.5 92.5t30.5 63t48.5 37.5t60 19t69.5 5t69.5 -5t59 -19t47 -37.5t30 -63t11.5 -92.5q0 -66 -16 -110.5t-47.5 -67.5t-68 -32t-85.5 -9t-86 9t-69 32t-48.5 67.5t-16.5 110.5zM102 748q0 53 11.5 92.5t30.5 63t48.5 37.5t60 19t69.5 5t69.5 -5t59 -19 t47 -37.5t30 -63t11.5 -92.5q0 -126 -57 -173t-160 -47q-39 0 -69.5 5.5t-60 20t-48.5 38.5t-30.5 63.5t-11.5 92.5z" />
<glyph unicode=";" horiz-adv-x="641" d="M-6 -20l61 22q73 28 154 4l22 -6l11 8q-67 15 -103.5 61.5t-36.5 139.5q0 62 17.5 104.5t50 64t69 30t85.5 8.5q113 0 164 -50.5t51 -183.5q0 -204 -127 -340q-125 -122 -316 -178zM102 748q0 53 11.5 92.5t30.5 63t48.5 37.5t60 19t69.5 5t69.5 -5t59 -19t47 -37.5 t30 -63t11.5 -92.5q0 -126 -57 -173t-160 -47q-39 0 -69.5 5.5t-60 20t-48.5 38.5t-30.5 63.5t-11.5 92.5z" />
<glyph unicode="&#x3c;" horiz-adv-x="1093" d="M61 614v222l699 278q118 55 252 55h20v-292l-252 -80q-122 -38 -254 -58l-116 -14l116 -14q132 -20 254 -58l252 -80v-292h-20q-134 0 -252 55z" />
<glyph unicode="=" horiz-adv-x="1239" d="M102 375v287h1035v-287h-1035zM102 791v286h1035v-286h-1035z" />
<glyph unicode="&#x3e;" horiz-adv-x="1093" d="M61 281v292l252 80q122 38 254 58l117 14l-117 14q-132 20 -254 58l-252 80v292h21q134 0 252 -55l698 -278v-222l-698 -278q-118 -55 -252 -55h-21z" />
<glyph unicode="?" horiz-adv-x="1189" d="M61 1368q56 38 213 74.5t283 36.5q108 0 206.5 -31t175.5 -87.5t123 -144t46 -192.5q0 -71 -17 -131t-44 -101t-59.5 -75t-64 -59.5t-57.5 -48.5t-40 -47.5t-11 -51.5h-457q0 130 81.5 240.5t189.5 175.5q39 23 39 75q0 50 -121 50q-82 0 -184.5 -19t-165.5 -47zM379 199 q0 66 16.5 110.5t48.5 67t68 31t86 8.5q39 0 69.5 -5t59 -19t47 -37.5t30 -63t11.5 -92.5q0 -66 -16 -110.5t-47.5 -67.5t-68 -32t-85.5 -9t-85.5 9t-68.5 32t-48.5 67.5t-16.5 110.5z" />
<glyph unicode="@" horiz-adv-x="1591" d="M82 729q0 209 48.5 355t147.5 232.5t236 124.5t328 38q133 0 235.5 -19.5t172.5 -50t118.5 -86.5t75.5 -110t41.5 -141t18 -158.5t3.5 -182.5v-180q0 -148 -69 -215.5t-211 -67.5q-87 0 -148 25q-24 9 -97 61q-4 3 -6.5 4.5t-6 4t-6.5 4.5q-54 -54 -97.5 -71t-109.5 -17 q-220 0 -315 114t-95 334q0 219 95.5 334t318.5 115q148 0 471 -31v-713q0 -37 51 -29q60 9 81 42t21 106v291q0 71 -4 123.5t-17.5 109.5t-37.5 96.5t-65 76.5t-98 59.5t-138.5 35.5t-185.5 13q-161 0 -275.5 -31.5t-196.5 -103t-121.5 -192.5t-39.5 -296 q0 -114 17.5 -205.5t47.5 -157t77 -113.5t99 -77.5t121 -47t135 -24t148 -6.5q58 0 115.5 2.5t117 9.5t99.5 11.5t101 15.5t81.5 14.5t81 16t61.5 12.5v-123q-11 -2 -69.5 -14.5t-81 -16.5t-79 -14.5t-94.5 -14.5t-94 -10t-112 -8.5t-115 -2.5q-101 0 -183.5 8t-165 30 t-145.5 57.5t-118.5 93t-91 135t-56 185t-20.5 240.5zM657 727q0 -95 22.5 -117t117.5 -22h51q22 0 37 8.5t22 18t10.5 32.5t4 35.5t0.5 44.5v107q0 32 -33 32h-92q-95 0 -117.5 -22t-22.5 -117z" />
<glyph unicode="A" d="M20 0v88q0 206 72 397l357 969h413l350 -967q70 -193 70 -397v-90h-367l-61 205h-393l-60 -205h-381zM580 635h149q-25 116 -37 205l-37 241l-39 -241q-14 -102 -36 -205z" />
<glyph unicode="B" horiz-adv-x="1372" d="M102 0v1454h660h26q26 -2 56 0q7 0 15 1q23 0 49 -4l68 -10t67.5 -19.5t64 -33.5t56.5 -50.5t45 -70t29.5 -93.5t10.5 -121q0 -201 -149 -322v-6q96 -33 143 -118t47 -206q0 -74 -13.5 -134t-37 -100t-55 -71.5t-67.5 -48t-74.5 -28.5t-76.5 -14t-73 -5q-18 -2 -33.5 -2 t-30.5 2h-26h-701zM553 399h143h9q26 0 38 1t27.5 6.5t22 19t6.5 35.5q0 18 -5.5 30t-11.5 18t-21 9t-24 3.5t-30 0.5h-11h-143v-123zM553 930h143h11q20 0 30 0.5t24.5 3.5t21 9t11.5 18t5 30q0 51 -42 59q-14 3 -61 3h-143v-123z" />
<glyph unicode="C" horiz-adv-x="1345" d="M82 729q0 389 178.5 569.5t530.5 180.5q151 0 277 -44.5t196 -91.5l-156 -382q-73 33 -170.5 52t-159.5 19q-44 -1 -73 -4.5t-60 -14t-50 -31t-35 -53.5t-23 -82.5t-7 -117.5q0 -67 7 -116.5t23 -82.5t35 -53.5t49.5 -31.5t60.5 -14.5t73 -4.5q61 0 158.5 19.5 t171.5 52.5l156 -383q-72 -48 -199.5 -91.5t-273.5 -43.5q-353 0 -531 180t-178 569z" />
<glyph unicode="D" horiz-adv-x="1454" d="M102 0v1454h523q191 0 327.5 -39t232 -124.5t141.5 -224.5t46 -337q0 -199 -43 -337.5t-134.5 -225.5t-225.5 -126.5t-324 -39.5h-543zM551 426h90q51 0 88 5t76.5 23.5t64 50t40.5 88.5t16 136q0 58 -8.5 103t-22 76t-36 53.5t-46 35t-56.5 20t-62.5 9.5t-69.5 2h-74 v-602z" />
<glyph unicode="E" horiz-adv-x="1185" d="M102 0v1454h981v-420h-530v-102h489v-410h-489v-102h530v-420h-981z" />
<glyph unicode="F" horiz-adv-x="1103" d="M102 0v1454h981v-420h-530v-102h489v-410h-489v-522h-451z" />
<glyph unicode="G" horiz-adv-x="1462" d="M82 731q0 392 186.5 570t575.5 178q151 0 277 -44.5t196 -91.5l-156 -382q-73 33 -170.5 52t-159.5 19q-47 0 -81 -3.5t-71 -13.5t-62 -31t-46 -53t-31 -82.5t-10 -117.5q0 -79 16 -135.5t41 -88t66.5 -49.5t81 -23t96.5 -5v-4q54 0 119 8v119h-119v348h529v-786l-4 -2 q-69 -44 -220 -88q-147 -43 -298 -43h-7q-381 0 -565 178.5t-184 570.5z" />
<glyph unicode="H" horiz-adv-x="1490" d="M102 0v1454h451v-512h385v512h451v-1454h-451v512h-385v-512h-451z" />
<glyph unicode="I" horiz-adv-x="655" d="M102 0v1454h451v-1454h-451z" />
<glyph unicode="J" horiz-adv-x="987" d="M20 80l142 385q74 -33 124 -44t113 -11q18 0 26.5 9.5t8.5 20.5v1014h451v-1005q0 -108 -27 -192t-70.5 -135.5t-103.5 -85t-120.5 -46.5t-127.5 -13q-251 0 -416 103z" />
<glyph unicode="K" horiz-adv-x="1402" d="M102 0v1454h451v-512h109l241 512h479l-344 -729l344 -725h-479l-241 512h-109v-512h-451z" />
<glyph unicode="L" horiz-adv-x="1019" d="M102 0v1454h451v-1024h446v-430h-897z" />
<glyph unicode="M" horiz-adv-x="1961" d="M102 0v1454h476l264 -532q93 -191 121 -387l18 -119l18 119q28 196 121 387l264 532h476v-1454h-451v225q0 197 37 406l24 127h-8l-317 -758h-328l-317 758h-8l24 -127q37 -209 37 -406v-225h-451z" />
<glyph unicode="N" horiz-adv-x="1478" d="M102 0v1454h351l514 -752l-21 181q-20 161 -20 325v246h450v-1454h-350l-514 745l20 -174q21 -170 21 -325v-246h-451z" />
<glyph unicode="O" horiz-adv-x="1579" d="M82 729q0 389 179 569.5t530 180.5t528.5 -180.5t177.5 -569.5t-177.5 -569t-528.5 -180t-530 180t-179 569zM530 729q0 -67 7 -116.5t23.5 -82.5t36.5 -53.5t52 -31t63.5 -14t78.5 -3.5q46 0 77.5 3.5t63.5 14t52 31t36 53.5t23.5 82.5t7.5 116.5q0 68 -7 117.5 t-24 82.5t-36.5 53.5t-52 30.5t-63.5 13.5t-77 3.5q-47 0 -78 -3.5t-63.5 -13.5t-52.5 -30.5t-36.5 -53.5t-23.5 -82.5t-7 -117.5z" />
<glyph unicode="P" horiz-adv-x="1331" d="M102 0v1454h660q65 0 105 -2t97.5 -12t93 -29.5t76 -56t63 -89t37.5 -132t15 -181.5q0 -80 -9 -147t-24 -116.5t-40 -88t-50 -64.5t-62 -44.5t-68 -28.5t-75.5 -15t-77.5 -6.5t-81 -1.5h-209v-440h-451zM553 850h143q26 0 41 2.5t31 11.5t23.5 31t7.5 57t-7.5 57 t-23.5 31.5t-31 12t-41 2.5h-143v-205z" />
<glyph unicode="Q" horiz-adv-x="1579" d="M82 729q0 389 179 569.5t530 180.5t528.5 -180.5t177.5 -569.5q0 -118 -16 -208t-50.5 -153t-80.5 -105t-114 -67t-141.5 -36.5t-172.5 -14.5v-22h57q201 0 401 -60l115 -34l-135 -383l-924 395l-14 6q-340 154 -340 682zM530 729q0 -67 7 -116.5t23.5 -82.5t36.5 -53.5 t52 -31t63.5 -14t78.5 -3.5q46 0 77.5 3.5t63.5 14t52 31t36 53.5t23.5 82.5t7.5 116.5q0 68 -7 117.5t-24 82.5t-36.5 53.5t-52 30.5t-63.5 13.5t-77 3.5q-47 0 -78 -3.5t-63.5 -13.5t-52.5 -30.5t-36.5 -53.5t-23.5 -82.5t-7 -117.5z" />
<glyph unicode="R" horiz-adv-x="1402" d="M102 0v1454h701q65 0 105 -2t97.5 -12t93 -29.5t76 -56t63 -89t37.5 -132t15 -181.5q0 -297 -178 -417l209 -535h-479l-172 461h-117v-461h-451zM553 850h184q26 0 41 2.5t31 11.5t23.5 31t7.5 57t-7.5 57t-23.5 31.5t-31 12t-41 2.5h-184v-205z" />
<glyph unicode="S" horiz-adv-x="1288" d="M82 96l156 383q71 -31 205 -51t206 -20q49 0 64.5 12.5t15.5 34.5q0 49 -51 65q-21 7 -61.5 12.5t-81.5 8.5t-91 14t-94 27t-86.5 49.5t-73 79.5t-49 118.5t-18.5 165.5q0 112 27.5 197.5t89 151.5t167.5 100.5t255 34.5q158 0 309.5 -35t214.5 -76l-135 -383 q-77 35 -209 55q-82 12 -141 12q-36 0 -64 -5q-32 -6 -44.5 -18t-12.5 -32q0 -39 51 -53q20 -5 63 -10t84.5 -9t93.5 -16t97.5 -29.5t90 -52.5t76 -82t51 -120t19.5 -164q0 -486 -547 -486q-173 0 -344 40.5t-233 80.5z" />
<glyph unicode="T" horiz-adv-x="1142" d="M20 1024v430h1102v-430h-325v-1024h-451v1024h-326z" />
<glyph unicode="U" horiz-adv-x="1511" d="M123 596v858h446v-844q0 -43 4.5 -75t10 -54t20 -36.5t25.5 -22t35 -11.5t40.5 -4.5t49.5 -0.5t49.5 0.5t41 4.5t36 11.5t26 22t20.5 36.5t10.5 54t4.5 75v844h447v-858q0 -144 -33.5 -253t-89.5 -177.5t-139 -111.5t-172.5 -60t-198.5 -17q-110 0 -199.5 17t-172 60 t-139 111.5t-89.5 177.5t-33 253z" />
<glyph unicode="V" d="M20 1366v88h381l127 -440q59 -199 88 -400l39 -241l37 241q27 189 90 400l133 440h367v-90q0 -204 -70 -397l-350 -967h-413l-357 969q-72 191 -72 397z" />
<glyph unicode="W" horiz-adv-x="1818" d="M20 1415v39h408l35 -166q41 -199 67 -403l21 -275l29 277q35 183 96 397l51 170h358l54 -172q61 -204 98 -397l31 -275l20 273q24 191 68 403l33 168h409v-39q0 -205 -47 -403l-235 -1012h-426l-60 188q-60 202 -98 398l-25 250l-24 -250q-32 -181 -97 -398l-57 -188 h-428l-233 1012q-48 202 -48 403z" />
<glyph unicode="X" horiz-adv-x="1216" d="M20 0v68q0 203 107 378l172 281l-172 281q-107 175 -107 378v68h398l117 -274q39 -88 57 -195l16 -100l17 100q18 107 57 195l117 274h397v-68q0 -205 -106 -378l-172 -281l172 -281q106 -173 106 -378v-68h-397l-117 274q-39 88 -57 195l-17 100l-16 -100 q-18 -107 -57 -195l-117 -274h-398z" />
<glyph unicode="Y" horiz-adv-x="1257" d="M20 1376v78h367l80 -180q76 -170 127 -387l35 -170l35 170q50 209 127 387l77 180h369v-80q0 -30 -2.5 -57t-11 -59t-12.5 -48t-21 -54.5t-20 -46.5t-26.5 -56t-25.5 -52l-264 -548v-453h-451v453l-264 551q-4 9 -28.5 60t-30.5 64t-22.5 54.5t-21.5 64.5t-10.5 58.5 t-5.5 70.5z" />
<glyph unicode="Z" horiz-adv-x="1363" d="M102 0v98q0 106 28.5 194.5t90.5 176.5l400 555h-502v430h1110v-100q0 -108 -28 -196t-91 -175l-397 -553h549v-430h-1160z" />
<glyph unicode="[" horiz-adv-x="962" d="M102 -215v1874h758v-348h-368v-1178h368v-348h-758z" />
<glyph unicode="\" horiz-adv-x="970" d="M-20 1546l366 133l645 -1771l-366 -133z" />
<glyph unicode="]" horiz-adv-x="962" d="M102 133h369v1178h-369v348h758v-1874h-758v348z" />
<glyph unicode="^" horiz-adv-x="1003" d="M61 985l226 410q4 7 14.5 27t16 29t16 25.5t18.5 24.5t20 17.5t24.5 13.5t27.5 4h156q15 0 27.5 -4t24.5 -13.5t20 -17.5t18.5 -24.5t16 -25.5t16 -29t14.5 -27l225 -410l-295 -192l-145 348l-146 -348z" />
<glyph unicode="_" horiz-adv-x="1183" d="M0 -61h1184v-256h-1184v256z" />
<glyph unicode="`" horiz-adv-x="731" d="M102 1288l125 264l402 -254l-62 -131z" />
<glyph unicode="a" horiz-adv-x="1153" d="M43 289q-1 20 -1 38q0 155 75 221q84 73 299 73h250q-2 27 -11.5 45.5t-22.5 28t-35 14.5t-41 6t-48 0q-101 -2 -154.5 -9t-148.5 -34l-115 352q59 22 102 35.5t134 29t188 15.5q282 0 419.5 -134.5t137.5 -428.5v-541h-194l-142 92q-42 -60 -101 -87.5t-104 -27.5 q-271 0 -374 64.5t-113 247.5zM440 319q0 -28 10.5 -41.5t45.5 -13.5h45q31 0 50.5 3t40 13t28.5 34q5 16 5 38q0 11 -1 23h-168q-35 0 -45.5 -14t-10.5 -42z" />
<glyph unicode="b" horiz-adv-x="1310" d="M102 0v1454l43 19q148 63 316 63h31v-473q57 25 97 33t105 8q284 0 409.5 -127t125.5 -424q0 -303 -125.5 -437t-390.5 -134q-96 0 -153.5 22t-121.5 88l-141 -92h-195zM489 539q0 -31 0.5 -45t2.5 -38.5t8 -36t16 -25t26.5 -18.5t39.5 -5h84q43 0 68 1.5t47 9t31.5 17 t17 31.5t9 47t1.5 68t-1.5 68t-9 47t-17 31.5t-31.5 17t-47 9t-68 1.5h-84q-27 0 -45.5 -11t-28 -24.5t-14 -42.5t-5 -46.5t-0.5 -55.5z" />
<glyph unicode="c" horiz-adv-x="1130" d="M82 547q0 293 135 427t438 134q103 0 184 -16.5t119 -34t91 -49.5l-138 -336q-74 33 -124 44t-113 11q-68 0 -108.5 -9.5t-61.5 -34.5t-27 -54.5t-6 -81.5t6 -81.5t27 -54.5t61.5 -34.5t108.5 -9.5q63 0 113 11t124 44l138 -336q-82 -51 -170.5 -76.5t-225.5 -25.5 q-302 0 -436.5 135t-134.5 428z" />
<glyph unicode="d" horiz-adv-x="1310" d="M82 553q0 297 125 424t409 127q65 0 105.5 -8t97.5 -33v391l43 19q148 63 316 63h30v-1536h-194l-142 92q-65 -66 -121.5 -88t-152.5 -22q-265 0 -390.5 134t-125.5 437zM471 545q0 -49 5 -77.5t22.5 -52.5t53 -34t93.5 -10h84q20 0 35 5t24.5 11.5t16 21.5t10 24.5 t5 32.5t1.5 34v39v40t-1.5 35.5t-5 35t-10 27t-16 23.5t-24.5 13t-35 6h-84q-58 0 -93.5 -10t-53 -34t-22.5 -52.5t-5 -77.5z" />
<glyph unicode="e" horiz-adv-x="1208" d="M82 541q0 292 132.5 427.5t389.5 135.5t389.5 -135.5t132.5 -427.5q-90 -50 -177 -65t-212 -15h-250q2 -27 11.5 -45.5t22.5 -28t35 -14.5t41 -6t48 0q103 2 176.5 11.5t167.5 35.5l115 -353q-222 -84 -465 -84q-282 0 -419.5 134.5t-137.5 429.5zM489 625h230v13 q1 24 -5 42q-8 22 -17 33t-29.5 16.5t-28 5.5h-27.5q-31 0 -50.5 -3t-39.5 -13q-21 -9 -29 -33q-5 -16 -5 -38q0 -11 1 -23z" />
<glyph unicode="f" horiz-adv-x="874" d="M20 737v348h132q4 148 29.5 245.5t77 154.5t122.5 79.5t176 22.5q226 0 358 -76l-137 -335q-70 22 -160 22q-34 0 -48 -6t-21.5 -30t-7.5 -77h290v-348h-290v-737h-389v737h-132z" />
<glyph unicode="g" horiz-adv-x="1310" d="M82 532q0 303 125.5 437.5t390.5 134.5q96 0 152.5 -22.5t121.5 -88.5l142 92h194v-995q0 -292 -128.5 -426.5t-409.5 -134.5q-143 0 -282.5 30t-207.5 72l137 336q63 -28 161.5 -41.5t162.5 -13.5q98 0 134.5 29t41.5 100q-54 -24 -94 -31.5t-107 -7.5q-144 0 -242 26.5 t-165 89t-97 163.5t-30 251zM471 541q0 -43 1.5 -68t9 -47t17 -31.5t31.5 -17t47 -9t68 -1.5h84q20 0 35 6t24.5 13t16 23.5t10 27t5 35t1.5 35.5v40v39t-1.5 34t-5 32.5t-10 24.5t-16 21.5t-24.5 11.5t-35 5h-84q-43 0 -68 -1.5t-47 -9t-31.5 -17t-17 -31.5t-9 -47 t-1.5 -68z" />
<glyph unicode="h" horiz-adv-x="1269" d="M102 0v1454l43 19q148 63 316 63h31v-473q94 41 161 41q284 0 409.5 -127t125.5 -424v-553h-389v545q0 49 -5 77.5t-22.5 52.5t-53 34t-93.5 10h-43q-27 0 -45.5 -11t-28 -24.5t-14 -42.5t-5 -46.5t-0.5 -55.5v-539h-387z" />
<glyph unicode="i" horiz-adv-x="593" d="M102 0v1004l43 18q148 63 316 63h31v-1085h-390zM102 1321q0 61 15 101t43.5 60t60.5 27t76 7t76 -7t60.5 -27t43.5 -60t15 -101t-15 -101t-43.5 -60t-60.5 -27t-76 -7t-76 7t-60.5 27t-43.5 60t-15 101z" />
<glyph unicode="j" horiz-adv-x="731" d="M-51 -395l137 336q47 -23 86 -23q42 0 56 20t14 93v973l43 18q148 63 315 63h31v-1054q0 -147 -24.5 -245.5t-78 -154.5t-125.5 -79t-178 -23q-78 0 -138.5 16t-137.5 60zM242 1321q0 61 14.5 101t43.5 60t60.5 27t75.5 7t76 -7t60.5 -27t43.5 -60t15 -101t-15 -101 t-43.5 -60t-60.5 -27t-76 -7t-75.5 7t-60.5 27t-43.5 60t-14.5 101z" />
<glyph unicode="k" horiz-adv-x="1251" d="M102 0v1454l43 19q148 63 316 63h31v-807h40l220 356h469l-377 -542l377 -543h-473l-216 358h-40v-358h-390z" />
<glyph unicode="l" horiz-adv-x="784" d="M102 481v973l43 19q148 63 316 63h31v-1055q0 -73 13.5 -92.5t55.5 -19.5q41 0 86 22l137 -336q-76 -44 -136.5 -59.5t-139.5 -15.5q-106 0 -178 22.5t-125.5 78.5t-78 154.5t-24.5 245.5z" />
<glyph unicode="m" horiz-adv-x="1888" d="M102 0v1085h195l141 -92q67 70 107.5 92.5t99.5 22.5q247 0 373 -129q31 62 95.5 95.5t191.5 33.5q253 0 377 -132.5t124 -430.5v-545h-389v545q0 43 -1.5 68t-9 47t-17 31.5t-31.5 17t-47 9t-68 1.5q-27 0 -45.5 -10t-28 -23t-14.5 -38.5t-6 -42.5t-2 -50v-10v-545h-389 v545q0 43 -1.5 68t-9 47t-17 31.5t-31.5 17t-47 9t-68 1.5q-28 0 -47 -11t-28 -24.5t-14 -42.5t-5.5 -46.5t-0.5 -55.5v-539h-387z" />
<glyph unicode="n" horiz-adv-x="1269" d="M102 0v1085h195l141 -92q69 72 114.5 93.5t133.5 21.5q253 0 377.5 -133t124.5 -430v-545h-389v545q0 43 -1.5 68t-9 47t-17 31.5t-31.5 17t-47 9t-68 1.5h-43q-27 0 -45.5 -11t-28 -24.5t-14 -42.5t-5 -46.5t-0.5 -55.5v-539h-387z" />
<glyph unicode="o" horiz-adv-x="1290" d="M82 541q0 295 138.5 429t424.5 134t424.5 -134t138.5 -429t-138.5 -429.5t-424.5 -134.5t-424.5 134.5t-138.5 429.5zM471 541q0 -46 9.5 -78.5t24 -51t38.5 -28.5t46.5 -13t55.5 -3t55.5 3t46.5 13t38.5 28.5t24 51t9.5 78.5t-9.5 78.5t-24 51t-38.5 28.5t-46.5 13 t-55.5 3t-55.5 -3t-46.5 -13t-38.5 -28.5t-24 -51t-9.5 -78.5z" />
<glyph unicode="p" horiz-adv-x="1310" d="M102 -451v1536h195l141 -92q65 66 122 88.5t153 22.5q265 0 390.5 -134.5t125.5 -437.5q0 -297 -125.5 -423.5t-409.5 -126.5q-65 0 -105 8t-97 33v-474h-390zM489 547q0 -32 0.5 -46.5t2.5 -40.5t8 -38.5t16 -27.5t26.5 -21t39.5 -6h84q58 0 93.5 10t53 34t22.5 52.5 t5 77.5t-5 77.5t-22.5 52.5t-53 34t-93.5 10h-84q-23 0 -39.5 -5t-26.5 -18.5t-16 -25t-8 -36t-2.5 -38.5t-0.5 -45z" />
<glyph unicode="q" horiz-adv-x="1310" d="M82 532q0 303 125.5 437.5t390.5 134.5q96 0 152.5 -22.5t121.5 -88.5l142 92h194v-1536h-389v474q-57 -25 -97.5 -33t-105.5 -8q-284 0 -409 126.5t-125 423.5zM471 541q0 -49 5 -77.5t22.5 -52.5t53 -34t93.5 -10h84q20 0 35 6t24.5 13t16 23.5t10 27t5 35t1.5 35.5v40 v39t-1.5 34t-5 32.5t-10 24.5t-16 21.5t-24.5 11.5t-35 5h-84q-58 0 -93.5 -10t-53 -34t-22.5 -52.5t-5 -77.5z" />
<glyph unicode="r" horiz-adv-x="798" d="M102 0v1085h195l141 -92q38 45 103.5 78t142.5 33q35 0 94 -19l-61 -370h-133q-20 0 -35 -5t-24.5 -11.5t-16 -21.5t-10 -24.5t-5 -32.5t-1.5 -34v-39v-547h-390z" />
<glyph unicode="s" horiz-adv-x="1064" d="M61 68l129 313q1 0 74 -18t139 -28.5t129 -10.5q66 0 66 20q0 10 -7 20.5t-13 12.5q-40 10 -113 26q-64 14 -94 21t-77.5 22t-69.5 29.5t-51.5 39t-41.5 55t-21.5 73.5t-9.5 98q0 104 28.5 175.5t85.5 112.5t134 59t184 18q140 0 274 -25t185 -55l-108 -313 q-61 27 -193 43q-81 10 -129 10q-30 0 -47 -4q-10 -2 -17 -7t-8.5 -9t-1.5 -7q0 -7 8 -14.5t15 -9.5q31 -7 84.5 -18.5t80.5 -18t70.5 -18t66 -21t55 -25.5t49 -32.5t36.5 -41t29.5 -53t16 -66t6.5 -81.5q0 -101 -30 -172t-89.5 -111.5t-137 -58.5t-182.5 -18 q-149 0 -299.5 29.5t-204.5 58.5z" />
<glyph unicode="t" horiz-adv-x="915" d="M20 737v348h132v172l43 19q148 63 315 63h31v-254h290v-348h-290v-192q0 -108 12.5 -137t64.5 -29q33 0 59 8.5t81 34.5l137 -336q-172 -96 -348 -96q-134 0 -219 52t-130.5 177.5t-45.5 333.5v184h-132z" />
<glyph unicode="u" horiz-adv-x="1290" d="M102 541v544h390v-544q0 -43 1.5 -68t9 -47t17 -31.5t31.5 -17t47 -9t68 -1.5h43q20 0 35 6t24.5 13t16 23.5t10 27t5 35t1.5 35.5v40v538h387v-1085h-195l-141 92q-63 -67 -111 -91t-120 -24q-268 0 -393.5 133t-125.5 431z" />
<glyph unicode="v" horiz-adv-x="1150" d="M20 1059v26h365l100 -315q49 -151 72 -317l18 -146l19 146q23 166 72 317l100 315h364v-26q0 -166 -67 -314l-297 -745h-381l-297 745q-68 150 -68 314z" />
<glyph unicode="w" horiz-adv-x="1619" d="M20 1057v28h369l25 -122q28 -128 51 -304l16 -206l21 209q28 143 71 296l39 127h392l40 -129q47 -156 74 -297l23 -206l16 204q13 111 49 304l25 124h368v-28q0 -162 -34 -303l-238 -754h-381l-45 137q-46 151 -74 297l-18 189l-18 -189q-24 -140 -72 -297l-43 -137h-383 l-236 754q-37 154 -37 303z" />
<glyph unicode="x" horiz-adv-x="1110" d="M20 0v59q0 156 93 277l180 244l-131 172q-49 64 -70.5 129t-21.5 147v57h327l11 -18q49 -93 100 -225l47 -137l47 137q41 112 100 225l11 18h325v-57q0 -82 -21.5 -147t-70.5 -129l-129 -172l180 -244q93 -127 93 -277v-59h-324l-68 84q-96 119 -129 270l-14 64l-14 -66 q-36 -150 -131 -270l-68 -82h-322z" />
<glyph unicode="y" horiz-adv-x="1142" d="M20 1059v26h322l133 -284q88 -190 94 -391h4q6 199 95 391l133 284h321v-26q0 -200 -86 -391l-342 -740q-23 -49 -35.5 -75t-33.5 -66t-35 -61t-36 -50.5t-41.5 -44.5t-46 -33.5t-54.5 -26.5t-63 -14t-75 -6q-123 0 -223 56l107 291q25 -11 67 -17q33 -3 48 8.5t36 65.5 l62 158l-262 555q-89 191 -89 391z" />
<glyph unicode="z" horiz-adv-x="1099" d="M82 0v174q0 63 55 129l361 434h-416v348h936v-174q0 -63 -55 -129l-361 -434h416v-348h-936z" />
<glyph unicode="{" horiz-adv-x="784" d="M-41 446v334h143v254q0 147 24.5 245.5t78 154.5t125.5 79t178 23q78 0 138.5 -16t137.5 -60l-137 -336q-47 23 -86 23q-42 0 -55.5 -20t-13.5 -93v-962q0 -73 13.5 -93t55.5 -20q39 0 86 23l137 -336q-77 -44 -137.5 -60t-138.5 -16q-106 0 -178 23t-125.5 79t-78 154.5 t-24.5 245.5v374h-143z" />
<glyph unicode="|" horiz-adv-x="593" d="M102 -215v1884h390v-1884h-390z" />
<glyph unicode="}" horiz-adv-x="784" d="M-41 -354l137 336q47 -23 86 -23q42 0 56 20t14 93v962q0 73 -14 93t-56 20q-39 0 -86 -23l-137 336q77 44 138 60t139 16q106 0 178 -23t125 -79t77.5 -154.5t24.5 -245.5v-254h143v-334h-143v-374q0 -147 -24.5 -245.5t-77.5 -154.5t-125 -79t-178 -23q-78 0 -139 16 t-138 60z" />
<glyph unicode="~" horiz-adv-x="1247" d="M61 489l99 140q43 61 116 97t166 36q42 0 91.5 -13t76 -24t80.5 -35q92 -43 113 -43q23 0 49 33l96 119l238 -254l-99 -139q-43 -61 -116 -97.5t-166 -36.5q-41 0 -91 13.5t-74 23t-83 35.5q-88 43 -113 43q-23 0 -49 -33l-96 -118z" />
<glyph unicode="&#xa2;" horiz-adv-x="1130" d="M82 547q0 240 90.5 372.5t286.5 170.5v221h368v-217q48 -8 92.5 -24t68 -28t61.5 -34l-138 -336q-74 33 -124 44t-113 11q-68 0 -108.5 -9.5t-61.5 -34.5t-27 -54.5t-6 -81.5t6 -81.5t27 -54.5t61.5 -34.5t108.5 -9.5q63 0 113 11t124 44l138 -336q-110 -69 -222 -88 v-203h-368v205q-197 39 -287 172t-90 375z" />
<glyph unicode="&#xa8;" horiz-adv-x="1001" d="M102 1350q0 60 13.5 98.5t41.5 57t58 24.5t74 6t73.5 -6t57.5 -24.5t41.5 -57t13.5 -98.5t-13.5 -99t-41.5 -57.5t-57.5 -24.5t-73.5 -6q-35 0 -60 3.5t-50.5 14.5t-41 31t-25.5 55t-10 83zM526 1350q0 60 13.5 98.5t41.5 57t58 24.5t74 6t73.5 -6t57.5 -24.5t41.5 -57 t13.5 -98.5t-13.5 -99t-41.5 -57.5t-57.5 -24.5t-73.5 -6q-35 0 -60 3.5t-50.5 14.5t-41 31t-25.5 55t-10 83z" />
<glyph unicode="&#xa9;" horiz-adv-x="1712" d="M102 729q0 153 60 292.5t161 240.5t240.5 161t292.5 60t292.5 -60t240.5 -161t161 -240.5t60 -292.5t-60 -292.5t-161 -240.5t-240.5 -161t-292.5 -60t-292.5 60t-240.5 161t-161 240.5t-60 292.5zM287 729q0 -155 76 -286t207 -207t286 -76t286 76t207 207t76 286 t-76 286t-207 207t-286 76t-286 -76t-207 -207t-76 -286zM532 723q0 194 89.5 284.5t265.5 90.5q130 0 235 -68l-78 -192q-36 17 -84 26.5t-79 9.5q-34 -1 -53.5 -5.5t-37.5 -19t-26 -45.5t-8 -81t8 -81.5t26 -46.5t38 -19.5t53 -4.5q30 0 78 9.5t85 25.5l78 -190 q-34 -24 -97.5 -46t-137.5 -22q-176 0 -265.5 90t-89.5 285z" />
<glyph unicode="&#xab;" horiz-adv-x="1257" d="M61 571l226 385l336 -194l-115 -197l102 -192l-344 -183zM614 571l226 385l336 -194l-115 -197l102 -192l-344 -183z" />
<glyph unicode="&#xad;" horiz-adv-x="735" d="M102 559v334h531v-334h-531z" />
<glyph unicode="&#xae;" horiz-adv-x="1712" d="M102 729q0 153 60 292.5t161 240.5t240.5 161t292.5 60t292.5 -60t240.5 -161t161 -240.5t60 -292.5t-60 -292.5t-161 -240.5t-240.5 -161t-292.5 -60t-292.5 60t-240.5 161t-161 240.5t-60 292.5zM287 729q0 -155 76 -286t207 -207t286 -76t286 76t207 207t76 286 t-76 286t-207 207t-286 76t-286 -76t-207 -207t-76 -286zM553 358v727h350q33 0 52.5 -1t48.5 -6t46.5 -14.5t38 -27.5t32 -44.5t19 -66.5t7.5 -91q0 -150 -90 -209l104 -267h-239l-86 230h-58v-230h-225zM778 782h92q18 0 27.5 2.5t17 14.5t7.5 35q0 33 -12.5 42t-39.5 9 h-92v-103z" />
<glyph unicode="&#xb4;" horiz-adv-x="731" d="M102 1298l402 254l125 -264l-465 -121z" />
<glyph unicode="&#xb8;" horiz-adv-x="589" d="M102 -453l54 134q54 -21 96 -21q56 0 68 7t12 44q0 36 -12.5 43.5t-67.5 7.5h-14h-14h-22.5t-19.5 1t-17.5 4t-13.5 7.5t-10.5 12t-5.5 18.5t-2.5 26t2.5 34l29 219l18 8q67 25 125 25h12l-28 -203q106 -8 151 -53t45 -150q0 -115 -51.5 -160t-175.5 -45q-94 0 -158 41z " />
<glyph unicode="&#xbb;" horiz-adv-x="1257" d="M82 762l336 194l225 -385l-205 -381l-344 183l103 192zM635 762l336 194l225 -385l-205 -381l-344 183l103 192z" />
<glyph unicode="&#x2c6;" horiz-adv-x="1052" d="M143 1432l383 120l383 -120l-125 -265l-258 154l-258 -154z" />
<glyph unicode="&#x2da;" horiz-adv-x="593" d="M141 1321q0 93 40.5 124.5t115.5 31.5t115.5 -31.5t40.5 -124.5t-40.5 -124.5t-115.5 -31.5t-115.5 31.5t-40.5 124.5zM203 1321q0 -56 24.5 -75t69.5 -19t69.5 19t24.5 75t-24.5 75t-69.5 19t-69.5 -19t-24.5 -75z" />
<glyph unicode="&#x2dc;" horiz-adv-x="798" d="M61 1350l60 82q27 36 71 57.5t95 21.5q61 0 153 -43q58 -26 68 -26q13 0 29 20l59 72l141 -176l-57 -82q-26 -37 -71 -58.5t-95 -21.5q-69 0 -154 43q-56 27 -67 27q-12 0 -29 -21l-59 -71z" />
<glyph unicode="&#x400;" horiz-adv-x="1206" d="M123 0v1454h981v-420h-531v-102h490v-410h-490v-102h531v-420h-981zM340 1657l125 264l401 -254l-61 -131z" />
<glyph unicode="&#x401;" horiz-adv-x="1206" d="M123 0v1454h981v-420h-531v-102h490v-410h-490v-102h531v-420h-981zM205 1718q0 60 13.5 99t41.5 57.5t57.5 24.5t73.5 6q35 0 60 -3.5t50.5 -14.5t41 -31t25.5 -55t10 -83q0 -60 -13.5 -98.5t-41.5 -57t-58 -24.5t-74 -6t-73.5 6t-57.5 24.5t-41.5 57t-13.5 98.5z M629 1718q0 60 13.5 99t41.5 57.5t57.5 24.5t73.5 6t73.5 -6t57.5 -24.5t41.5 -57.5t13.5 -99t-13.5 -98.5t-41.5 -57t-57.5 -24.5t-73.5 -6t-73.5 6t-57.5 24.5t-41.5 57t-13.5 98.5z" />
<glyph unicode="&#x402;" horiz-adv-x="1603" d="M20 1028v426h1082v-426h-316v-94h187q77 0 136.5 -5t121 -19.5t106.5 -39t85 -64.5t65.5 -94.5t40 -131t14.5 -172.5q0 -104 -18.5 -199t-40.5 -163.5t-69 -140t-75.5 -110.5t-90 -94.5t-82 -72t-80.5 -60.5q-23 -17 -33 -25l-287 301q185 223 262 351q59 99 59 190 q0 79 -26 111t-107 32h-168v-528h-448v1028h-318z" />
<glyph unicode="&#x403;" horiz-adv-x="1103" d="M102 0v1454h981v-420h-530v-1034h-451zM408 1667l401 254l125 -264l-465 -121z" />
<glyph unicode="&#x404;" horiz-adv-x="1386" d="M102 729q0 389 178.5 569.5t530.5 180.5q151 0 277 -44.5t196 -91.5l-156 -382q-74 33 -171 52t-158 19q-88 -2 -139 -21.5t-78 -78.5h342v-410h-340q27 -58 78 -77t137 -19q61 0 158 19.5t171 52.5l156 -383q-72 -48 -199.5 -91.5t-273.5 -43.5q-353 0 -531 180 t-178 569z" />
<glyph unicode="&#x405;" horiz-adv-x="1277" d="M74 96l155 383q71 -31 205.5 -51t206.5 -20q49 0 64.5 12.5t15.5 34.5q0 49 -51 65q-21 7 -61.5 12.5t-81.5 8.5t-91 14t-94 27t-86.5 49.5t-73 79.5t-49 118.5t-18.5 165.5q0 112 27.5 197.5t88.5 151.5t167 100.5t255 34.5q158 0 310 -35t215 -76l-136 -383 q-77 35 -208.5 54.5t-204.5 7.5q-58 -10 -58 -50q0 -39 52 -53q20 -5 63 -10t84.5 -9t93.5 -16t97.5 -29.5t90 -52.5t76 -82t51 -120t19.5 -164q0 -486 -547 -486q-173 0 -344 40.5t-233 80.5z" />
<glyph unicode="&#x406;" horiz-adv-x="694" d="M123 0v1454h450v-1454h-450z" />
<glyph unicode="&#x407;" horiz-adv-x="655" d="M-70 1718q0 48 10 83t25.5 55t41 31t50.5 14.5t60 3.5q44 0 73.5 -6t57.5 -24.5t41.5 -57.5t13.5 -99t-13.5 -98.5t-41.5 -57t-57.5 -24.5t-73.5 -6t-74 6t-58 24.5t-41.5 57t-13.5 98.5zM102 0v1454h451v-1454h-451zM354 1718q0 48 10 83t25.5 55t41 31t50.5 14.5 t60 3.5q44 0 73.5 -6t57.5 -24.5t41.5 -57.5t13.5 -99t-13.5 -98.5t-41.5 -57t-57.5 -24.5t-73.5 -6t-74 6t-58 24.5t-41.5 57t-13.5 98.5z" />
<glyph unicode="&#x408;" horiz-adv-x="1030" d="M63 80l142 385q74 -33 124 -44t113 -11q18 0 26.5 9.5t8.5 20.5v1014h451v-1005q0 -108 -27 -192t-70.5 -135.5t-103.5 -85t-120.5 -46.5t-127.5 -13q-251 0 -416 103z" />
<glyph unicode="&#x409;" horiz-adv-x="2174" d="M10 53l137 336q45 -22 86 -22t53.5 18.5t16.5 93.5l62 893l43 19q148 63 315 63h674v-440h209q48 0 81 -1.5t77.5 -6.5t75.5 -15t68 -28.5t62 -44.5t50 -64.5t40 -88t24 -116.5t9 -147q0 -102 -15 -181.5t-37.5 -132t-63 -89t-76 -56t-93 -29.5t-97.5 -12t-105 -2h-660 v1024h-151l-41 -545q-11 -145 -47 -244.5t-97.5 -155t-139 -79t-183.5 -23.5q-78 0 -139 16t-138 60zM1397 399h143q26 0 41 2.5t31 12t23 31.5t7 57t-7 57t-23.5 31t-31 11.5t-40.5 2.5h-143v-205z" />
<glyph unicode="&#x40a;" horiz-adv-x="2166" d="M102 0v1454h451v-512h385v512h451v-440h208q48 0 81 -1.5t77.5 -6.5t76 -15t68.5 -28.5t62 -44.5t50 -64.5t40 -88t24 -116.5t9 -147t-9.5 -146t-23.5 -114.5t-39.5 -86.5t-50 -63.5t-62 -43t-68 -27t-76.5 -14.5t-77.5 -6t-81.5 -1h-659v512h-385v-512h-451zM1389 399 h143q26 0 41 2.5t31 12t23 31.5t7 57t-7 57t-23.5 31t-31 11.5t-40.5 2.5h-143v-205z" />
<glyph unicode="&#x40b;" horiz-adv-x="1501" d="M20 1028v426h1043v-426h-318v-94h105q152 0 255.5 -25.5t175.5 -85.5t105 -160t33 -249v-414h-448v399q0 32 -7.5 53.5t-16.5 32.5t-31.5 16.5t-36.5 6t-48 0.5h-86v-508h-448v1028h-277z" />
<glyph unicode="&#x40c;" horiz-adv-x="1402" d="M102 0v1454h451v-512h109l241 512h479l-344 -729l344 -725h-479l-241 512h-109v-512h-451zM492 1667l401 254l125 -264l-465 -121z" />
<glyph unicode="&#x40d;" horiz-adv-x="1478" d="M102 0v1454h451v-246q0 -156 -21 -325l-20 -181l514 752h350v-1454h-450v246q0 164 20 325l21 174l-514 -745h-351zM475 1657l125 264l401 -254l-61 -131z" />
<glyph unicode="&#x40e;" horiz-adv-x="1245" d="M20 1386v68h357l119 -194q107 -175 133 -377l20 -162l17 162q17 202 102 391l80 180h377v-53q0 -99 -21 -187t-65 -204l-211 -561q-52 -140 -107.5 -233t-120 -145.5t-132 -73t-156.5 -20.5q-112 0 -215.5 28.5t-173.5 74.5l141 385q115 -52 237 -55q24 0 33 2.5 t9.5 14.5t-13.5 38l-303 543q-107 175 -107 378zM252 1645l100 245q6 -3 32.5 -15t40 -17.5t41.5 -16t49.5 -15.5t50.5 -9.5t57 -4.5q33 0 64.5 4.5t66 16t49.5 17t52 23t38 17.5l100 -245q-1 -1 -18 -10.5t-25 -14t-28.5 -15.5t-36.5 -17t-40 -15.5t-47.5 -14.5t-51.5 -11 t-59.5 -8.5t-63.5 -2.5t-63.5 2.5t-59.5 8.5t-51.5 11t-48 14.5t-40 15.5t-36.5 17t-28.5 15t-25.5 14z" />
<glyph unicode="&#x40f;" horiz-adv-x="1482" d="M102 0v1454h447v-1038h385v1038h446v-1454h-419v-340h-449v340h-410z" />
<glyph unicode="&#x410;" d="M20 0v88q0 206 72 397l357 969h413l350 -967q70 -193 70 -397v-90h-367l-61 205h-393l-60 -205h-381zM580 635h149q-25 116 -37 205l-37 241l-39 -241q-14 -102 -36 -205z" />
<glyph unicode="&#x411;" horiz-adv-x="1331" d="M102 0v1454h1063v-420h-612v-102h209q48 0 81 -1t77.5 -6.5t75.5 -14.5t68 -26t62 -41t50 -59.5t40 -81t24 -106.5t9 -135t-9.5 -134.5t-23.5 -105.5t-39.5 -80t-49.5 -58t-62 -39t-67.5 -24.5t-76 -13t-78 -5.5t-81.5 -1h-660zM553 399h143h9q26 0 38 1t27.5 6.5t22 19 t6.5 35.5q0 18 -5.5 30t-11.5 18t-21 9t-24 3.5t-30 0.5h-11h-143v-123z" />
<glyph unicode="&#x412;" horiz-adv-x="1372" d="M102 0v1454h660h26q26 -1 56.5 0.5t64 -3.5t67.5 -10t67.5 -19.5t64 -33.5t56.5 -50.5t45 -70t29.5 -93.5t10.5 -121q0 -201 -149 -322v-6q96 -33 143 -118t47 -206q0 -74 -13.5 -134t-37 -100t-55 -71.5t-67.5 -48t-74.5 -28.5t-76.5 -14t-73 -5t-64 0h-26h-701z M553 399h143h9q26 0 38 1t27.5 6.5t22 19t6.5 35.5q0 18 -5.5 30t-11.5 18t-21 9t-24 3.5t-30 0.5h-11h-143v-123zM553 930h143h11q20 0 30 0.5t24.5 3.5t21 9t11.5 18t5 30q0 51 -42 59q-14 3 -61 3h-143v-123z" />
<glyph unicode="&#x413;" horiz-adv-x="1103" d="M102 0v1454h981v-420h-530v-1034h-451z" />
<glyph unicode="&#x414;" horiz-adv-x="1533" d="M20 416h41q102 0 141.5 51.5t49.5 198.5l49 706l43 19q148 63 315 63h674v-1038h180l-81 -705h-367v289h-596v-289h-367zM655 414l228 2v608h-152l-26 -360q-12 -146 -50 -250z" />
<glyph unicode="&#x415;" horiz-adv-x="1206" d="M123 0v1454h981v-420h-531v-102h490v-410h-490v-102h531v-420h-981z" />
<glyph unicode="&#x416;" horiz-adv-x="2068" d="M20 0l345 725l-345 729h480l241 -512h68v512h451v-512h67l242 512h479l-344 -729l344 -725h-479l-242 512h-67v-512h-451v512h-68l-241 -512h-480z" />
<glyph unicode="&#x417;" horiz-adv-x="1288" d="M82 96l156 383q71 -31 205 -51t206 -20q49 0 64.5 12.5t15.5 34.5q0 18 -2 26.5t-10.5 19t-29.5 15t-56 4.5h-146v422l146 2q58 1 78 13.5t20 37.5q0 20 -11.5 33.5t-45.5 18.5q-73 12 -205 -7.5t-209 -54.5l-135 383q70 43 217.5 77t327.5 34q273 0 395.5 -101.5 t122.5 -347.5q0 -64 -9 -108.5t-34 -85t-75 -63.5t-126 -30v-8q65 -5 113 -24t76.5 -46.5t45.5 -68t23 -81.5t6 -93q0 -243 -127.5 -345t-400.5 -102q-194 0 -360.5 39.5t-235.5 81.5z" />
<glyph unicode="&#x418;" horiz-adv-x="1478" d="M102 0v1454h451v-246q0 -156 -21 -325l-20 -181l514 752h350v-1454h-450v246q0 164 20 325l21 174l-514 -745h-351z" />
<glyph unicode="&#x419;" horiz-adv-x="1478" d="M102 0v1454h451v-246q0 -156 -21 -325l-20 -181l514 752h350v-1454h-450v246q0 164 20 325l21 174l-514 -745h-351zM369 1645l100 245q1 0 38 -17.5t52 -23t49.5 -17t66 -16t64.5 -4.5q28 0 57 4.5t50.5 9.5t49.5 15.5t41.5 16t40 17.5t32.5 15l100 -245l-18 -11 q-18 -10 -25.5 -14t-28.5 -15t-36.5 -17t-40 -15.5t-48 -14.5t-51.5 -11t-59.5 -8.5t-63.5 -2.5t-63.5 2.5t-59.5 8.5t-51.5 11t-47.5 14.5t-40 15.5t-36.5 17t-28.5 15.5t-25 14t-18 10.5z" />
<glyph unicode="&#x41a;" horiz-adv-x="1402" d="M102 0v1454h451v-512h109l241 512h479l-344 -729l344 -725h-479l-241 512h-109v-512h-451z" />
<glyph unicode="&#x41b;" horiz-adv-x="1499" d="M10 53l137 336q45 -22 86 -22t53.5 18.5t16.5 93.5l62 893l43 19q148 63 315 63h674v-1454h-451v1024h-151l-41 -545q-11 -145 -47 -244.5t-97.5 -155t-139 -79t-183.5 -23.5q-78 0 -139 16t-138 60z" />
<glyph unicode="&#x41c;" horiz-adv-x="1961" d="M102 0v1454h476l264 -532q93 -191 121 -387l18 -119l18 119q28 196 121 387l264 532h476v-1454h-451v225q0 197 37 406l24 127h-8l-317 -758h-328l-317 758h-8l24 -127q37 -209 37 -406v-225h-451z" />
<glyph unicode="&#x41d;" horiz-adv-x="1490" d="M102 0v1454h451v-512h385v512h451v-1454h-451v512h-385v-512h-451z" />
<glyph unicode="&#x41e;" horiz-adv-x="1579" d="M82 729q0 389 179 569.5t530 180.5t528.5 -180.5t177.5 -569.5t-177.5 -569t-528.5 -180t-530 180t-179 569zM530 729q0 -67 7 -116.5t23.5 -82.5t36.5 -53.5t52 -31t63.5 -14t78.5 -3.5q46 0 77.5 3.5t63.5 14t52 31t36 53.5t23.5 82.5t7.5 116.5q0 68 -7 117.5 t-24 82.5t-36.5 53.5t-52 30.5t-63.5 13.5t-77 3.5q-47 0 -78 -3.5t-63.5 -13.5t-52.5 -30.5t-36.5 -53.5t-23.5 -82.5t-7 -117.5z" />
<glyph unicode="&#x41f;" horiz-adv-x="1449" d="M102 0v1454h1246v-1454h-451v1024h-344v-1024h-451z" />
<glyph unicode="&#x420;" horiz-adv-x="1331" d="M102 0v1454h660q65 0 105 -2t97.5 -12t93 -29.5t76 -56t63 -89t37.5 -132t15 -181.5q0 -80 -9 -147t-24 -116.5t-40 -88t-50 -64.5t-62 -44.5t-68 -28.5t-75.5 -15t-77.5 -6.5t-81 -1.5h-209v-440h-451zM553 850h143q26 0 41 2.5t31 11.5t23.5 31t7.5 57t-7.5 57 t-23.5 31.5t-31 12t-41 2.5h-143v-205z" />
<glyph unicode="&#x421;" horiz-adv-x="1345" d="M82 729q0 389 178.5 569.5t530.5 180.5q151 0 277 -44.5t196 -91.5l-156 -382q-73 33 -170.5 52t-159.5 19q-44 -1 -73 -4.5t-60 -14t-50 -31t-35 -53.5t-23 -82.5t-7 -117.5q0 -67 7 -116.5t23 -82.5t35 -53.5t49.5 -31.5t60.5 -14.5t73 -4.5q61 0 158.5 19.5 t171.5 52.5l156 -383q-72 -48 -199.5 -91.5t-273.5 -43.5q-353 0 -531 180t-178 569z" />
<glyph unicode="&#x422;" horiz-adv-x="1306" d="M61 1024v430h1102v-430h-325v-1024h-451v1024h-326z" />
<glyph unicode="&#x423;" horiz-adv-x="1245" d="M20 1386v68h357l119 -194q107 -175 133 -377l20 -162l17 162q17 202 102 391l80 180h377v-53q0 -99 -21 -187t-65 -204l-211 -561q-52 -140 -107.5 -233t-120 -145.5t-132 -73t-156.5 -20.5q-112 0 -215.5 28.5t-173.5 74.5l141 385q115 -52 237 -55q24 0 33 2.5 t9.5 14.5t-13.5 38l-303 543q-107 175 -107 378z" />
<glyph unicode="&#x424;" horiz-adv-x="1843" d="M82 748q0 80 9 146t23.5 114.5t40 86.5t49.5 63t62 43t68 27t76 14t77.5 6t81.5 1h127v205h451v-205h127q50 0 81.5 -1t77.5 -6t76 -14t68 -27t62 -43t49.5 -63t40 -86.5t23.5 -114.5t9 -146t-9 -147t-24 -116.5t-40 -88t-50 -64.5t-62 -44.5t-68 -28.5t-75.5 -15 t-77.5 -6.5t-81 -1.5h-127v-236h-451v236h-127q-48 0 -81 1.5t-77.5 6.5t-75.5 15t-68 28.5t-62 44.5t-50 64.5t-40 88t-24 116.5t-9 147zM532 748q0 -35 7.5 -57t23.5 -31.5t31 -12t41 -2.5h61v205h-61q-26 0 -41 -2.5t-31 -11.5t-23.5 -31t-7.5 -57zM1147 645h61 q26 0 41 2.5t31 12t23.5 31.5t7.5 57t-7.5 57t-23.5 31t-31 11.5t-41 2.5h-61v-205z" />
<glyph unicode="&#x425;" horiz-adv-x="1216" d="M20 0v68q0 203 107 378l172 281l-172 281q-107 175 -107 378v68h398l117 -274q39 -88 57 -195l16 -100l17 100q18 107 57 195l117 274h397v-68q0 -205 -106 -378l-172 -281l172 -281q106 -173 106 -378v-68h-397l-117 274q-39 88 -57 195l-17 100l-16 -100 q-18 -107 -57 -195l-117 -274h-398z" />
<glyph unicode="&#x426;" horiz-adv-x="1570" d="M102 0v1454h451v-1038h377v1038h450v-1038h181l-82 -705h-367v289h-1010z" />
<glyph unicode="&#x427;" horiz-adv-x="1392" d="M61 952v502h451v-502q0 -34 7 -56t22 -31.5t29 -12t36 -2.5q54 0 127.5 8.5t106.5 18.5v577h450v-1454h-450v481q-98 -41 -308 -41q-44 0 -76 1.5t-74 7.5t-72.5 16t-66 29t-60.5 45t-49.5 65t-39.5 88t-24 115t-9 145z" />
<glyph unicode="&#x428;" horiz-adv-x="2064" d="M102 0v1454h447v-1038h258v1038h448v-1038h258v1038h449v-1454h-1860z" />
<glyph unicode="&#x429;" horiz-adv-x="2152" d="M102 0v1454h449v-1038h258v1038h446v-1038h258v1038h449v-1038h180l-82 -707h-366v291h-1592z" />
<glyph unicode="&#x42a;" horiz-adv-x="1525" d="M10 1034v420h738v-440h208q48 0 81 -1.5t77.5 -6.5t76 -15t68.5 -28.5t62 -44.5t50 -64.5t40 -88t24 -116.5t9 -147t-9.5 -146t-23.5 -114.5t-39.5 -86.5t-50 -63.5t-62 -43t-68 -27t-76.5 -14.5t-77.5 -6t-81.5 -1h-659v1034h-287zM748 399h143q26 0 41 2.5t31 12 t23 31.5t7 57t-7 57t-23.5 31t-31 11.5t-40.5 2.5h-143v-205z" />
<glyph unicode="&#x42b;" horiz-adv-x="1923" d="M102 0v1454h451v-440h209q48 0 81 -1.5t77.5 -6.5t75.5 -15t68 -28.5t62 -44.5t50 -64.5t40 -88t24 -116.5t9 -147q0 -102 -15 -181.5t-37.5 -132t-63 -89t-76 -56t-93 -29.5t-97.5 -12t-105 -2h-660zM553 399h143q26 0 41 2.5t31 12t23.5 31.5t7.5 57t-7.5 57t-23.5 31 t-31 11.5t-41 2.5h-143v-205zM1370 0v1454h451v-1454h-451z" />
<glyph unicode="&#x42c;" horiz-adv-x="1331" d="M102 0v1454h451v-440h209q48 0 81 -1.5t77.5 -6.5t75.5 -15t68 -28.5t62 -44.5t50 -64.5t40 -88t24 -116.5t9 -147q0 -102 -15 -181.5t-37.5 -132t-63 -89t-76 -56t-93 -29.5t-97.5 -12t-105 -2h-660zM553 399h143q26 0 41 2.5t31 12t23.5 31.5t7.5 57t-7.5 57t-23.5 31 t-31 11.5t-41 2.5h-143v-205z" />
<glyph unicode="&#x42d;" horiz-adv-x="1386" d="M102 115l156 383q74 -33 171.5 -52.5t158.5 -19.5q86 0 137 19t78 77h-340v410h342q-27 59 -78 78.5t-139 21.5q-62 0 -159.5 -19t-170.5 -52l-156 382q70 47 196 91.5t277 44.5q352 0 530.5 -180.5t178.5 -569.5t-178 -569t-531 -180q-146 0 -273.5 43.5t-199.5 91.5z " />
<glyph unicode="&#x42e;" horiz-adv-x="2160" d="M102 0v1454h451v-512h125q46 277 220 407t474 130q351 0 529 -180.5t178 -569.5t-178 -569t-529 -180q-299 0 -472.5 128.5t-219.5 403.5h-127v-512h-451zM1112 729q0 -80 11.5 -135.5t31 -88t54.5 -50t71 -22.5t92 -5q46 0 77.5 3.5t63.5 14t52 31t36 53.5t23.5 82.5 t7.5 116.5q0 68 -7 117.5t-24 82.5t-36.5 53.5t-52 30.5t-63.5 13.5t-77 3.5q-47 0 -78 -3.5t-63.5 -13.5t-52 -30.5t-36 -53.5t-23.5 -82.5t-7 -117.5z" />
<glyph unicode="&#x42f;" horiz-adv-x="1423" d="M102 0l207 535q-176 118 -176 417q0 80 9.5 146t23.5 114.5t39.5 86.5t50 63.5t62 43t68 27t76.5 14.5t77.5 6t81.5 1h700v-1454h-451v461h-116l-172 -461h-480zM584 952q0 -35 7 -57t23.5 -31t31 -11.5t40.5 -2.5h184v205h-184q-26 0 -41 -2.5t-31 -12t-23 -31.5t-7 -57 z" />
<glyph unicode="&#x430;" horiz-adv-x="1234" d="M104 289q-10 186 74 259t299 73h250q-2 27 -11.5 45.5t-22.5 28t-35 14.5t-41 6t-48 0q-101 -2 -154.5 -9t-148.5 -34l-114 352q60 23 102 36t133 28.5t188 15.5q282 0 420 -134.5t138 -428.5v-541h-195l-141 92q-42 -60 -101 -87.5t-104 -27.5q-271 0 -374.5 64.5 t-113.5 247.5zM502 319q0 -28 10 -41.5t45 -13.5h45q31 0 50.5 3t40 13t28.5 34t4 61h-168q-35 0 -45 -14t-10 -42z" />
<glyph unicode="&#x431;" horiz-adv-x="1290" d="M82 610q0 134 9.5 244t24 191.5t40.5 145t51 105.5t64.5 72.5t71.5 46.5t81.5 26t85.5 13.5t91 6.5q13 1 20 1q128 8 202.5 17t96.5 15t81 24l138 -336q-68 -42 -207.5 -72.5t-282.5 -30.5q-98 0 -134.5 -29t-41.5 -100q54 24 94.5 31.5t104.5 7.5q284 0 410 -110.5 t126 -370.5q0 -277 -140 -404t-443 -127q-103 0 -182.5 14.5t-136.5 39.5t-97.5 68t-65 91t-38.5 118t-18.5 138.5t-4.5 163.5zM471 500q0 -42 13 -69.5t39 -41t53.5 -18t68.5 -4.5t68.5 4.5t53.5 18t39 41t13 69.5t-13 69.5t-39 41t-53.5 18t-68.5 4.5t-68.5 -4.5 t-53.5 -18t-39 -41t-13 -69.5z" />
<glyph unicode="&#x432;" horiz-adv-x="1126" d="M102 0v1085h557q43 0 73 -1.5t68.5 -8t64.5 -17.5t52.5 -31.5t42 -49.5t24.5 -72t7 -98q-3 -72 -27.5 -108.5t-89.5 -59.5q51 -19 86.5 -43t56 -46.5t31.5 -53t14 -55.5t3 -60q0 -73 -12 -131t-31.5 -97.5t-51.5 -68t-64 -44.5t-77 -25.5t-83.5 -12t-90.5 -2.5h-553z M492 709h96q18 0 28 2t18.5 14.5t8.5 36.5q0 35 -14.5 46t-40.5 11h-96v-110zM496 295h116h8q18 0 27 1t20.5 7.5t16 23t4.5 44.5t-4.5 45t-16 24t-20.5 8t-27 1h-8h-116v-154z" />
<glyph unicode="&#x433;" horiz-adv-x="880" d="M102 0v1085h758v-348h-368v-737h-390z" />
<glyph unicode="&#x434;" horiz-adv-x="1263" d="M20 311h31q77 0 107 39.5t37 149.5l36 524l33 14q107 47 236 47h608v-774h135l-61 -528h-326v217h-448v-217h-326zM549 311h170v457h-115l-18 -270q-8 -106 -37 -187z" />
<glyph unicode="&#x435;" horiz-adv-x="1208" d="M82 541q0 292 132.5 427.5t389.5 135.5t389.5 -135.5t132.5 -427.5q-90 -50 -177 -65t-212 -15h-250q2 -27 11.5 -45.5t22.5 -28t35 -14.5t41 -6t48 0q103 2 176.5 11.5t167.5 35.5l115 -353q-222 -84 -465 -84q-282 0 -419.5 134.5t-137.5 429.5zM489 625h230 q2 33 -5.5 55.5t-16.5 33t-29.5 16t-28 5.5h-27.5q-31 0 -50.5 -3t-40 -13t-28.5 -33.5t-4 -60.5z" />
<glyph unicode="&#x436;" horiz-adv-x="1888" d="M20 0l377 543l-377 542h469l220 -356h41v356h389v-356h41l219 356h469l-377 -542l377 -543h-473l-215 358h-41v-358h-389v358h-41l-215 -358h-474z" />
<glyph unicode="&#x437;" horiz-adv-x="1064" d="M61 68l146 340q3 -1 74.5 -19t138 -28.5t129.5 -10.5q65 0 65 21q0 28 -16 40.5t-72 12.5h-159l2 246h159q88 0 88 41q0 20 -26 26q-47 10 -177.5 -5.5t-191.5 -43.5l-127 338q50 30 184.5 55t268.5 25q102 0 179.5 -17.5t137 -55.5t90.5 -103.5t31 -157.5 q0 -94 -43 -144t-164 -77q126 -34 176 -91t50 -155q0 -88 -33.5 -152.5t-95.5 -101.5t-140.5 -54t-177.5 -17q-141 0 -292 29.5t-204 58.5z" />
<glyph unicode="&#x438;" horiz-adv-x="1261" d="M102 0v1085h390v-161q0 -101 -17 -244l-14 -135l385 540h313v-1085h-389v162q0 132 16 244l15 131l-385 -537h-314z" />
<glyph unicode="&#x439;" horiz-adv-x="1261" d="M102 0v1085h390v-161q0 -101 -17 -244l-14 -135l385 540h313v-1085h-389v162q0 132 16 244l15 131l-385 -537h-314zM260 1276l100 246q6 -3 32.5 -15t40 -17.5t41.5 -16t49.5 -15.5t50.5 -9.5t57 -4.5q33 0 64.5 4.5t66 16t49.5 17t52 23t38 17.5l100 -246 q-1 -1 -18 -10.5t-25 -14t-28.5 -15.5t-36.5 -17t-40 -15.5t-47.5 -14.5t-51.5 -11t-59.5 -8.5t-63.5 -2.5t-63.5 2.5t-59.5 8.5t-51.5 11t-48 14.5t-40 15.5t-36.5 17t-28.5 15t-25.5 15z" />
<glyph unicode="&#x43a;" horiz-adv-x="1241" d="M102 0v1085h390v-356h40l220 356h469l-377 -542l377 -543h-473l-216 358h-40v-358h-390z" />
<glyph unicode="&#x43b;" horiz-adv-x="1228" d="M2 39l107 291q38 -17 67 -17q28 0 37 14t12 70l41 627l33 14q107 47 238 47h606v-1085h-389v764h-113l-31 -406q-8 -108 -39 -182.5t-83 -115.5t-114 -58.5t-143 -17.5q-131 0 -229 55z" />
<glyph unicode="&#x43c;" horiz-adv-x="1624" d="M102 0v1085h449l158 -313q65 -128 90 -289l14 -90l12 90q22 144 93 289l155 313h449v-1085h-389v168q0 157 28 305l19 94h-6l-238 -567h-246l-239 567h-7l19 -94q29 -154 29 -305v-168h-390z" />
<glyph unicode="&#x43d;" horiz-adv-x="1234" d="M102 0v1085h390v-354h251v354h390v-1085h-390v391h-251v-391h-390z" />
<glyph unicode="&#x43e;" horiz-adv-x="1290" d="M82 541q0 295 138.5 429t424.5 134t424.5 -134t138.5 -429t-138.5 -429.5t-424.5 -134.5t-424.5 134.5t-138.5 429.5zM471 541q0 -46 9.5 -78.5t24 -51t38.5 -28.5t46.5 -13t55.5 -3t55.5 3t46.5 13t38.5 28.5t24 51t9.5 78.5t-9.5 78.5t-24 51t-38.5 28.5t-46.5 13 t-55.5 3t-55.5 -3t-46.5 -13t-38.5 -28.5t-24 -51t-9.5 -78.5z" />
<glyph unicode="&#x43f;" horiz-adv-x="1193" d="M102 0v1085h990v-1085h-390v745h-210v-745h-390z" />
<glyph unicode="&#x440;" horiz-adv-x="1310" d="M102 -451v1536h195l141 -92q65 66 122 88.5t153 22.5q265 0 390.5 -134.5t125.5 -437.5q0 -297 -125.5 -423.5t-409.5 -126.5q-65 0 -105 8t-97 33v-474h-390zM489 547q0 -32 0.5 -46.5t2.5 -40.5t8 -38.5t16 -27.5t26.5 -21t39.5 -6h84q58 0 93.5 10t53 34t22.5 52.5 t5 77.5t-5 77.5t-22.5 52.5t-53 34t-93.5 10h-84q-23 0 -39.5 -5t-26.5 -18.5t-16 -25t-8 -36t-2.5 -38.5t-0.5 -45z" />
<glyph unicode="&#x441;" horiz-adv-x="1130" d="M82 547q0 293 135 427t438 134q103 0 184 -16.5t119 -34t91 -49.5l-138 -336q-74 33 -124 44t-113 11q-68 0 -108.5 -9.5t-61.5 -34.5t-27 -54.5t-6 -81.5t6 -81.5t27 -54.5t61.5 -34.5t108.5 -9.5q63 0 113 11t124 44l138 -336q-82 -51 -170.5 -76.5t-225.5 -25.5 q-302 0 -436.5 135t-134.5 428z" />
<glyph unicode="&#x442;" horiz-adv-x="1021" d="M20 737v348h981v-348h-296v-737h-390v737h-295z" />
<glyph unicode="&#x443;" horiz-adv-x="1142" d="M20 1059v26h322l133 -284q88 -190 94 -391h4q6 199 95 391l133 284h321v-26q0 -200 -86 -391l-342 -740q-23 -49 -35.5 -75t-33.5 -66t-35 -61t-36 -50.5t-41.5 -44.5t-46 -33.5t-54.5 -26.5t-63 -14t-75 -6q-123 0 -223 56l107 291q25 -11 67 -17q33 -3 48 8.5t36 65.5 l62 158l-262 555q-89 191 -89 391z" />
<glyph unicode="&#x444;" horiz-adv-x="1906" d="M82 553q0 297 110.5 424t362.5 127q65 0 105.5 -8t97.5 -33v391l43 19q148 63 315 63h33v-473q57 25 97.5 33t105.5 8q252 0 362.5 -127t110.5 -424q0 -300 -111.5 -433.5t-361.5 -133.5q-65 0 -105.5 8t-97.5 33v-482h-391v482q-57 -25 -97.5 -33t-105.5 -8 q-250 0 -361.5 133.5t-111.5 433.5zM471 545q0 -49 5 -77.5t22.5 -52.5t53 -34t93.5 -10h23q20 0 35 6t24.5 13t16 23.5t10 27t5 35t1.5 35.5v40v39t-1.5 34t-5 32.5t-10 24.5t-16 21.5t-24.5 11.5t-35 5h-23q-58 0 -93.5 -10t-53 -34t-22.5 -52.5t-5 -77.5zM1147 511 q0 -11 1.5 -35.5t5 -35t10 -27t16 -23.5t24.5 -13t35 -6h23q58 0 93.5 10t53 34t22.5 52.5t5 77.5t-5 77.5t-22.5 52.5t-53 34t-93.5 10h-23q-20 0 -35 -5t-24.5 -11.5t-16 -21.5t-10 -24.5t-5 -32.5t-1.5 -34v-39v-40z" />
<glyph unicode="&#x445;" horiz-adv-x="1110" d="M20 0v59q0 156 93 277l180 244l-131 172q-49 64 -70.5 129t-21.5 147v57h327l11 -18q49 -93 100 -225l47 -137l47 137q41 112 100 225l11 18h325v-57q0 -82 -21.5 -147t-70.5 -129l-129 -172l180 -244q93 -127 93 -277v-59h-324l-68 84q-96 119 -129 270l-14 64l-14 -66 q-36 -150 -131 -270l-68 -82h-322z" />
<glyph unicode="&#x446;" horiz-adv-x="1296" d="M102 0v1085h390v-745h210v745h390v-745h194l-61 -604h-328v264h-795z" />
<glyph unicode="&#x447;" horiz-adv-x="1249" d="M61 819v266h390v-258q0 -49 5 -77.5t22.5 -52.5t53 -34t93.5 -10h43q22 0 38 6t25.5 19.5t15.5 26t8 36.5t2.5 38.5t0.5 43.5v11v251h389v-1085h-389v309q-57 -25 -97.5 -33t-105.5 -8q-142 0 -235.5 29.5t-152 97t-82.5 169.5t-24 255z" />
<glyph unicode="&#x448;" horiz-adv-x="1712" d="M102 0v1085h390v-745h170v745h389v-745h170v745h389v-1085h-1508z" />
<glyph unicode="&#x449;" horiz-adv-x="1814" d="M102 0v1085h390v-745h170v745h389v-745h170v745h389v-745h194l-61 -604h-328v264h-1313z" />
<glyph unicode="&#x44a;" horiz-adv-x="1204" d="M10 743v342h600v-276h103q63 0 109 -5t96 -19t84.5 -42.5t63 -72.5t42.5 -112.5t14 -158.5q0 -77 -11.5 -138t-30 -102.5t-49.5 -71.5t-62 -46.5t-77 -26t-85 -12t-94 -2.5h-492v743h-211zM610 326h62q19 0 28.5 1.5t22 8t17.5 22t5 41.5t-5.5 42t-17 22.5t-22 8 t-28.5 1.5h-62v-147z" />
<glyph unicode="&#x44b;" horiz-adv-x="1556" d="M102 0v1085h390v-276h102q53 0 94 -3t85.5 -13.5t76.5 -28.5t63 -49t49.5 -73.5t30 -104t11.5 -138.5t-11.5 -138t-30 -102.5t-49.5 -71.5t-62.5 -46.5t-77.5 -26t-85 -12t-94 -2.5h-492zM492 326h61q19 0 29 1.5t22 8t17.5 22t5.5 41.5t-5.5 42t-17.5 22.5t-22.5 8 t-28.5 1.5h-61v-147zM1065 0v1085h389v-1085h-389z" />
<glyph unicode="&#x44c;" horiz-adv-x="1085" d="M102 0v1085h390v-276h102q53 0 94 -3t85.5 -13.5t76.5 -28.5t63 -49t49.5 -73.5t30 -104t11.5 -138.5t-11.5 -138t-30 -102.5t-49.5 -71.5t-62.5 -46.5t-77.5 -26t-85 -12t-94 -2.5h-492zM492 326h61q19 0 29 1.5t22 8t17.5 22t5.5 41.5t-5.5 42t-17.5 22.5t-22.5 8 t-28.5 1.5h-61v-147z" />
<glyph unicode="&#x44d;" horiz-adv-x="1130" d="M82 86l137 336q74 -33 124.5 -44t113.5 -11q90 0 133.5 18.5t58.5 60.5h-297v205h295q-16 40 -59 58t-131 18q-63 0 -113.5 -11t-124.5 -44l-137 336q54 32 91.5 49.5t118 34t183.5 16.5q303 0 438.5 -134t135.5 -427t-135 -428t-437 -135q-137 0 -224.5 25.5 t-170.5 76.5z" />
<glyph unicode="&#x44e;" horiz-adv-x="1789" d="M102 0v1085h390v-354h106q41 193 176 283t371 90q286 0 424.5 -134t138.5 -429t-138.5 -429.5t-424.5 -134.5q-247 0 -384 99.5t-169 314.5h-100v-391h-390zM971 541q0 -46 9.5 -78.5t24 -51t38.5 -28.5t46.5 -13t55.5 -3t55.5 3t46.5 13t38.5 28.5t24 51t9.5 78.5 t-9.5 78.5t-24 51t-38.5 28.5t-46.5 13t-55.5 3t-55.5 -3t-46.5 -13t-38.5 -28.5t-24 -51t-9.5 -78.5z" />
<glyph unicode="&#x44f;" horiz-adv-x="1105" d="M102 0v156q0 99 66 180l92 104q-10 4 -30 11.5t-29.5 12t-26 14t-24.5 20t-19 28.5t-16 41t-9 55.5t-4 73.5q0 75 12 134t31 99.5t50.5 69.5t63.5 45.5t77.5 26t84 12t91.5 2.5h492v-1085h-390v385l-20 -61q-33 -96 -92 -179l-107 -145h-293zM479 686q0 -26 5.5 -42 t17.5 -22.5t22.5 -8t28.5 -1.5h74v148h-74q-18 0 -28.5 -1.5t-22.5 -8t-17.5 -22.5t-5.5 -42z" />
<glyph unicode="&#x450;" horiz-adv-x="1208" d="M82 541q0 292 132.5 427.5t389.5 135.5t389.5 -135.5t132.5 -427.5q-90 -50 -177 -65t-212 -15h-250q2 -27 11.5 -45.5t22.5 -28t35 -14.5t41 -6t48 0q103 2 176.5 11.5t167.5 35.5l115 -353q-222 -84 -465 -84q-282 0 -419.5 134.5t-137.5 429.5zM340 1288l125 264 l401 -254l-61 -131zM489 625h230q2 33 -5.5 55.5t-16.5 33t-29.5 16t-28 5.5h-27.5q-31 0 -50.5 -3t-40 -13t-28.5 -33.5t-4 -60.5z" />
<glyph unicode="&#x451;" horiz-adv-x="1208" d="M82 541q0 292 132.5 427.5t389.5 135.5t389.5 -135.5t132.5 -427.5q-90 -50 -177 -65t-212 -15h-250q2 -27 11.5 -45.5t22.5 -28t35 -14.5t41 -6t48 0q103 2 176.5 11.5t167.5 35.5l115 -353q-222 -84 -465 -84q-282 0 -419.5 134.5t-137.5 429.5zM207 1350 q0 60 13.5 98.5t41.5 57t57.5 24.5t73.5 6t74 -6t58 -24.5t41.5 -57t13.5 -98.5q0 -48 -10 -83t-25.5 -55t-41 -31t-50.5 -14.5t-60 -3.5q-44 0 -73.5 6t-57.5 24.5t-41.5 57.5t-13.5 99zM489 625h230q2 33 -5.5 55.5t-16.5 33t-29.5 16t-28 5.5h-27.5q-31 0 -50.5 -3 t-40 -13t-28.5 -33.5t-4 -60.5zM631 1350q0 60 13.5 98.5t41.5 57t57.5 24.5t73.5 6t74 -6t58 -24.5t41.5 -57t13.5 -98.5q0 -48 -10 -83t-25.5 -55t-41 -31t-50.5 -14.5t-60 -3.5q-44 0 -73.5 6t-57.5 24.5t-41.5 57.5t-13.5 99z" />
<glyph unicode="&#x452;" horiz-adv-x="1323" d="M31 885v356h211v215h415v-211h349v-356h-349v-96h150q104 0 183 -22.5t142.5 -74.5t96.5 -145.5t33 -226.5q0 -114 -27.5 -215t-59.5 -163.5t-94.5 -129.5t-92 -91.5t-92.5 -71.5q-18 -14 -26 -20l-229 240q168 211 209 281q31 50 39 83.5t8 77.5q0 89 -21 121.5 t-85 32.5h-134v-469h-415v885h-211z" />
<glyph unicode="&#x453;" horiz-adv-x="880" d="M102 0v1085h758v-348h-368v-737h-390zM332 1298l401 254l125 -264l-465 -121z" />
<glyph unicode="&#x454;" horiz-adv-x="1130" d="M82 547q0 293 135 427t438 134q103 0 184 -16.5t119 -34t91 -49.5l-138 -336q-74 33 -124 44t-113 11q-88 0 -132 -18.5t-59 -57.5h295v-205h-297q15 -42 58.5 -60.5t134.5 -18.5q63 0 113 11t124 44l138 -336q-82 -51 -170.5 -76.5t-225.5 -25.5q-302 0 -436.5 135 t-134.5 428z" />
<glyph unicode="&#x455;" horiz-adv-x="1105" d="M82 68l129 313q1 0 74 -18t139 -28.5t129 -10.5q65 0 65 20q0 10 -7 20.5t-13 12.5q-36 9 -85 19.5t-79 17t-69.5 17t-63 19.5t-52.5 23.5t-46 31t-34.5 39.5t-26.5 51t-15 65t-6 81q0 104 28.5 175.5t85.5 112.5t134 59t184 18q140 0 274 -25t185 -55l-109 -313 q-61 27 -192.5 43t-175.5 6q-10 -2 -17 -7t-8.5 -9t-1.5 -7q0 -7 7.5 -14.5t14.5 -9.5q31 -7 84.5 -18.5t80.5 -18t70.5 -18t66 -21t55 -25.5t49 -32.5t36.5 -41t29.5 -53t16 -66t6.5 -81.5q0 -101 -30 -172t-89 -111.5t-136.5 -58.5t-182.5 -18q-149 0 -299.5 29.5 t-204.5 58.5z" />
<glyph unicode="&#x456;" horiz-adv-x="593" d="M102 0v1004l43 18q148 63 316 63h31v-1085h-390zM102 1321q0 61 15 101t43.5 60t60.5 27t76 7t76 -7t60.5 -27t43.5 -60t15 -101t-15 -101t-43.5 -60t-60.5 -27t-76 -7t-76 7t-60.5 27t-43.5 60t-15 101z" />
<glyph unicode="&#x457;" horiz-adv-x="593" d="M-100 1350q0 60 13.5 98.5t41.5 57t57.5 24.5t73.5 6t73.5 -6t57.5 -24.5t41.5 -57t13.5 -98.5t-13.5 -99t-41.5 -57.5t-57.5 -24.5t-73.5 -6t-73.5 6t-57.5 24.5t-41.5 57.5t-13.5 99zM102 0v1004l43 18q148 63 316 63h31v-1085h-390zM324 1350q0 60 13.5 98.5t41.5 57 t57.5 24.5t73.5 6t73.5 -6t57.5 -24.5t41.5 -57t13.5 -98.5t-13.5 -99t-41.5 -57.5t-57.5 -24.5t-73.5 -6t-73.5 6t-57.5 24.5t-41.5 57.5t-13.5 99z" />
<glyph unicode="&#x458;" horiz-adv-x="782" d="M0 -395l137 336q47 -23 86 -23q42 0 56 20t14 93v973l43 18q148 63 315 63h31v-1054q0 -147 -24.5 -245.5t-78 -154.5t-125.5 -79t-178 -23q-78 0 -138.5 16t-137.5 60zM293 1321q0 61 14.5 101t43.5 60t60.5 27t75.5 7t76 -7t60.5 -27t43.5 -60t15 -101t-15 -101 t-43.5 -60t-60.5 -27t-76 -7t-75.5 7t-60.5 27t-43.5 60t-14.5 101z" />
<glyph unicode="&#x459;" horiz-adv-x="1744" d="M10 39l107 291q38 -17 67 -17q28 0 37 14t12 70l41 627l33 14q107 47 238 47h606v-276h102q53 0 94 -3t85.5 -13.5t76.5 -28.5t63 -49t49.5 -73.5t30 -104t11.5 -138.5t-11.5 -138t-30 -102.5t-49.5 -71.5t-62.5 -46.5t-77.5 -26t-85 -12t-94 -2.5h-491v764h-113 l-31 -406q-8 -108 -39 -182.5t-82.5 -115.5t-113.5 -58.5t-143 -17.5q-132 0 -230 55zM1151 326h61q19 0 29 1.5t22 8t17.5 22t5.5 41.5t-5.5 42t-17.5 22.5t-22.5 8t-28.5 1.5h-61v-147z" />
<glyph unicode="&#x45a;" horiz-adv-x="1726" d="M102 0v1085h390v-354h251v354h390v-276h102q53 0 94 -3t85.5 -13.5t76.5 -28.5t63 -49t49.5 -73.5t30 -104t11.5 -138.5t-11.5 -138t-30 -102.5t-49.5 -71.5t-62.5 -46.5t-77.5 -26t-85 -12t-94 -2.5h-492v391h-251v-391h-390zM1133 326h61q19 0 29 1.5t22 8t17.5 22 t5.5 41.5t-5.5 42t-17.5 22.5t-22.5 8t-28.5 1.5h-61v-147z" />
<glyph unicode="&#x45b;" d="M20 944v318h195v274h389v-274h428v-318h-428v-166q74 39 189 39q63 0 99.5 -1.5t88.5 -9.5t81.5 -23.5t64 -45t52.5 -73t30 -108t12 -148.5v-408h-387v362q0 31 -1 45t-6.5 33.5t-17 27t-33.5 13.5t-55 6q-29 0 -49.5 -3t-33 -12t-20 -17t-10.5 -25.5t-3.5 -29.5 t-0.5 -38v-362h-389v944h-195z" />
<glyph unicode="&#x45c;" horiz-adv-x="1241" d="M102 0v1085h390v-356h40l220 356h469l-377 -542l377 -543h-473l-216 358h-40v-358h-390zM430 1298l401 254l125 -264l-464 -121z" />
<glyph unicode="&#x45d;" horiz-adv-x="1261" d="M102 0v1085h390v-161q0 -101 -17 -244l-14 -135l385 540h313v-1085h-389v162q0 132 16 244l15 131l-385 -537h-314zM367 1288l125 264l401 -254l-62 -131z" />
<glyph unicode="&#x45e;" horiz-adv-x="1142" d="M20 1059v26h322l133 -284q88 -190 94 -391h4q6 199 95 391l133 284h321v-26q0 -200 -86 -391l-342 -740q-23 -49 -35.5 -75t-33.5 -66t-35 -61t-36 -50.5t-41.5 -44.5t-46 -33.5t-54.5 -26.5t-63 -14t-75 -6q-123 0 -223 56l107 291q25 -11 67 -17q33 -3 48 8.5t36 65.5 l62 158l-262 555q-89 191 -89 391zM201 1276l100 246q1 0 38 -17.5t52 -23t49.5 -17t66 -16t64.5 -4.5q28 0 57 4.5t50.5 9.5t49.5 15.5t41.5 16t40 17.5t32.5 15l100 -246l-18 -10q-18 -11 -25.5 -15t-28.5 -15t-36.5 -17t-40 -15.5t-48 -14.5t-51.5 -11t-59.5 -8.5 t-63.5 -2.5t-63.5 2.5t-59.5 8.5t-51.5 11t-47.5 14.5t-40 15.5t-36.5 17t-28.5 15.5t-25 14t-18 10.5z" />
<glyph unicode="&#x45f;" horiz-adv-x="1179" d="M102 0v1087h373v-747h230v747h372v-1087h-299v-354h-372v354h-304z" />
<glyph unicode="&#x474;" d="M20 1366v88h381l127 -440q59 -199 88 -400l39 -241l37 241q27 189 90 400l133 440h367v-90q0 -204 -70 -397l-350 -967h-413l-357 969q-72 191 -72 397z" />
<glyph unicode="&#x475;" horiz-adv-x="1150" d="M20 1059v26h365l100 -315q49 -151 72 -317l18 -146l19 146q23 166 72 317l100 315h364v-26q0 -166 -67 -314l-297 -745h-381l-297 745q-68 150 -68 314z" />
<glyph unicode="&#x476;" d="M20 1366v88h381l127 -440q59 -199 88 -400l39 -241l37 241q27 189 90 400l133 440h367v-90q0 -204 -70 -397l-350 -967h-413l-357 969q-72 191 -72 397zM102 1657l125 264l402 -254l-62 -131zM659 1657l125 264l402 -254l-62 -131z" />
<glyph unicode="&#x477;" horiz-adv-x="1150" d="M20 1059v26h365l100 -315q49 -151 72 -317l18 -146l19 146q23 166 72 317l100 315h364v-26q0 -166 -67 -314l-297 -745h-381l-297 745q-68 150 -68 314zM23 1288l124 264l402 -254l-62 -131zM580 1288l125 264l401 -254l-62 -131z" />
<glyph unicode="&#x48a;" horiz-adv-x="1478" d="M102 0v1454h451v-246q0 -156 -21 -325l-20 -181l514 752h350v-1038h180l-182 -871h-266v455h-182v246q0 164 20 325l21 174l-514 -745h-351zM369 1645l100 245q1 0 38 -17.5t52 -23t49.5 -17t66 -16t64.5 -4.5q28 0 57 4.5t50.5 9.5t49.5 15.5t41.5 16t40 17.5t32.5 15 l100 -245l-18 -11q-18 -10 -25.5 -14t-28.5 -15t-36.5 -17t-40 -15.5t-48 -14.5t-51.5 -11t-59.5 -8.5t-63.5 -2.5t-63.5 2.5t-59.5 8.5t-51.5 11t-47.5 14.5t-40 15.5t-36.5 17t-28.5 15.5t-25 14t-18 10.5z" />
<glyph unicode="&#x48b;" horiz-adv-x="1261" d="M102 0v1085h390v-161q0 -101 -17 -244l-14 -135l385 540h313l2 -669h180l-182 -871h-266v455h-123v162q0 132 16 244l15 131l-385 -537h-314zM260 1276l100 246q6 -3 32.5 -15t40 -17.5t41.5 -16t49.5 -15.5t50.5 -9.5t57 -4.5q33 0 64.5 4.5t66 16t49.5 17t52 23 t38 17.5l100 -246q-1 -1 -18 -10.5t-25 -14t-28.5 -15.5t-36.5 -17t-40 -15.5t-47.5 -14.5t-51.5 -11t-59.5 -8.5t-63.5 -2.5t-63.5 2.5t-59.5 8.5t-51.5 11t-48 14.5t-40 15.5t-36.5 17t-28.5 15t-25.5 15z" />
<glyph unicode="&#x490;" horiz-adv-x="1103" d="M102 0v1454h580l35 289h366v-709h-530v-1034h-451z" />
<glyph unicode="&#x491;" horiz-adv-x="880" d="M102 0v1085h410l61 308h287v-656h-368v-737h-390z" />
<glyph unicode="&#x492;" horiz-adv-x="1103" d="M-82 559v334h184v561h981v-420h-530v-141h217v-334h-217v-559h-451v559h-184z" />
<glyph unicode="&#x493;" horiz-adv-x="880" d="M-82 281v333h184v471h758v-348h-368v-123h213v-333h-213v-281h-390v281h-184z" />
<glyph unicode="&#x496;" horiz-adv-x="2068" d="M20 0l345 725l-345 729h480l241 -512h68v512h451v-512h67l242 512h479l-344 -729l147 -311v2h301l-81 -705h-367v289h-135l-242 512h-67v-512h-451v512h-68l-241 -512h-480z" />
<glyph unicode="&#x497;" horiz-adv-x="1888" d="M20 0l377 543l-377 542h469l220 -356h41v356h389v-356h41l219 356h469l-377 -542l88 -127h383l-82 -705h-367v289h-118l-215 358h-41v-358h-389v358h-41l-215 -358h-474z" />
<glyph unicode="&#x49a;" horiz-adv-x="1402" d="M102 0v1454h451v-512h109l241 512h479l-344 -729l146 -309h301l-82 -705h-367v289h-133l-241 512h-109v-512h-451z" />
<glyph unicode="&#x49b;" horiz-adv-x="1241" d="M102 0v1085h390v-356h40l220 356h469l-377 -542l88 -127h383l-82 -705h-367v289h-118l-216 358h-40v-358h-390z" />
<glyph unicode="&#x4a0;" horiz-adv-x="1402" d="M-41 1120v334h594v-512h109l241 512h479l-344 -729l344 -725h-479l-241 512h-109v-512h-451v1120h-143z" />
<glyph unicode="&#x4a1;" horiz-adv-x="1241" d="M-43 752v333h535v-356h40l220 356h469l-377 -542l377 -543h-473l-216 358h-40v-358h-390v754z" />
<glyph unicode="&#x4a2;" horiz-adv-x="1490" d="M102 0v1454h451v-512h385v512h451v-1038h180l-82 -705h-367v289h-182v512h-385v-512h-451z" />
<glyph unicode="&#x4a3;" horiz-adv-x="1234" d="M102 0v1085h390v-354h251v354h390l2 -669h180l-82 -705h-367v289h-123v391h-251v-391h-390z" />
<glyph unicode="&#x4a4;" horiz-adv-x="1490" d="M102 0v1454h451v-512h385v512h594v-334h-143v-1120h-451v512h-385v-512h-451z" />
<glyph unicode="&#x4a5;" horiz-adv-x="1234" d="M102 0v1085h390v-354h251v354h535v-333h-143l-2 2v-754h-390v391h-251v-391h-390z" />
<glyph unicode="&#x4aa;" horiz-adv-x="1345" d="M82 729q0 389 178.5 569.5t530.5 180.5q151 0 277 -44.5t196 -91.5l-156 -382q-73 33 -170.5 52t-159.5 19q-44 -1 -73 -4.5t-60 -14t-50 -31t-35 -53.5t-23 -82.5t-7 -117.5q0 -67 7 -116.5t23 -82.5t35 -53.5t49.5 -31.5t60.5 -14.5t73 -4.5q61 0 158.5 19.5 t171.5 52.5l188 -459q-21 -14 -82 -34t-185 -66t-267 -113q-52 -24 -67 -40t-15 -52q0 -41 15 -56.5t67 -15.5q40 0 94 21l55 -134q-64 -41 -157 -41q-122 0 -176 54t-54 172q0 33 5.5 59.5t12.5 46.5t24.5 37.5t31.5 29t43.5 25t50.5 22t62 23.5v3q-165 4 -288.5 49 t-210 135t-130 231t-43.5 334z" />
<glyph unicode="&#x4ab;" horiz-adv-x="1130" d="M82 547q0 293 135 427t438 134q103 0 184 -16.5t119 -34t91 -49.5l-138 -336q-74 33 -124 44t-113 11q-68 0 -108.5 -9.5t-61.5 -34.5t-27 -54.5t-6 -81.5t6 -81.5t27 -54.5t61.5 -34.5t108.5 -9.5q63 0 113 11t124 44l162 -387q-32 -19 -149 -75.5t-260 -133.5 q-54 -29 -68 -43t-14 -49q0 -41 15 -56.5t67 -15.5q40 0 94 21l55 -134q-64 -41 -158 -41q-122 0 -175.5 54t-53.5 172q0 39 5.5 68t20.5 52t29.5 38t46.5 31.5t55.5 26t71.5 27.5l19 7h-21q-302 0 -436.5 135t-134.5 428z" />
<glyph unicode="&#x4ac;" horiz-adv-x="1142" d="M20 1024v430h1102v-430h-325v-608h180l-82 -705h-367v289h-182v1024h-326z" />
<glyph unicode="&#x4ad;" horiz-adv-x="1021" d="M20 737v348h981v-348h-296v-321h180l-82 -705h-367v289h-121v737h-295z" />
<glyph unicode="&#x4ae;" horiz-adv-x="1257" d="M20 1376v78h367l80 -180q76 -170 127 -387l35 -170l35 170q50 209 127 387l77 180h369v-80q0 -30 -2.5 -57t-11 -59t-12.5 -48t-21 -54.5t-20 -46.5t-26.5 -56t-25.5 -52l-264 -548v-453h-451v453l-264 551q-4 9 -28.5 60t-30.5 64t-22.5 54.5t-21.5 64.5t-10.5 58.5 t-5.5 70.5z" />
<glyph unicode="&#x4af;" horiz-adv-x="1196" d="M20 1008v77h336l80 -180q76 -170 127 -387l35 -170l35 170q50 209 127 387l78 180h338v-79q0 -30 -2.5 -57t-11 -59t-12.5 -48t-21 -54.5t-20 -46.5t-26.5 -56t-25.5 -52l-264 -549v-541h-390v541l-264 551q-6 14 -25 52.5t-26 54t-21 48.5t-20 53t-13.5 49.5t-10.5 57.5 t-3 58z" />
<glyph unicode="&#x4b0;" horiz-adv-x="1257" d="M20 1376v78h367l80 -180q76 -170 127 -387l35 -170l35 170q50 209 127 387l77 180h369v-80q0 -30 -2.5 -57t-11 -59t-12.5 -48t-21 -54.5t-20 -46.5t-26.5 -56t-25.5 -52l-264 -548h305v-252h-305v-201h-451v201h-305v252h305l-264 551q-4 9 -28.5 60t-30.5 64 t-22.5 54.5t-21.5 64.5t-10.5 58.5t-5.5 70.5z" />
<glyph unicode="&#x4b1;" horiz-adv-x="1196" d="M20 1008v77h336l80 -180q76 -170 127 -387l35 -170l35 170q50 209 127 387l78 180h338v-79q0 -30 -2.5 -57t-11 -59t-12.5 -48t-21 -54.5t-20 -46.5t-26.5 -56t-25.5 -52l-264 -549v-2h331v-252h-331v-287h-390v287h-340v252h340v2l-264 551q-6 14 -25 52.5t-26 54 t-21 48.5t-20 53t-13.5 49.5t-10.5 57.5t-3 58z" />
<glyph unicode="&#x4b2;" horiz-adv-x="1216" d="M20 0v68q0 203 107 378l172 281l-172 281q-107 175 -107 378v68h398l117 -274q39 -88 57 -195l16 -100l17 100q18 107 57 195l117 274h397v-68q0 -205 -106 -378l-172 -281l172 -281l18 -30h248l-82 -705h-367v289h-108l-117 274q-39 88 -57 195l-17 100l-16 -100 q-18 -107 -57 -195l-117 -274h-398z" />
<glyph unicode="&#x4b3;" horiz-adv-x="1110" d="M20 0v59q0 156 93 277l180 244l-131 172q-49 64 -70.5 129t-21.5 147v57h327l11 -18q49 -93 100 -225l47 -137l47 137q41 112 100 225l11 18h325v-57q0 -82 -21.5 -147t-70.5 -129l-129 -172q180 -246 182 -246h193l-82 -623h-248v289h-96l-68 84q-96 119 -129 270 l-14 64l-14 -66q-36 -150 -131 -270l-68 -82h-322z" />
<glyph unicode="&#x4b6;" horiz-adv-x="1392" d="M61 952v502h451v-502q0 -34 7 -56t22 -31.5t29 -12t36 -2.5q54 0 127.5 8.5t106.5 18.5v577h450v-1038h180l-81 -705h-367v289h-182v481q-98 -41 -308 -41q-44 0 -76 1.5t-74 7.5t-72.5 16t-66 29t-60.5 45t-49.5 65t-39.5 88t-24 115t-9 145z" />
<glyph unicode="&#x4b7;" horiz-adv-x="1249" d="M61 819v266h390v-258q0 -49 5 -77.5t22.5 -52.5t53 -34t93.5 -10h43q22 0 38 6t25.5 19.5t15.5 26t8 36.5t2.5 38.5t0.5 43.5v11v251h389v-669h180l-82 -705h-366v289h-121v309q-57 -25 -97.5 -33t-105.5 -8q-142 0 -235.5 29.5t-152 97t-82.5 169.5t-24 255z" />
<glyph unicode="&#x4ba;" horiz-adv-x="1392" d="M82 0v1454h450v-481q98 41 308 41q44 0 76 -1.5t74 -7.5t72.5 -16t66 -29t60.5 -45t49.5 -65t39.5 -88t24 -115t9 -145v-502h-451v502q0 34 -7 56t-22 31.5t-29 12t-36 2.5q-54 0 -127.5 -8t-106.5 -18v-578h-450z" />
<glyph unicode="&#x4bb;" horiz-adv-x="1249" d="M82 0v1454l43 19q148 63 315 63h31v-760q57 25 97.5 33t105.5 8q142 0 235.5 -29.5t151.5 -97t82 -169.5t24 -255v-266h-389v258q0 49 -5 77.5t-22.5 52.5t-53 34t-93.5 10h-43q-26 0 -44 -10t-27 -23t-13.5 -39.5t-5 -44t-0.5 -52.5v-11v-252h-389z" />
<glyph unicode="&#x4c0;" horiz-adv-x="733" d="M61 0v430h80v594h-80v430h611v-430h-80v-594h80v-430h-611z" />
<glyph unicode="&#x4c1;" horiz-adv-x="2068" d="M20 0l345 725l-345 729h480l241 -512h68v512h451v-512h67l242 512h479l-344 -729l344 -725h-479l-242 512h-67v-512h-451v512h-68l-241 -512h-480zM664 1645l100 245q1 0 38 -17.5t52 -23t49.5 -17t66 -16t64.5 -4.5q28 0 57 4.5t50.5 9.5t49.5 15.5t41.5 16t40 17.5 t32.5 15l100 -245l-18 -11q-18 -10 -25.5 -14t-28.5 -15t-36.5 -17t-40 -15.5t-48 -14.5t-51.5 -11t-59.5 -8.5t-63.5 -2.5t-63.5 2.5t-59.5 8.5t-51.5 11t-47.5 14.5t-40 15.5t-36.5 17t-28.5 15.5t-25 14t-18 10.5z" />
<glyph unicode="&#x4c2;" horiz-adv-x="1888" d="M20 0l377 543l-377 542h469l220 -356h41v356h389v-356h41l219 356h469l-377 -542l377 -543h-473l-215 358h-41v-358h-389v358h-41l-215 -358h-474zM573 1276l101 246q1 0 38 -17.5t52 -23t49.5 -17t66 -16t64.5 -4.5t64.5 4.5t66 16t49.5 17t52 23t38 17.5l101 -246 l-18 -10q-18 -11 -25.5 -15t-28.5 -15t-36.5 -17t-40 -15.5t-48 -14.5t-51.5 -11t-59.5 -8.5t-63.5 -2.5t-63.5 2.5t-59.5 8.5t-51.5 11t-48 14.5t-40 15.5t-36.5 17t-28.5 15t-25.5 15z" />
<glyph unicode="&#x4c5;" horiz-adv-x="1499" d="M10 53l137 336q45 -22 86 -22t53.5 18.5t16.5 93.5l62 893l43 19q148 63 315 63h674v-1038h180l-182 -871h-267v455h-182v1024h-151l-41 -545q-11 -145 -47 -244.5t-97.5 -155t-139 -79t-183.5 -23.5q-78 0 -139 16t-138 60z" />
<glyph unicode="&#x4c6;" horiz-adv-x="1228" d="M2 39l107 291q38 -17 67 -17q28 0 37 14t12 70l41 627l33 14q107 47 238 47h606l2 -669h180l-182 -871h-266v455h-123v764h-113l-31 -406q-8 -108 -39 -182.5t-83 -115.5t-114 -58.5t-143 -17.5q-131 0 -229 55z" />
<glyph unicode="&#x4c9;" horiz-adv-x="1490" d="M102 0v1454h451v-512h385v512h451v-1038h180l-183 -871h-266v455h-182v512h-385v-512h-451z" />
<glyph unicode="&#x4ca;" horiz-adv-x="1234" d="M102 0v1085h390v-354h251v354h390l2 -669h180l-182 -871h-267v455h-123v391h-251v-391h-390z" />
<glyph unicode="&#x4cb;" horiz-adv-x="1392" d="M61 952v502h451v-502q0 -34 7 -56t22 -31.5t29 -12t36 -2.5q54 0 127.5 8.5t106.5 18.5v577h450v-1454h-180v-289h-367l-81 551h178v219q-98 -41 -308 -41q-44 0 -76 1.5t-74 7.5t-72.5 16t-66 29t-60.5 45t-49.5 65t-39.5 88t-24 115t-9 145z" />
<glyph unicode="&#x4cc;" horiz-adv-x="1249" d="M61 819v266h390v-258q0 -49 5 -77.5t22.5 -52.5t53 -34t93.5 -10h43q22 0 38 6t25.5 19.5t15.5 26t8 36.5t2.5 38.5t0.5 43.5v11v251h389v-1085h-119v-289h-366l-82 439h178v159q-57 -25 -97.5 -33t-105.5 -8q-142 0 -235.5 29.5t-152 97t-82.5 169.5t-24 255z" />
<glyph unicode="&#x4cd;" horiz-adv-x="1961" d="M102 0v1454h476l264 -532q93 -191 121 -387l18 -119l18 119q28 196 121 387l264 532h476v-1038h180l-182 -871h-267v455h-182v225q0 197 37 406l24 127h-8l-317 -758h-328l-317 758h-8l24 -127q37 -209 37 -406v-225h-451z" />
<glyph unicode="&#x4ce;" horiz-adv-x="1624" d="M102 0v1085h449l158 -313q65 -128 90 -289l14 -90l12 90q22 144 93 289l155 313h449v-669h180l-182 -871h-267v455h-120v168q0 157 28 305l19 94h-6l-238 -567h-246l-239 567h-7l19 -94q29 -154 29 -305v-168h-390z" />
<glyph unicode="&#x4d0;" d="M20 0v88q0 206 72 397l357 969h413l350 -967q70 -193 70 -397v-90h-367l-61 205h-393l-60 -205h-381zM281 1645l100 245q1 0 38 -17.5t52 -23t49.5 -17t66 -16t64.5 -4.5q28 0 57 4.5t50.5 9.5t49.5 15.5t41.5 16t40 17.5t32.5 15l100 -245l-18 -11q-18 -10 -25.5 -14 t-28.5 -15t-36.5 -17t-40 -15.5t-48 -14.5t-51.5 -11t-59.5 -8.5t-63.5 -2.5t-63.5 2.5t-59.5 8.5t-51.5 11t-47.5 14.5t-40 15.5t-36.5 17t-28.5 15.5t-25 14t-18 10.5zM580 635h149q-25 116 -37 205l-37 241l-39 -241q-14 -102 -36 -205z" />
<glyph unicode="&#x4d1;" horiz-adv-x="1234" d="M104 289q-10 186 74 259t299 73h250q-2 27 -11.5 45.5t-22.5 28t-35 14.5t-41 6t-48 0q-101 -2 -154.5 -9t-148.5 -34l-114 352q60 23 102 36t133 28.5t188 15.5q282 0 420 -134.5t138 -428.5v-541h-195l-141 92q-42 -60 -101 -87.5t-104 -27.5q-271 0 -374.5 64.5 t-113.5 247.5zM246 1276l100 246q1 0 38 -17.5t52 -23t49.5 -17t66 -16t64.5 -4.5q28 0 57 4.5t50.5 9.5t49.5 15.5t41.5 16t40 17.5t32.5 15l100 -246l-18 -10q-18 -11 -25.5 -15t-28.5 -15t-36.5 -17t-40 -15.5t-48 -14.5t-51.5 -11t-59.5 -8.5t-63.5 -2.5t-63.5 2.5 t-59.5 8.5t-51.5 11t-47.5 14.5t-40 15.5t-36.5 17t-28.5 15.5t-25 14t-18 10.5zM502 319q0 -28 10 -41.5t45 -13.5h45q31 0 50.5 3t40 13t28.5 34t4 61h-168q-35 0 -45 -14t-10 -42z" />
<glyph unicode="&#x4d2;" d="M20 0v88q0 206 72 397l357 969h413l350 -967q70 -193 70 -397v-90h-367l-61 205h-393l-60 -205h-381zM252 1718q0 60 13.5 99t41.5 57.5t57.5 24.5t73.5 6q35 0 60 -3.5t50.5 -14.5t41 -31t25.5 -55t10 -83q0 -60 -13.5 -98.5t-41.5 -57t-58 -24.5t-74 -6t-73.5 6 t-57.5 24.5t-41.5 57t-13.5 98.5zM580 635h149q-25 116 -37 205l-37 241l-39 -241q-14 -102 -36 -205zM676 1718q0 60 13.5 99t41.5 57.5t57.5 24.5t73.5 6q35 0 60 -3.5t50.5 -14.5t41 -31t25.5 -55t10 -83q0 -60 -13.5 -98.5t-41.5 -57t-58 -24.5t-74 -6t-73.5 6 t-57.5 24.5t-41.5 57t-13.5 98.5z" />
<glyph unicode="&#x4d3;" horiz-adv-x="1234" d="M104 289q-10 186 74 259t299 73h250q-2 27 -11.5 45.5t-22.5 28t-35 14.5t-41 6t-48 0q-101 -2 -154.5 -9t-148.5 -34l-114 352q60 23 102 36t133 28.5t188 15.5q282 0 420 -134.5t138 -428.5v-541h-195l-141 92q-42 -60 -101 -87.5t-104 -27.5q-271 0 -374.5 64.5 t-113.5 247.5zM219 1350q0 60 13.5 98.5t41.5 57t58 24.5t74 6t73.5 -6t57.5 -24.5t41.5 -57t13.5 -98.5t-13.5 -99t-41.5 -57.5t-57.5 -24.5t-73.5 -6q-35 0 -60 3.5t-50.5 14.5t-41 31t-25.5 55t-10 83zM502 319q0 -28 10 -41.5t45 -13.5h45q31 0 50.5 3t40 13t28.5 34 t4 61h-168q-35 0 -45 -14t-10 -42zM643 1350q0 60 13.5 98.5t41.5 57t57.5 24.5t73.5 6t74 -6t58 -24.5t41.5 -57t13.5 -98.5q0 -48 -10 -83t-25.5 -55t-41 -31t-50.5 -14.5t-60 -3.5q-44 0 -73.5 6t-57.5 24.5t-41.5 57.5t-13.5 99z" />
<glyph unicode="&#x4d4;" horiz-adv-x="1640" d="M20 0v88q0 206 72 397l357 969h1110v-420h-449v-102h408v-410h-408v-102h449v-420h-900v205h-198l-60 -205h-381zM580 635h79v420l-4 26l-39 -241q-14 -102 -36 -205z" />
<glyph unicode="&#x4d5;" horiz-adv-x="1832" d="M84 289q-10 186 74 259t299 73h250q-2 27 -11.5 45.5t-22.5 28t-35 14.5t-41 6t-48 0q-103 -2 -176.5 -11.5t-167.5 -35.5l-115 352q222 84 465 84q219 0 350 -80q122 80 324 80q257 0 389.5 -135.5t132.5 -427.5q-90 -50 -177 -65t-212 -15h-250q2 -27 11.5 -45.5 t22.5 -28t35 -14.5t41 -6t48 0q103 2 176.5 11.5t167.5 35.5l115 -353q-222 -84 -465 -84q-109 0 -209 23h-137l-142 92q-42 -60 -101 -87.5t-104 -27.5q-271 0 -374 64.5t-113 247.5zM481 319q0 -28 10.5 -41.5t45.5 -13.5h45q31 0 50.5 3t40 13t28.5 34t4 61h-168 q-35 0 -45.5 -14t-10.5 -42zM1114 625h229q2 24 -2 42.5t-8.5 30t-16.5 19t-18 11.5t-22.5 5.5t-19.5 1.5h-19q-31 0 -50.5 -3t-40 -13t-28.5 -33.5t-4 -60.5z" />
<glyph unicode="&#x4d6;" horiz-adv-x="1206" d="M123 0v1454h981v-420h-531v-102h490v-410h-490v-102h531v-420h-981zM231 1645l101 245q1 0 38 -17.5t52 -23t49.5 -17t66 -16t64.5 -4.5t64.5 4.5t66 16t49.5 17t52 23t38 17.5l101 -245l-18 -11q-18 -10 -25.5 -14t-28.5 -15t-36.5 -17t-40 -15.5t-48 -14.5t-51.5 -11 t-59.5 -8.5t-63.5 -2.5t-63.5 2.5t-59.5 8.5t-51.5 11t-48 14.5t-40 15.5t-36.5 17t-28.5 15t-25.5 14z" />
<glyph unicode="&#x4d7;" horiz-adv-x="1208" d="M82 541q0 292 132.5 427.5t389.5 135.5t389.5 -135.5t132.5 -427.5q-90 -50 -177 -65t-212 -15h-250q2 -27 11.5 -45.5t22.5 -28t35 -14.5t41 -6t48 0q103 2 176.5 11.5t167.5 35.5l115 -353q-222 -84 -465 -84q-282 0 -419.5 134.5t-137.5 429.5zM233 1276l101 246 q1 0 38 -17.5t52 -23t49.5 -17t66 -16t64.5 -4.5t64.5 4.5t66 16t49.5 17t52 23t38 17.5l101 -246l-18 -10q-18 -11 -25.5 -15t-28.5 -15t-36.5 -17t-40 -15.5t-48 -14.5t-51.5 -11t-59.5 -8.5t-63.5 -2.5t-63.5 2.5t-59.5 8.5t-51.5 11t-48 14.5t-40 15.5t-36.5 17 t-28.5 15t-25.5 15zM489 625h230q2 33 -5.5 55.5t-16.5 33t-29.5 16t-28 5.5h-27.5q-31 0 -50.5 -3t-40 -13t-28.5 -33.5t-4 -60.5z" />
<glyph unicode="&#x4d8;" horiz-adv-x="1579" d="M82 719q0 54 39 92.5t93.5 55t115.5 16.5h704q-23 91 -79.5 120t-163.5 29q-72 0 -206.5 -20t-205.5 -51l-156 382q62 41 233.5 88.5t321.5 47.5q360 0 539.5 -179t179.5 -569q0 -389 -177.5 -569t-528.5 -180q-348 0 -527 177t-182 560zM543 586q9 -41 25.5 -69.5 t36.5 -45.5t50.5 -26t61 -12t74.5 -3q43 0 72.5 3t60 12t50.5 26t36.5 45.5t25.5 69.5h-493z" />
<glyph unicode="&#x4d9;" horiz-adv-x="1208" d="M82 541q90 50 177 65t212 15h250q-2 27 -11.5 45.5t-22.5 28t-35 14.5t-41 6t-48 0q-103 -2 -176.5 -11.5t-167.5 -35.5l-115 352q222 84 465 84q282 0 419.5 -134.5t137.5 -428.5q0 -292 -132.5 -428t-389.5 -136t-389.5 136t-132.5 428zM489 457q-2 -33 5.5 -55.5 t16.5 -33t29 -16t28.5 -6t27.5 -0.5q31 0 50.5 3t40 13t28.5 34t4 61h-230z" />
<glyph unicode="&#x4da;" horiz-adv-x="1579" d="M82 719q0 54 39 92.5t93.5 55t115.5 16.5h704q-23 91 -79.5 120t-163.5 29q-72 0 -206.5 -20t-205.5 -51l-156 382q62 41 233.5 88.5t321.5 47.5q360 0 539.5 -179t179.5 -569q0 -389 -177.5 -569t-528.5 -180q-348 0 -527 177t-182 560zM391 1718q0 48 10 83t25.5 55 t41 31t50.5 14.5t60 3.5q44 0 73.5 -6t57.5 -24.5t41.5 -57.5t13.5 -99t-13.5 -98.5t-41.5 -57t-57.5 -24.5t-73.5 -6t-74 6t-58 24.5t-41.5 57t-13.5 98.5zM543 586q9 -41 25.5 -69.5t36.5 -45.5t50.5 -26t61 -12t74.5 -3q43 0 72.5 3t60 12t50.5 26t36.5 45.5t25.5 69.5 h-493zM815 1718q0 60 13.5 99t41.5 57.5t57.5 24.5t73.5 6q35 0 60 -3.5t50.5 -14.5t41 -31t25.5 -55t10 -83q0 -60 -13.5 -98.5t-41.5 -57t-58 -24.5t-74 -6t-73.5 6t-57.5 24.5t-41.5 57t-13.5 98.5z" />
<glyph unicode="&#x4db;" horiz-adv-x="1208" d="M82 541q90 50 177 65t212 15h250q-2 27 -11.5 45.5t-22.5 28t-35 14.5t-41 6t-48 0q-103 -2 -176.5 -11.5t-167.5 -35.5l-115 352q222 84 465 84q282 0 419.5 -134.5t137.5 -428.5q0 -292 -132.5 -428t-389.5 -136t-389.5 136t-132.5 428zM205 1350q0 60 13.5 98.5 t41.5 57t57.5 24.5t73.5 6t74 -6t58 -24.5t41.5 -57t13.5 -98.5q0 -48 -10 -83t-25.5 -55t-41 -31t-50.5 -14.5t-60 -3.5q-44 0 -73.5 6t-57.5 24.5t-41.5 57.5t-13.5 99zM489 457q-2 -33 5.5 -55.5t16.5 -33t29 -16t28.5 -6t27.5 -0.5q31 0 50.5 3t40 13t28.5 34t4 61h-230 zM629 1350q0 60 13.5 98.5t41.5 57t57.5 24.5t73.5 6t73.5 -6t57.5 -24.5t41.5 -57t13.5 -98.5t-13.5 -99t-41.5 -57.5t-57.5 -24.5t-73.5 -6t-73.5 6t-57.5 24.5t-41.5 57.5t-13.5 99z" />
<glyph unicode="&#x4dc;" horiz-adv-x="2068" d="M20 0l345 725l-345 729h480l241 -512h68v512h451v-512h67l242 512h479l-344 -729l344 -725h-479l-242 512h-67v-512h-451v512h-68l-241 -512h-480zM635 1718q0 60 13.5 99t41.5 57.5t57.5 24.5t73.5 6q35 0 60 -3.5t50.5 -14.5t41 -31t25.5 -55t10 -83q0 -60 -13.5 -98.5 t-41.5 -57t-58 -24.5t-74 -6t-73.5 6t-57.5 24.5t-41.5 57t-13.5 98.5zM1059 1718q0 60 13.5 99t41.5 57.5t57.5 24.5t73.5 6q35 0 60 -3.5t50.5 -14.5t41 -31t25.5 -55t10 -83q0 -60 -13.5 -98.5t-41.5 -57t-58 -24.5t-74 -6t-73.5 6t-57.5 24.5t-41.5 57t-13.5 98.5z" />
<glyph unicode="&#x4dd;" horiz-adv-x="1888" d="M20 0l377 543l-377 542h469l220 -356h41v356h389v-356h41l219 356h469l-377 -542l377 -543h-473l-215 358h-41v-358h-389v358h-41l-215 -358h-474zM545 1350q0 60 13.5 98.5t41.5 57t57.5 24.5t73.5 6t74 -6t58 -24.5t41.5 -57t13.5 -98.5q0 -48 -10 -83t-25.5 -55 t-41 -31t-50.5 -14.5t-60 -3.5q-44 0 -73.5 6t-57.5 24.5t-41.5 57.5t-13.5 99zM969 1350q0 60 13.5 98.5t41.5 57t57.5 24.5t73.5 6t73.5 -6t57.5 -24.5t41.5 -57t13.5 -98.5t-13.5 -99t-41.5 -57.5t-57.5 -24.5t-73.5 -6t-73.5 6t-57.5 24.5t-41.5 57.5t-13.5 99z" />
<glyph unicode="&#x4de;" horiz-adv-x="1288" d="M82 96l156 383q71 -31 205 -51t206 -20q49 0 64.5 12.5t15.5 34.5q0 18 -2 26.5t-10.5 19t-29.5 15t-56 4.5h-146v422l146 2q58 1 78 13.5t20 37.5q0 20 -11.5 33.5t-45.5 18.5q-73 12 -205 -7.5t-209 -54.5l-135 383q70 43 217.5 77t327.5 34q273 0 395.5 -101.5 t122.5 -347.5q0 -64 -9 -108.5t-34 -85t-75 -63.5t-126 -30v-8q65 -5 113 -24t76.5 -46.5t45.5 -68t23 -81.5t6 -93q0 -243 -127.5 -345t-400.5 -102q-194 0 -360.5 39.5t-235.5 81.5zM246 1718q0 60 13.5 99t41.5 57.5t57.5 24.5t73.5 6t73.5 -6t57.5 -24.5t41.5 -57.5 t13.5 -99t-13.5 -98.5t-41.5 -57t-57.5 -24.5t-73.5 -6t-73.5 6t-57.5 24.5t-41.5 57t-13.5 98.5zM670 1718q0 60 13.5 99t41.5 57.5t57.5 24.5t73.5 6t73.5 -6t57.5 -24.5t41.5 -57.5t13.5 -99t-13.5 -98.5t-41.5 -57t-57.5 -24.5t-73.5 -6t-73.5 6t-57.5 24.5t-41.5 57 t-13.5 98.5z" />
<glyph unicode="&#x4df;" horiz-adv-x="1064" d="M61 68l146 340q3 -1 74.5 -19t138 -28.5t129.5 -10.5q65 0 65 21q0 28 -16 40.5t-72 12.5h-159l2 246h159q88 0 88 41q0 20 -26 26q-47 10 -177.5 -5.5t-191.5 -43.5l-127 338q50 30 184.5 55t268.5 25q102 0 179.5 -17.5t137 -55.5t90.5 -103.5t31 -157.5 q0 -94 -43 -144t-164 -77q126 -34 176 -91t50 -155q0 -88 -33.5 -152.5t-95.5 -101.5t-140.5 -54t-177.5 -17q-141 0 -292 29.5t-204 58.5zM133 1350q0 60 13.5 98.5t41.5 57t57.5 24.5t73.5 6t74 -6t58 -24.5t41.5 -57t13.5 -98.5q0 -48 -10 -83t-25.5 -55t-41 -31 t-50.5 -14.5t-60 -3.5q-44 0 -73.5 6t-57.5 24.5t-41.5 57.5t-13.5 99zM557 1350q0 60 13.5 98.5t41.5 57t57.5 24.5t73.5 6t74 -6t58 -24.5t41.5 -57t13.5 -98.5q0 -48 -10 -83t-25.5 -55t-41 -31t-50.5 -14.5t-60 -3.5q-44 0 -73.5 6t-57.5 24.5t-41.5 57.5t-13.5 99z" />
<glyph unicode="&#x4e2;" horiz-adv-x="1478" d="M102 0v1454h451v-246q0 -156 -21 -325l-20 -181l514 752h350v-1454h-450v246q0 164 20 325l21 174l-514 -745h-351zM330 1618v205h819v-205h-819z" />
<glyph unicode="&#x4e3;" horiz-adv-x="1261" d="M102 0v1085h390v-161q0 -101 -17 -244l-14 -135l385 540h313v-1085h-389v162q0 132 16 244l15 131l-385 -537h-314zM221 1249v205h819v-205h-819z" />
<glyph unicode="&#x4e4;" horiz-adv-x="1478" d="M102 0v1454h451v-246q0 -156 -21 -325l-20 -181l514 752h350v-1454h-450v246q0 164 20 325l21 174l-514 -745h-351zM340 1718q0 60 13.5 99t41.5 57.5t57.5 24.5t73.5 6q35 0 60 -3.5t50.5 -14.5t41 -31t25.5 -55t10 -83q0 -60 -13.5 -98.5t-41.5 -57t-58 -24.5t-74 -6 t-73.5 6t-57.5 24.5t-41.5 57t-13.5 98.5zM764 1718q0 60 13.5 99t41.5 57.5t57.5 24.5t73.5 6q35 0 60 -3.5t50.5 -14.5t41 -31t25.5 -55t10 -83q0 -60 -13.5 -98.5t-41.5 -57t-58 -24.5t-74 -6t-73.5 6t-57.5 24.5t-41.5 57t-13.5 98.5z" />
<glyph unicode="&#x4e5;" horiz-adv-x="1261" d="M102 0v1085h390v-161q0 -101 -17 -244l-14 -135l385 540h313v-1085h-389v162q0 132 16 244l15 131l-385 -537h-314zM231 1350q0 60 13.5 98.5t41.5 57t58 24.5t74 6t73.5 -6t57.5 -24.5t41.5 -57t13.5 -98.5t-13.5 -99t-41.5 -57.5t-57.5 -24.5t-73.5 -6q-35 0 -60 3.5 t-50.5 14.5t-41 31t-25.5 55t-10 83zM655 1350q0 60 13.5 98.5t41.5 57t58 24.5t74 6t73.5 -6t57.5 -24.5t41.5 -57t13.5 -98.5t-13.5 -99t-41.5 -57.5t-57.5 -24.5t-73.5 -6q-35 0 -60 3.5t-50.5 14.5t-41 31t-25.5 55t-10 83z" />
<glyph unicode="&#x4e6;" horiz-adv-x="1662" d="M92 729q0 389 179 569.5t530 180.5t528.5 -180.5t177.5 -569.5t-177.5 -569t-528.5 -180t-530 180t-179 569zM432 1718q0 60 13.5 99t41.5 57.5t57.5 24.5t73.5 6q35 0 60 -3.5t50.5 -14.5t41 -31t25.5 -55t10 -83q0 -60 -13.5 -98.5t-41.5 -57t-58 -24.5t-74 -6t-73.5 6 t-57.5 24.5t-41.5 57t-13.5 98.5zM541 729q0 -80 11.5 -135.5t31 -88t54.5 -50t71 -22.5t92 -5q46 0 77.5 3.5t63.5 14t52 31t36 53.5t23.5 82.5t7.5 116.5q0 68 -7 117.5t-24 82.5t-36.5 53.5t-52 30.5t-63.5 13.5t-77 3.5q-47 0 -78 -3.5t-63.5 -13.5t-52 -30.5t-36 -53.5 t-23.5 -82.5t-7 -117.5zM856 1718q0 60 13.5 99t41.5 57.5t57.5 24.5t73.5 6q35 0 60 -3.5t50.5 -14.5t41 -31t25.5 -55t10 -83q0 -60 -13.5 -98.5t-41.5 -57t-58 -24.5t-74 -6t-73.5 6t-57.5 24.5t-41.5 57t-13.5 98.5z" />
<glyph unicode="&#x4e7;" horiz-adv-x="1290" d="M82 541q0 295 138.5 429t424.5 134t424.5 -134t138.5 -429t-138.5 -429.5t-424.5 -134.5t-424.5 134.5t-138.5 429.5zM246 1350q0 60 13.5 98.5t41.5 57t57.5 24.5t73.5 6t73.5 -6t57.5 -24.5t41.5 -57t13.5 -98.5t-13.5 -99t-41.5 -57.5t-57.5 -24.5t-73.5 -6t-73.5 6 t-57.5 24.5t-41.5 57.5t-13.5 99zM471 541q0 -46 9.5 -78.5t24 -51t38.5 -28.5t46.5 -13t55.5 -3t55.5 3t46.5 13t38.5 28.5t24 51t9.5 78.5t-9.5 78.5t-24 51t-38.5 28.5t-46.5 13t-55.5 3t-55.5 -3t-46.5 -13t-38.5 -28.5t-24 -51t-9.5 -78.5zM670 1350q0 60 13.5 98.5 t41.5 57t57.5 24.5t73.5 6t73.5 -6t57.5 -24.5t41.5 -57t13.5 -98.5t-13.5 -99t-41.5 -57.5t-57.5 -24.5t-73.5 -6t-73.5 6t-57.5 24.5t-41.5 57.5t-13.5 99z" />
<glyph unicode="&#x4e8;" horiz-adv-x="1579" d="M82 729q0 389 179 569.5t530 180.5t528.5 -180.5t177.5 -569.5t-177.5 -569t-528.5 -180t-530 180t-179 569zM547 893h485q-24 85 -80 111t-161 26q-107 0 -163.5 -26.5t-80.5 -110.5zM549 559q13 -43 34.5 -70t54.5 -40t67 -17t86 -4q40 0 68 2.5t57.5 10t49.5 21.5 t37 38.5t27 58.5h-481z" />
<glyph unicode="&#x4e9;" horiz-adv-x="1290" d="M82 541q0 295 138.5 429t424.5 134t424.5 -134t138.5 -429t-138.5 -429.5t-424.5 -134.5t-424.5 134.5t-138.5 429.5zM481 457q17 -55 57 -72.5t107 -17.5t107 17.5t57 72.5h-328zM481 627h326q-17 53 -56.5 70.5t-105.5 17.5q-32 0 -54.5 -3t-45.5 -11.5t-39 -27 t-25 -46.5z" />
<glyph unicode="&#x4ea;" horiz-adv-x="1579" d="M82 729q0 389 179 569.5t530 180.5t528.5 -180.5t177.5 -569.5t-177.5 -569t-528.5 -180t-530 180t-179 569zM391 1718q0 48 10 83t25.5 55t41 31t50.5 14.5t60 3.5q44 0 73.5 -6t57.5 -24.5t41.5 -57.5t13.5 -99t-13.5 -98.5t-41.5 -57t-57.5 -24.5t-73.5 -6t-74 6 t-58 24.5t-41.5 57t-13.5 98.5zM547 893h485q-24 85 -80 111t-161 26q-107 0 -163.5 -26.5t-80.5 -110.5zM549 559q13 -43 34.5 -70t54.5 -40t67 -17t86 -4q40 0 68 2.5t57.5 10t49.5 21.5t37 38.5t27 58.5h-481zM815 1718q0 60 13.5 99t41.5 57.5t57.5 24.5t73.5 6 q35 0 60 -3.5t50.5 -14.5t41 -31t25.5 -55t10 -83q0 -60 -13.5 -98.5t-41.5 -57t-58 -24.5t-74 -6t-73.5 6t-57.5 24.5t-41.5 57t-13.5 98.5z" />
<glyph unicode="&#x4eb;" horiz-adv-x="1290" d="M82 541q0 295 138.5 429t424.5 134t424.5 -134t138.5 -429t-138.5 -429.5t-424.5 -134.5t-424.5 134.5t-138.5 429.5zM246 1350q0 60 13.5 98.5t41.5 57t57.5 24.5t73.5 6t73.5 -6t57.5 -24.5t41.5 -57t13.5 -98.5t-13.5 -99t-41.5 -57.5t-57.5 -24.5t-73.5 -6t-73.5 6 t-57.5 24.5t-41.5 57.5t-13.5 99zM481 457q17 -55 57 -72.5t107 -17.5t107 17.5t57 72.5h-328zM481 627h326q-17 53 -56.5 70.5t-105.5 17.5q-32 0 -54.5 -3t-45.5 -11.5t-39 -27t-25 -46.5zM670 1350q0 60 13.5 98.5t41.5 57t57.5 24.5t73.5 6t73.5 -6t57.5 -24.5t41.5 -57 t13.5 -98.5t-13.5 -99t-41.5 -57.5t-57.5 -24.5t-73.5 -6t-73.5 6t-57.5 24.5t-41.5 57.5t-13.5 99z" />
<glyph unicode="&#x4ec;" horiz-adv-x="1386" d="M102 115l156 383q74 -33 171.5 -52.5t158.5 -19.5q86 0 137 19t78 77h-340v410h342q-27 59 -78 78.5t-139 21.5q-62 0 -159.5 -19t-170.5 -52l-156 382q70 47 196 91.5t277 44.5q352 0 530.5 -180.5t178.5 -569.5t-178 -569t-531 -180q-146 0 -273.5 43.5t-199.5 91.5z M295 1718q0 60 13.5 99t41.5 57.5t57.5 24.5t73.5 6q35 0 60 -3.5t50.5 -14.5t41 -31t25.5 -55t10 -83q0 -60 -13.5 -98.5t-41.5 -57t-58 -24.5t-74 -6t-73.5 6t-57.5 24.5t-41.5 57t-13.5 98.5zM719 1718q0 60 13.5 99t41.5 57.5t57.5 24.5t73.5 6q35 0 60 -3.5t50.5 -14.5 t41 -31t25.5 -55t10 -83q0 -60 -13.5 -98.5t-41.5 -57t-58 -24.5t-74 -6t-73.5 6t-57.5 24.5t-41.5 57t-13.5 98.5z" />
<glyph unicode="&#x4ed;" horiz-adv-x="1130" d="M82 86l137 336q74 -33 124.5 -44t113.5 -11q90 0 133.5 18.5t58.5 60.5h-297v205h295q-16 40 -59 58t-131 18q-63 0 -113.5 -11t-124.5 -44l-137 336q54 32 91.5 49.5t118 34t183.5 16.5q303 0 438.5 -134t135.5 -427t-135 -428t-437 -135q-137 0 -224.5 25.5 t-170.5 76.5zM166 1350q0 60 13.5 98.5t41.5 57t57.5 24.5t73.5 6t74 -6t58 -24.5t41.5 -57t13.5 -98.5q0 -48 -10 -83t-25.5 -55t-41 -31t-50.5 -14.5t-60 -3.5q-44 0 -73.5 6t-57.5 24.5t-41.5 57.5t-13.5 99zM590 1350q0 60 13.5 98.5t41.5 57t57.5 24.5t73.5 6t74 -6 t58 -24.5t41.5 -57t13.5 -98.5q0 -48 -10 -83t-25.5 -55t-41 -31t-50.5 -14.5t-60 -3.5q-44 0 -73.5 6t-57.5 24.5t-41.5 57.5t-13.5 99z" />
<glyph unicode="&#x4ee;" horiz-adv-x="1245" d="M20 1386v68h357l119 -194q107 -175 133 -377l20 -162l17 162q17 202 102 391l80 180h377v-53q0 -99 -21 -187t-65 -204l-211 -561q-52 -140 -107.5 -233t-120 -145.5t-132 -73t-156.5 -20.5q-112 0 -215.5 28.5t-173.5 74.5l141 385q115 -52 237 -55q24 0 33 2.5 t9.5 14.5t-13.5 38l-303 543q-107 175 -107 378zM213 1618v205h819v-205h-819z" />
<glyph unicode="&#x4ef;" horiz-adv-x="1142" d="M20 1059v26h322l133 -284q88 -190 94 -391h4q6 199 95 391l133 284h321v-26q0 -200 -86 -391l-342 -740q-23 -49 -35.5 -75t-33.5 -66t-35 -61t-36 -50.5t-41.5 -44.5t-46 -33.5t-54.5 -26.5t-63 -14t-75 -6q-123 0 -223 56l107 291q25 -11 67 -17q33 -3 48 8.5t36 65.5 l62 158l-262 555q-89 191 -89 391zM162 1249v205h819v-205h-819z" />
<glyph unicode="&#x4f0;" horiz-adv-x="1245" d="M20 1386v68h357l119 -194q107 -175 133 -377l20 -162l17 162q17 202 102 391l80 180h377v-53q0 -99 -21 -187t-65 -204l-211 -561q-52 -140 -107.5 -233t-120 -145.5t-132 -73t-156.5 -20.5q-112 0 -215.5 28.5t-173.5 74.5l141 385q115 -52 237 -55q24 0 33 2.5 t9.5 14.5t-13.5 38l-303 543q-107 175 -107 378zM223 1718q0 48 10 83t25.5 55t41 31t50.5 14.5t60 3.5q44 0 73.5 -6t57.5 -24.5t41.5 -57.5t13.5 -99t-13.5 -98.5t-41.5 -57t-57.5 -24.5t-73.5 -6t-74 6t-58 24.5t-41.5 57t-13.5 98.5zM647 1718q0 48 10 83t25.5 55t41 31 t50.5 14.5t60 3.5q44 0 73.5 -6t57.5 -24.5t41.5 -57.5t13.5 -99t-13.5 -98.5t-41.5 -57t-57.5 -24.5t-73.5 -6t-74 6t-58 24.5t-41.5 57t-13.5 98.5z" />
<glyph unicode="&#x4f1;" horiz-adv-x="1142" d="M20 1059v26h322l133 -284q88 -190 94 -391h4q6 199 95 391l133 284h321v-26q0 -200 -86 -391l-342 -740q-23 -49 -35.5 -75t-33.5 -66t-35 -61t-36 -50.5t-41.5 -44.5t-46 -33.5t-54.5 -26.5t-63 -14t-75 -6q-123 0 -223 56l107 291q25 -11 67 -17q33 -3 48 8.5t36 65.5 l62 158l-262 555q-89 191 -89 391zM172 1350q0 60 13.5 98.5t41.5 57t57.5 24.5t73.5 6t74 -6t58 -24.5t41.5 -57t13.5 -98.5q0 -48 -10 -83t-25.5 -55t-41 -31t-50.5 -14.5t-60 -3.5q-44 0 -73.5 6t-57.5 24.5t-41.5 57.5t-13.5 99zM596 1350q0 60 13.5 98.5t41.5 57 t57.5 24.5t73.5 6t74 -6t58 -24.5t41.5 -57t13.5 -98.5q0 -48 -10 -83t-25.5 -55t-41 -31t-50.5 -14.5t-60 -3.5q-44 0 -73.5 6t-57.5 24.5t-41.5 57.5t-13.5 99z" />
<glyph unicode="&#x4f2;" horiz-adv-x="1245" d="M20 1386v68h357l119 -194q107 -175 133 -377l20 -162l17 162q17 202 102 391l80 180h377v-53q0 -99 -21 -187t-65 -204l-211 -561q-52 -140 -107.5 -233t-120 -145.5t-132 -73t-156.5 -20.5q-112 0 -215.5 28.5t-173.5 74.5l141 385q115 -52 237 -55q24 0 33 2.5 t9.5 14.5t-13.5 38l-303 543q-107 175 -107 378zM82 1667l401 254l125 -264l-465 -121zM639 1667l401 254l125 -264l-465 -121z" />
<glyph unicode="&#x4f3;" horiz-adv-x="1142" d="M20 1059v26h322l133 -284q88 -190 94 -391h4q6 199 95 391l133 284h321v-26q0 -200 -86 -391l-342 -740q-23 -49 -35.5 -75t-33.5 -66t-35 -61t-36 -50.5t-41.5 -44.5t-46 -33.5t-54.5 -26.5t-63 -14t-75 -6q-123 0 -223 56l107 291q25 -11 67 -17q33 -3 48 8.5t36 65.5 l62 158l-262 555q-89 191 -89 391zM31 1298l401 254l125 -264l-465 -121zM588 1298l401 254l125 -264l-465 -121z" />
<glyph unicode="&#x4f4;" horiz-adv-x="1392" d="M61 952v502h451v-502q0 -34 7 -56t22 -31.5t29 -12t36 -2.5q54 0 127.5 8.5t106.5 18.5v577h450v-1454h-450v481q-98 -41 -308 -41q-44 0 -76 1.5t-74 7.5t-72.5 16t-66 29t-60.5 45t-49.5 65t-39.5 88t-24 115t-9 145zM297 1718q0 60 13.5 99t41.5 57.5t57.5 24.5 t73.5 6q35 0 60 -3.5t50.5 -14.5t41 -31t25.5 -55t10 -83q0 -60 -13.5 -98.5t-41.5 -57t-58 -24.5t-74 -6t-73.5 6t-57.5 24.5t-41.5 57t-13.5 98.5zM721 1718q0 60 13.5 99t41.5 57.5t57.5 24.5t73.5 6q35 0 60 -3.5t50.5 -14.5t41 -31t25.5 -55t10 -83q0 -60 -13.5 -98.5 t-41.5 -57t-58 -24.5t-74 -6t-73.5 6t-57.5 24.5t-41.5 57t-13.5 98.5z" />
<glyph unicode="&#x4f5;" horiz-adv-x="1249" d="M61 819v266h390v-258q0 -49 5 -77.5t22.5 -52.5t53 -34t93.5 -10h43q22 0 38 6t25.5 19.5t15.5 26t8 36.5t2.5 38.5t0.5 43.5v11v251h389v-1085h-389v309q-57 -25 -97.5 -33t-105.5 -8q-142 0 -235.5 29.5t-152 97t-82.5 169.5t-24 255zM225 1350q0 60 13.5 98.5t41.5 57 t58 24.5t74 6t73.5 -6t57.5 -24.5t41.5 -57t13.5 -98.5t-13.5 -99t-41.5 -57.5t-57.5 -24.5t-73.5 -6q-35 0 -60 3.5t-50.5 14.5t-41 31t-25.5 55t-10 83zM649 1350q0 60 13.5 98.5t41.5 57t58 24.5t74 6t73.5 -6t57.5 -24.5t41.5 -57t13.5 -98.5t-13.5 -99t-41.5 -57.5 t-57.5 -24.5t-73.5 -6q-35 0 -60 3.5t-50.5 14.5t-41 31t-25.5 55t-10 83z" />
<glyph unicode="&#x4f8;" horiz-adv-x="1923" d="M102 0v1454h451v-440h209q48 0 81 -1.5t77.5 -6.5t75.5 -15t68 -28.5t62 -44.5t50 -64.5t40 -88t24 -116.5t9 -147q0 -102 -15 -181.5t-37.5 -132t-63 -89t-76 -56t-93 -29.5t-97.5 -12t-105 -2h-660zM553 399h143q26 0 41 2.5t31 12t23.5 31.5t7.5 57t-7.5 57t-23.5 31 t-31 11.5t-41 2.5h-143v-205zM563 1718q0 48 10 83t25.5 55t41 31t50.5 14.5t60 3.5q44 0 73.5 -6t57.5 -24.5t41.5 -57.5t13.5 -99t-13.5 -98.5t-41.5 -57t-57.5 -24.5t-73.5 -6t-74 6t-58 24.5t-41.5 57t-13.5 98.5zM987 1718q0 48 10 83t25.5 55t41 31t50.5 14.5t60 3.5 q44 0 73.5 -6t57.5 -24.5t41.5 -57.5t13.5 -99t-13.5 -98.5t-41.5 -57t-57.5 -24.5t-73.5 -6t-74 6t-58 24.5t-41.5 57t-13.5 98.5zM1370 0v1454h451v-1454h-451z" />
<glyph unicode="&#x4f9;" horiz-adv-x="1556" d="M102 0v1085h390v-276h102q53 0 94 -3t85.5 -13.5t76.5 -28.5t63 -49t49.5 -73.5t30 -104t11.5 -138.5t-11.5 -138t-30 -102.5t-49.5 -71.5t-62.5 -46.5t-77.5 -26t-85 -12t-94 -2.5h-492zM379 1350q0 60 13.5 98.5t41.5 57t57.5 24.5t73.5 6t74 -6t58 -24.5t41.5 -57 t13.5 -98.5q0 -48 -10 -83t-25.5 -55t-41 -31t-50.5 -14.5t-60 -3.5q-44 0 -73.5 6t-57.5 24.5t-41.5 57.5t-13.5 99zM492 326h61q19 0 29 1.5t22 8t17.5 22t5.5 41.5t-5.5 42t-17.5 22.5t-22.5 8t-28.5 1.5h-61v-147zM803 1350q0 60 13.5 98.5t41.5 57t57.5 24.5t73.5 6 t74 -6t58 -24.5t41.5 -57t13.5 -98.5q0 -48 -10 -83t-25.5 -55t-41 -31t-50.5 -14.5t-60 -3.5q-44 0 -73.5 6t-57.5 24.5t-41.5 57.5t-13.5 99zM1065 0v1085h389v-1085h-389z" />
<glyph unicode="&#x2000;" horiz-adv-x="960" />
<glyph unicode="&#x2001;" horiz-adv-x="1921" />
<glyph unicode="&#x2002;" horiz-adv-x="960" />
<glyph unicode="&#x2003;" horiz-adv-x="1921" />
<glyph unicode="&#x2004;" horiz-adv-x="640" />
<glyph unicode="&#x2005;" horiz-adv-x="480" />
<glyph unicode="&#x2006;" horiz-adv-x="320" />
<glyph unicode="&#x2007;" horiz-adv-x="320" />
<glyph unicode="&#x2008;" horiz-adv-x="240" />
<glyph unicode="&#x2009;" horiz-adv-x="384" />
<glyph unicode="&#x200a;" horiz-adv-x="106" />
<glyph unicode="&#x2010;" horiz-adv-x="735" d="M102 559v334h531v-334h-531z" />
<glyph unicode="&#x2011;" horiz-adv-x="735" d="M102 559v334h531v-334h-531z" />
<glyph unicode="&#x2012;" horiz-adv-x="735" d="M102 559v334h531v-334h-531z" />
<glyph unicode="&#x2013;" horiz-adv-x="1265" d="M102 559v334h1061v-334h-1061z" />
<glyph unicode="&#x2014;" horiz-adv-x="1265" d="M102 559v334h1061v-334h-1061z" />
<glyph unicode="&#x2018;" horiz-adv-x="641" d="M109 1038q0 204 127 340q125 123 315 178l88 -272l-61 -22q-16 -6 -49.5 -22t-55 -23t-35.5 -3l-22 7l-10 -9q67 -15 103 -61t36 -139q0 -62 -17 -104.5t-49.5 -64t-69 -30t-85.5 -8.5q-113 0 -164 50t-51 183z" />
<glyph unicode="&#x2019;" horiz-adv-x="641" d="M8 1077l62 23q16 6 49.5 21.5t54.5 22.5t35 3l22 -6l11 8q-67 15 -103.5 61.5t-36.5 139.5q0 50 12 87.5t31.5 59.5t49 35.5t60 18.5t69.5 5q113 0 164 -50t51 -183q0 -204 -127 -340q-125 -122 -316 -178z" />
<glyph unicode="&#x201a;" horiz-adv-x="641" d="M8 -63l62 22q16 6 49.5 21.5t54.5 22.5t35 3l22 -6l11 8q-67 15 -103.5 61.5t-36.5 139.5q0 62 17.5 104.5t50 64t69 30t85.5 8.5q113 0 164 -50.5t51 -183.5q0 -204 -127 -340q-125 -122 -316 -178z" />
<glyph unicode="&#x201c;" horiz-adv-x="1171" d="M109 1038q0 204 127 340q125 123 315 178l88 -272l-61 -22q-16 -6 -49.5 -22t-55 -23t-35.5 -3l-22 7l-10 -9q67 -15 103 -61t36 -139q0 -62 -17 -104.5t-49.5 -64t-69 -30t-85.5 -8.5q-113 0 -164 50t-51 183zM641 1038q0 204 127 340q125 123 315 178l88 -272l-61 -22 q-17 -6 -50 -22t-54 -23t-35 -3l-23 7l-10 -9q67 -15 103 -61t36 -139q0 -62 -17 -104.5t-49.5 -64t-69 -30t-85.5 -8.5q-113 0 -164 50t-51 183z" />
<glyph unicode="&#x201d;" horiz-adv-x="1167" d="M8 1077l62 23q16 6 49.5 21.5t54.5 22.5t35 3l22 -6l11 8q-67 15 -103.5 61.5t-36.5 139.5q0 50 12 87.5t31.5 59.5t49 35.5t60 18.5t69.5 5q113 0 164 -50t51 -183q0 -204 -127 -340q-125 -122 -316 -178zM537 1077l61 23q16 6 49.5 21.5t54.5 22.5t35 3l23 -6l10 8 q-67 15 -103 61.5t-36 139.5q0 62 17 104.5t49.5 63.5t69 29.5t85.5 8.5q113 0 164 -50t51 -183q0 -204 -127 -340q-125 -123 -315 -178z" />
<glyph unicode="&#x201e;" horiz-adv-x="1181" d="M8 -63l62 22q16 6 49.5 21.5t54.5 22.5t35 3l22 -6l11 8q-67 15 -103.5 61.5t-36.5 139.5q0 62 17.5 104.5t50 64t69 30t85.5 8.5q113 0 164 -50.5t51 -183.5q0 -204 -127 -340q-125 -122 -316 -178zM545 -63l61 22q16 6 49.5 21.5t54.5 22.5t35 3l23 -6l10 8 q-67 15 -103 61.5t-36 139.5q0 62 17 104.5t49.5 64t69 30t85.5 8.5q113 0 164 -50.5t51 -183.5q0 -204 -127 -340q-125 -123 -315 -178z" />
<glyph unicode="&#x2026;" horiz-adv-x="1923" d="M102 199q0 53 11.5 92.5t30.5 63t48.5 37.5t60 19t69.5 5t69.5 -5t59 -19t47 -37.5t30 -63t11.5 -92.5q0 -66 -16 -110.5t-47.5 -67.5t-68 -32t-85.5 -9t-86 9t-69 32t-48.5 67.5t-16.5 110.5zM743 199q0 53 11.5 92.5t30.5 63t48.5 37.5t60 19t69.5 5t69.5 -5t59 -19 t47 -37.5t30 -63t11.5 -92.5q0 -66 -16 -110.5t-47.5 -67.5t-68 -32t-85.5 -9t-86 9t-69 32t-48.5 67.5t-16.5 110.5zM1384 199q0 53 11.5 92.5t30.5 63t48.5 37.5t60 19t69.5 5t69.5 -5t59 -19t47 -37.5t30 -63t11.5 -92.5q0 -66 -16 -110.5t-47.5 -67.5t-68 -32t-85.5 -9 t-86 9t-69 32t-48.5 67.5t-16.5 110.5z" />
<glyph unicode="&#x202f;" horiz-adv-x="384" />
<glyph unicode="&#x2039;" horiz-adv-x="704" d="M61 571l226 385l336 -194l-115 -197l102 -192l-344 -183z" />
<glyph unicode="&#x203a;" horiz-adv-x="704" d="M82 762l336 194l225 -385l-205 -381l-344 183l103 192z" />
<glyph unicode="&#x205f;" horiz-adv-x="480" />
<glyph unicode="&#x20ac;" horiz-adv-x="1585" d="M20 539l41 123h242q-2 23 -2 67v62h-205l41 122h174q40 292 216 429t483 137q151 0 277 -44.5t196 -91.5l-156 -382q-73 33 -170.5 52t-159.5 19q-96 -2 -147.5 -24.5t-77.5 -94.5h406l-41 -122h-385q-2 -20 -2 -62q0 -13 1 -35.5t1 -31.5h342l-41 -123h-277 q26 -68 77.5 -90.5t143.5 -22.5q61 0 158.5 19.5t171.5 52.5l156 -383q-72 -48 -199.5 -91.5t-273.5 -43.5q-306 0 -481.5 135t-215.5 424h-293z" />
<glyph unicode="&#x2122;" horiz-adv-x="1665" d="M61 1321v215h551v-215h-161v-512h-226v512h-164zM684 809v727h238l133 -266q44 -90 59 -193l10 -59l9 59q15 105 61 193l131 266h238v-727h-226v113q0 91 19 202l12 64h-4l-158 -379h-164l-159 379h-4l12 -64q18 -105 18 -202v-113h-225z" />
<glyph unicode="&#xe000;" horiz-adv-x="1085" d="M0 0v1085h1085v-1085h-1085z" />
</font>
</defs>
</svg>
